<?xml version="1.0" encoding="UTF-8" standalone="no"?>
<!-- Generated by graphviz version 2.22.0 (20090304.0156)
 -->

<!-- Title: _anonymous_0 Pages: 1 -->

<svg
   xmlns:dc="http://purl.org/dc/elements/1.1/"
   xmlns:cc="http://creativecommons.org/ns#"
   xmlns:rdf="http://www.w3.org/1999/02/22-rdf-syntax-ns#"
   xmlns:svg="http://www.w3.org/2000/svg"
   xmlns="http://www.w3.org/2000/svg"
   xmlns:sodipodi="http://sodipodi.sourceforge.net/DTD/sodipodi-0.dtd"
   xmlns:inkscape="http://www.inkscape.org/namespaces/inkscape"
   width="690.64374"
   height="147.5"
   viewBox="0 0 552.51499 118"
   id="svg2"
   version="1.1"
   inkscape:version="0.48.0 r9654"
   sodipodi:docname="algo_F2.svg">
  <metadata
     id="metadata76">
    <rdf:RDF>
      <cc:Work
         rdf:about="">
        <dc:format>image/svg+xml</dc:format>
        <dc:type
           rdf:resource="http://purl.org/dc/dcmitype/StillImage" />
      </cc:Work>
    </rdf:RDF>
  </metadata>
  <defs
     id="defs74">
    <marker
       inkscape:stockid="Arrow2Send"
       orient="auto"
       refY="0"
       refX="0"
       id="Arrow2Send"
       style="overflow:visible">
      <path
         inkscape:connector-curvature="0"
         id="path3838"
         style="font-size:12px;fill-rule:evenodd;stroke-width:0.625;stroke-linejoin:round"
         d="M 8.7185878,4.0337352 -2.2072895,0.01601326 8.7185884,-4.0017078 c -1.7454984,2.3720609 -1.7354408,5.6174519 -6e-7,8.035443 z"
         transform="matrix(-0.3,0,0,-0.3,0.69,0)" />
    </marker>
  </defs>
  <sodipodi:namedview
     pagecolor="#ffffff"
     bordercolor="#666666"
     borderopacity="1"
     objecttolerance="10"
     gridtolerance="10"
     guidetolerance="10"
     inkscape:pageopacity="0"
     inkscape:pageshadow="2"
     inkscape:window-width="2560"
     inkscape:window-height="1573"
     id="namedview72"
     showgrid="false"
     fit-margin-top="0"
     fit-margin-left="0"
     fit-margin-right="0"
     fit-margin-bottom="0"
     inkscape:zoom="1.0964029"
     inkscape:cx="86.192244"
     inkscape:cy="77.021812"
     inkscape:window-x="2560"
     inkscape:window-y="0"
     inkscape:window-maximized="1"
     inkscape:current-layer="svg2" />
  <ellipse
     cx="135"
     cy="-90"
     rx="27"
     ry="18"
     id="ellipse12"
     d="m 162,-90 c 0,9.941125 -12.08831,18 -27,18 -14.91169,0 -27,-8.058875 -27,-18 0,-9.941125 12.08831,-18 27,-18 14.91169,0 27,8.058875 27,18 z"
     sodipodi:cx="135"
     sodipodi:cy="-90"
     sodipodi:rx="27"
     sodipodi:ry="18"
     style="fill:#ffffff;stroke:#000000"
     transform="translate(4.4999999,112.5)" />
  <text
     x="139.5"
     y="25.900002"
     font-size="14.00"
     id="text14"
     style="font-size:14px;text-anchor:middle;font-family:'Times New Roman,serif'">0</text>
  <ellipse
     cx="27"
     cy="-18"
     rx="27"
     ry="18"
     id="ellipse19"
     d="M 54,-18 C 54,-8.0588745 41.911688,0 27,0 12.088312,0 0,-8.0588745 0,-18 c 0,-9.941125 12.088312,-18 27,-18 14.911688,0 27,8.058875 27,18 z"
     sodipodi:cx="27"
     sodipodi:cy="-18"
     sodipodi:rx="27"
     sodipodi:ry="18"
     style="fill:#b3b3b3;stroke:#000000"
     transform="translate(4.4999999,112.5)" />
  <text
     x="31.5"
     y="97.900002"
     font-size="14.00"
     id="text21"
     style="font-size:14px;text-anchor:middle;font-family:'Times New Roman,serif'">1</text>
  <path
     d="M 120.192,35.3722 C 103.1445,46.737 78.0981,63.4346 58.9656,76.1896"
     id="path26"
     inkscape:connector-curvature="0"
     style="fill:none;stroke:#000000" />
  <polygon
     points="52.5201,-39.2199 56.4031,-33.3956 56.4031,-33.3956 46.1411,-30.7607 "
     id="polygon28"
     style="fill:#000000;stroke:#000000"
     transform="translate(4.4999999,112.5)" />
  <ellipse
     cx="99"
     cy="-18"
     rx="27"
     ry="18"
     id="ellipse33"
     d="M 126,-18 C 126,-8.0588745 113.91169,0 99,0 84.088312,0 72,-8.0588745 72,-18 c 0,-9.941125 12.088312,-18 27,-18 14.91169,0 27,8.058875 27,18 z"
     sodipodi:cx="99"
     sodipodi:cy="-18"
     sodipodi:rx="27"
     sodipodi:ry="18"
     style="fill:#b3b3b3;stroke:#000000"
     transform="translate(4.4999999,112.5)" />
  <text
     x="103.5"
     y="97.900002"
     font-size="14.00"
     id="text35"
     style="font-size:14px;text-anchor:middle;font-family:'Times New Roman,serif'">2</text>
  <path
     d="m 130.785,39.9292 c -4.245,8.4901 -9.439,18.8779 -14.151,28.3034"
     id="path40"
     inkscape:connector-curvature="0"
     style="fill:none;stroke:#000000" />
  <polygon
     points="108.976,-45.7782 115.237,-42.6477 115.237,-42.6477 107.634,-35.2687 "
     id="polygon42"
     style="fill:#000000;stroke:#000000"
     transform="translate(4.4999999,112.5)" />
  <ellipse
     cx="171"
     cy="-18"
     rx="27"
     ry="18"
     id="ellipse47"
     d="m 198,-18 c 0,9.9411255 -12.08831,18 -27,18 -14.91169,0 -27,-8.0588745 -27,-18 0,-9.941125 12.08831,-18 27,-18 14.91169,0 27,8.058875 27,18 z"
     sodipodi:cx="171"
     sodipodi:cy="-18"
     sodipodi:rx="27"
     sodipodi:ry="18"
     style="fill:#000000;stroke:#000000"
     transform="translate(4.4999999,112.5)" />
  <text
     x="175.5"
     y="97.900002"
     font-size="14.00"
     id="text49"
     style="font-size:14px;text-anchor:middle;font-family:'Times New Roman,serif';fill:#ffffff">3</text>
  <path
     d="m 148.215,39.9292 c 4.245,8.4901 9.439,18.8779 14.151,28.3034"
     id="path54"
     inkscape:connector-curvature="0"
     style="fill:none;stroke:#000000" />
  <polygon
     points="154.763,-42.6477 161.024,-45.7782 161.024,-45.7782 162.366,-35.2687 "
     id="polygon56"
     style="fill:#000000;stroke:#000000"
     transform="translate(4.4999999,112.5)" />
  <ellipse
     cx="243"
     cy="-18"
     rx="27"
     ry="18"
     id="ellipse61"
     d="m 270,-18 c 0,9.9411255 -12.08831,18 -27,18 -14.91169,0 -27,-8.0588745 -27,-18 0,-9.941125 12.08831,-18 27,-18 14.91169,0 27,8.058875 27,18 z"
     sodipodi:cx="243"
     sodipodi:cy="-18"
     sodipodi:rx="27"
     sodipodi:ry="18"
     style="fill:#000000;stroke:#000000"
     transform="translate(4.4999999,112.5)" />
  <text
     x="247.5"
     y="97.900002"
     font-size="14.00"
     id="text63"
     style="font-size:14px;text-anchor:middle;font-family:'Times New Roman,serif';fill:#ffffff">4</text>
  <path
     d="m 158.808,35.3722 c 17.047,11.3648 42.094,28.0624 61.226,40.8174"
     id="path68"
     inkscape:connector-curvature="0"
     style="fill:none;stroke:#000000" />
  <polygon
     points="213.597,-33.3956 217.48,-39.2199 217.48,-39.2199 223.859,-30.7607 "
     id="polygon70"
     style="fill:#000000;stroke:#000000"
     transform="translate(4.4999999,112.5)" />
  <ellipse
     id="ellipse88"
     ry="18"
     rx="27"
     cy="-90"
     cx="63"
     sodipodi:cx="63"
     sodipodi:cy="-90"
     sodipodi:rx="27"
     sodipodi:ry="18"
     style="fill:#ffffff;stroke:#000000"
     d="m 90,-90 c 0,9.941125 -12.088312,18 -27,18 -14.911688,0 -27,-8.058875 -27,-18 0,-9.941125 12.088312,-18 27,-18 14.911688,0 27,8.058875 27,18 z"
     transform="translate(421.01499,112.5)" />
  <text
     id="text90"
     font-size="14.00"
     y="25.900002"
     x="484.01498"
     style="font-size:14px;text-anchor:middle;font-family:'Times New Roman,serif'">0</text>
  <ellipse
     id="ellipse95"
     ry="18"
     rx="27"
     cy="-18"
     cx="27"
     sodipodi:cx="27"
     sodipodi:cy="-18"
     sodipodi:rx="27"
     sodipodi:ry="18"
     style="fill:#b3b3b3;stroke:#000000"
     d="M 54,-18 C 54,-8.0588745 41.911688,0 27,0 12.088312,0 0,-8.0588745 0,-18 c 0,-9.941125 12.088312,-18 27,-18 14.911688,0 27,8.058875 27,18 z"
     transform="translate(421.01499,112.5)" />
  <text
     id="text97"
     font-size="14.00"
     y="97.900002"
     x="448.01498"
     style="font-size:14px;text-anchor:middle;font-family:'Times New Roman,serif'">1-2</text>
  <path
     id="path102"
     d="m 475.30039,39.9292 c -4.2451,8.4901 -9.439,18.8779 -14.1517,28.3034"
     inkscape:connector-curvature="0"
     style="fill:none;stroke:#000000" />
  <polygon
     id="polygon104"
     points="35.6343,-35.2687 36.976,-45.7782 43.237,-42.6477 43.237,-42.6477 "
     style="fill:#000000;stroke:#000000"
     transform="translate(421.01499,112.5)" />
  <ellipse
     id="ellipse109"
     ry="18"
     rx="27"
     cy="-18"
     cx="99"
     sodipodi:cx="99"
     sodipodi:cy="-18"
     sodipodi:rx="27"
     sodipodi:ry="18"
     style="fill:#000000;stroke:#000000"
     d="M 126,-18 C 126,-8.0588745 113.91169,0 99,0 84.088312,0 72,-8.0588745 72,-18 c 0,-9.941125 12.088312,-18 27,-18 14.91169,0 27,8.058875 27,18 z"
     transform="translate(421.01499,112.5)" />
  <text
     id="text111"
     font-size="14.00"
     y="97.900002"
     x="520.01501"
     style="font-size:14px;text-anchor:middle;fill:#ffffff;font-family:'Times New Roman,serif'">3-4</text>
  <path
     id="path116"
     d="m 492.72959,39.9292 c 4.2451,8.4901 9.439,18.8779 14.1517,28.3034"
     inkscape:connector-curvature="0"
     style="fill:none;stroke:#000000" />
  <polygon
     id="polygon118"
     points="90.3657,-35.2687 82.763,-42.6477 89.024,-45.7782 89.024,-45.7782 "
     style="fill:#000000;stroke:#000000"
     transform="translate(421.01499,112.5)" />
  <path
     inkscape:connector-curvature="0"
     style="fill:none;stroke:#000000;stroke-width:20;stroke-linecap:butt;stroke-linejoin:miter;stroke-miterlimit:1;stroke-opacity:1;stroke-dasharray:none;marker-end:url(#Arrow2Send)"
     d="m 288.00616,59.021327 91.61018,0"
     id="path3028" />
</svg>
