<?xml version="1.0" encoding="UTF-8" standalone="no"?>
<!-- Generated by graphviz version 2.38.0 (20140413.2041)
 -->

<!-- Title: %3 Pages: 1 -->

<svg
   xmlns:dc="http://purl.org/dc/elements/1.1/"
   xmlns:cc="http://creativecommons.org/ns#"
   xmlns:rdf="http://www.w3.org/1999/02/22-rdf-syntax-ns#"
   xmlns:svg="http://www.w3.org/2000/svg"
   xmlns="http://www.w3.org/2000/svg"
   xmlns:sodipodi="http://sodipodi.sourceforge.net/DTD/sodipodi-0.dtd"
   xmlns:inkscape="http://www.inkscape.org/namespaces/inkscape"
   width="392.60684"
   height="226.25"
   viewBox="0 0 313.1155 181"
   id="svg2"
   version="1.1"
   inkscape:version="0.48.5 r10040"
   sodipodi:docname="bad.svg">
  <metadata
     id="metadata41">
    <rdf:RDF>
      <cc:Work
         rdf:about="">
        <dc:format>image/svg+xml</dc:format>
        <dc:type
           rdf:resource="http://purl.org/dc/dcmitype/StillImage" />
      </cc:Work>
    </rdf:RDF>
  </metadata>
  <defs
     id="defs39">
    <marker
       inkscape:stockid="Arrow1Send"
       orient="auto"
       refY="0"
       refX="0"
       id="Arrow1Send"
       style="overflow:visible"
       inkscape:isstock="true">
      <path
         id="path4243"
         d="M 0,0 5,-5 -12.5,0 5,5 0,0 z"
         style="fill:#000000;fill-opacity:1;fill-rule:evenodd;stroke:#000000;stroke-width:1pt;stroke-opacity:1"
         transform="matrix(-0.2,0,0,-0.2,-1.2,0)"
         inkscape:connector-curvature="0" />
    </marker>
  </defs>
  <sodipodi:namedview
     pagecolor="#ffffff"
     bordercolor="#666666"
     borderopacity="1"
     objecttolerance="10"
     gridtolerance="10"
     guidetolerance="10"
     inkscape:pageopacity="0"
     inkscape:pageshadow="2"
     inkscape:window-width="2560"
     inkscape:window-height="1569"
     id="namedview37"
     showgrid="false"
     inkscape:zoom="1.6275862"
     inkscape:cx="264.41737"
     inkscape:cy="110.66737"
     inkscape:window-x="2560"
     inkscape:window-y="0"
     inkscape:window-maximized="1"
     inkscape:current-layer="svg2"
     fit-margin-top="0"
     fit-margin-left="0"
     fit-margin-right="0"
     fit-margin-bottom="0" />
  <g
     id="g4045"
     transform="translate(249.78817,32.5)">
    <ellipse
       transform="translate(4,112)"
       style="fill:#ff8080;stroke:#000000"
       sodipodi:ry="18"
       sodipodi:rx="29.795"
       sodipodi:cy="-90"
       sodipodi:cx="29.897301"
       d="m 59.692301,-90 c 0,9.941125 -13.339676,18 -29.795,18 -16.455324,0 -29.79500036,-8.058875 -29.79500036,-18 0,-9.941125 13.33967636,-18 29.79500036,-18 16.455324,0 29.795,8.058875 29.795,18 z"
       id="ellipse12"
       ry="18"
       rx="29.795"
       cy="-90"
       cx="29.897301" />
    <text
       style="font-size:14px;text-anchor:middle;font-family:'Times,serif'"
       id="text14"
       font-size="14.00"
       y="25.699997"
       x="33.897301">1-2-4</text>
    <ellipse
       transform="translate(4,112)"
       style="fill:#ffe680;stroke:#000000"
       sodipodi:ry="18"
       sodipodi:rx="27"
       sodipodi:cy="-18"
       sodipodi:cx="29.897301"
       d="m 56.897301,-18 c 0,9.9411255 -12.088312,18 -27,18 C 14.985612,0 2.8973007,-8.0588745 2.8973007,-18 c 0,-9.941125 12.0883113,-18 27.0000003,-18 14.911688,0 27,8.058875 27,18 z"
       id="ellipse19"
       ry="18"
       rx="27"
       cy="-18"
       cx="29.897301" />
    <text
       style="font-size:14px;text-anchor:middle;font-family:'Times,serif'"
       id="text21"
       font-size="14.00"
       y="97.699997"
       x="33.897301">3</text>
    <g
       transform="translate(4,112)"
       id="edge1"
       class="edge">
      <title
         id="title24">1-2-4-&gt;3</title>
      <path
         d="m 24.0191,-72.055 c -0.8303,7.8244 -1.0675,17.3066 -0.7116,26.0782"
         id="path26"
         inkscape:connector-curvature="0"
         style="fill:none;stroke:#000000" />
      <polygon
         points="19.8316,-45.514 26.8138,-46.0131 26.8138,-46.0131 24.0358,-35.789 "
         id="polygon28"
         style="fill:#000000;stroke:#000000" />
    </g>
    <g
       transform="translate(4,112)"
       id="edge2"
       class="edge">
      <title
         id="title31">3-&gt;1-2-4</title>
      <path
         d="m 35.7589,-35.789 c 0.8382,-7.8022 1.0833,-17.278 0.7353,-26.0589"
         id="path33"
         inkscape:connector-curvature="0"
         style="fill:none;stroke:#000000" />
      <polygon
         points="39.9693,-62.3255 32.9866,-61.8338 32.9866,-61.8338 35.7756,-72.055 "
         id="polygon35"
         style="fill:#000000;stroke:#000000" />
    </g>
  </g>
  <g
     id="g4019"
     transform="translate(210.95763,40.85593)">
    <ellipse
       transform="translate(-210.56263,139.64407)"
       d="m 90,-162 c 0,9.94113 -12.088312,18 -27,18 -14.911688,0 -27,-8.05887 -27,-18 0,-9.94113 12.088312,-18 27,-18 14.911688,0 27,8.05887 27,18 z"
       id="ellipse3062"
       ry="18"
       rx="27"
       cy="-162"
       cx="63"
       sodipodi:cx="63"
       sodipodi:cy="-162"
       sodipodi:rx="27"
       sodipodi:ry="18"
       style="fill:#ff8080;stroke:#000000" />
    <text
       id="text3064"
       font-size="14.00"
       y="-18.655933"
       x="-147.56264"
       style="font-size:14px;text-anchor:middle;font-family:'Times,serif'">1</text>
    <ellipse
       transform="translate(-210.56263,139.64407)"
       d="m 54,-90 c 0,9.941125 -12.088312,18 -27,18 -14.911688,0 -27,-8.058875 -27,-18 0,-9.941125 12.088312,-18 27,-18 14.911688,0 27,8.058875 27,18 z"
       id="ellipse3069"
       ry="18"
       rx="27"
       cy="-90"
       cx="27"
       sodipodi:cx="27"
       sodipodi:cy="-90"
       sodipodi:rx="27"
       sodipodi:ry="18"
       style="fill:#ff8080;stroke:#000000" />
    <text
       id="text3071"
       font-size="14.00"
       y="53.344067"
       x="-183.56264"
       style="font-size:14px;text-anchor:middle;font-family:'Times,serif'">2</text>
    <g
       transform="translate(-210.56263,139.64407)"
       id="edge1-3"
       class="edge">
      <title
         id="title3074">1-&gt;2</title>
      <path
         style="fill:none;stroke:#000000"
         inkscape:connector-curvature="0"
         d="m 54.6504,-144.765 c -4.3619,8.482 -9.7973,19.051 -14.6917,28.568"
         id="path3076" />
      <polygon
         style="fill:#000000;stroke:#000000"
         points="42.9904,-114.439 35.3043,-107.147 36.7654,-117.641 42.9904,-114.439 "
         id="polygon3078" />
    </g>
    <ellipse
       transform="translate(-210.56263,139.64407)"
       d="m 126,-90 c 0,9.941125 -12.08831,18 -27,18 -14.911688,0 -27,-8.058875 -27,-18 0,-9.941125 12.088312,-18 27,-18 14.91169,0 27,8.058875 27,18 z"
       id="ellipse3083"
       ry="18"
       rx="27"
       cy="-90"
       cx="99"
       sodipodi:cx="99"
       sodipodi:cy="-90"
       sodipodi:rx="27"
       sodipodi:ry="18"
       style="fill:#ffe680;stroke:#000000" />
    <text
       id="text3085"
       font-size="14.00"
       y="53.344067"
       x="-111.56263"
       style="font-size:14px;text-anchor:middle;font-family:'Times,serif'">3</text>
    <g
       transform="translate(-210.56263,139.64407)"
       id="edge2-1"
       class="edge">
      <title
         id="title3088">1-&gt;3</title>
      <path
         style="fill:none;stroke:#000000"
         inkscape:connector-curvature="0"
         d="m 71.3496,-144.765 c 4.3619,8.482 9.7973,19.051 14.6917,28.568"
         id="path3090" />
      <polygon
         style="fill:#000000;stroke:#000000"
         points="89.2346,-117.641 90.6957,-107.147 83.0096,-114.439 89.2346,-117.641 "
         id="polygon3092" />
    </g>
    <ellipse
       transform="translate(-210.56263,139.64407)"
       d="M 90,-18 C 90,-8.0588745 77.911688,0 63,0 48.088312,0 36,-8.0588745 36,-18 c 0,-9.941125 12.088312,-18 27,-18 14.911688,0 27,8.058875 27,18 z"
       id="ellipse3097"
       ry="18"
       rx="27"
       cy="-18"
       cx="63"
       sodipodi:cx="63"
       sodipodi:cy="-18"
       sodipodi:rx="27"
       sodipodi:ry="18"
       style="fill:#ff8080;stroke:#000000" />
    <text
       id="text3099"
       font-size="14.00"
       y="125.34407"
       x="-147.56264"
       style="font-size:14px;text-anchor:middle;font-family:'Times,serif'">4</text>
    <g
       transform="translate(-210.56263,139.64407)"
       id="edge3"
       class="edge">
      <title
         id="title3102">2-&gt;4</title>
      <path
         style="fill:none;stroke:#000000"
         inkscape:connector-curvature="0"
         d="m 35.3496,-72.7646 c 4.3619,8.4815 9.7973,19.0502 14.6917,28.5672"
         id="path3104" />
      <polygon
         style="fill:#000000;stroke:#000000"
         points="53.2346,-45.6409 54.6957,-35.1473 47.0096,-42.4395 53.2346,-45.6409 "
         id="polygon3106" />
    </g>
    <g
       transform="translate(-210.56263,139.64407)"
       id="edge4"
       class="edge">
      <title
         id="title3109">3-&gt;4</title>
      <path
         style="fill:none;stroke:#000000"
         inkscape:connector-curvature="0"
         d="m 90.6504,-72.7646 c -4.3619,8.4815 -9.7973,19.0502 -14.6917,28.5672"
         id="path3111" />
      <polygon
         style="fill:#000000;stroke:#000000"
         points="78.9904,-42.4395 71.3043,-35.1473 72.7654,-45.6409 78.9904,-42.4395 "
         id="polygon3113" />
    </g>
  </g>
  <path
     style="fill:none;stroke:#000000;stroke-width:8;stroke-linecap:butt;stroke-linejoin:miter;stroke-miterlimit:4;stroke-opacity:1;stroke-dasharray:none;marker-end:url(#Arrow1Send)"
     d="m 152.70685,90.5 67.47176,0"
     id="path4222"
     inkscape:connector-curvature="0" />
</svg>
