<?xml version="1.0" encoding="UTF-8" standalone="no"?>
<!-- Generated by graphviz version 2.22.0 (20090304.0156)
 -->

<!-- Title: _anonymous_0 Pages: 1 -->

<svg
   xmlns:dc="http://purl.org/dc/elements/1.1/"
   xmlns:cc="http://creativecommons.org/ns#"
   xmlns:rdf="http://www.w3.org/1999/02/22-rdf-syntax-ns#"
   xmlns:svg="http://www.w3.org/2000/svg"
   xmlns="http://www.w3.org/2000/svg"
   xmlns:sodipodi="http://sodipodi.sourceforge.net/DTD/sodipodi-0.dtd"
   xmlns:inkscape="http://www.inkscape.org/namespaces/inkscape"
   width="740.64972"
   height="406.25"
   viewBox="0 0 592.51978 325"
   id="svg2"
   version="1.1"
   inkscape:version="0.91pre2 r13656"
   sodipodi:docname="algo_3.svg">
  <metadata
     id="metadata209">
    <rdf:RDF>
      <cc:Work
         rdf:about="">
        <dc:format>image/svg+xml</dc:format>
        <dc:type
           rdf:resource="http://purl.org/dc/dcmitype/StillImage" />
      </cc:Work>
    </rdf:RDF>
  </metadata>
  <defs
     id="defs207">
    <marker
       inkscape:stockid="Arrow2Send"
       orient="auto"
       refY="0"
       refX="0"
       id="Arrow2Send"
       style="overflow:visible">
      <path
         inkscape:connector-curvature="0"
         id="path3838"
         style="font-size:12px;fill-rule:evenodd;stroke-width:0.625;stroke-linejoin:round"
         d="M 8.7185878,4.0337352 -2.2072895,0.01601326 8.7185884,-4.0017078 c -1.7454984,2.3720609 -1.7354408,5.6174519 -6e-7,8.035443 z"
         transform="matrix(-0.3,0,0,-0.3,0.69,0)" />
    </marker>
    <marker
       inkscape:stockid="Arrow2Send"
       orient="auto"
       refY="0"
       refX="0"
       id="Arrow2Send-6"
       style="overflow:visible">
      <path
         inkscape:connector-curvature="0"
         id="path3838-5"
         style="font-size:12px;fill-rule:evenodd;stroke-width:0.625;stroke-linejoin:round"
         d="M 8.7185878,4.0337352 -2.2072895,0.01601326 8.7185884,-4.0017078 c -1.7454984,2.3720609 -1.7354408,5.6174519 -6e-7,8.035443 z"
         transform="matrix(-0.3,0,0,-0.3,0.69,0)" />
    </marker>
  </defs>
  <sodipodi:namedview
     pagecolor="#ffffff"
     bordercolor="#666666"
     borderopacity="1"
     objecttolerance="10"
     gridtolerance="10"
     guidetolerance="10"
     inkscape:pageopacity="0"
     inkscape:pageshadow="2"
     inkscape:window-width="2560"
     inkscape:window-height="1497"
     id="namedview205"
     showgrid="false"
     fit-margin-top="0"
     fit-margin-left="0"
     fit-margin-right="0"
     fit-margin-bottom="0"
     inkscape:zoom="1.1373494"
     inkscape:cx="821.48535"
     inkscape:cy="232.73521"
     inkscape:window-x="0"
     inkscape:window-y="39"
     inkscape:window-maximized="1"
     inkscape:current-layer="svg2" />
  <ellipse
     id="ellipse3305"
     ry="18"
     rx="27"
     cy="126"
     cx="493.01978"
     style="fill:#ffff00;stroke:#000000" />
  <text
     id="text3307"
     font-size="14.00"
     y="129.7"
     x="493.01978"
     style="font-size:14px;text-anchor:middle">0-2</text>
  <ellipse
     id="ellipse3312"
     ry="18"
     rx="27"
     cy="198"
     cx="421.01978"
     style="fill:#00ff00;stroke:#000000" />
  <text
     id="text3314"
     font-size="14.00"
     y="201.7"
     x="421.01978"
     style="font-size:14px;text-anchor:middle">7-8</text>
  <path
     id="path3319"
     d="m 478.44948,141.1655 c -10.1796,9.8969 -23.9536,23.2883 -35.4603,34.4754"
     inkscape:connector-curvature="0"
     style="fill:none;stroke:#000000" />
  <polygon
     id="polygon3321"
     points="51.4055,-37.8461 51.4055,-37.8461 41.7957,-33.3847 46.5259,-42.865 "
     style="fill:#000000;stroke:#000000"
     transform="translate(394.01978,216)" />
  <ellipse
     id="ellipse3326"
     ry="18"
     rx="27"
     cy="198"
     cx="493.01978"
     style="fill:#0000ff;stroke:#000000" />
  <text
     id="text3328"
     font-size="14.00"
     y="201.7"
     x="493.01978"
     style="font-size:14px;text-anchor:middle;fill:#ffffff;">5-6</text>
  <path
     id="path3333"
     d="m 493.01978,144.3034 c 0,7.7139 0,16.9841 0,25.5842"
     inkscape:connector-curvature="0"
     style="fill:none;stroke:#000000" />
  <polygon
     id="polygon3335"
     points="102.5,-46.1043 102.5,-46.1043 99,-36.1043 95.5001,-46.1044 "
     style="fill:#000000;stroke:#000000"
     transform="translate(394.01978,216)" />
  <ellipse
     id="ellipse3340"
     ry="18"
     rx="27"
     cy="198"
     cx="565.01978"
     style="fill:#ff8080;stroke:#000000" />
  <text
     id="text3342"
     font-size="14.00"
     y="201.7"
     x="565.01978"
     style="font-size:14px;text-anchor:middle">3-4</text>
  <path
     id="path3347"
     d="m 507.58978,141.1655 c 10.18,9.8969 23.954,23.2883 35.461,34.4754"
     inkscape:connector-curvature="0"
     style="fill:none;stroke:#000000" />
  <polygon
     id="polygon3349"
     points="151.474,-42.865 151.474,-42.865 156.204,-33.3847 146.595,-37.8461 "
     style="fill:#000000;stroke:#000000"
     transform="translate(394.01978,216)" />
  <ellipse
     id="ellipse3398"
     ry="18"
     rx="27"
     cy="18.5"
     cx="135.12154"
     style="fill:#ffff00;stroke:#000000" />
  <text
     id="text3400"
     font-size="14.00"
     y="22.199997"
     x="135.12152"
     style="font-size:14px;text-anchor:middle">0</text>
  <ellipse
     id="ellipse3405"
     ry="18"
     rx="27"
     cy="90.5"
     cx="99.121529"
     style="fill:#ffff00;stroke:#000000" />
  <text
     id="text3407"
     font-size="14.00"
     y="94.199997"
     x="99.121513"
     style="font-size:14px;text-anchor:middle">1</text>
  <path
     id="path3412"
     d="m 126.77153,35.735 c -4.362,8.482 -9.797,19.051 -14.691,28.568"
     inkscape:connector-curvature="0"
     style="fill:none;stroke:#000000" />
  <polygon
     id="polygon3414"
     points="107.304,-251.147 108.765,-261.641 114.99,-258.439 114.99,-258.439 "
     style="fill:#000000;stroke:#000000"
     transform="translate(0.12153,324.5)" />
  <ellipse
     id="ellipse3419"
     ry="18"
     rx="27"
     cy="90.5"
     cx="171.12154"
     style="fill:#ff8080;stroke:#000000" />
  <text
     id="text3421"
     font-size="14.00"
     y="94.199997"
     x="171.12152"
     style="font-size:14px;text-anchor:middle">3</text>
  <path
     id="path3426"
     d="m 143.47153,35.735 c 4.362,8.482 9.797,19.051 14.691,28.568"
     inkscape:connector-curvature="0"
     style="fill:none;stroke:#000000" />
  <polygon
     id="polygon3428"
     points="162.696,-251.147 155.01,-258.439 161.235,-261.641 161.235,-261.641 "
     style="fill:#000000;stroke:#000000"
     transform="translate(0.12153,324.5)" />
  <path
     id="path3440"
     d="m 84.55123,105.666 c -10.1796,9.896 -23.9536,23.288 -35.4603,34.475"
     inkscape:connector-curvature="0"
     style="fill:none;stroke:#000000" />
  <polygon
     id="polygon3442"
     points="41.7957,-177.385 46.5259,-186.865 51.4055,-181.846 51.4055,-181.846 "
     style="fill:#000000;stroke:#000000"
     transform="translate(0.12153,324.5)" />
  <path
     id="path3454"
     d="m 99.12153,108.803 c 0,7.714 0,16.985 0,25.585"
     inkscape:connector-curvature="0"
     style="fill:none;stroke:#000000" />
  <polygon
     id="polygon3456"
     points="99,-180.104 95.5001,-190.104 102.5,-190.104 102.5,-190.104 "
     style="fill:#000000;stroke:#000000"
     transform="translate(0.12153,324.5)" />
  <ellipse
     id="ellipse3461"
     ry="18"
     rx="27"
     cy="162.5"
     cx="171.12154"
     style="fill:#ff8080;stroke:#000000" />
  <text
     id="text3463"
     font-size="14.00"
     y="166.2"
     x="171.12152"
     style="font-size:14px;text-anchor:middle">4</text>
  <path
     id="path3468"
     d="m 171.12153,108.803 c 0,7.714 0,16.985 0,25.585"
     inkscape:connector-curvature="0"
     style="fill:none;stroke:#000000" />
  <polygon
     id="polygon3470"
     points="171,-180.104 167.5,-190.104 174.5,-190.104 174.5,-190.104 "
     style="fill:#000000;stroke:#000000"
     transform="translate(0.12153,324.5)" />
  <ellipse
     id="ellipse3433"
     ry="18"
     rx="27"
     cy="162.5"
     cx="99.121582"
     style="fill:#0000ff;stroke:#000000" />
  <text
     id="text3435"
     font-size="14.00"
     y="166.2"
     x="99.121574"
     style="font-size:14px;text-anchor:middle;stroke:none;fill:#ffffff;">5</text>
  <ellipse
     id="ellipse3475"
     ry="18"
     rx="27"
     cy="234.5"
     cx="99.121582"
     style="fill:#0000ff;stroke:#000000" />
  <text
     id="text3477"
     font-size="14.00"
     y="238.2"
     x="99.121574"
     style="font-size:14px;text-anchor:middle;fill:#ffffff;">6</text>
  <path
     id="path3482"
     d="m 99.12158,180.803 c 0,7.714 0,16.985 0,25.585"
     inkscape:connector-curvature="0"
     style="fill:none;stroke:#000000" />
  <polygon
     id="polygon3484"
     points="30.5001,-118.104 30.5001,-118.104 27,-108.104 23.5001,-118.104 "
     style="fill:#000000;stroke:#000000"
     transform="translate(72.12158,324.5)" />
  <ellipse
     id="ellipse3447"
     ry="18"
     rx="27"
     cy="162.5"
     cx="27.5"
     style="fill:#ffff00;stroke:#000000" />
  <text
     id="text3449"
     font-size="14.00"
     y="166.2"
     x="27.499996"
     style="font-size:14px;text-anchor:middle">2</text>
  <ellipse
     id="ellipse3489"
     ry="18"
     rx="27"
     cy="234.5"
     cx="27.5"
     style="fill:#00ff00;stroke:#000000" />
  <text
     id="text3491"
     font-size="14.00"
     y="238.2"
     x="27.499996"
     style="font-size:14px;text-anchor:middle">7</text>
  <path
     id="path3496"
     d="m 27.5,180.803 c 0,7.714 0,16.985 0,25.585"
     inkscape:connector-curvature="0"
     style="fill:none;stroke:#000000" />
  <polygon
     id="polygon3498"
     points="102.5,-118.104 99,-108.104 95.5001,-118.104 102.5,-118.104 "
     style="fill:#000000;stroke:#000000"
     transform="translate(-71.5,324.5)" />
  <ellipse
     id="ellipse3503"
     ry="18"
     rx="27"
     cy="306.5"
     cx="27.5"
     style="fill:#00ff00;stroke:#000000" />
  <text
     id="text3505"
     font-size="14.00"
     y="310.20001"
     x="27.499996"
     style="font-size:14px;text-anchor:middle">8</text>
  <path
     id="path3510"
     d="m 27.5,252.8034 c 0,7.7139 0,16.9841 0,25.5842"
     inkscape:connector-curvature="0"
     style="fill:none;stroke:#000000" />
  <polygon
     id="polygon3512"
     points="102.5,-46.1043 99,-36.1043 95.5001,-46.1044 102.5,-46.1043 "
     style="fill:#000000;stroke:#000000"
     transform="translate(-71.5,324.5)" />
  <path
     id="path4060"
     d="m 262.34188,162.59608 91.6102,0"
     style="fill:none;stroke:#000000;stroke-width:20;stroke-linecap:butt;stroke-linejoin:miter;stroke-miterlimit:1;stroke-dasharray:none;stroke-opacity:1;marker-end:url(#Arrow2Send)"
     inkscape:connector-curvature="0" />
</svg>
