<?xml version="1.0" encoding="UTF-8" standalone="no"?>
<!-- Generated by graphviz version 2.22.0 (20090304.0156)
 -->

<!-- Title: _anonymous_0 Pages: 1 -->

<svg
   xmlns:dc="http://purl.org/dc/elements/1.1/"
   xmlns:cc="http://creativecommons.org/ns#"
   xmlns:rdf="http://www.w3.org/1999/02/22-rdf-syntax-ns#"
   xmlns:svg="http://www.w3.org/2000/svg"
   xmlns="http://www.w3.org/2000/svg"
   xmlns:sodipodi="http://sodipodi.sourceforge.net/DTD/sodipodi-0.dtd"
   xmlns:inkscape="http://www.inkscape.org/namespaces/inkscape"
   width="690.63605"
   height="417.5"
   viewBox="0 0 552.50884 334"
   id="svg2"
   version="1.1"
   inkscape:version="0.48.0 r9654"
   sodipodi:docname="algo_2.svg">
  <metadata
     id="metadata209">
    <rdf:RDF>
      <cc:Work
         rdf:about="">
        <dc:format>image/svg+xml</dc:format>
        <dc:type
           rdf:resource="http://purl.org/dc/dcmitype/StillImage" />
      </cc:Work>
    </rdf:RDF>
  </metadata>
  <defs
     id="defs207">
    <marker
       inkscape:stockid="Arrow2Send"
       orient="auto"
       refY="0"
       refX="0"
       id="Arrow2Send"
       style="overflow:visible">
      <path
         inkscape:connector-curvature="0"
         id="path3838"
         style="font-size:12px;fill-rule:evenodd;stroke-width:0.625;stroke-linejoin:round"
         d="M 8.7185878,4.0337352 -2.2072895,0.01601326 8.7185884,-4.0017078 c -1.7454984,2.3720609 -1.7354408,5.6174519 -6e-7,8.035443 z"
         transform="matrix(-0.3,0,0,-0.3,0.69,0)" />
    </marker>
  </defs>
  <sodipodi:namedview
     pagecolor="#ffffff"
     bordercolor="#666666"
     borderopacity="1"
     objecttolerance="10"
     gridtolerance="10"
     guidetolerance="10"
     inkscape:pageopacity="0"
     inkscape:pageshadow="2"
     inkscape:window-width="2560"
     inkscape:window-height="1573"
     id="namedview205"
     showgrid="false"
     fit-margin-top="0"
     fit-margin-left="0"
     fit-margin-right="0"
     fit-margin-bottom="0"
     inkscape:zoom="1.1373494"
     inkscape:cx="355.50125"
     inkscape:cy="233.40526"
     inkscape:window-x="2560"
     inkscape:window-y="0"
     inkscape:window-maximized="1"
     inkscape:current-layer="svg2" />
  <ellipse
     cx="135"
     cy="-306"
     rx="27"
     ry="18"
     id="ellipse12"
     d="m 162,-306 c 0,9.94113 -12.08831,18 -27,18 -14.91169,0 -27,-8.05887 -27,-18 0,-9.94113 12.08831,-18 27,-18 14.91169,0 27,8.05887 27,18 z"
     sodipodi:cx="135"
     sodipodi:cy="-306"
     sodipodi:rx="27"
     sodipodi:ry="18"
     style="fill:#ffffff;stroke:#000000"
     transform="translate(4.5,328.5)" />
  <text
     x="139.5"
     y="25.899994"
     font-size="14.00"
     id="text14"
     style="font-size:14px;text-anchor:middle;font-family:'Times New Roman,serif'">0</text>
  <ellipse
     cx="99"
     cy="-234"
     rx="27"
     ry="18"
     id="ellipse19"
     d="m 126,-234 c 0,9.94113 -12.08831,18 -27,18 -14.911688,0 -27,-8.05887 -27,-18 0,-9.94113 12.088312,-18 27,-18 14.91169,0 27,8.05887 27,18 z"
     sodipodi:cx="99"
     sodipodi:cy="-234"
     sodipodi:rx="27"
     sodipodi:ry="18"
     style="fill:#ffffff;stroke:#000000"
     transform="translate(4.5,328.5)" />
  <text
     x="103.5"
     y="97.899994"
     font-size="14.00"
     id="text21"
     style="font-size:14px;text-anchor:middle;font-family:'Times New Roman,serif'">1</text>
  <path
     d="m 130.785,39.929 c -4.245,8.49 -9.439,18.878 -14.151,28.304"
     id="path26"
     inkscape:connector-curvature="0"
     style="fill:none;stroke:#000000" />
  <polygon
     points="115.237,-258.648 107.634,-251.269 108.976,-261.778 115.237,-258.648 "
     id="polygon28"
     style="fill:#000000;stroke:#000000"
     transform="translate(4.5,328.5)" />
  <ellipse
     cx="171"
     cy="-234"
     rx="27"
     ry="18"
     id="ellipse33"
     d="m 198,-234 c 0,9.94113 -12.08831,18 -27,18 -14.91169,0 -27,-8.05887 -27,-18 0,-9.94113 12.08831,-18 27,-18 14.91169,0 27,8.05887 27,18 z"
     sodipodi:cx="171"
     sodipodi:cy="-234"
     sodipodi:rx="27"
     sodipodi:ry="18"
     style="fill:#ffffff;stroke:#000000"
     transform="translate(4.5,328.5)" />
  <text
     x="175.5"
     y="97.899994"
     font-size="14.00"
     id="text35"
     style="font-size:14px;text-anchor:middle;font-family:'Times New Roman,serif'">2</text>
  <path
     d="m 148.215,39.929 c 4.245,8.49 9.439,18.878 14.151,28.304"
     id="path40"
     inkscape:connector-curvature="0"
     style="fill:none;stroke:#000000" />
  <polygon
     points="161.024,-261.778 162.366,-251.269 154.763,-258.648 161.024,-261.778 "
     id="polygon42"
     style="fill:#000000;stroke:#000000"
     transform="translate(4.5,328.5)" />
  <ellipse
     cx="135"
     cy="-162"
     rx="27"
     ry="18"
     id="ellipse47"
     d="m 162,-162 c 0,9.94113 -12.08831,18 -27,18 -14.91169,0 -27,-8.05887 -27,-18 0,-9.94113 12.08831,-18 27,-18 14.91169,0 27,8.05887 27,18 z"
     sodipodi:cx="135"
     sodipodi:cy="-162"
     sodipodi:rx="27"
     sodipodi:ry="18"
     style="fill:#ffffff;stroke:#000000"
     transform="translate(4.5,328.5)" />
  <text
     x="139.5"
     y="169.89999"
     font-size="14.00"
     id="text49"
     style="font-size:14px;text-anchor:middle;font-family:'Times New Roman,serif'">3</text>
  <path
     d="m 112.215,111.929 c 4.245,8.49 9.439,18.878 14.151,28.304"
     id="path54"
     inkscape:connector-curvature="0"
     style="fill:none;stroke:#000000" />
  <polygon
     points="125.024,-189.778 126.366,-179.269 118.763,-186.648 125.024,-189.778 "
     id="polygon56"
     style="fill:#000000;stroke:#000000"
     transform="translate(4.5,328.5)" />
  <ellipse
     cx="63"
     cy="-162"
     rx="27"
     ry="18"
     id="ellipse61"
     d="m 90,-162 c 0,9.94113 -12.088312,18 -27,18 -14.911688,0 -27,-8.05887 -27,-18 0,-9.94113 12.088312,-18 27,-18 14.911688,0 27,8.05887 27,18 z"
     sodipodi:cx="63"
     sodipodi:cy="-162"
     sodipodi:rx="27"
     sodipodi:ry="18"
     style="fill:#000000;stroke:#000000"
     transform="translate(4.5,328.5)" />
  <text
     x="67.5"
     y="169.89999"
     font-size="14.00"
     id="text63"
     style="font-size:14px;text-anchor:middle;font-family:'Times New Roman,serif';fill:#ffffff">4</text>
  <path
     d="m 94.7854,111.929 c -4.2451,8.49 -9.439,18.878 -14.1517,28.304"
     id="path68"
     inkscape:connector-curvature="0"
     style="fill:none;stroke:#000000" />
  <polygon
     points="79.237,-186.648 71.6343,-179.269 72.976,-189.778 79.237,-186.648 "
     id="polygon70"
     style="fill:#000000;stroke:#000000"
     transform="translate(4.5,328.5)" />
  <path
     d="m 166.785,111.929 c -4.245,8.49 -9.439,18.878 -14.151,28.304"
     id="path75"
     inkscape:connector-curvature="0"
     style="fill:none;stroke:#000000" />
  <polygon
     points="151.237,-186.648 143.634,-179.269 144.976,-189.778 151.237,-186.648 "
     id="polygon77"
     style="fill:#000000;stroke:#000000"
     transform="translate(4.5,328.5)" />
  <ellipse
     cx="207"
     cy="-162"
     rx="27"
     ry="18"
     id="ellipse82"
     d="m 234,-162 c 0,9.94113 -12.08831,18 -27,18 -14.91169,0 -27,-8.05887 -27,-18 0,-9.94113 12.08831,-18 27,-18 14.91169,0 27,8.05887 27,18 z"
     sodipodi:cx="207"
     sodipodi:cy="-162"
     sodipodi:rx="27"
     sodipodi:ry="18"
     style="fill:#b3b3b3;stroke:#000000"
     transform="translate(4.5,328.5)" />
  <text
     x="211.5"
     y="169.89999"
     font-size="14.00"
     id="text84"
     style="font-size:14px;text-anchor:middle;font-family:'Times New Roman,serif'">8</text>
  <path
     d="m 184.215,111.929 c 4.245,8.49 9.439,18.878 14.151,28.304"
     id="path89"
     inkscape:connector-curvature="0"
     style="fill:none;stroke:#000000" />
  <polygon
     points="197.024,-189.778 198.366,-179.269 190.763,-186.648 197.024,-189.778 "
     id="polygon91"
     style="fill:#000000;stroke:#000000"
     transform="translate(4.5,328.5)" />
  <ellipse
     cx="99"
     cy="-90"
     rx="27"
     ry="18"
     id="ellipse96"
     d="m 126,-90 c 0,9.941125 -12.08831,18 -27,18 -14.911688,0 -27,-8.058875 -27,-18 0,-9.941125 12.088312,-18 27,-18 14.91169,0 27,8.058875 27,18 z"
     sodipodi:cx="99"
     sodipodi:cy="-90"
     sodipodi:rx="27"
     sodipodi:ry="18"
     style="fill:#000000;stroke:#000000"
     transform="translate(4.5,328.5)" />
  <text
     x="103.5"
     y="241.89999"
     font-size="14.00"
     id="text98"
     style="font-size:14px;text-anchor:middle;font-family:'Times New Roman,serif';fill:#ffffff">6</text>
  <path
     d="m 130.785,183.929 c -4.245,8.49 -9.439,18.878 -14.151,28.304"
     id="path103"
     inkscape:connector-curvature="0"
     style="fill:none;stroke:#000000" />
  <polygon
     points="115.237,-114.648 107.634,-107.269 108.976,-117.778 115.237,-114.648 "
     id="polygon105"
     style="fill:#000000;stroke:#000000"
     transform="translate(4.5,328.5)" />
  <ellipse
     cx="171"
     cy="-90"
     rx="27"
     ry="18"
     id="ellipse110"
     d="m 198,-90 c 0,9.941125 -12.08831,18 -27,18 -14.91169,0 -27,-8.058875 -27,-18 0,-9.941125 12.08831,-18 27,-18 14.91169,0 27,8.058875 27,18 z"
     sodipodi:cx="171"
     sodipodi:cy="-90"
     sodipodi:rx="27"
     sodipodi:ry="18"
     style="fill:#b3b3b3;stroke:#000000"
     transform="translate(4.5,328.5)" />
  <text
     x="175.5"
     y="241.89999"
     font-size="14.00"
     id="text112"
     style="font-size:14px;text-anchor:middle;font-family:'Times New Roman,serif'">9</text>
  <path
     d="m 148.215,183.929 c 4.245,8.49 9.439,18.878 14.151,28.304"
     id="path117"
     inkscape:connector-curvature="0"
     style="fill:none;stroke:#000000" />
  <polygon
     points="161.024,-117.778 162.366,-107.269 154.763,-114.648 161.024,-117.778 "
     id="polygon119"
     style="fill:#000000;stroke:#000000"
     transform="translate(4.5,328.5)" />
  <ellipse
     cx="27"
     cy="-90"
     rx="27"
     ry="18"
     id="ellipse124"
     d="m 54,-90 c 0,9.941125 -12.088312,18 -27,18 -14.911688,0 -27,-8.058875 -27,-18 0,-9.941125 12.088312,-18 27,-18 14.911688,0 27,8.058875 27,18 z"
     sodipodi:cx="27"
     sodipodi:cy="-90"
     sodipodi:rx="27"
     sodipodi:ry="18"
     style="fill:#000000;stroke:#000000"
     transform="translate(4.5,328.5)" />
  <text
     x="31.5"
     y="241.89999"
     font-size="14.00"
     id="text126"
     style="font-size:14px;text-anchor:middle;font-family:'Times New Roman,serif';fill:#ffffff">5</text>
  <path
     d="m 58.7854,183.929 c -4.2451,8.49 -9.439,18.878 -14.1517,28.304"
     id="path131"
     inkscape:connector-curvature="0"
     style="fill:none;stroke:#000000" />
  <polygon
     points="43.237,-114.648 35.6343,-107.269 36.976,-117.778 43.237,-114.648 "
     id="polygon133"
     style="fill:#000000;stroke:#000000"
     transform="translate(4.5,328.5)" />
  <path
     d="m 76.2146,183.929 c 4.2451,8.49 9.439,18.878 14.1517,28.304"
     id="path138"
     inkscape:connector-curvature="0"
     style="fill:none;stroke:#000000" />
  <polygon
     points="89.024,-117.778 90.3657,-107.269 82.763,-114.648 89.024,-117.778 "
     id="polygon140"
     style="fill:#000000;stroke:#000000"
     transform="translate(4.5,328.5)" />
  <ellipse
     cx="81"
     cy="-18"
     rx="27"
     ry="18"
     id="ellipse145"
     d="M 108,-18 C 108,-8.0588745 95.911688,0 81,0 66.088312,0 54,-8.0588745 54,-18 c 0,-9.941125 12.088312,-18 27,-18 14.911688,0 27,8.058875 27,18 z"
     sodipodi:cx="81"
     sodipodi:cy="-18"
     sodipodi:rx="27"
     sodipodi:ry="18"
     style="fill:#000000;stroke:#000000"
     transform="translate(4.5,328.5)" />
  <text
     x="85.5"
     y="313.89999"
     font-size="14.00"
     id="text147"
     style="font-size:14px;text-anchor:middle;font-family:'Times New Roman,serif';fill:#ffffff">7</text>
  <path
     d="m 43.7534,254.8379 c 6.9043,9.2057 15.6643,20.8857 23.3751,31.1668"
     id="path152"
     inkscape:connector-curvature="0"
     style="fill:none;stroke:#000000" />
  <polygon
     points="65.595,-44.3733 68.7951,-34.2733 59.995,-40.1733 65.595,-44.3733 "
     id="polygon154"
     style="fill:#000000;stroke:#000000"
     transform="translate(4.5,328.5)" />
  <path
     d="m 99.0506,256.2978 c -1.9904,7.9616 -4.3838,17.5351 -6.6017,26.4065"
     id="path159"
     inkscape:connector-curvature="0"
     style="fill:none;stroke:#000000" />
  <polygon
     points="91.2816,-44.6951 85.4606,-35.8425 84.4906,-46.3929 91.2816,-44.6951 "
     id="polygon161"
     style="fill:#000000;stroke:#000000"
     transform="translate(4.5,328.5)" />
  <path
     d="m 202.785,183.929 c -4.245,8.49 -9.439,18.878 -14.151,28.304"
     id="path166"
     inkscape:connector-curvature="0"
     style="fill:none;stroke:#000000" />
  <polygon
     points="187.237,-114.648 179.634,-107.269 180.976,-117.778 187.237,-114.648 "
     id="polygon168"
     style="fill:#000000;stroke:#000000"
     transform="translate(4.5,328.5)" />
  <ellipse
     cx="243"
     cy="-90"
     rx="27"
     ry="18"
     id="ellipse173"
     d="m 270,-90 c 0,9.941125 -12.08831,18 -27,18 -14.91169,0 -27,-8.058875 -27,-18 0,-9.941125 12.08831,-18 27,-18 14.91169,0 27,8.058875 27,18 z"
     sodipodi:cx="243"
     sodipodi:cy="-90"
     sodipodi:rx="27"
     sodipodi:ry="18"
     style="fill:#b3b3b3;stroke:#000000"
     transform="translate(4.5,328.5)" />
  <text
     x="247.5"
     y="241.89999"
     font-size="14.00"
     id="text175"
     style="font-size:14px;text-anchor:middle;font-family:'Times New Roman,serif'">10</text>
  <path
     d="m 220.215,183.929 c 4.245,8.49 9.439,18.878 14.151,28.304"
     id="path180"
     inkscape:connector-curvature="0"
     style="fill:none;stroke:#000000" />
  <polygon
     points="233.024,-117.778 234.366,-107.269 226.763,-114.648 233.024,-117.778 "
     id="polygon182"
     style="fill:#000000;stroke:#000000"
     transform="translate(4.5,328.5)" />
  <ellipse
     cx="189"
     cy="-18"
     rx="27"
     ry="18"
     id="ellipse187"
     d="m 216,-18 c 0,9.9411255 -12.08831,18 -27,18 -14.91169,0 -27,-8.0588745 -27,-18 0,-9.941125 12.08831,-18 27,-18 14.91169,0 27,8.058875 27,18 z"
     sodipodi:cx="189"
     sodipodi:cy="-18"
     sodipodi:rx="27"
     sodipodi:ry="18"
     style="fill:#b3b3b3;stroke:#000000"
     transform="translate(4.5,328.5)" />
  <text
     x="193.5"
     y="313.89999"
     font-size="14.00"
     id="text189"
     style="font-size:14px;text-anchor:middle;font-family:'Times New Roman,serif'">11</text>
  <path
     d="m 179.949,256.2978 c 1.991,7.9616 4.384,17.5351 6.602,26.4065"
     id="path194"
     inkscape:connector-curvature="0"
     style="fill:none;stroke:#000000" />
  <polygon
     points="185.509,-46.3929 184.539,-35.8425 178.718,-44.6951 185.509,-46.3929 "
     id="polygon196"
     style="fill:#000000;stroke:#000000"
     transform="translate(4.5,328.5)" />
  <path
     d="m 235.247,254.8379 c -6.905,9.2057 -15.665,20.8857 -23.376,31.1668"
     id="path201"
     inkscape:connector-curvature="0"
     style="fill:none;stroke:#000000" />
  <polygon
     points="210.005,-40.1733 201.205,-34.2733 204.405,-44.3733 210.005,-40.1733 "
     id="polygon203"
     style="fill:#000000;stroke:#000000"
     transform="translate(4.5,328.5)" />
  <ellipse
     id="ellipse221"
     ry="18"
     rx="27"
     cy="-90"
     cx="63"
     sodipodi:cx="63"
     sodipodi:cy="-90"
     sodipodi:rx="27"
     sodipodi:ry="18"
     style="fill:#ffffff;stroke:#000000"
     d="m 90,-90 c 0,9.941125 -12.088312,18 -27,18 -14.911688,0 -27,-8.058875 -27,-18 0,-9.941125 12.088312,-18 27,-18 14.911688,0 27,8.058875 27,18 z"
     transform="translate(421.00883,220.5)" />
  <text
     id="text223"
     font-size="14.00"
     y="133.89999"
     x="484.00882"
     style="font-size:14px;text-anchor:middle;font-family:'Times New Roman,serif'">0-3</text>
  <ellipse
     id="ellipse228"
     ry="18"
     rx="27"
     cy="-18"
     cx="27"
     sodipodi:cx="27"
     sodipodi:cy="-18"
     sodipodi:rx="27"
     sodipodi:ry="18"
     style="fill:#000000;stroke:#000000"
     d="M 54,-18 C 54,-8.0588745 41.911688,0 27,0 12.088312,0 0,-8.0588745 0,-18 c 0,-9.941125 12.088312,-18 27,-18 14.911688,0 27,8.058875 27,18 z"
     transform="translate(421.00883,220.5)" />
  <text
     id="text230"
     font-size="14.00"
     y="205.89999"
     x="448.00882"
     style="font-size:14px;text-anchor:middle;fill:#ffffff;font-family:'Times New Roman,serif'">4-7</text>
  <path
     id="path235"
     d="m 475.29423,147.9292 c -4.2451,8.4901 -9.439,18.8779 -14.1517,28.3034"
     inkscape:connector-curvature="0"
     style="fill:none;stroke:#000000" />
  <polygon
     id="polygon237"
     points="43.237,-42.6477 43.237,-42.6477 35.6343,-35.2687 36.976,-45.7782 "
     style="fill:#000000;stroke:#000000"
     transform="translate(421.00883,220.5)" />
  <ellipse
     id="ellipse242"
     ry="18"
     rx="27"
     cy="-18"
     cx="99"
     sodipodi:cx="99"
     sodipodi:cy="-18"
     sodipodi:rx="27"
     sodipodi:ry="18"
     style="fill:#b3b3b3;stroke:#000000"
     d="M 126,-18 C 126,-8.0588745 113.91169,0 99,0 84.088312,0 72,-8.0588745 72,-18 c 0,-9.941125 12.088312,-18 27,-18 14.91169,0 27,8.058875 27,18 z"
     transform="translate(421.00883,220.5)" />
  <text
     id="text244"
     font-size="14.00"
     y="205.89999"
     x="520.00885"
     style="font-size:14px;text-anchor:middle;font-family:'Times New Roman,serif'">8-11</text>
  <path
     id="path249"
     d="m 492.72343,147.9292 c 4.2451,8.4901 9.439,18.8779 14.1517,28.3034"
     inkscape:connector-curvature="0"
     style="fill:none;stroke:#000000" />
  <polygon
     id="polygon251"
     points="89.024,-45.7782 89.024,-45.7782 90.3657,-35.2687 82.763,-42.6477 "
     style="fill:#000000;stroke:#000000"
     transform="translate(421.00883,220.5)" />
  <path
     inkscape:connector-curvature="0"
     style="fill:none;stroke:#000000;stroke-width:20;stroke-linecap:butt;stroke-linejoin:miter;stroke-miterlimit:1;stroke-opacity:1;stroke-dasharray:none;marker-end:url(#Arrow2Send)"
     d="m 288,167.02133 91.61018,0"
     id="path3028" />
</svg>
