<?xml version="1.0" encoding="UTF-8" standalone="no"?>
<!DOCTYPE svg PUBLIC "-//W3C//DTD SVG 1.1//EN"
 "http://www.w3.org/Graphics/SVG/1.1/DTD/svg11.dtd">
<!-- Generated by graphviz version 2.38.0 (20140413.2041)
 -->
<!-- Title: G Pages: 1 -->
<svg width="566pt" height="116pt"
 viewBox="0.00 0.00 566.00 116.00" xmlns="http://www.w3.org/2000/svg" xmlns:xlink="http://www.w3.org/1999/xlink">
<g id="graph0" class="graph" transform="scale(1 1) rotate(0) translate(4 112)">
<title>G</title>
<polygon fill="white" stroke="none" points="-4,4 -4,-112 562,-112 562,4 -4,4"/>
<!-- 1 -->
<g id="node1" class="node"><title>1</title>
<ellipse fill="none" stroke="black" cx="171" cy="-90" rx="27" ry="18"/>
<text text-anchor="middle" x="171" y="-86.3" font-family="Times,serif" font-size="14.00">1</text>
</g>
<!-- 9 -->
<g id="node2" class="node"><title>9</title>
<ellipse fill="none" stroke="black" cx="99" cy="-18" rx="27" ry="18"/>
<text text-anchor="middle" x="99" y="-14.3" font-family="Times,serif" font-size="14.00">9</text>
</g>
<!-- 1&#45;&gt;9 -->
<g id="edge1" class="edge"><title>1&#45;&gt;9</title>
<path fill="none" stroke="black" d="M156.43,-74.8345C146.25,-64.9376 132.476,-51.5462 120.969,-40.3591"/>
<polygon fill="black" stroke="black" points="123.405,-37.8461 113.796,-33.3847 118.526,-42.865 123.405,-37.8461"/>
</g>
<!-- 11 -->
<g id="node3" class="node"><title>11</title>
<ellipse fill="none" stroke="black" cx="315" cy="-18" rx="27" ry="18"/>
<text text-anchor="middle" x="315" y="-14.3" font-family="Times,serif" font-size="14.00">11</text>
</g>
<!-- 1&#45;&gt;11 -->
<g id="edge2" class="edge"><title>1&#45;&gt;11</title>
<path fill="none" stroke="black" d="M192.248,-78.6713C216.602,-66.8324 256.719,-47.3312 284.428,-33.8615"/>
<polygon fill="black" stroke="black" points="286.202,-36.8909 293.665,-29.3711 283.141,-30.5953 286.202,-36.8909"/>
</g>
<!-- 2 -->
<g id="node4" class="node"><title>2</title>
<ellipse fill="none" stroke="black" cx="27" cy="-90" rx="27" ry="18"/>
<text text-anchor="middle" x="27" y="-86.3" font-family="Times,serif" font-size="14.00">2</text>
</g>
<!-- 2&#45;&gt;9 -->
<g id="edge3" class="edge"><title>2&#45;&gt;9</title>
<path fill="none" stroke="black" d="M41.5703,-74.8345C51.7499,-64.9376 65.5239,-51.5462 77.0306,-40.3591"/>
<polygon fill="black" stroke="black" points="79.4741,-42.865 84.2043,-33.3847 74.5945,-37.8461 79.4741,-42.865"/>
</g>
<!-- 10 -->
<g id="node5" class="node"><title>10</title>
<ellipse fill="none" stroke="black" cx="27" cy="-18" rx="27" ry="18"/>
<text text-anchor="middle" x="27" y="-14.3" font-family="Times,serif" font-size="14.00">10</text>
</g>
<!-- 2&#45;&gt;10 -->
<g id="edge4" class="edge"><title>2&#45;&gt;10</title>
<path fill="none" stroke="black" d="M27,-71.6966C27,-63.9827 27,-54.7125 27,-46.1124"/>
<polygon fill="black" stroke="black" points="30.5001,-46.1043 27,-36.1043 23.5001,-46.1044 30.5001,-46.1043"/>
</g>
<!-- 12 -->
<g id="node6" class="node"><title>12</title>
<ellipse fill="none" stroke="black" cx="171" cy="-18" rx="27" ry="18"/>
<text text-anchor="middle" x="171" y="-14.3" font-family="Times,serif" font-size="14.00">12</text>
</g>
<!-- 2&#45;&gt;12 -->
<g id="edge5" class="edge"><title>2&#45;&gt;12</title>
<path fill="none" stroke="black" d="M48.2477,-78.6713C72.6018,-66.8324 112.719,-47.3312 140.428,-33.8615"/>
<polygon fill="black" stroke="black" points="142.202,-36.8909 149.665,-29.3711 139.141,-30.5953 142.202,-36.8909"/>
</g>
<!-- 3 -->
<g id="node7" class="node"><title>3</title>
<ellipse fill="none" stroke="black" cx="243" cy="-90" rx="27" ry="18"/>
<text text-anchor="middle" x="243" y="-86.3" font-family="Times,serif" font-size="14.00">3</text>
</g>
<!-- 3&#45;&gt;9 -->
<g id="edge6" class="edge"><title>3&#45;&gt;9</title>
<path fill="none" stroke="black" d="M221.752,-78.6713C197.398,-66.8324 157.281,-47.3312 129.572,-33.8615"/>
<polygon fill="black" stroke="black" points="130.859,-30.5953 120.335,-29.3711 127.798,-36.8909 130.859,-30.5953"/>
</g>
<!-- 3&#45;&gt;11 -->
<g id="edge7" class="edge"><title>3&#45;&gt;11</title>
<path fill="none" stroke="black" d="M257.57,-74.8345C267.75,-64.9376 281.524,-51.5462 293.031,-40.3591"/>
<polygon fill="black" stroke="black" points="295.474,-42.865 300.204,-33.3847 290.595,-37.8461 295.474,-42.865"/>
</g>
<!-- 3&#45;&gt;12 -->
<g id="edge8" class="edge"><title>3&#45;&gt;12</title>
<path fill="none" stroke="black" d="M228.43,-74.8345C218.25,-64.9376 204.476,-51.5462 192.969,-40.3591"/>
<polygon fill="black" stroke="black" points="195.405,-37.8461 185.796,-33.3847 190.526,-42.865 195.405,-37.8461"/>
</g>
<!-- 13 -->
<g id="node8" class="node"><title>13</title>
<ellipse fill="none" stroke="black" cx="387" cy="-18" rx="27" ry="18"/>
<text text-anchor="middle" x="387" y="-14.3" font-family="Times,serif" font-size="14.00">13</text>
</g>
<!-- 3&#45;&gt;13 -->
<g id="edge9" class="edge"><title>3&#45;&gt;13</title>
<path fill="none" stroke="black" d="M264.248,-78.6713C288.602,-66.8324 328.719,-47.3312 356.428,-33.8615"/>
<polygon fill="black" stroke="black" points="358.202,-36.8909 365.665,-29.3711 355.141,-30.5953 358.202,-36.8909"/>
</g>
<!-- 4 -->
<g id="node9" class="node"><title>4</title>
<ellipse fill="none" stroke="black" cx="99" cy="-90" rx="27" ry="18"/>
<text text-anchor="middle" x="99" y="-86.3" font-family="Times,serif" font-size="14.00">4</text>
</g>
<!-- 4&#45;&gt;10 -->
<g id="edge10" class="edge"><title>4&#45;&gt;10</title>
<path fill="none" stroke="black" d="M84.4297,-74.8345C74.2501,-64.9376 60.4761,-51.5462 48.9694,-40.3591"/>
<polygon fill="black" stroke="black" points="51.4055,-37.8461 41.7957,-33.3847 46.5259,-42.865 51.4055,-37.8461"/>
</g>
<!-- 4&#45;&gt;12 -->
<g id="edge11" class="edge"><title>4&#45;&gt;12</title>
<path fill="none" stroke="black" d="M113.57,-74.8345C123.75,-64.9376 137.524,-51.5462 149.031,-40.3591"/>
<polygon fill="black" stroke="black" points="151.474,-42.865 156.204,-33.3847 146.595,-37.8461 151.474,-42.865"/>
</g>
<!-- 14 -->
<g id="node10" class="node"><title>14</title>
<ellipse fill="none" stroke="black" cx="243" cy="-18" rx="27" ry="18"/>
<text text-anchor="middle" x="243" y="-14.3" font-family="Times,serif" font-size="14.00">14</text>
</g>
<!-- 4&#45;&gt;14 -->
<g id="edge12" class="edge"><title>4&#45;&gt;14</title>
<path fill="none" stroke="black" d="M120.248,-78.6713C144.602,-66.8324 184.719,-47.3312 212.428,-33.8615"/>
<polygon fill="black" stroke="black" points="214.202,-36.8909 221.665,-29.3711 211.141,-30.5953 214.202,-36.8909"/>
</g>
<!-- 5 -->
<g id="node11" class="node"><title>5</title>
<ellipse fill="none" stroke="black" cx="459" cy="-90" rx="27" ry="18"/>
<text text-anchor="middle" x="459" y="-86.3" font-family="Times,serif" font-size="14.00">5</text>
</g>
<!-- 5&#45;&gt;11 -->
<g id="edge13" class="edge"><title>5&#45;&gt;11</title>
<path fill="none" stroke="black" d="M437.752,-78.6713C413.398,-66.8324 373.281,-47.3312 345.572,-33.8615"/>
<polygon fill="black" stroke="black" points="346.859,-30.5953 336.335,-29.3711 343.798,-36.8909 346.859,-30.5953"/>
</g>
<!-- 5&#45;&gt;13 -->
<g id="edge14" class="edge"><title>5&#45;&gt;13</title>
<path fill="none" stroke="black" d="M444.43,-74.8345C434.25,-64.9376 420.476,-51.5462 408.969,-40.3591"/>
<polygon fill="black" stroke="black" points="411.405,-37.8461 401.796,-33.3847 406.526,-42.865 411.405,-37.8461"/>
</g>
<!-- 15 -->
<g id="node12" class="node"><title>15</title>
<ellipse fill="none" stroke="black" cx="531" cy="-18" rx="27" ry="18"/>
<text text-anchor="middle" x="531" y="-14.3" font-family="Times,serif" font-size="14.00">15</text>
</g>
<!-- 5&#45;&gt;15 -->
<g id="edge15" class="edge"><title>5&#45;&gt;15</title>
<path fill="none" stroke="black" d="M473.57,-74.8345C483.75,-64.9376 497.524,-51.5462 509.031,-40.3591"/>
<polygon fill="black" stroke="black" points="511.474,-42.865 516.204,-33.3847 506.595,-37.8461 511.474,-42.865"/>
</g>
<!-- 6 -->
<g id="node13" class="node"><title>6</title>
<ellipse fill="none" stroke="black" cx="315" cy="-90" rx="27" ry="18"/>
<text text-anchor="middle" x="315" y="-86.3" font-family="Times,serif" font-size="14.00">6</text>
</g>
<!-- 6&#45;&gt;12 -->
<g id="edge16" class="edge"><title>6&#45;&gt;12</title>
<path fill="none" stroke="black" d="M293.752,-78.6713C269.398,-66.8324 229.281,-47.3312 201.572,-33.8615"/>
<polygon fill="black" stroke="black" points="202.859,-30.5953 192.335,-29.3711 199.798,-36.8909 202.859,-30.5953"/>
</g>
<!-- 6&#45;&gt;13 -->
<g id="edge17" class="edge"><title>6&#45;&gt;13</title>
<path fill="none" stroke="black" d="M329.57,-74.8345C339.75,-64.9376 353.524,-51.5462 365.031,-40.3591"/>
<polygon fill="black" stroke="black" points="367.474,-42.865 372.204,-33.3847 362.595,-37.8461 367.474,-42.865"/>
</g>
<!-- 6&#45;&gt;14 -->
<g id="edge18" class="edge"><title>6&#45;&gt;14</title>
<path fill="none" stroke="black" d="M300.43,-74.8345C290.25,-64.9376 276.476,-51.5462 264.969,-40.3591"/>
<polygon fill="black" stroke="black" points="267.405,-37.8461 257.796,-33.3847 262.526,-42.865 267.405,-37.8461"/>
</g>
<!-- 16 -->
<g id="node14" class="node"><title>16</title>
<ellipse fill="none" stroke="black" cx="459" cy="-18" rx="27" ry="18"/>
<text text-anchor="middle" x="459" y="-14.3" font-family="Times,serif" font-size="14.00">16</text>
</g>
<!-- 6&#45;&gt;16 -->
<g id="edge19" class="edge"><title>6&#45;&gt;16</title>
<path fill="none" stroke="black" d="M336.248,-78.6713C360.602,-66.8324 400.719,-47.3312 428.428,-33.8615"/>
<polygon fill="black" stroke="black" points="430.202,-36.8909 437.665,-29.3711 427.141,-30.5953 430.202,-36.8909"/>
</g>
<!-- 7 -->
<g id="node15" class="node"><title>7</title>
<ellipse fill="none" stroke="black" cx="531" cy="-90" rx="27" ry="18"/>
<text text-anchor="middle" x="531" y="-86.3" font-family="Times,serif" font-size="14.00">7</text>
</g>
<!-- 7&#45;&gt;13 -->
<g id="edge20" class="edge"><title>7&#45;&gt;13</title>
<path fill="none" stroke="black" d="M509.752,-78.6713C485.398,-66.8324 445.281,-47.3312 417.572,-33.8615"/>
<polygon fill="black" stroke="black" points="418.859,-30.5953 408.335,-29.3711 415.798,-36.8909 418.859,-30.5953"/>
</g>
<!-- 7&#45;&gt;15 -->
<g id="edge21" class="edge"><title>7&#45;&gt;15</title>
<path fill="none" stroke="black" d="M531,-71.6966C531,-63.9827 531,-54.7125 531,-46.1124"/>
<polygon fill="black" stroke="black" points="534.5,-46.1043 531,-36.1043 527.5,-46.1044 534.5,-46.1043"/>
</g>
<!-- 7&#45;&gt;16 -->
<g id="edge22" class="edge"><title>7&#45;&gt;16</title>
<path fill="none" stroke="black" d="M516.43,-74.8345C506.25,-64.9376 492.476,-51.5462 480.969,-40.3591"/>
<polygon fill="black" stroke="black" points="483.405,-37.8461 473.796,-33.3847 478.526,-42.865 483.405,-37.8461"/>
</g>
<!-- 8 -->
<g id="node16" class="node"><title>8</title>
<ellipse fill="none" stroke="black" cx="387" cy="-90" rx="27" ry="18"/>
<text text-anchor="middle" x="387" y="-86.3" font-family="Times,serif" font-size="14.00">8</text>
</g>
<!-- 8&#45;&gt;14 -->
<g id="edge23" class="edge"><title>8&#45;&gt;14</title>
<path fill="none" stroke="black" d="M365.752,-78.6713C341.398,-66.8324 301.281,-47.3312 273.572,-33.8615"/>
<polygon fill="black" stroke="black" points="274.859,-30.5953 264.335,-29.3711 271.798,-36.8909 274.859,-30.5953"/>
</g>
<!-- 8&#45;&gt;16 -->
<g id="edge24" class="edge"><title>8&#45;&gt;16</title>
<path fill="none" stroke="black" d="M401.57,-74.8345C411.75,-64.9376 425.524,-51.5462 437.031,-40.3591"/>
<polygon fill="black" stroke="black" points="439.474,-42.865 444.204,-33.3847 434.595,-37.8461 439.474,-42.865"/>
</g>
</g>
</svg>
