<?xml version="1.0" encoding="UTF-8" standalone="no"?>
<!DOCTYPE svg PUBLIC "-//W3C//DTD SVG 1.1//EN"
 "http://www.w3.org/Graphics/SVG/1.1/DTD/svg11.dtd">
<!-- Generated by graphviz version 2.38.0 (20140413.2041)
 -->
<!-- Title: G Pages: 1 -->
<svg width="278pt" height="476pt"
 viewBox="0.00 0.00 278.00 476.00" xmlns="http://www.w3.org/2000/svg" xmlns:xlink="http://www.w3.org/1999/xlink">
<g id="graph0" class="graph" transform="scale(1 1) rotate(0) translate(4 472)">
<title>G</title>
<polygon fill="white" stroke="none" points="-4,4 -4,-472 274,-472 274,4 -4,4"/>
<!-- 1 -->
<g id="node1" class="node"><title>1</title>
<ellipse fill="none" stroke="black" cx="135" cy="-450" rx="27" ry="18"/>
<text text-anchor="middle" x="135" y="-446.3" font-family="Times,serif" font-size="14.00">1</text>
</g>
<!-- 5 -->
<g id="node2" class="node"><title>5</title>
<ellipse fill="none" stroke="black" cx="99" cy="-378" rx="27" ry="18"/>
<text text-anchor="middle" x="99" y="-374.3" font-family="Times,serif" font-size="14.00">5</text>
</g>
<!-- 1&#45;&gt;5 -->
<g id="edge1" class="edge"><title>1&#45;&gt;5</title>
<path fill="none" stroke="black" d="M126.65,-432.765C122.288,-424.283 116.853,-413.714 111.959,-404.197"/>
<polygon fill="black" stroke="black" points="114.99,-402.439 107.304,-395.147 108.765,-405.641 114.99,-402.439"/>
</g>
<!-- 2 -->
<g id="node3" class="node"><title>2</title>
<ellipse fill="none" stroke="black" cx="171" cy="-378" rx="27" ry="18"/>
<text text-anchor="middle" x="171" y="-374.3" font-family="Times,serif" font-size="14.00">2</text>
</g>
<!-- 1&#45;&gt;2 -->
<g id="edge2" class="edge"><title>1&#45;&gt;2</title>
<path fill="none" stroke="black" d="M143.35,-432.765C147.712,-424.283 153.147,-413.714 158.041,-404.197"/>
<polygon fill="black" stroke="black" points="161.235,-405.641 162.696,-395.147 155.01,-402.439 161.235,-405.641"/>
</g>
<!-- 6 -->
<g id="node4" class="node"><title>6</title>
<ellipse fill="none" stroke="black" cx="135" cy="-306" rx="27" ry="18"/>
<text text-anchor="middle" x="135" y="-302.3" font-family="Times,serif" font-size="14.00">6</text>
</g>
<!-- 5&#45;&gt;6 -->
<g id="edge3" class="edge"><title>5&#45;&gt;6</title>
<path fill="none" stroke="black" d="M107.35,-360.765C111.712,-352.283 117.147,-341.714 122.041,-332.197"/>
<polygon fill="black" stroke="black" points="125.235,-333.641 126.696,-323.147 119.01,-330.439 125.235,-333.641"/>
</g>
<!-- 9 -->
<g id="node5" class="node"><title>9</title>
<ellipse fill="none" stroke="black" cx="63" cy="-306" rx="27" ry="18"/>
<text text-anchor="middle" x="63" y="-302.3" font-family="Times,serif" font-size="14.00">9</text>
</g>
<!-- 5&#45;&gt;9 -->
<g id="edge4" class="edge"><title>5&#45;&gt;9</title>
<path fill="none" stroke="black" d="M90.6504,-360.765C86.2885,-352.283 80.8531,-341.714 75.9587,-332.197"/>
<polygon fill="black" stroke="black" points="78.9904,-330.439 71.3043,-323.147 72.7654,-333.641 78.9904,-330.439"/>
</g>
<!-- 2&#45;&gt;6 -->
<g id="edge6" class="edge"><title>2&#45;&gt;6</title>
<path fill="none" stroke="black" d="M162.65,-360.765C158.288,-352.283 152.853,-341.714 147.959,-332.197"/>
<polygon fill="black" stroke="black" points="150.99,-330.439 143.304,-323.147 144.765,-333.641 150.99,-330.439"/>
</g>
<!-- 3 -->
<g id="node6" class="node"><title>3</title>
<ellipse fill="none" stroke="black" cx="207" cy="-306" rx="27" ry="18"/>
<text text-anchor="middle" x="207" y="-302.3" font-family="Times,serif" font-size="14.00">3</text>
</g>
<!-- 2&#45;&gt;3 -->
<g id="edge5" class="edge"><title>2&#45;&gt;3</title>
<path fill="none" stroke="black" d="M179.35,-360.765C183.712,-352.283 189.147,-341.714 194.041,-332.197"/>
<polygon fill="black" stroke="black" points="197.235,-333.641 198.696,-323.147 191.01,-330.439 197.235,-333.641"/>
</g>
<!-- 7 -->
<g id="node8" class="node"><title>7</title>
<ellipse fill="none" stroke="black" cx="171" cy="-234" rx="27" ry="18"/>
<text text-anchor="middle" x="171" y="-230.3" font-family="Times,serif" font-size="14.00">7</text>
</g>
<!-- 6&#45;&gt;7 -->
<g id="edge9" class="edge"><title>6&#45;&gt;7</title>
<path fill="none" stroke="black" d="M143.35,-288.765C147.712,-280.283 153.147,-269.714 158.041,-260.197"/>
<polygon fill="black" stroke="black" points="161.235,-261.641 162.696,-251.147 155.01,-258.439 161.235,-261.641"/>
</g>
<!-- 10 -->
<g id="node9" class="node"><title>10</title>
<ellipse fill="none" stroke="black" cx="99" cy="-234" rx="27" ry="18"/>
<text text-anchor="middle" x="99" y="-230.3" font-family="Times,serif" font-size="14.00">10</text>
</g>
<!-- 6&#45;&gt;10 -->
<g id="edge10" class="edge"><title>6&#45;&gt;10</title>
<path fill="none" stroke="black" d="M126.65,-288.765C122.288,-280.283 116.853,-269.714 111.959,-260.197"/>
<polygon fill="black" stroke="black" points="114.99,-258.439 107.304,-251.147 108.765,-261.641 114.99,-258.439"/>
</g>
<!-- 9&#45;&gt;10 -->
<g id="edge15" class="edge"><title>9&#45;&gt;10</title>
<path fill="none" stroke="black" d="M71.3496,-288.765C75.7115,-280.283 81.1469,-269.714 86.0413,-260.197"/>
<polygon fill="black" stroke="black" points="89.2346,-261.641 90.6957,-251.147 83.0096,-258.439 89.2346,-261.641"/>
</g>
<!-- 13 -->
<g id="node13" class="node"><title>13</title>
<ellipse fill="none" stroke="black" cx="27" cy="-234" rx="27" ry="18"/>
<text text-anchor="middle" x="27" y="-230.3" font-family="Times,serif" font-size="14.00">13</text>
</g>
<!-- 9&#45;&gt;13 -->
<g id="edge16" class="edge"><title>9&#45;&gt;13</title>
<path fill="none" stroke="black" d="M54.6504,-288.765C50.2885,-280.283 44.8531,-269.714 39.9587,-260.197"/>
<polygon fill="black" stroke="black" points="42.9904,-258.439 35.3043,-251.147 36.7654,-261.641 42.9904,-258.439"/>
</g>
<!-- 4 -->
<g id="node7" class="node"><title>4</title>
<ellipse fill="none" stroke="black" cx="243" cy="-234" rx="27" ry="18"/>
<text text-anchor="middle" x="243" y="-230.3" font-family="Times,serif" font-size="14.00">4</text>
</g>
<!-- 3&#45;&gt;4 -->
<g id="edge7" class="edge"><title>3&#45;&gt;4</title>
<path fill="none" stroke="black" d="M215.35,-288.765C219.712,-280.283 225.147,-269.714 230.041,-260.197"/>
<polygon fill="black" stroke="black" points="233.235,-261.641 234.696,-251.147 227.01,-258.439 233.235,-261.641"/>
</g>
<!-- 3&#45;&gt;7 -->
<g id="edge8" class="edge"><title>3&#45;&gt;7</title>
<path fill="none" stroke="black" d="M198.65,-288.765C194.288,-280.283 188.853,-269.714 183.959,-260.197"/>
<polygon fill="black" stroke="black" points="186.99,-258.439 179.304,-251.147 180.765,-261.641 186.99,-258.439"/>
</g>
<!-- 8 -->
<g id="node10" class="node"><title>8</title>
<ellipse fill="none" stroke="black" cx="207" cy="-162" rx="27" ry="18"/>
<text text-anchor="middle" x="207" y="-158.3" font-family="Times,serif" font-size="14.00">8</text>
</g>
<!-- 4&#45;&gt;8 -->
<g id="edge11" class="edge"><title>4&#45;&gt;8</title>
<path fill="none" stroke="black" d="M234.65,-216.765C230.288,-208.283 224.853,-197.714 219.959,-188.197"/>
<polygon fill="black" stroke="black" points="222.99,-186.439 215.304,-179.147 216.765,-189.641 222.99,-186.439"/>
</g>
<!-- 7&#45;&gt;8 -->
<g id="edge12" class="edge"><title>7&#45;&gt;8</title>
<path fill="none" stroke="black" d="M179.35,-216.765C183.712,-208.283 189.147,-197.714 194.041,-188.197"/>
<polygon fill="black" stroke="black" points="197.235,-189.641 198.696,-179.147 191.01,-186.439 197.235,-189.641"/>
</g>
<!-- 11 -->
<g id="node11" class="node"><title>11</title>
<ellipse fill="none" stroke="black" cx="135" cy="-162" rx="27" ry="18"/>
<text text-anchor="middle" x="135" y="-158.3" font-family="Times,serif" font-size="14.00">11</text>
</g>
<!-- 7&#45;&gt;11 -->
<g id="edge13" class="edge"><title>7&#45;&gt;11</title>
<path fill="none" stroke="black" d="M162.65,-216.765C158.288,-208.283 152.853,-197.714 147.959,-188.197"/>
<polygon fill="black" stroke="black" points="150.99,-186.439 143.304,-179.147 144.765,-189.641 150.99,-186.439"/>
</g>
<!-- 10&#45;&gt;11 -->
<g id="edge17" class="edge"><title>10&#45;&gt;11</title>
<path fill="none" stroke="black" d="M107.35,-216.765C111.712,-208.283 117.147,-197.714 122.041,-188.197"/>
<polygon fill="black" stroke="black" points="125.235,-189.641 126.696,-179.147 119.01,-186.439 125.235,-189.641"/>
</g>
<!-- 14 -->
<g id="node14" class="node"><title>14</title>
<ellipse fill="none" stroke="black" cx="63" cy="-162" rx="27" ry="18"/>
<text text-anchor="middle" x="63" y="-158.3" font-family="Times,serif" font-size="14.00">14</text>
</g>
<!-- 10&#45;&gt;14 -->
<g id="edge18" class="edge"><title>10&#45;&gt;14</title>
<path fill="none" stroke="black" d="M90.6504,-216.765C86.2885,-208.283 80.8531,-197.714 75.9587,-188.197"/>
<polygon fill="black" stroke="black" points="78.9904,-186.439 71.3043,-179.147 72.7654,-189.641 78.9904,-186.439"/>
</g>
<!-- 12 -->
<g id="node12" class="node"><title>12</title>
<ellipse fill="none" stroke="black" cx="171" cy="-90" rx="27" ry="18"/>
<text text-anchor="middle" x="171" y="-86.3" font-family="Times,serif" font-size="14.00">12</text>
</g>
<!-- 8&#45;&gt;12 -->
<g id="edge14" class="edge"><title>8&#45;&gt;12</title>
<path fill="none" stroke="black" d="M198.65,-144.765C194.288,-136.283 188.853,-125.714 183.959,-116.197"/>
<polygon fill="black" stroke="black" points="186.99,-114.439 179.304,-107.147 180.765,-117.641 186.99,-114.439"/>
</g>
<!-- 11&#45;&gt;12 -->
<g id="edge19" class="edge"><title>11&#45;&gt;12</title>
<path fill="none" stroke="black" d="M143.35,-144.765C147.712,-136.283 153.147,-125.714 158.041,-116.197"/>
<polygon fill="black" stroke="black" points="161.235,-117.641 162.696,-107.147 155.01,-114.439 161.235,-117.641"/>
</g>
<!-- 15 -->
<g id="node15" class="node"><title>15</title>
<ellipse fill="none" stroke="black" cx="99" cy="-90" rx="27" ry="18"/>
<text text-anchor="middle" x="99" y="-86.3" font-family="Times,serif" font-size="14.00">15</text>
</g>
<!-- 11&#45;&gt;15 -->
<g id="edge20" class="edge"><title>11&#45;&gt;15</title>
<path fill="none" stroke="black" d="M126.65,-144.765C122.288,-136.283 116.853,-125.714 111.959,-116.197"/>
<polygon fill="black" stroke="black" points="114.99,-114.439 107.304,-107.147 108.765,-117.641 114.99,-114.439"/>
</g>
<!-- 16 -->
<g id="node16" class="node"><title>16</title>
<ellipse fill="none" stroke="black" cx="135" cy="-18" rx="27" ry="18"/>
<text text-anchor="middle" x="135" y="-14.3" font-family="Times,serif" font-size="14.00">16</text>
</g>
<!-- 12&#45;&gt;16 -->
<g id="edge21" class="edge"><title>12&#45;&gt;16</title>
<path fill="none" stroke="black" d="M162.65,-72.7646C158.288,-64.2831 152.853,-53.7144 147.959,-44.1974"/>
<polygon fill="black" stroke="black" points="150.99,-42.4395 143.304,-35.1473 144.765,-45.6409 150.99,-42.4395"/>
</g>
<!-- 13&#45;&gt;14 -->
<g id="edge22" class="edge"><title>13&#45;&gt;14</title>
<path fill="none" stroke="black" d="M35.3496,-216.765C39.7115,-208.283 45.1469,-197.714 50.0413,-188.197"/>
<polygon fill="black" stroke="black" points="53.2346,-189.641 54.6957,-179.147 47.0096,-186.439 53.2346,-189.641"/>
</g>
<!-- 14&#45;&gt;15 -->
<g id="edge23" class="edge"><title>14&#45;&gt;15</title>
<path fill="none" stroke="black" d="M71.3496,-144.765C75.7115,-136.283 81.1469,-125.714 86.0413,-116.197"/>
<polygon fill="black" stroke="black" points="89.2346,-117.641 90.6957,-107.147 83.0096,-114.439 89.2346,-117.641"/>
</g>
<!-- 15&#45;&gt;16 -->
<g id="edge24" class="edge"><title>15&#45;&gt;16</title>
<path fill="none" stroke="black" d="M107.35,-72.7646C111.712,-64.2831 117.147,-53.7144 122.041,-44.1974"/>
<polygon fill="black" stroke="black" points="125.235,-45.6409 126.696,-35.1473 119.01,-42.4395 125.235,-45.6409"/>
</g>
</g>
</svg>
