<?xml version="1.0" encoding="UTF-8" standalone="no"?>
<!-- Generated by graphviz version 2.38.0 (20140413.2041)
 -->

<!-- Title: G Pages: 1 -->

<svg
   xmlns:dc="http://purl.org/dc/elements/1.1/"
   xmlns:cc="http://creativecommons.org/ns#"
   xmlns:rdf="http://www.w3.org/1999/02/22-rdf-syntax-ns#"
   xmlns:svg="http://www.w3.org/2000/svg"
   xmlns="http://www.w3.org/2000/svg"
   xmlns:sodipodi="http://sodipodi.sourceforge.net/DTD/sodipodi-0.dtd"
   xmlns:inkscape="http://www.inkscape.org/namespaces/inkscape"
   width="1002.5734pt"
   height="253pt"
   viewBox="0 0 1002.5734 253"
   id="svg2"
   version="1.1"
   inkscape:version="0.91 r13725"
   sodipodi:docname="dwarf_spec.svg">
  <metadata
     id="metadata573">
    <rdf:RDF>
      <cc:Work
         rdf:about="">
        <dc:format>image/svg+xml</dc:format>
        <dc:type
           rdf:resource="http://purl.org/dc/dcmitype/StillImage" />
        <dc:title />
      </cc:Work>
    </rdf:RDF>
  </metadata>
  <defs
     id="defs571">
    <marker
       inkscape:stockid="Arrow1Send"
       orient="auto"
       refY="0"
       refX="0"
       id="Arrow1Send"
       style="overflow:visible"
       inkscape:isstock="true">
      <path
         id="path5954"
         d="M 0,0 5,-5 -12.5,0 5,5 0,0 Z"
         style="fill:#000000;fill-opacity:1;fill-rule:evenodd;stroke:#000000;stroke-width:1pt;stroke-opacity:1"
         transform="matrix(-0.2,0,0,-0.2,-1.2,0)"
         inkscape:connector-curvature="0" />
    </marker>
    <marker
       inkscape:stockid="Arrow1Mend"
       orient="auto"
       refY="0"
       refX="0"
       id="Arrow1Mend"
       style="overflow:visible"
       inkscape:isstock="true">
      <path
         id="path5948"
         d="M 0,0 5,-5 -12.5,0 5,5 0,0 Z"
         style="fill:#000000;fill-opacity:1;fill-rule:evenodd;stroke:#000000;stroke-width:1pt;stroke-opacity:1"
         transform="matrix(-0.4,0,0,-0.4,-4,0)"
         inkscape:connector-curvature="0" />
    </marker>
    <marker
       inkscape:stockid="Arrow1Lend"
       orient="auto"
       refY="0"
       refX="0"
       id="Arrow1Lend"
       style="overflow:visible"
       inkscape:isstock="true">
      <path
         id="path5942"
         d="M 0,0 5,-5 -12.5,0 5,5 0,0 Z"
         style="fill:#000000;fill-opacity:1;fill-rule:evenodd;stroke:#000000;stroke-width:1pt;stroke-opacity:1"
         transform="matrix(-0.8,0,0,-0.8,-10,0)"
         inkscape:connector-curvature="0" />
    </marker>
  </defs>
  <sodipodi:namedview
     pagecolor="#ffffff"
     bordercolor="#666666"
     borderopacity="1"
     objecttolerance="10"
     gridtolerance="10"
     guidetolerance="10"
     inkscape:pageopacity="0"
     inkscape:pageshadow="2"
     inkscape:window-width="2560"
     inkscape:window-height="1497"
     id="namedview569"
     showgrid="false"
     fit-margin-top="0"
     fit-margin-left="0"
     fit-margin-right="0"
     fit-margin-bottom="0"
     inkscape:zoom="1.0431095"
     inkscape:cx="271.57279"
     inkscape:cy="275.4761"
     inkscape:window-x="0"
     inkscape:window-y="39"
     inkscape:window-maximized="1"
     inkscape:current-layer="g6289" />
  <g
     id="g5771"
     transform="translate(-3.5,-3.5)">
    <ellipse
       style="fill:#fff6d5;stroke:#000000"
       id="ellipse12"
       ry="18"
       rx="27"
       cy="22"
       cx="175" />
    <text
       style="font-size:14px;font-family:Times, serif;text-anchor:middle"
       id="text14"
       font-size="14.00"
       y="25.699997"
       x="175">1</text>
    <ellipse
       style="fill:#fff6d5;stroke:#000000"
       id="ellipse19"
       ry="18"
       rx="27"
       cy="94"
       cx="175" />
    <text
       style="font-size:14px;font-family:Times, serif;text-anchor:middle"
       id="text21"
       font-size="14.00"
       y="97.699997"
       x="175">11</text>
    <path
       style="fill:none;stroke:#000000"
       inkscape:connector-curvature="0"
       id="path26"
       d="m 175,40.303 c 0,7.714 0,16.985 0,25.585" />
    <polygon
       transform="translate(4,256)"
       style="fill:#000000;stroke:#000000"
       id="polygon28"
       points="174.5,-190.104 174.5,-190.104 171,-180.104 167.5,-190.104 " />
    <ellipse
       style="fill:#fff6d5;stroke:#000000"
       id="ellipse33"
       ry="18"
       rx="27"
       cy="94"
       cx="247" />
    <text
       style="font-size:14px;font-family:Times, serif;text-anchor:middle"
       id="text35"
       font-size="14.00"
       y="97.699997"
       x="247">12</text>
    <path
       style="fill:none;stroke:#000000"
       inkscape:connector-curvature="0"
       id="path40"
       d="m 189.57,37.166 c 10.18,9.896 23.954,23.288 35.461,34.475" />
    <polygon
       transform="translate(4,256)"
       style="fill:#000000;stroke:#000000"
       id="polygon42"
       points="223.474,-186.865 223.474,-186.865 228.204,-177.385 218.595,-181.846 " />
    <ellipse
       style="fill:#fff6d5;stroke:#000000"
       id="ellipse47"
       ry="18"
       rx="27"
       cy="166"
       cx="175" />
    <text
       style="font-size:14px;font-family:Times, serif;text-anchor:middle"
       id="text49"
       font-size="14.00"
       y="169.7"
       x="175">21</text>
    <path
       style="fill:none;stroke:#000000"
       inkscape:connector-curvature="0"
       id="path54"
       d="m 175,112.303 c 0,7.714 0,16.985 0,25.585" />
    <polygon
       transform="translate(4,256)"
       style="fill:#000000;stroke:#000000"
       id="polygon56"
       points="174.5,-118.104 174.5,-118.104 171,-108.104 167.5,-118.104 " />
    <ellipse
       style="fill:#ffd5d5;stroke:#000000"
       id="ellipse61"
       ry="18"
       rx="27"
       cy="166"
       cx="31" />
    <text
       style="font-size:14px;font-family:Times, serif;text-anchor:middle"
       id="text63"
       font-size="14.00"
       y="169.7"
       x="31">23</text>
    <path
       style="fill:none;stroke:#000000"
       inkscape:connector-curvature="0"
       id="path68"
       d="m 153.752,105.329 c -24.354,11.839 -64.4706,31.34 -92.1797,44.809" />
    <polygon
       transform="translate(4,256)"
       style="fill:#000000;stroke:#000000"
       id="polygon70"
       points="58.8588,-102.595 58.8588,-102.595 48.3349,-101.371 55.7984,-108.891 " />
    <ellipse
       style="fill:#fff6d5;stroke:#000000"
       id="ellipse75"
       ry="18"
       rx="27"
       cy="166"
       cx="247" />
    <text
       style="font-size:14px;font-family:Times, serif;text-anchor:middle"
       id="text77"
       font-size="14.00"
       y="169.7"
       x="247">22</text>
    <path
       style="fill:none;stroke:#000000"
       inkscape:connector-curvature="0"
       id="path82"
       d="m 247,112.303 c 0,7.714 0,16.985 0,25.585" />
    <polygon
       transform="translate(4,256)"
       style="fill:#000000;stroke:#000000"
       id="polygon84"
       points="246.5,-118.104 246.5,-118.104 243,-108.104 239.5,-118.104 " />
    <ellipse
       style="fill:#ffd5d5;stroke:#000000"
       id="ellipse89"
       ry="18"
       rx="27"
       cy="166"
       cx="463" />
    <text
       style="font-size:14px;font-family:Times, serif;text-anchor:middle"
       id="text91"
       font-size="14.00"
       y="169.7"
       x="463">24</text>
    <path
       style="fill:none;stroke:#000000"
       inkscape:connector-curvature="0"
       id="path96"
       d="m 268.028,105.774 c 4.843,2.243 10.025,4.459 14.972,6.226 62.125,22.191 81.875,13.809 144,36 1.855,0.663 3.743,1.388 5.634,2.155" />
    <polygon
       transform="translate(4,256)"
       style="fill:#000000;stroke:#000000"
       id="polygon98"
       points="430.204,-108.979 430.204,-108.979 437.972,-101.774 427.406,-102.562 " />
    <ellipse
       style="fill:#fff6d5;stroke:#000000"
       id="ellipse103"
       ry="18"
       rx="27"
       cy="238"
       cx="175" />
    <text
       style="font-size:14px;font-family:Times, serif;text-anchor:middle"
       id="text105"
       font-size="14.00"
       y="241.7"
       x="175">31</text>
    <path
       style="fill:none;stroke:#000000"
       inkscape:connector-curvature="0"
       id="path110"
       d="m 175,184.3034 c 0,7.7139 0,16.9841 0,25.5842" />
    <polygon
       transform="translate(4,256)"
       style="fill:#000000;stroke:#000000"
       id="polygon112"
       points="174.5,-46.1043 174.5,-46.1043 171,-36.1043 167.5,-46.1044 " />
    <ellipse
       style="fill:#0066ff;stroke:#000000"
       id="ellipse117"
       ry="18"
       rx="27"
       cy="238"
       cx="247" />
    <text
       style="font-size:14px;font-family:Times, serif;text-anchor:middle;fill:#ffffff"
       id="text119"
       font-size="14.00"
       y="241.7"
       x="247">35</text>
    <path
       style="fill:none;stroke:#000000"
       inkscape:connector-curvature="0"
       id="path124"
       d="m 189.57,181.1655 c 10.18,9.8969 23.954,23.2883 35.461,34.4754" />
    <polygon
       transform="translate(4,256)"
       style="fill:#000000;stroke:#000000"
       id="polygon126"
       points="223.474,-42.865 223.474,-42.865 228.204,-33.3847 218.595,-37.8461 " />
    <ellipse
       style="fill:#ffd5d5;stroke:#000000"
       id="ellipse131"
       ry="18"
       rx="27"
       cy="238"
       cx="31" />
    <text
       style="font-size:14px;font-family:Times, serif;text-anchor:middle"
       id="text133"
       font-size="14.00"
       y="241.7"
       x="31">33</text>
    <path
       style="fill:none;stroke:#000000"
       inkscape:connector-curvature="0"
       id="path138"
       d="m 31,184.3034 c 0,7.7139 0,16.9841 0,25.5842" />
    <polygon
       transform="translate(4,256)"
       style="fill:#000000;stroke:#000000"
       id="polygon140"
       points="30.5001,-46.1043 30.5001,-46.1043 27,-36.1043 23.5001,-46.1044 " />
    <ellipse
       style="fill:#aad400;fill-opacity:1;stroke:#000000"
       id="ellipse145"
       ry="18"
       rx="27"
       cy="238"
       cx="103" />
    <text
       style="font-size:14px;font-family:Times, serif;text-anchor:middle"
       id="text147"
       font-size="14.00"
       y="241.7"
       x="103">37</text>
    <path
       style="fill:none;stroke:#000000"
       inkscape:connector-curvature="0"
       id="path152"
       d="m 45.5703,181.1655 c 10.1796,9.8969 23.9536,23.2883 35.4603,34.4754" />
    <polygon
       transform="translate(4,256)"
       style="fill:#000000;stroke:#000000"
       id="polygon154"
       points="79.4741,-42.865 79.4741,-42.865 84.2043,-33.3847 74.5945,-37.8461 " />
    <ellipse
       style="fill:#fff6d5;stroke:#000000"
       id="ellipse159"
       ry="18"
       rx="27"
       cy="238"
       cx="319" />
    <text
       style="font-size:14px;font-family:Times, serif;text-anchor:middle"
       id="text161"
       font-size="14.00"
       y="241.7"
       x="319">32</text>
    <path
       style="fill:none;stroke:#000000"
       inkscape:connector-curvature="0"
       id="path166"
       d="m 261.57,181.1655 c 10.18,9.8969 23.954,23.2883 35.461,34.4754" />
    <polygon
       transform="translate(4,256)"
       style="fill:#000000;stroke:#000000"
       id="polygon168"
       points="295.474,-42.865 295.474,-42.865 300.204,-33.3847 290.595,-37.8461 " />
    <ellipse
       style="fill:#0066ff;stroke:#000000"
       id="ellipse173"
       ry="18"
       rx="27"
       cy="238"
       cx="391" />
    <text
       style="font-size:14px;font-family:Times, serif;text-anchor:middle;fill:#ffffff"
       id="text175"
       font-size="14.00"
       y="241.7"
       x="391">36</text>
    <path
       style="fill:none;stroke:#000000"
       inkscape:connector-curvature="0"
       id="path180"
       d="m 268.248,177.3287 c 24.354,11.8389 64.471,31.3401 92.18,44.8098" />
    <polygon
       transform="translate(4,256)"
       style="fill:#000000;stroke:#000000"
       id="polygon182"
       points="358.202,-36.8909 358.202,-36.8909 365.665,-29.3711 355.141,-30.5953 " />
    <ellipse
       style="fill:#ffd5d5;stroke:#000000"
       id="ellipse187"
       ry="18"
       rx="27"
       cy="238"
       cx="463" />
    <text
       style="font-size:14px;font-family:Times, serif;text-anchor:middle"
       id="text189"
       font-size="14.00"
       y="241.7"
       x="463">34</text>
    <path
       style="fill:none;stroke:#000000"
       inkscape:connector-curvature="0"
       id="path194"
       d="m 463,184.3034 c 0,7.7139 0,16.9841 0,25.5842" />
    <polygon
       transform="translate(4,256)"
       style="fill:#000000;stroke:#000000"
       id="polygon196"
       points="462.5,-46.1043 462.5,-46.1043 459,-36.1043 455.5,-46.1044 " />
    <ellipse
       style="fill:#aad400;fill-opacity:1;stroke:#000000"
       id="ellipse201"
       ry="18"
       rx="27"
       cy="238"
       cx="535" />
    <text
       style="font-size:14px;font-family:Times, serif;text-anchor:middle"
       id="text203"
       font-size="14.00"
       y="241.7"
       x="535">38</text>
    <path
       style="fill:none;stroke:#000000"
       inkscape:connector-curvature="0"
       id="path208"
       d="m 477.57,181.1655 c 10.18,9.8969 23.954,23.2883 35.461,34.4754" />
    <polygon
       transform="translate(4,256)"
       style="fill:#000000;stroke:#000000"
       id="polygon210"
       points="511.474,-42.865 511.474,-42.865 516.204,-33.3847 506.595,-37.8461 " />
    <ellipse
       style="fill:#fff6d5;stroke:#000000"
       id="ellipse215"
       ry="18"
       rx="27"
       cy="22"
       cx="247" />
    <text
       style="font-size:14px;font-family:Times, serif;text-anchor:middle"
       id="text217"
       font-size="14.00"
       y="25.699997"
       x="247">2</text>
    <path
       style="fill:none;stroke:#000000"
       inkscape:connector-curvature="0"
       id="path222"
       d="m 232.43,37.166 c -10.18,9.896 -23.954,23.288 -35.461,34.475" />
    <polygon
       transform="translate(4,256)"
       style="fill:#000000;stroke:#000000"
       id="polygon224"
       points="195.405,-181.846 195.405,-181.846 185.796,-177.385 190.526,-186.865 " />
    <path
       style="fill:none;stroke:#000000"
       inkscape:connector-curvature="0"
       id="path229"
       d="m 247,40.303 c 0,7.714 0,16.985 0,25.585" />
    <polygon
       transform="translate(4,256)"
       style="fill:#000000;stroke:#000000"
       id="polygon231"
       points="246.5,-190.104 246.5,-190.104 243,-180.104 239.5,-190.104 " />
    <ellipse
       style="fill:#ffd5d5;stroke:#000000"
       id="ellipse236"
       ry="18"
       rx="27"
       cy="22"
       cx="31" />
    <text
       style="font-size:14px;font-family:Times, serif;text-anchor:middle"
       id="text238"
       font-size="14.00"
       y="25.699997"
       x="31">3</text>
    <ellipse
       style="fill:#ffd5d5;stroke:#000000"
       id="ellipse243"
       ry="18"
       rx="27"
       cy="94"
       cx="31" />
    <text
       style="font-size:14px;font-family:Times, serif;text-anchor:middle"
       id="text245"
       font-size="14.00"
       y="97.699997"
       x="31">13</text>
    <path
       style="fill:none;stroke:#000000"
       inkscape:connector-curvature="0"
       id="path250"
       d="m 31,40.303 c 0,7.714 0,16.985 0,25.585" />
    <polygon
       transform="translate(4,256)"
       style="fill:#000000;stroke:#000000"
       id="polygon252"
       points="30.5001,-190.104 30.5001,-190.104 27,-180.104 23.5001,-190.104 " />
    <ellipse
       style="fill:#ffd5d5;stroke:#000000"
       id="ellipse257"
       ry="18"
       rx="27"
       cy="94"
       cx="103" />
    <text
       style="font-size:14px;font-family:Times, serif;text-anchor:middle"
       id="text259"
       font-size="14.00"
       y="97.699997"
       x="103">14</text>
    <path
       style="fill:none;stroke:#000000"
       inkscape:connector-curvature="0"
       id="path264"
       d="m 45.5703,37.166 c 10.1796,9.896 23.9536,23.288 35.4603,34.475" />
    <polygon
       transform="translate(4,256)"
       style="fill:#000000;stroke:#000000"
       id="polygon266"
       points="79.4741,-186.865 79.4741,-186.865 84.2043,-177.385 74.5945,-181.846 " />
    <path
       style="fill:none;stroke:#000000"
       inkscape:connector-curvature="0"
       id="path271"
       d="m 52.2477,105.329 c 24.3541,11.839 64.4713,31.34 92.1803,44.809" />
    <polygon
       transform="translate(4,256)"
       style="fill:#000000;stroke:#000000"
       id="polygon273"
       points="142.202,-108.891 142.202,-108.891 149.665,-101.371 139.141,-102.595 " />
    <path
       style="fill:none;stroke:#000000"
       inkscape:connector-curvature="0"
       id="path278"
       d="m 31,112.303 c 0,7.714 0,16.985 0,25.585" />
    <polygon
       transform="translate(4,256)"
       style="fill:#000000;stroke:#000000"
       id="polygon280"
       points="30.5001,-118.104 30.5001,-118.104 27,-108.104 23.5001,-118.104 " />
    <path
       style="fill:none;stroke:#000000"
       inkscape:connector-curvature="0"
       id="path285"
       d="m 124.248,105.329 c 24.354,11.839 64.471,31.34 92.18,44.809" />
    <polygon
       transform="translate(4,256)"
       style="fill:#000000;stroke:#000000"
       id="polygon287"
       points="214.202,-108.891 214.202,-108.891 221.665,-101.371 211.141,-102.595 " />
    <path
       style="fill:none;stroke:#000000"
       inkscape:connector-curvature="0"
       id="path292"
       d="m 123.502,106.045 c 4.957,2.285 10.321,4.451 15.498,5.955 123.873,35.992 164.127,0.008 288,36 1.941,0.564 3.909,1.221 5.872,1.943" />
    <polygon
       transform="translate(4,256)"
       style="fill:#000000;stroke:#000000"
       id="polygon294"
       points="430.614,-109.123 430.614,-109.123 438.498,-102.045 427.921,-102.662 " />
    <ellipse
       style="fill:#ffd5d5;stroke:#000000"
       id="ellipse299"
       ry="18"
       rx="27"
       cy="22"
       cx="103" />
    <text
       style="font-size:14px;font-family:Times, serif;text-anchor:middle"
       id="text301"
       font-size="14.00"
       y="25.699997"
       x="103">4</text>
    <path
       style="fill:none;stroke:#000000"
       inkscape:connector-curvature="0"
       id="path306"
       d="M 88.4297,37.166 C 78.2501,47.062 64.4761,60.454 52.9694,71.641" />
    <polygon
       transform="translate(4,256)"
       style="fill:#000000;stroke:#000000"
       id="polygon308"
       points="51.4055,-181.846 51.4055,-181.846 41.7957,-177.385 46.5259,-186.865 " />
    <path
       style="fill:none;stroke:#000000"
       inkscape:connector-curvature="0"
       id="path313"
       d="m 103,40.303 c 0,7.714 0,16.985 0,25.585" />
    <polygon
       transform="translate(4,256)"
       style="fill:#000000;stroke:#000000"
       id="polygon315"
       points="102.5,-190.104 102.5,-190.104 99,-180.104 95.5001,-190.104 " />
    <ellipse
       style="fill:#0066ff;stroke:#000000"
       id="ellipse320"
       ry="18"
       rx="27"
       cy="22"
       cx="463" />
    <text
       style="font-size:14px;font-family:Times, serif;text-anchor:middle;fill:#ffffff"
       id="text322"
       font-size="14.00"
       y="25.699997"
       x="463">5</text>
    <ellipse
       style="fill:#0066ff;stroke:#000000"
       id="ellipse327"
       ry="18"
       rx="27"
       cy="94"
       cx="463" />
    <text
       style="font-size:14px;font-family:Times, serif;text-anchor:middle;fill:#ffffff"
       id="text329"
       font-size="14.00"
       y="97.699997"
       x="463">15</text>
    <path
       style="fill:none;stroke:#000000"
       inkscape:connector-curvature="0"
       id="path334"
       d="m 463,40.303 c 0,7.714 0,16.985 0,25.585" />
    <polygon
       transform="translate(4,256)"
       style="fill:#000000;stroke:#000000"
       id="polygon336"
       points="462.5,-190.104 462.5,-190.104 459,-180.104 455.5,-190.104 " />
    <ellipse
       style="fill:#0066ff;stroke:#000000"
       id="ellipse341"
       ry="18"
       rx="27"
       cy="94"
       cx="535" />
    <text
       style="font-size:14px;font-family:Times, serif;text-anchor:middle;fill:#ffffff"
       id="text343"
       font-size="14.00"
       y="97.699997"
       x="535">16</text>
    <path
       style="fill:none;stroke:#000000"
       inkscape:connector-curvature="0"
       id="path348"
       d="m 477.57,37.166 c 10.18,9.896 23.954,23.288 35.461,34.475" />
    <polygon
       transform="translate(4,256)"
       style="fill:#000000;stroke:#000000"
       id="polygon350"
       points="511.474,-186.865 511.474,-186.865 516.204,-177.385 506.595,-181.846 " />
    <ellipse
       style="fill:#0066ff;stroke:#000000"
       id="ellipse355"
       ry="18"
       rx="27"
       cy="166"
       cx="319" />
    <text
       style="font-size:14px;font-family:Times, serif;text-anchor:middle;fill:#ffffff"
       id="text357"
       font-size="14.00"
       y="169.7"
       x="319">25</text>
    <path
       style="fill:none;stroke:#000000"
       inkscape:connector-curvature="0"
       id="path362"
       d="m 441.752,105.329 c -24.354,11.839 -64.471,31.34 -92.18,44.809" />
    <polygon
       transform="translate(4,256)"
       style="fill:#000000;stroke:#000000"
       id="polygon364"
       points="346.859,-102.595 346.859,-102.595 336.335,-101.371 343.798,-108.891 " />
    <ellipse
       style="fill:#aad400;fill-opacity:1;stroke:#000000"
       id="ellipse369"
       ry="18"
       rx="27"
       cy="166"
       cx="103" />
    <text
       style="font-size:14px;font-family:Times, serif;text-anchor:middle"
       id="text371"
       font-size="14.00"
       y="169.7"
       x="103">27</text>
    <path
       style="fill:none;stroke:#000000"
       inkscape:connector-curvature="0"
       id="path376"
       d="m 442.498,106.045 c -4.957,2.285 -10.321,4.451 -15.498,5.955 -123.873,35.992 -164.127,0.008 -288,36 -1.941,0.564 -3.909,1.221 -5.872,1.943" />
    <polygon
       transform="translate(4,256)"
       style="fill:#000000;stroke:#000000"
       id="polygon378"
       points="130.079,-102.662 130.079,-102.662 119.502,-102.045 127.386,-109.123 " />
    <ellipse
       style="fill:#0066ff;stroke:#000000"
       id="ellipse383"
       ry="18"
       rx="27"
       cy="166"
       cx="391" />
    <text
       style="font-size:14px;font-family:Times, serif;text-anchor:middle;fill:#ffffff"
       id="text385"
       font-size="14.00"
       y="169.7"
       x="391">26</text>
    <path
       style="fill:none;stroke:#000000"
       inkscape:connector-curvature="0"
       id="path390"
       d="m 513.752,105.329 c -24.354,11.839 -64.471,31.34 -92.18,44.809" />
    <polygon
       transform="translate(4,256)"
       style="fill:#000000;stroke:#000000"
       id="polygon392"
       points="418.859,-102.595 418.859,-102.595 408.335,-101.371 415.798,-108.891 " />
    <ellipse
       style="fill:#aad400;fill-opacity:1;stroke:#000000"
       id="ellipse397"
       ry="18"
       rx="27"
       cy="166"
       cx="535" />
    <text
       style="font-size:14px;font-family:Times, serif;text-anchor:middle"
       id="text399"
       font-size="14.00"
       y="169.7"
       x="535">28</text>
    <path
       style="fill:none;stroke:#000000"
       inkscape:connector-curvature="0"
       id="path404"
       d="m 535,112.303 c 0,7.714 0,16.985 0,25.585" />
    <polygon
       transform="translate(4,256)"
       style="fill:#000000;stroke:#000000"
       id="polygon406"
       points="534.5,-118.104 534.5,-118.104 531,-108.104 527.5,-118.104 " />
    <path
       style="fill:none;stroke:#000000"
       inkscape:connector-curvature="0"
       id="path411"
       d="m 297.752,177.3287 c -24.354,11.8389 -64.471,31.3401 -92.18,44.8098" />
    <polygon
       transform="translate(4,256)"
       style="fill:#000000;stroke:#000000"
       id="polygon413"
       points="202.859,-30.5953 202.859,-30.5953 192.335,-29.3711 199.798,-36.8909 " />
    <path
       style="fill:none;stroke:#000000"
       inkscape:connector-curvature="0"
       id="path418"
       d="m 304.43,181.1655 c -10.18,9.8969 -23.954,23.2883 -35.461,34.4754" />
    <polygon
       transform="translate(4,256)"
       style="fill:#000000;stroke:#000000"
       id="polygon420"
       points="267.405,-37.8461 267.405,-37.8461 257.796,-33.3847 262.526,-42.865 " />
    <path
       style="fill:none;stroke:#000000"
       inkscape:connector-curvature="0"
       id="path425"
       d="m 88.4297,181.1655 c -10.1796,9.8969 -23.9536,23.2883 -35.4603,34.4754" />
    <polygon
       transform="translate(4,256)"
       style="fill:#000000;stroke:#000000"
       id="polygon427"
       points="51.4055,-37.8461 51.4055,-37.8461 41.7957,-33.3847 46.5259,-42.865 " />
    <path
       style="fill:none;stroke:#000000"
       inkscape:connector-curvature="0"
       id="path432"
       d="m 103,184.3034 c 0,7.7139 0,16.9841 0,25.5842" />
    <polygon
       transform="translate(4,256)"
       style="fill:#000000;stroke:#000000"
       id="polygon434"
       points="102.5,-46.1043 102.5,-46.1043 99,-36.1043 95.5001,-46.1044 " />
    <path
       style="fill:none;stroke:#000000"
       inkscape:connector-curvature="0"
       id="path439"
       d="m 376.43,181.1655 c -10.18,9.8969 -23.954,23.2883 -35.461,34.4754" />
    <polygon
       transform="translate(4,256)"
       style="fill:#000000;stroke:#000000"
       id="polygon441"
       points="339.405,-37.8461 339.405,-37.8461 329.796,-33.3847 334.526,-42.865 " />
    <path
       style="fill:none;stroke:#000000"
       inkscape:connector-curvature="0"
       id="path446"
       d="m 391,184.3034 c 0,7.7139 0,16.9841 0,25.5842" />
    <polygon
       transform="translate(4,256)"
       style="fill:#000000;stroke:#000000"
       id="polygon448"
       points="390.5,-46.1043 390.5,-46.1043 387,-36.1043 383.5,-46.1044 " />
    <path
       style="fill:none;stroke:#000000"
       inkscape:connector-curvature="0"
       id="path453"
       d="m 520.43,181.1655 c -10.18,9.8969 -23.954,23.2883 -35.461,34.4754" />
    <polygon
       transform="translate(4,256)"
       style="fill:#000000;stroke:#000000"
       id="polygon455"
       points="483.405,-37.8461 483.405,-37.8461 473.796,-33.3847 478.526,-42.865 " />
    <path
       style="fill:none;stroke:#000000"
       inkscape:connector-curvature="0"
       id="path460"
       d="m 535,184.3034 c 0,7.7139 0,16.9841 0,25.5842" />
    <polygon
       transform="translate(4,256)"
       style="fill:#000000;stroke:#000000"
       id="polygon462"
       points="534.5,-46.1043 534.5,-46.1043 531,-36.1043 527.5,-46.1044 " />
    <ellipse
       style="fill:#0066ff;stroke:#000000"
       id="ellipse467"
       ry="18"
       rx="27"
       cy="22"
       cx="535" />
    <text
       style="font-size:14px;font-family:Times, serif;text-anchor:middle;fill:#ffffff"
       id="text469"
       font-size="14.00"
       y="25.699997"
       x="535">6</text>
    <path
       style="fill:none;stroke:#000000"
       inkscape:connector-curvature="0"
       id="path474"
       d="m 520.43,37.166 c -10.18,9.896 -23.954,23.288 -35.461,34.475" />
    <polygon
       transform="translate(4,256)"
       style="fill:#000000;stroke:#000000"
       id="polygon476"
       points="483.405,-181.846 483.405,-181.846 473.796,-177.385 478.526,-186.865 " />
    <path
       style="fill:none;stroke:#000000"
       inkscape:connector-curvature="0"
       id="path481"
       d="m 535,40.303 c 0,7.714 0,16.985 0,25.585" />
    <polygon
       transform="translate(4,256)"
       style="fill:#000000;stroke:#000000"
       id="polygon483"
       points="534.5,-190.104 534.5,-190.104 531,-180.104 527.5,-190.104 " />
    <ellipse
       style="fill:#aad400;stroke:#000000"
       id="ellipse488"
       ry="18"
       rx="27"
       cy="22"
       cx="319" />
    <text
       style="font-size:14px;font-family:Times, serif;text-anchor:middle"
       id="text490"
       font-size="14.00"
       y="25.699997"
       x="319">7</text>
    <ellipse
       style="fill:#aad400;fill-opacity:1;stroke:#000000"
       id="ellipse495"
       ry="18"
       rx="27"
       cy="94"
       cx="319" />
    <text
       style="font-size:14px;font-family:Times, serif;text-anchor:middle"
       id="text497"
       font-size="14.00"
       y="97.699997"
       x="319">17</text>
    <path
       style="fill:none;stroke:#000000"
       inkscape:connector-curvature="0"
       id="path502"
       d="m 319,40.303 c 0,7.714 0,16.985 0,25.585" />
    <polygon
       transform="translate(4,256)"
       style="fill:#000000;stroke:#000000"
       id="polygon504"
       points="318.5,-190.104 318.5,-190.104 315,-180.104 311.5,-190.104 " />
    <ellipse
       style="fill:#aad400;fill-opacity:1;stroke:#000000"
       id="ellipse509"
       ry="18"
       rx="27"
       cy="94"
       cx="391" />
    <text
       style="font-size:14px;font-family:Times, serif;text-anchor:middle"
       id="text511"
       font-size="14.00"
       y="97.699997"
       x="391">18</text>
    <path
       style="fill:none;stroke:#000000"
       inkscape:connector-curvature="0"
       id="path516"
       d="m 333.57,37.166 c 10.18,9.896 23.954,23.288 35.461,34.475" />
    <polygon
       transform="translate(4,256)"
       style="fill:#000000;stroke:#000000"
       id="polygon518"
       points="367.474,-186.865 367.474,-186.865 372.204,-177.385 362.595,-181.846 " />
    <path
       style="fill:none;stroke:#000000"
       inkscape:connector-curvature="0"
       id="path523"
       d="m 319,112.303 c 0,7.714 0,16.985 0,25.585" />
    <polygon
       transform="translate(4,256)"
       style="fill:#000000;stroke:#000000"
       id="polygon525"
       points="318.5,-118.104 318.5,-118.104 315,-108.104 311.5,-118.104 " />
    <path
       style="fill:none;stroke:#000000"
       inkscape:connector-curvature="0"
       id="path530"
       d="m 297.972,105.774 c -4.843,2.243 -10.025,4.459 -14.972,6.226 -62.125,22.191 -81.875,13.809 -144,36 -1.855,0.663 -3.743,1.388 -5.634,2.155" />
    <polygon
       transform="translate(4,256)"
       style="fill:#000000;stroke:#000000"
       id="polygon532"
       points="130.594,-102.562 130.594,-102.562 120.028,-101.774 127.796,-108.979 " />
    <path
       style="fill:none;stroke:#000000"
       inkscape:connector-curvature="0"
       id="path537"
       d="m 391,112.303 c 0,7.714 0,16.985 0,25.585" />
    <polygon
       transform="translate(4,256)"
       style="fill:#000000;stroke:#000000"
       id="polygon539"
       points="390.5,-118.104 390.5,-118.104 387,-108.104 383.5,-118.104 " />
    <path
       style="fill:none;stroke:#000000"
       inkscape:connector-curvature="0"
       id="path544"
       d="m 412.248,105.329 c 24.354,11.839 64.471,31.34 92.18,44.809" />
    <polygon
       transform="translate(4,256)"
       style="fill:#000000;stroke:#000000"
       id="polygon546"
       points="502.202,-108.891 502.202,-108.891 509.665,-101.371 499.141,-102.595 " />
    <ellipse
       style="fill:#aad400;stroke:#000000"
       id="ellipse551"
       ry="18"
       rx="27"
       cy="22"
       cx="391" />
    <text
       style="font-size:14px;font-family:Times, serif;text-anchor:middle"
       id="text553"
       font-size="14.00"
       y="25.699997"
       x="391">8</text>
    <path
       style="fill:none;stroke:#000000"
       inkscape:connector-curvature="0"
       id="path558"
       d="m 376.43,37.166 c -10.18,9.896 -23.954,23.288 -35.461,34.475" />
    <polygon
       transform="translate(4,256)"
       style="fill:#000000;stroke:#000000"
       id="polygon560"
       points="339.405,-181.846 339.405,-181.846 329.796,-177.385 334.526,-186.865 " />
    <path
       style="fill:none;stroke:#000000"
       inkscape:connector-curvature="0"
       id="path565"
       d="m 391,40.303 c 0,7.714 0,16.985 0,25.585" />
    <polygon
       transform="translate(4,256)"
       style="fill:#000000;stroke:#000000"
       id="polygon567"
       points="390.5,-190.104 390.5,-190.104 387,-180.104 383.5,-190.104 " />
  </g>
  <g
     id="g5697"
     transform="translate(41.749271,-3.887538)">
    <ellipse
       style="fill:#fff6d5;stroke:#000000;stroke-width:0.99874341"
       id="ellipse12-3"
       ry="17.977383"
       rx="26.96607"
       cy="22.523245"
       cx="689.27026" />
    <text
       style="font-size:13.98240757px;font-family:Times, serif;text-anchor:middle"
       id="text14-9"
       font-size="14.00"
       y="26.218592"
       x="689.27026">1-2</text>
    <ellipse
       style="fill:#fff6d5;stroke:#000000;stroke-width:0.99874341"
       id="ellipse19-9"
       ry="17.977383"
       rx="31.356247"
       cy="94.43277"
       cx="689.27026" />
    <text
       style="font-size:13.98240757px;font-family:Times, serif;text-anchor:middle"
       id="text21-8"
       font-size="14.00"
       y="98.128113"
       x="689.27026">11-12</text>
    <path
       style="fill:none;stroke:#000000;stroke-width:0.99874341"
       inkscape:connector-curvature="0"
       id="path26-1"
       d="m 689.27025,40.803246 c 0,7.704307 0,16.963658 0,25.552851" />
    <polygon
       transform="matrix(0.99874336,0,0,0.99874344,658.11225,256.22921)"
       style="fill:#000000;stroke:#000000"
       id="polygon28-7"
       points="27.6973,-190.104 34.6973,-190.104 34.6973,-190.104 31.1972,-180.104 " />
    <ellipse
       style="fill:#fff6d5;stroke:#000000;stroke-width:0.99874341"
       id="ellipse33-8"
       ry="17.977383"
       rx="31.356247"
       cy="166.3423"
       cx="689.27026" />
    <text
       style="font-size:13.98240757px;font-family:Times, serif;text-anchor:middle"
       id="text35-5"
       font-size="14.00"
       y="170.03764"
       x="689.27026">21-22</text>
    <path
       style="fill:none;stroke:#000000;stroke-width:0.99874341"
       inkscape:connector-curvature="0"
       id="path40-6"
       d="m 689.27025,112.71277 c 0,7.70431 0,16.96366 0,25.55285" />
    <polygon
       transform="matrix(0.99874336,0,0,0.99874344,658.11225,256.22921)"
       style="fill:#000000;stroke:#000000"
       id="polygon42-9"
       points="27.6973,-118.104 34.6973,-118.104 34.6973,-118.104 31.1972,-108.104 " />
    <ellipse
       style="fill:#ffd5d5;stroke:#000000;stroke-width:0.99874341"
       id="ellipse47-1"
       ry="17.977383"
       rx="31.356247"
       cy="166.3423"
       cx="769.16949" />
    <text
       style="font-size:13.98240757px;font-family:Times, serif;text-anchor:middle"
       id="text49-8"
       font-size="14.00"
       y="170.03764"
       x="769.16956">23-24</text>
    <path
       style="fill:none;stroke:#000000;stroke-width:0.99874341"
       inkscape:connector-curvature="0"
       id="path54-9"
       d="m 705.82552,109.91729 c 11.24874,9.84262 26.31818,23.02803 38.93671,34.07014" />
    <polygon
       transform="matrix(0.99874336,0,0,0.99874344,658.11225,256.22921)"
       style="fill:#000000;stroke:#000000"
       id="polygon56-4"
       points="84.8118,-109.437 89.4214,-114.705 89.4214,-114.705 94.6424,-105.485 " />
    <ellipse
       style="fill:#fff6d5;stroke:#000000;stroke-width:0.99874341"
       id="ellipse61-2"
       ry="17.977383"
       rx="31.356247"
       cy="238.25183"
       cx="689.27026" />
    <text
       style="font-size:13.98240757px;font-family:Times, serif;text-anchor:middle"
       id="text63-5"
       font-size="14.00"
       y="241.94717"
       x="689.27026">31-32</text>
    <path
       style="fill:none;stroke:#000000;stroke-width:0.99874341"
       inkscape:connector-curvature="0"
       id="path68-4"
       d="m 689.27025,184.6227 c 0,7.70421 0,16.96276 0,25.55205" />
    <polygon
       transform="matrix(0.99874336,0,0,0.99874344,658.11225,256.22921)"
       style="fill:#000000;stroke:#000000"
       id="polygon70-2"
       points="27.6973,-46.1044 34.6973,-46.1043 34.6973,-46.1043 31.1972,-36.1043 " />
    <ellipse
       style="fill:#0066ff;stroke:#000000;stroke-width:0.99874341"
       id="ellipse75-2"
       ry="17.977383"
       rx="31.356247"
       cy="238.25183"
       cx="769.16949" />
    <text
       style="font-size:13.98240757px;font-family:Times, serif;text-anchor:middle;fill:#ffffff"
       id="text77-3"
       font-size="14.00"
       y="241.94717"
       x="769.16956">35-36</text>
    <path
       style="fill:none;stroke:#000000;stroke-width:0.99874341"
       inkscape:connector-curvature="0"
       id="path82-2"
       d="m 705.82552,181.82682 c 11.24874,9.84272 26.31818,23.02843 38.93671,34.06973" />
    <polygon
       transform="matrix(0.99874336,0,0,0.99874344,658.11225,256.22921)"
       style="fill:#000000;stroke:#000000"
       id="polygon84-3"
       points="84.8118,-37.4365 89.4214,-42.7046 89.4214,-42.7046 94.6424,-33.4855 " />
    <ellipse
       style="fill:#ffd5d5;stroke:#000000;stroke-width:0.99874341"
       id="ellipse89-8"
       ry="17.977383"
       rx="31.356247"
       cy="238.25183"
       cx="849.06897" />
    <text
       style="font-size:13.98240757px;font-family:Times, serif;text-anchor:middle"
       id="text91-8"
       font-size="14.00"
       y="241.94717"
       x="849.06903">33-34</text>
    <path
       style="fill:none;stroke:#000000;stroke-width:0.99874341"
       inkscape:connector-curvature="0"
       id="path96-8"
       d="m 785.72469,181.82682 c 11.24884,9.84272 26.31888,23.02843 38.937,34.06973" />
    <polygon
       transform="matrix(0.99874336,0,0,0.99874344,658.11225,256.22921)"
       style="fill:#000000;stroke:#000000"
       id="polygon98-7"
       points="164.812,-37.4365 169.421,-42.7046 169.421,-42.7046 174.642,-33.4855 " />
    <ellipse
       style="fill:#aad400;fill-opacity:1;stroke:#000000;stroke-width:0.99874341"
       id="ellipse103-5"
       ry="17.977383"
       rx="31.356247"
       cy="238.25183"
       cx="928.96844" />
    <text
       style="font-size:13.98240757px;font-family:Times, serif;text-anchor:middle"
       id="text105-0"
       font-size="14.00"
       y="241.94717"
       x="928.96851">37-38</text>
    <path
       style="fill:none;stroke:#000000;stroke-width:0.99874341"
       inkscape:connector-curvature="0"
       id="path110-6"
       d="m 793.43998,177.95918 c 27.2597,11.926 71.66882,31.35526 102.17644,44.70236" />
    <polygon
       transform="matrix(0.99874336,0,0,0.99874344,658.11225,256.22921)"
       style="fill:#000000;stroke:#000000"
       id="polygon112-0"
       points="236.628,-30.3039 239.434,-36.717 239.434,-36.717 247.192,-29.5022 " />
    <ellipse
       style="fill:#ffd5d5;stroke:#000000;stroke-width:0.99874341"
       id="ellipse117-5"
       ry="17.977383"
       rx="26.96607"
       cy="22.523245"
       cx="769.16949" />
    <text
       style="font-size:13.98240757px;font-family:Times, serif;text-anchor:middle"
       id="text119-5"
       font-size="14.00"
       y="26.218592"
       x="769.16956">3-4</text>
    <ellipse
       style="fill:#ffd5d5;stroke:#000000;stroke-width:0.99874341"
       id="ellipse124"
       ry="17.977383"
       rx="31.356247"
       cy="94.43277"
       cx="769.16949" />
    <text
       style="font-size:13.98240757px;font-family:Times, serif;text-anchor:middle"
       id="text126"
       font-size="14.00"
       y="98.128113"
       x="769.16956">13-14</text>
    <path
       style="fill:none;stroke:#000000;stroke-width:0.99874341"
       inkscape:connector-curvature="0"
       id="path131"
       d="m 769.16952,40.803246 c 0,7.704307 0,16.963658 0,25.552851" />
    <polygon
       transform="matrix(0.99874336,0,0,0.99874344,658.11225,256.22921)"
       style="fill:#000000;stroke:#000000"
       id="polygon133"
       points="107.697,-190.104 114.697,-190.104 114.697,-190.104 111.197,-180.104 " />
    <path
       style="fill:none;stroke:#000000;stroke-width:0.99874341"
       inkscape:connector-curvature="0"
       id="path138-5"
       d="m 752.61455,109.91729 c -11.24875,9.84262 -26.31819,23.02803 -38.93681,34.07014" />
    <polygon
       transform="matrix(0.99874336,0,0,0.99874344,658.11225,256.22921)"
       style="fill:#000000;stroke:#000000"
       id="polygon140-2"
       points="52.9731,-114.705 57.5826,-109.437 57.5826,-109.437 47.752,-105.485 " />
    <path
       style="fill:none;stroke:#000000;stroke-width:0.99874341"
       inkscape:connector-curvature="0"
       id="path145"
       d="m 769.16952,112.71277 c 0,7.70431 0,16.96366 0,25.55285" />
    <polygon
       transform="matrix(0.99874336,0,0,0.99874344,658.11225,256.22921)"
       style="fill:#000000;stroke:#000000"
       id="polygon147"
       points="107.697,-118.104 114.697,-118.104 114.697,-118.104 111.197,-108.104 " />
    <ellipse
       style="fill:#0066ff;stroke:#000000;stroke-width:0.99874341"
       id="ellipse152"
       ry="17.977383"
       rx="26.96607"
       cy="22.523245"
       cx="849.06897" />
    <text
       style="font-size:13.98240757px;font-family:Times, serif;text-anchor:middle;fill:#ffffff"
       id="text154"
       font-size="14.00"
       y="26.218592"
       x="849.06903">5-6</text>
    <ellipse
       style="fill:#0066ff;stroke:#000000;stroke-width:0.99874341"
       id="ellipse159-5"
       ry="17.977383"
       rx="31.356247"
       cy="94.43277"
       cx="849.06897" />
    <text
       style="font-size:13.98240757px;font-family:Times, serif;text-anchor:middle;fill:#ffffff"
       id="text161-8"
       font-size="14.00"
       y="98.128113"
       x="849.06903">15-16</text>
    <path
       style="fill:none;stroke:#000000;stroke-width:0.99874341"
       inkscape:connector-curvature="0"
       id="path166-5"
       d="m 849.06898,40.803246 c 0,7.704307 0,16.963658 0,25.552851" />
    <polygon
       transform="matrix(0.99874336,0,0,0.99874344,658.11225,256.22921)"
       style="fill:#000000;stroke:#000000"
       id="polygon168-3"
       points="187.697,-190.104 194.697,-190.104 194.697,-190.104 191.197,-180.104 " />
    <ellipse
       style="fill:#0066ff;stroke:#000000;stroke-width:0.99874341"
       id="ellipse173-4"
       ry="17.977383"
       rx="31.356247"
       cy="166.3423"
       cx="849.06897" />
    <text
       style="font-size:13.98240757px;font-family:Times, serif;text-anchor:middle;fill:#ffffff"
       id="text175-1"
       font-size="14.00"
       y="170.03764"
       x="849.06903">25-26</text>
    <path
       style="fill:none;stroke:#000000;stroke-width:0.99874341"
       inkscape:connector-curvature="0"
       id="path180-4"
       d="m 849.06898,112.71277 c 0,7.70431 0,16.96366 0,25.55285" />
    <polygon
       transform="matrix(0.99874336,0,0,0.99874344,658.11225,256.22921)"
       style="fill:#000000;stroke:#000000"
       id="polygon182-8"
       points="187.697,-118.104 194.697,-118.104 194.697,-118.104 191.197,-108.104 " />
    <ellipse
       style="fill:#aad400;fill-opacity:1;stroke:#000000;stroke-width:0.99874341"
       id="ellipse187-3"
       ry="17.977383"
       rx="31.356247"
       cy="166.3423"
       cx="928.96844" />
    <text
       style="font-size:13.98240757px;font-family:Times, serif;text-anchor:middle"
       id="text189-4"
       font-size="14.00"
       y="170.03764"
       x="928.96851">27-28</text>
    <path
       style="fill:none;stroke:#000000;stroke-width:0.99874341"
       inkscape:connector-curvature="0"
       id="path194-6"
       d="m 865.62415,109.91729 c 11.24885,9.84262 26.31889,23.02803 38.93701,34.07014" />
    <polygon
       transform="matrix(0.99874336,0,0,0.99874344,658.11225,256.22921)"
       style="fill:#000000;stroke:#000000"
       id="polygon196-2"
       points="244.812,-109.437 249.421,-114.705 249.421,-114.705 254.642,-105.485 " />
    <path
       style="fill:none;stroke:#000000;stroke-width:0.99874341"
       inkscape:connector-curvature="0"
       id="path201"
       d="m 824.79952,177.95918 c -27.2597,11.926 -71.66942,31.35526 -102.17714,44.70236" />
    <polygon
       transform="matrix(0.99874336,0,0,0.99874344,658.11225,256.22921)"
       style="fill:#000000;stroke:#000000"
       id="polygon203"
       points="62.9609,-36.717 65.7667,-30.3039 65.7667,-30.3039 55.2022,-29.5022 " />
    <path
       style="fill:none;stroke:#000000;stroke-width:0.99874341"
       inkscape:connector-curvature="0"
       id="path208-1"
       d="m 832.51381,181.82682 c -11.24884,9.84272 -26.31788,23.02843 -38.937,34.06973" />
    <polygon
       transform="matrix(0.99874336,0,0,0.99874344,658.11225,256.22921)"
       style="fill:#000000;stroke:#000000"
       id="polygon210-3"
       points="132.973,-42.7046 137.583,-37.4365 137.583,-37.4365 127.752,-33.4855 " />
    <path
       style="fill:none;stroke:#000000;stroke-width:0.99874341"
       inkscape:connector-curvature="0"
       id="path215"
       d="m 912.41328,181.82682 c -11.24884,9.84272 -26.31788,23.02843 -38.93701,34.06973" />
    <polygon
       transform="matrix(0.99874336,0,0,0.99874344,658.11225,256.22921)"
       style="fill:#000000;stroke:#000000"
       id="polygon217"
       points="212.973,-42.7046 217.583,-37.4365 217.583,-37.4365 207.752,-33.4855 " />
    <path
       style="fill:none;stroke:#000000;stroke-width:0.99874341"
       inkscape:connector-curvature="0"
       id="path222-9"
       d="m 928.96845,184.6227 c 0,7.70421 0,16.96276 0,25.55205" />
    <polygon
       transform="matrix(0.99874336,0,0,0.99874344,658.11225,256.22921)"
       style="fill:#000000;stroke:#000000"
       id="polygon224-1"
       points="267.697,-46.1044 274.697,-46.1043 274.697,-46.1043 271.197,-36.1043 " />
    <ellipse
       style="fill:#aad400;stroke:#000000;stroke-width:0.99874341"
       id="ellipse229"
       ry="17.977383"
       rx="26.96607"
       cy="22.523245"
       cx="928.96844" />
    <text
       style="font-size:13.98240757px;font-family:Times, serif;text-anchor:middle"
       id="text231"
       font-size="14.00"
       y="26.218592"
       x="928.96851">7-8</text>
    <ellipse
       style="fill:#aad400;fill-opacity:1;stroke:#000000;stroke-width:0.99874341"
       id="ellipse236-8"
       ry="17.977383"
       rx="31.356247"
       cy="94.43277"
       cx="928.96844" />
    <text
       style="font-size:13.98240757px;font-family:Times, serif;text-anchor:middle"
       id="text238-0"
       font-size="14.00"
       y="98.128113"
       x="928.96851">17-18</text>
    <path
       style="fill:none;stroke:#000000;stroke-width:0.99874341"
       inkscape:connector-curvature="0"
       id="path243"
       d="m 928.96845,40.803246 c 0,7.704307 0,16.963658 0,25.552851" />
    <polygon
       transform="matrix(0.99874336,0,0,0.99874344,658.11225,256.22921)"
       style="fill:#000000;stroke:#000000"
       id="polygon245"
       points="267.697,-190.104 274.697,-190.104 274.697,-190.104 271.197,-180.104 " />
    <path
       style="fill:none;stroke:#000000;stroke-width:0.99874341"
       inkscape:connector-curvature="0"
       id="path250-7"
       d="m 912.41328,109.91729 c -11.24884,9.84262 -26.31788,23.02803 -38.93701,34.07014" />
    <polygon
       transform="matrix(0.99874336,0,0,0.99874344,658.11225,256.22921)"
       style="fill:#000000;stroke:#000000"
       id="polygon252-2"
       points="212.973,-114.705 217.583,-109.437 217.583,-109.437 207.752,-105.485 " />
    <path
       style="fill:none;stroke:#000000;stroke-width:0.99874341"
       inkscape:connector-curvature="0"
       id="path257"
       d="m 928.96845,112.71277 c 0,7.70431 0,16.96366 0,25.55285" />
    <polygon
       transform="matrix(0.99874336,0,0,0.99874344,658.11225,256.22921)"
       style="fill:#000000;stroke:#000000"
       id="polygon259"
       points="267.697,-118.104 274.697,-118.104 274.697,-118.104 271.197,-108.104 " />
  </g>
  <g
     id="g6289"
     transform="translate(-5.057873,9.996435)">
    <path
       inkscape:connector-curvature="0"
       id="path5933"
       d="m 594.39508,137.28998 68.25745,0"
       style="fill:none;fill-rule:evenodd;stroke:#000000;stroke-width:6.4000001;stroke-linecap:butt;stroke-linejoin:miter;stroke-miterlimit:4;stroke-dasharray:none;stroke-opacity:1;marker-end:url(#Arrow1Send)" />
    <text
       sodipodi:linespacing="125%"
       id="text6273"
       y="111.98103"
       x="602.04608"
       style="font-style:normal;font-weight:normal;font-size:32px;line-height:125%;font-family:sans-serif;letter-spacing:0px;word-spacing:0px;fill:#000000;fill-opacity:1;stroke:none;stroke-width:1px;stroke-linecap:butt;stroke-linejoin:miter;stroke-opacity:1"
       xml:space="preserve"><tspan
         y="111.98103"
         x="602.04608"
         id="tspan6275"
         sodipodi:role="line">F(4)</tspan></text>
  </g>
</svg>
