<?xml version="1.0" encoding="UTF-8" standalone="no"?>
<!-- Created with Inkscape (http://www.inkscape.org/) -->

<svg
   xmlns:dc="http://purl.org/dc/elements/1.1/"
   xmlns:cc="http://creativecommons.org/ns#"
   xmlns:rdf="http://www.w3.org/1999/02/22-rdf-syntax-ns#"
   xmlns:svg="http://www.w3.org/2000/svg"
   xmlns="http://www.w3.org/2000/svg"
   xmlns:sodipodi="http://sodipodi.sourceforge.net/DTD/sodipodi-0.dtd"
   xmlns:inkscape="http://www.inkscape.org/namespaces/inkscape"
   width="120.9"
   height="141.29214"
   viewBox="0 0 120.9 141.29215"
   id="svg4244"
   version="1.1"
   inkscape:version="0.48.5 r10040"
   sodipodi:docname="example_3_dag.svg">
  <defs
     id="defs4246">
    <marker
       inkscape:stockid="Arrow1Lend"
       orient="auto"
       refY="0"
       refX="0"
       id="Arrow1Lend"
       style="overflow:visible">
      <path
         inkscape:connector-curvature="0"
         id="path3951"
         d="M 0,0 5,-5 -12.5,0 5,5 0,0 z"
         style="fill-rule:evenodd;stroke:#000000;stroke-width:1pt"
         transform="matrix(-0.8,0,0,-0.8,-10,0)" />
    </marker>
    <marker
       inkscape:stockid="Arrow1Lend"
       orient="auto"
       refY="0"
       refX="0"
       id="marker4468"
       style="overflow:visible">
      <path
         inkscape:connector-curvature="0"
         id="path4470"
         d="M 0,0 5,-5 -12.5,0 5,5 0,0 z"
         style="fill-rule:evenodd;stroke:#000000;stroke-width:1pt"
         transform="matrix(-0.8,0,0,-0.8,-10,0)" />
    </marker>
    <marker
       inkscape:stockid="Arrow1Lend"
       orient="auto"
       refY="0"
       refX="0"
       id="marker4472"
       style="overflow:visible">
      <path
         inkscape:connector-curvature="0"
         id="path4474"
         d="M 0,0 5,-5 -12.5,0 5,5 0,0 z"
         style="fill-rule:evenodd;stroke:#000000;stroke-width:1pt"
         transform="matrix(-0.8,0,0,-0.8,-10,0)" />
    </marker>
    <marker
       inkscape:stockid="Arrow1Lend"
       orient="auto"
       refY="0"
       refX="0"
       id="marker4476"
       style="overflow:visible">
      <path
         inkscape:connector-curvature="0"
         id="path4478"
         d="M 0,0 5,-5 -12.5,0 5,5 0,0 z"
         style="fill-rule:evenodd;stroke:#000000;stroke-width:1pt"
         transform="matrix(-0.8,0,0,-0.8,-10,0)" />
    </marker>
  </defs>
  <sodipodi:namedview
     id="base"
     pagecolor="#ffffff"
     bordercolor="#666666"
     borderopacity="1.0"
     inkscape:pageopacity="0.0"
     inkscape:pageshadow="2"
     inkscape:zoom="3.959798"
     inkscape:cx="144.97285"
     inkscape:cy="43.020924"
     inkscape:document-units="px"
     inkscape:current-layer="layer1"
     showgrid="false"
     fit-margin-top="0"
     fit-margin-left="0"
     fit-margin-right="0"
     fit-margin-bottom="0"
     inkscape:window-width="2560"
     inkscape:window-height="1569"
     inkscape:window-x="2560"
     inkscape:window-y="0"
     inkscape:window-maximized="1" />
  <metadata
     id="metadata4249">
    <rdf:RDF>
      <cc:Work
         rdf:about="">
        <dc:format>image/svg+xml</dc:format>
        <dc:type
           rdf:resource="http://purl.org/dc/dcmitype/StillImage" />
        <dc:title />
      </cc:Work>
    </rdf:RDF>
  </metadata>
  <g
     inkscape:label="Calque 1"
     inkscape:groupmode="layer"
     id="layer1"
     transform="translate(414.21233,-385.18046)">
    <g
       id="g3922"
       transform="translate(-101.89645,0.4434147)">
      <ellipse
         transform="matrix(0.76027133,0,0,0.76027133,-299.76297,523.80754)"
         d="m 90,-162 c 0,9.94113 -12.088312,18 -27,18 -14.911688,0 -27,-8.05887 -27,-18 0,-9.94113 12.088312,-18 27,-18 14.911688,0 27,8.05887 27,18 z"
         id="ellipse3062"
         ry="18"
         rx="27"
         cy="-162"
         cx="63"
         sodipodi:cx="63"
         sodipodi:cy="-162"
         sodipodi:rx="27"
         sodipodi:ry="18"
         style="fill:#00d400;fill-opacity:1;stroke:#000000" />
      <text
         id="text3064"
         font-size="14.00"
         y="403.45657"
         x="-251.86588"
         style="font-size:10.64379883px;text-anchor:middle;font-family:'Times,serif'">1</text>
      <ellipse
         transform="matrix(0.76027133,0,0,0.76027133,-299.76297,523.80754)"
         d="m 54,-90 c 0,9.941125 -12.088312,18 -27,18 -14.911688,0 -27,-8.058875 -27,-18 0,-9.941125 12.088312,-18 27,-18 14.911688,0 27,8.058875 27,18 z"
         id="ellipse3069"
         ry="18"
         rx="27"
         cy="-90"
         cx="27"
         sodipodi:cx="27"
         sodipodi:cy="-90"
         sodipodi:rx="27"
         sodipodi:ry="18"
         style="fill:#00d400;fill-opacity:1;stroke:#000000" />
      <text
         id="text3071"
         font-size="14.00"
         y="458.19614"
         x="-279.23566"
         style="font-size:10.64379883px;text-anchor:middle;font-family:'Times,serif'">2</text>
      <path
         id="path3076"
         d="m -258.21384,413.74686 c -3.31623,6.44862 -7.4486,14.48393 -11.16968,21.71943"
         inkscape:connector-curvature="0"
         style="fill:none;stroke:#000000;stroke-width:0.76027131" />
      <polygon
         transform="matrix(0.76027133,0,0,0.76027133,-299.76297,523.80754)"
         id="polygon3078"
         points="36.7654,-117.641 42.9904,-114.439 42.9904,-114.439 35.3043,-107.147 "
         style="fill:#000000;stroke:#000000" />
      <ellipse
         transform="matrix(0.76027133,0,0,0.76027133,-299.76297,523.80754)"
         d="m 126,-90 c 0,9.941125 -12.08831,18 -27,18 -14.911688,0 -27,-8.058875 -27,-18 0,-9.941125 12.088312,-18 27,-18 14.91169,0 27,8.058875 27,18 z"
         id="ellipse3083"
         ry="18"
         rx="27"
         cy="-90"
         cx="99"
         sodipodi:cx="99"
         sodipodi:cy="-90"
         sodipodi:rx="27"
         sodipodi:ry="18"
         style="fill:#00d400;fill-opacity:1;stroke:#000000" />
      <text
         id="text3085"
         font-size="14.00"
         y="458.19614"
         x="-224.49611"
         style="font-size:10.64379883px;text-anchor:middle;font-family:'Times,serif'">3</text>
      <path
         id="path3090"
         d="m -245.51791,413.74686 c 3.31622,6.44862 7.4486,14.48393 11.16967,21.71943"
         inkscape:connector-curvature="0"
         style="fill:none;stroke:#000000;stroke-width:0.76027131" />
      <polygon
         transform="matrix(0.76027133,0,0,0.76027133,-299.76297,523.80754)"
         id="polygon3092"
         points="83.0096,-114.439 89.2346,-117.641 89.2346,-117.641 90.6957,-107.147 "
         style="fill:#000000;stroke:#000000" />
      <ellipse
         transform="matrix(0.76027133,0,0,0.76027133,-299.76297,523.80754)"
         d="M 90,-18 C 90,-8.0588745 77.911688,0 63,0 48.088312,0 36,-8.0588745 36,-18 c 0,-9.941125 12.088312,-18 27,-18 14.911688,0 27,8.058875 27,18 z"
         id="ellipse3097"
         ry="18"
         rx="27"
         cy="-18"
         cx="63"
         sodipodi:cx="63"
         sodipodi:cy="-18"
         sodipodi:rx="27"
         sodipodi:ry="18"
         style="fill:#00d400;fill-opacity:1;stroke:#000000" />
      <text
         id="text3099"
         font-size="14.00"
         y="512.93567"
         x="-251.86588"
         style="font-size:10.64379883px;text-anchor:middle;font-family:'Times,serif'">4</text>
      <path
         id="path3104"
         d="m -272.88768,468.4867 c 3.31622,6.44824 7.4486,14.48332 11.16968,21.71882"
         inkscape:connector-curvature="0"
         style="fill:none;stroke:#000000;stroke-width:0.76027131" />
      <polygon
         transform="matrix(0.76027133,0,0,0.76027133,-299.76297,523.80754)"
         id="polygon3106"
         points="47.0096,-42.4395 53.2346,-45.6409 53.2346,-45.6409 54.6957,-35.1473 "
         style="fill:#000000;stroke:#000000" />
      <path
         id="path3111"
         d="m -230.84407,468.4867 c -3.31623,6.44824 -7.44861,14.48332 -11.16968,21.71882"
         inkscape:connector-curvature="0"
         style="fill:none;stroke:#000000;stroke-width:0.76027131" />
      <polygon
         transform="matrix(0.76027133,0,0,0.76027133,-299.76297,523.80754)"
         id="polygon3113"
         points="72.7654,-45.6409 78.9904,-42.4395 78.9904,-42.4395 71.3043,-35.1473 "
         style="fill:#000000;stroke:#000000" />
    </g>
  </g>
</svg>
