<?xml version="1.0" encoding="UTF-8" standalone="no"?>
<!-- Created with Inkscape (http://www.inkscape.org/) -->

<svg
   xmlns:dc="http://purl.org/dc/elements/1.1/"
   xmlns:cc="http://creativecommons.org/ns#"
   xmlns:rdf="http://www.w3.org/1999/02/22-rdf-syntax-ns#"
   xmlns:svg="http://www.w3.org/2000/svg"
   xmlns="http://www.w3.org/2000/svg"
   xmlns:sodipodi="http://sodipodi.sourceforge.net/DTD/sodipodi-0.dtd"
   xmlns:inkscape="http://www.inkscape.org/namespaces/inkscape"
   width="227.75592mm"
   height="101.60413mm"
   viewBox="0 0 807.00917 360.01462"
   id="svg2"
   version="1.1"
   inkscape:version="0.91 r13725"
   sodipodi:docname="jacobi.svg">
  <defs
     id="defs4" />
  <sodipodi:namedview
     id="base"
     pagecolor="#ffffff"
     bordercolor="#666666"
     borderopacity="1.0"
     inkscape:pageopacity="0.0"
     inkscape:pageshadow="2"
     inkscape:zoom="1.4"
     inkscape:cx="297.47033"
     inkscape:cy="137.06228"
     inkscape:document-units="px"
     inkscape:current-layer="layer1"
     showgrid="false"
     inkscape:window-width="2560"
     inkscape:window-height="1569"
     inkscape:window-x="2560"
     inkscape:window-y="0"
     inkscape:window-maximized="1"
     fit-margin-top="0"
     fit-margin-left="0"
     fit-margin-right="0"
     fit-margin-bottom="0" />
  <metadata
     id="metadata7">
    <rdf:RDF>
      <cc:Work
         rdf:about="">
        <dc:format>image/svg+xml</dc:format>
        <dc:type
           rdf:resource="http://purl.org/dc/dcmitype/StillImage" />
        <dc:title></dc:title>
      </cc:Work>
    </rdf:RDF>
  </metadata>
  <g
     inkscape:label="Calque 1"
     inkscape:groupmode="layer"
     id="layer1"
     transform="translate(54.916378,156.71292)">
    <path
       style="opacity:1;fill:#ff0000;fill-opacity:1;stroke:#000000;stroke-width:0.03571429;stroke-miterlimit:4;stroke-dasharray:none;stroke-opacity:1"
       d="m 483.8753,127.64119 c -1.27678,-0.37535 -11.48214,-3.02155 -22.67857,-5.88045 -28.26201,-7.21643 -37.94864,-9.88196 -51.3762,-14.13747 -15.49576,-4.91099 -32.47217,-12.045387 -39.41483,-16.564237 -17.31931,-11.27282 -27.75226,-31.61647 -28.5638,-55.697763 -0.3122,-9.26414 0.80093,-18.09394 3.31366,-26.2852302 1.10597,-3.60539 0.71461,-3.39802 5.33625,-2.82753 9.17556,1.13261 36.18037,3.6698805 64.63349,6.0727202 44.35588,3.7458 67.28551,6.01144 72.32143,7.14593 4.51165,1.01639 6.83897,1.32736 16.07143,2.14745 13.28175,1.17977 18.76561,2.06995 22.4996,3.6523 3.91347,1.65841 5.13737,3.6565 4.12869,6.74034 -1.69295,5.1759 -9.67815,22.945193 -25.82202,57.461163 -7.31889,15.647947 -10.86632,23.548117 -14.59356,32.499997 -1.43125,3.4375 -2.81194,6.27368 -3.06821,6.30262 -0.25626,0.0289 -1.51057,-0.25449 -2.78736,-0.62984 z"
       id="path4182"
       inkscape:connector-curvature="0" />
    <path
       style="opacity:1;fill:#ffff00;fill-opacity:1;stroke:#000000;stroke-width:0.03571429;stroke-miterlimit:4;stroke-dasharray:none;stroke-opacity:1"
       d="m 498.33958,18.545288 c -17.67857,-1.83303 -46.44642,-4.79545 -63.92857,-6.58316 -17.48214,-1.7877 -37.25,-3.8117896 -43.92857,-4.4979796 -6.67857,-0.68619 -18.93796,-1.94051 -27.24308,-2.78738 -8.30512,-0.84686 -15.19135,-1.63088 -15.30274,-1.74227 -0.47666,-0.47666 3.78508,-10.18251 7.08896,-16.1446604 5.6175,-10.13728 11.3519,-17.70057 19.91101,-26.26134 10.53825,-10.540286 15.12758,-13.649918 27.12877,-18.381849 39.1006,-15.416927 104.97283,-27.240277 169.18998,-30.367761 4.533,-0.220765 4.72985,-0.200578 5.49381,0.563377 1.59336,1.593358 0.41836,7.807529 -3.03568,16.054719 -2.35454,5.621914 -4.12199,9.322655 -14.83948,31.071424 -14.4679,29.3594 -18.7572,38.9904904 -22.427,50.3571504 -1.48478,4.5988696 -2.92883,10.2476096 -2.92883,11.4567696 0,0.57615 -0.24322,0.67885 -1.51786,0.64092 -0.83482,-0.0249 -15.98214,-1.54492 -33.66072,-3.37796 z"
       id="path4184"
       inkscape:connector-curvature="0" />
    <path
       style="opacity:1;fill:#0000ff;fill-opacity:1;stroke:#000000;stroke-width:0.03571429;stroke-miterlimit:4;stroke-dasharray:none;stroke-opacity:1"
       d="m 732.26816,41.405077 c -10.01785,-1.04886 -29.30357,-3.04047 -42.85714,-4.42579 -13.55357,-1.38532 -41.03571,-4.19538 -61.07143,-6.24457 -20.03571,-2.04918 -48.5625,-4.96236 -63.39285,-6.47373 -14.83036,-1.51137 -27.02835,-2.8033 -27.10665,-2.87095 -0.0783,-0.0677 10.58717,-24.4466004 23.70104,-54.17543 l 23.8434,-54.052428 3.44182,1.028292 c 5.11871,1.529292 9.64709,2.099974 16.0685,2.025011 4.15909,-0.04855 6.31805,0.09265 8.44474,0.552322 10.47188,2.263422 20.31205,7.327937 31.56375,16.245151 2.23506,1.771333 8.13681,6.776545 13.11501,11.122692 14.94943,13.05139 18.85413,15.99668 29.60696,22.33241 32.46759,19.13036 52.82233,40.80565 60.50369,64.42893 1.5194,4.67278 3.1849,12.53935 2.63749,12.45755 -0.15622,-0.0233 -8.48047,-0.9006 -18.49833,-1.94946 z"
       id="path4186"
       inkscape:connector-curvature="0" />
    <path
       style="opacity:1;fill:#008000;fill-opacity:1;stroke:#000000;stroke-width:0.03571429;stroke-miterlimit:4;stroke-dasharray:none;stroke-opacity:1"
       d="m 542.08959,137.44431 c -16.62359,-0.59864 -36.04843,-2.36133 -49.69842,-4.50984 l -2.73413,-0.43035 23.06411,-52.321418 c 12.68526,-28.77679 23.10382,-52.3757 23.15235,-52.44203 0.0485,-0.0663 9.14111,0.69553 20.20573,1.69301 26.42809,2.38252 42.83359,3.80566 76.54607,6.64018 38.18796,3.21081 53.88542,4.57483 73.92857,6.42394 31.66158,2.92099 44.63965,4.16521 45.14331,4.32795 0.40655,0.13136 0.45911,0.8803 0.28015,3.99147 -0.12117,2.10637 -0.46653,5.11379 -0.76747,6.68316 -3.4349,17.91263 -18.7543,35.85602 -38.8828,45.542848 -39.07047,18.80266 -80.61591,29.76569 -126.48747,33.37758 -13.33698,1.05014 -31.32476,1.47095 -43.75,1.0235 z"
       id="path4188"
       inkscape:connector-curvature="0" />
    <g
       id="g4233"
       transform="translate(29.7995,28.789348)">
      <rect
         y="-95.448593"
         x="5.3376999"
         height="89.90358"
         width="89.90358"
         id="rect4192"
         style="opacity:1;fill:#ff0000;fill-opacity:1;stroke:#000000;stroke-width:0.1;stroke-miterlimit:4;stroke-dasharray:none;stroke-opacity:1" />
      <rect
         style="opacity:1;fill:#ffff00;fill-opacity:1;stroke:#000000;stroke-width:0.1;stroke-miterlimit:4;stroke-dasharray:none;stroke-opacity:1"
         id="rect4194"
         width="89.90358"
         height="89.90358"
         x="-84.665878"
         y="-185.45227" />
      <rect
         y="-5.4449115"
         x="95.341278"
         height="89.90358"
         width="89.90358"
         id="rect4196"
         style="opacity:1;fill:#008000;fill-opacity:1;stroke:#000000;stroke-width:0.1;stroke-miterlimit:4;stroke-dasharray:none;stroke-opacity:1" />
      <rect
         y="84.558769"
         x="185.34486"
         height="89.90358"
         width="89.90358"
         id="rect4200"
         style="opacity:1;fill:#0000ff;fill-opacity:1;stroke:#000000;stroke-width:0.1;stroke-miterlimit:4;stroke-dasharray:none;stroke-opacity:1" />
      <rect
         style="opacity:1;fill:none;fill-opacity:1;stroke:#000000;stroke-width:0.39998412;stroke-miterlimit:4;stroke-dasharray:none;stroke-opacity:1"
         id="rect4231"
         width="359.60001"
         height="359.60001"
         x="-84.505005"
         y="-185.28767" />
    </g>
    <text
       xml:space="preserve"
       style="font-style:normal;font-weight:normal;font-size:40px;line-height:125%;font-family:sans-serif;letter-spacing:0px;word-spacing:0px;fill:#000000;fill-opacity:1;stroke:none;stroke-width:1px;stroke-linecap:butt;stroke-linejoin:miter;stroke-opacity:1"
       x="22.728432"
       y="133.62846"
       id="text4250"
       sodipodi:linespacing="125%"><tspan
         sodipodi:role="line"
         id="tspan4252"
         x="22.728432"
         y="133.62846">0</tspan></text>
    <text
       xml:space="preserve"
       style="font-style:normal;font-weight:normal;font-size:40px;line-height:125%;font-family:sans-serif;letter-spacing:0px;word-spacing:0px;fill:#000000;fill-opacity:1;stroke:none;stroke-width:1px;stroke-linecap:butt;stroke-linejoin:miter;stroke-opacity:1"
       x="203.54575"
       y="-61.836052"
       id="text4254"
       sodipodi:linespacing="125%"><tspan
         sodipodi:role="line"
         id="tspan4256"
         x="203.54575"
         y="-61.836052">0</tspan></text>
  </g>
</svg>
