<?xml version="1.0" encoding="UTF-8" standalone="no"?>
<!-- Created with Inkscape (http://www.inkscape.org/) -->

<svg
   xmlns:dc="http://purl.org/dc/elements/1.1/"
   xmlns:cc="http://creativecommons.org/ns#"
   xmlns:rdf="http://www.w3.org/1999/02/22-rdf-syntax-ns#"
   xmlns:svg="http://www.w3.org/2000/svg"
   xmlns="http://www.w3.org/2000/svg"
   xmlns:sodipodi="http://sodipodi.sourceforge.net/DTD/sodipodi-0.dtd"
   xmlns:inkscape="http://www.inkscape.org/namespaces/inkscape"
   width="244.01176mm"
   height="62.52837mm"
   viewBox="0 0 864.60861 221.55722"
   id="svg2"
   version="1.1"
   inkscape:version="0.91 r13725"
   sodipodi:docname="lu_3.svg">
  <defs
     id="defs4" />
  <sodipodi:namedview
     id="base"
     pagecolor="#ffffff"
     bordercolor="#666666"
     borderopacity="1.0"
     inkscape:pageopacity="0.0"
     inkscape:pageshadow="2"
     inkscape:zoom="0.98994949"
     inkscape:cx="122.61737"
     inkscape:cy="-178.42013"
     inkscape:document-units="px"
     inkscape:current-layer="layer1"
     showgrid="false"
     fit-margin-top="0"
     fit-margin-left="0"
     fit-margin-right="0"
     fit-margin-bottom="0"
     inkscape:window-width="2560"
     inkscape:window-height="1497"
     inkscape:window-x="0"
     inkscape:window-y="39"
     inkscape:window-maximized="1" />
  <metadata
     id="metadata7">
    <rdf:RDF>
      <cc:Work
         rdf:about="">
        <dc:format>image/svg+xml</dc:format>
        <dc:type
           rdf:resource="http://purl.org/dc/dcmitype/StillImage" />
        <dc:title></dc:title>
      </cc:Work>
    </rdf:RDF>
  </metadata>
  <g
     inkscape:label="Calque 1"
     inkscape:groupmode="layer"
     id="layer1"
     transform="translate(-140.48592,-76.596721)">
    <g
       id="g4690"
       transform="translate(37.250807,9.0913729)">
      <g
         style="font-style:normal;font-weight:normal;font-size:40px;line-height:125%;font-family:sans-serif;letter-spacing:0px;word-spacing:0px;fill:#0000ff;fill-opacity:1;stroke:none;stroke-width:1px;stroke-linecap:butt;stroke-linejoin:miter;stroke-opacity:1"
         id="text4136">
        <path
           d="m 114.54367,86.196754 q -4.35547,0 -6.03516,0.996094 -1.67968,0.996094 -1.67968,3.398438 0,1.914062 1.25,3.046875 1.26953,1.113281 3.4375,1.113281 2.98828,0 4.78515,-2.109375 1.81641,-2.128906 1.81641,-5.644531 l 0,-0.800782 -3.57422,0 z m 7.16797,-1.484375 0,12.480469 -3.59375,0 0,-3.320312 q -1.23047,1.992187 -3.06641,2.949218 -1.83593,0.9375 -4.49218,0.9375 -3.35938,0 -5.35157,-1.875 -1.97265,-1.894531 -1.97265,-5.058593 0,-3.691407 2.46093,-5.566407 2.48047,-1.875 7.38282,-1.875 l 5.03906,0 0,-0.351562 q 0,-2.480469 -1.64063,-3.828125 -1.62109,-1.367188 -4.57031,-1.367188 -1.875,0 -3.65234,0.449219 -1.77735,0.449219 -3.41797,1.347656 l 0,-3.320312 q 1.97266,-0.761719 3.82812,-1.132813 1.85547,-0.390625 3.61329,-0.390625 4.74609,0 7.08984,2.460938 2.34375,2.460937 2.34375,7.460937 z"
           id="path5006"
           inkscape:connector-curvature="0" />
      </g>
      <g
         style="font-style:normal;font-weight:normal;font-size:40px;line-height:125%;font-family:sans-serif;letter-spacing:0px;word-spacing:0px;fill:#0000ff;fill-opacity:1;stroke:none;stroke-width:1px;stroke-linecap:butt;stroke-linejoin:miter;stroke-opacity:1"
         id="text4140">
        <path
           d="m 119.58925,137.23201 q 0,-3.96484 -1.64063,-6.21094 -1.62109,-2.26562 -4.47265,-2.26562 -2.85157,0 -4.49219,2.26562 -1.62109,2.2461 -1.62109,6.21094 0,3.96484 1.62109,6.23047 1.64062,2.24609 4.49219,2.24609 2.85156,0 4.47265,-2.24609 1.64063,-2.26563 1.64063,-6.23047 z m -12.22656,-7.63672 q 1.13281,-1.95312 2.85156,-2.89062 1.73828,-0.95704 4.14062,-0.95704 3.98438,0 6.46485,3.16407 2.5,3.16406 2.5,8.32031 0,5.15625 -2.5,8.32031 -2.48047,3.16406 -6.46485,3.16406 -2.40234,0 -4.14062,-0.9375 -1.71875,-0.95703 -2.85156,-2.91015 l 0,3.28125 -3.61329,0 0,-30.39063 3.61329,0 0,11.83594 z"
           id="path5009"
           inkscape:connector-curvature="0" />
      </g>
      <g
         style="font-style:normal;font-weight:normal;font-size:40px;line-height:125%;font-family:sans-serif;letter-spacing:0px;word-spacing:0px;fill:#0000ff;fill-opacity:1;stroke:none;stroke-width:1px;stroke-linecap:butt;stroke-linejoin:miter;stroke-opacity:1"
         id="text4144">
        <path
           d="m 160.6244,126.76082 0,3.35937 q -1.52343,-0.83984 -3.0664,-1.25 -1.52344,-0.42968 -3.08594,-0.42968 -3.49609,0 -5.42969,2.22656 -1.93359,2.20703 -1.93359,6.21094 0,4.0039 1.93359,6.23046 1.9336,2.20704 5.42969,2.20704 1.5625,0 3.08594,-0.41016 1.54297,-0.42969 3.0664,-1.26953 l 0,3.32031 q -1.5039,0.70313 -3.125,1.05469 -1.60156,0.35156 -3.41796,0.35156 -4.94141,0 -7.85157,-3.10547 -2.91015,-3.10547 -2.91015,-8.3789 0,-5.35157 2.92968,-8.41797 2.94922,-3.06641 8.06641,-3.06641 1.66016,0 3.24219,0.35156 1.58203,0.33203 3.0664,1.01563 z"
           id="path5012"
           inkscape:connector-curvature="0" />
      </g>
      <g
         style="font-style:normal;font-weight:normal;font-size:40px;line-height:125%;font-family:sans-serif;letter-spacing:0px;word-spacing:0px;fill:#0000ff;fill-opacity:1;stroke:none;stroke-width:1px;stroke-linecap:butt;stroke-linejoin:miter;stroke-opacity:1"
         id="text4148">
        <path
           d="m 119.27676,180.55243 0,-11.83594 3.59375,0 0,30.39063 -3.59375,0 0,-3.28125 q -1.13282,1.95312 -2.8711,2.91015 -1.71875,0.9375 -4.14062,0.9375 -3.96485,0 -6.46485,-3.16406 -2.48046,-3.16406 -2.48046,-8.32031 0,-5.15625 2.48046,-8.32031 2.5,-3.16407 6.46485,-3.16407 2.42187,0 4.14062,0.95703 1.73828,0.9375 2.8711,2.89063 z m -12.2461,7.63672 q 0,3.96484 1.6211,6.23047 1.64062,2.24609 4.49218,2.24609 2.85157,0 4.49219,-2.24609 1.64063,-2.26563 1.64063,-6.23047 0,-3.96485 -1.64063,-6.21094 -1.64062,-2.26562 -4.49219,-2.26562 -2.85156,0 -4.49218,2.26562 -1.6211,2.24609 -1.6211,6.21094 z"
           id="path5015"
           inkscape:connector-curvature="0" />
      </g>
      <g
         style="font-style:normal;font-weight:normal;font-size:40px;line-height:125%;font-family:sans-serif;letter-spacing:0px;word-spacing:0px;fill:#0000ff;fill-opacity:1;stroke:none;stroke-width:1px;stroke-linecap:butt;stroke-linejoin:miter;stroke-opacity:1"
         id="text4152">
        <path
           d="m 163.14394,186.49725 0,1.75782 -16.52344,0 q 0.23437,3.71093 2.22656,5.66406 2.01172,1.93359 5.58594,1.93359 2.07031,0 4.0039,-0.50781 1.95313,-0.50781 3.86719,-1.52344 l 0,3.39844 q -1.93359,0.82031 -3.96484,1.25 -2.03125,0.42969 -4.1211,0.42969 -5.23437,0 -8.30078,-3.04688 -3.04687,-3.04687 -3.04687,-8.24219 0,-5.37109 2.89062,-8.51562 2.91016,-3.16406 7.83203,-3.16406 4.41407,0 6.97266,2.85156 2.57813,2.83203 2.57813,7.71484 z m -3.59375,-1.05468 q -0.0391,-2.94922 -1.66016,-4.70704 -1.60156,-1.75781 -4.25781,-1.75781 -3.00782,0 -4.82422,1.69922 -1.79688,1.69922 -2.07031,4.78516 l 12.8125,-0.0195 z"
           id="path5018"
           inkscape:connector-curvature="0" />
      </g>
      <g
         style="font-style:normal;font-weight:normal;font-size:40px;line-height:125%;font-family:sans-serif;letter-spacing:0px;word-spacing:0px;fill:#0000ff;fill-opacity:1;stroke:none;stroke-width:1px;stroke-linecap:butt;stroke-linejoin:miter;stroke-opacity:1"
         id="text4156">
        <path
           d="m 197.06972,168.29413 0,2.98828 -3.4375,0 q -1.9336,0 -2.69532,0.78125 -0.74218,0.78125 -0.74218,2.8125 l 0,1.93359 5.91797,0 0,2.79297 -5.91797,0 0,19.08203 -3.61328,0 0,-19.08203 -3.4375,0 0,-2.79297 3.4375,0 0,-1.52343 q 0,-3.65235 1.69921,-5.3125 1.69922,-1.67969 5.39063,-1.67969 l 3.39844,0 z"
           id="path5021"
           inkscape:connector-curvature="0" />
      </g>
      <g
         style="font-style:normal;font-weight:normal;font-size:40px;line-height:125%;font-family:sans-serif;letter-spacing:0px;word-spacing:0px;fill:#000000;fill-opacity:1;stroke:none;stroke-width:1px;stroke-linecap:butt;stroke-linejoin:miter;stroke-opacity:1"
         id="text4164">
        <path
           d="m 151.78976,70.630348 q -3.04687,0 -4.58984,3.007813 -1.52344,2.988281 -1.52344,9.003906 0,5.996094 1.52344,9.003906 1.54297,2.988281 4.58984,2.988281 3.06641,0 4.58985,-2.988281 1.54297,-3.007812 1.54297,-9.003906 0,-6.015625 -1.54297,-9.003906 -1.52344,-3.007813 -4.58985,-3.007813 z m 0,-3.125 q 4.90235,0 7.48047,3.886719 2.59766,3.867187 2.59766,11.25 0,7.363281 -2.59766,11.25 -2.57812,3.867187 -7.48047,3.867187 -4.90234,0 -7.5,-3.867187 -2.57812,-3.886719 -2.57812,-11.25 0,-7.382813 2.57812,-11.25 2.59766,-3.886719 7.5,-3.886719 z"
           id="path5024"
           inkscape:connector-curvature="0" />
      </g>
      <g
         style="font-style:normal;font-weight:normal;font-size:40px;line-height:125%;font-family:sans-serif;letter-spacing:0px;word-spacing:0px;fill:#000000;fill-opacity:1;stroke:none;stroke-width:1px;stroke-linecap:butt;stroke-linejoin:miter;stroke-opacity:1"
         id="text4168">
        <path
           d="m 191.94601,70.91111 q -3.04687,0 -4.58984,3.007812 -1.52344,2.988282 -1.52344,9.003907 0,5.996093 1.52344,9.003906 1.54297,2.988281 4.58984,2.988281 3.06641,0 4.58985,-2.988281 1.54297,-3.007813 1.54297,-9.003906 0,-6.015625 -1.54297,-9.003907 -1.52344,-3.007812 -4.58985,-3.007812 z m 0,-3.125 q 4.90235,0 7.48047,3.886719 2.59766,3.867187 2.59766,11.25 0,7.363281 -2.59766,11.25 -2.57812,3.867187 -7.48047,3.867187 -4.90234,0 -7.5,-3.867187 -2.57812,-3.886719 -2.57812,-11.25 0,-7.382813 2.57812,-11.25 2.59766,-3.886719 7.5,-3.886719 z"
           id="path5027"
           inkscape:connector-curvature="0" />
      </g>
      <g
         style="font-style:normal;font-weight:normal;font-size:40px;line-height:125%;font-family:sans-serif;letter-spacing:0px;word-spacing:0px;fill:#000000;fill-opacity:1;stroke:none;stroke-width:1px;stroke-linecap:butt;stroke-linejoin:miter;stroke-opacity:1"
         id="text4172">
        <path
           d="m 190.70253,121.16512 q -3.04688,0 -4.58984,3.00781 -1.52344,2.98828 -1.52344,9.0039 0,5.9961 1.52344,9.00391 1.54296,2.98828 4.58984,2.98828 3.06641,0 4.58984,-2.98828 1.54297,-3.00781 1.54297,-9.00391 0,-6.01562 -1.54297,-9.0039 -1.52343,-3.00781 -4.58984,-3.00781 z m 0,-3.125 q 4.90234,0 7.48047,3.88671 2.59765,3.86719 2.59765,11.25 0,7.36329 -2.59765,11.25 -2.57813,3.86719 -7.48047,3.86719 -4.90234,0 -7.5,-3.86719 -2.57813,-3.88671 -2.57813,-11.25 0,-7.38281 2.57813,-11.25 2.59766,-3.88671 7.5,-3.88671 z"
           id="path5030"
           inkscape:connector-curvature="0" />
      </g>
    </g>
    <g
       id="g4670"
       transform="translate(53.270949,9.1084627)">
      <g
         style="font-style:normal;font-weight:normal;font-size:40px;line-height:125%;font-family:sans-serif;letter-spacing:0px;word-spacing:0px;fill:#000000;fill-opacity:1;stroke:none;stroke-width:1px;stroke-linecap:butt;stroke-linejoin:miter;stroke-opacity:1"
         id="text4180">
        <path
           d="m 297.29306,171.77069 q -3.04687,0 -4.58984,3.00781 -1.52344,2.98828 -1.52344,9.00391 0,5.99609 1.52344,9.00391 1.54297,2.98828 4.58984,2.98828 3.06641,0 4.58984,-2.98828 1.54297,-3.00782 1.54297,-9.00391 0,-6.01563 -1.54297,-9.00391 -1.52343,-3.00781 -4.58984,-3.00781 z m 0,-3.125 q 4.90234,0 7.48047,3.88672 2.59766,3.86719 2.59766,11.25 0,7.36328 -2.59766,11.25 -2.57813,3.86719 -7.48047,3.86719 -4.90234,0 -7.5,-3.86719 -2.57812,-3.88672 -2.57812,-11.25 0,-7.38281 2.57812,-11.25 2.59766,-3.88672 7.5,-3.88672 z"
           id="path4979"
           inkscape:connector-curvature="0" />
      </g>
      <g
         style="font-style:normal;font-weight:normal;font-size:40px;line-height:125%;font-family:sans-serif;letter-spacing:0px;word-spacing:0px;fill:#000000;fill-opacity:1;stroke:none;stroke-width:1px;stroke-linecap:butt;stroke-linejoin:miter;stroke-opacity:1"
         id="text4184">
        <path
           d="m 339.47079,171.13593 q -3.04687,0 -4.58984,3.00781 -1.52344,2.98828 -1.52344,9.0039 0,5.9961 1.52344,9.00391 1.54297,2.98828 4.58984,2.98828 3.06641,0 4.58985,-2.98828 1.54297,-3.00781 1.54297,-9.00391 0,-6.01562 -1.54297,-9.0039 -1.52344,-3.00781 -4.58985,-3.00781 z m 0,-3.125 q 4.90235,0 7.48047,3.88671 2.59766,3.86719 2.59766,11.25 0,7.36329 -2.59766,11.25 -2.57812,3.86719 -7.48047,3.86719 -4.90234,0 -7.5,-3.86719 -2.57812,-3.88671 -2.57812,-11.25 0,-7.38281 2.57812,-11.25 2.59766,-3.88671 7.5,-3.88671 z"
           id="path4982"
           inkscape:connector-curvature="0" />
      </g>
      <g
         style="font-style:normal;font-weight:normal;font-size:40px;line-height:125%;font-family:sans-serif;letter-spacing:0px;word-spacing:0px;fill:#000000;fill-opacity:1;stroke:none;stroke-width:1px;stroke-linecap:butt;stroke-linejoin:miter;stroke-opacity:1"
         id="text4192">
        <path
           d="m 378.61142,195.01288 6.44531,0 0,-22.2461 -7.01172,1.40625 0,-3.59375 6.97266,-1.40625 3.94531,0 0,25.83985 6.44531,0 0,3.32031 -16.79687,0 0,-3.32031 z"
           id="path4985"
           inkscape:connector-curvature="0" />
      </g>
      <g
         style="font-style:normal;font-weight:normal;font-size:40px;line-height:125%;font-family:sans-serif;letter-spacing:0px;word-spacing:0px;fill:#000000;fill-opacity:1;stroke:none;stroke-width:1px;stroke-linecap:butt;stroke-linejoin:miter;stroke-opacity:1"
         id="text4176">
        <path
           d="m 289.17783,94.436501 6.44531,0 0,-22.246094 -7.01172,1.40625 0,-3.59375 6.97266,-1.40625 3.94531,0 0,25.839844 6.44531,0 0,3.320312 -16.79687,0 0,-3.320312 z"
           id="path4988"
           inkscape:connector-curvature="0" />
      </g>
      <g
         style="font-style:normal;font-weight:normal;font-size:40px;line-height:125%;font-family:sans-serif;letter-spacing:0px;word-spacing:0px;fill:#b3ff80;fill-opacity:1;stroke:none;stroke-width:1px;stroke-linecap:butt;stroke-linejoin:miter;stroke-opacity:1"
         id="text4196">
        <path
           d="m 400.48642,94.280251 0,3.476562 -11.71875,0 0,-3.476562 q 3.45703,-1.894532 5.39062,-5.136719 1.9336,-3.242188 1.9336,-7.1875 0,-4.6875 -2.57813,-7.519531 -2.57812,-2.832032 -6.79687,-2.832032 -4.21875,0 -6.81641,2.851563 -2.57812,2.832031 -2.57812,7.5 0,3.945312 1.93359,7.1875 1.95313,3.242187 5.42969,5.136719 l 0,3.476562 -11.71875,0 0,-3.476562 6.23047,0 q -3.08594,-2.714844 -4.51172,-5.625 -1.40625,-2.910157 -1.40625,-6.503907 0,-6.210937 3.75,-10.058593 3.73047,-3.847657 9.6875,-3.847657 5.91797,0 9.6875,3.847657 3.75,3.828125 3.75,9.863281 0,3.789062 -1.38672,6.679687 -1.38672,2.890625 -4.53125,5.644532 l 6.25,0 z"
           id="path4991"
           inkscape:connector-curvature="0" />
      </g>
      <g
         style="font-style:normal;font-weight:normal;font-size:40px;line-height:125%;font-family:sans-serif;letter-spacing:0px;word-spacing:0px;fill:#b3ff80;fill-opacity:1;stroke:none;stroke-width:1px;stroke-linecap:butt;stroke-linejoin:miter;stroke-opacity:1"
         id="text4208">
        <path
           d="m 337.51767,74.983376 q -2.92969,0.410156 -4.84375,2.109375 -2.53906,2.246093 -2.53906,6.113281 0,3.847656 2.53906,6.09375 1.91406,1.699219 4.84375,2.109375 l 0,-16.425781 z m 3.94531,16.425781 q 2.92969,-0.410156 4.84375,-2.109375 2.5,-2.246094 2.5,-6.09375 0,-3.867188 -2.5,-6.113281 -1.91406,-1.699219 -4.84375,-2.109375 l 0,16.425781 z m -3.94531,3.261719 q -4.76563,-0.429688 -7.85156,-3.046875 -3.69141,-3.125 -3.69141,-8.417969 0,-5.292969 3.69141,-8.4375 3.0664,-2.636719 7.85156,-3.066406 l 0,-3.105469 3.94531,0 0,3.105469 q 4.76563,0.449218 7.83203,3.066406 3.67188,3.144531 3.67188,8.4375 0,5.273437 -3.67188,8.417969 -3.0664,2.617187 -7.83203,3.066406 l 0,3.066406 -3.94531,0 0,-3.085937 z"
           id="path4994"
           inkscape:connector-curvature="0" />
      </g>
      <g
         style="font-style:normal;font-weight:normal;font-size:40px;line-height:125%;font-family:sans-serif;letter-spacing:0px;word-spacing:0px;fill:#000000;fill-opacity:1;stroke:none;stroke-width:1px;stroke-linecap:butt;stroke-linejoin:miter;stroke-opacity:1"
         id="text4160">
        <path
           d="m 297.29306,121.23347 q -3.04687,0 -4.58984,3.00782 -1.52344,2.98828 -1.52344,9.0039 0,5.9961 1.52344,9.00391 1.54297,2.98828 4.58984,2.98828 3.06641,0 4.58984,-2.98828 1.54297,-3.00781 1.54297,-9.00391 0,-6.01562 -1.54297,-9.0039 -1.52343,-3.00782 -4.58984,-3.00782 z m 0,-3.125 q 4.90234,0 7.48047,3.88672 2.59766,3.86719 2.59766,11.25 0,7.36328 -2.59766,11.25 -2.57813,3.86719 -7.48047,3.86719 -4.90234,0 -7.5,-3.86719 -2.57812,-3.88672 -2.57812,-11.25 0,-7.38281 2.57812,-11.25 2.59766,-3.88672 7.5,-3.88672 z"
           id="path4997"
           inkscape:connector-curvature="0" />
      </g>
      <g
         style="font-style:normal;font-weight:normal;font-size:40px;line-height:125%;font-family:sans-serif;letter-spacing:0px;word-spacing:0px;fill:#000000;fill-opacity:1;stroke:none;stroke-width:1px;stroke-linecap:butt;stroke-linejoin:miter;stroke-opacity:1"
         id="text4188">
        <path
           d="m 331.35556,144.47566 6.44531,0 0,-22.24609 -7.01172,1.40625 0,-3.59375 6.97266,-1.40625 3.94531,0 0,25.83984 6.44532,0 0,3.32031 -16.79688,0 0,-3.32031 z"
           id="path5000"
           inkscape:connector-curvature="0" />
      </g>
      <g
         style="font-style:normal;font-weight:normal;font-size:40px;line-height:125%;font-family:sans-serif;letter-spacing:0px;word-spacing:0px;fill:#b3ff80;fill-opacity:1;stroke:none;stroke-width:1px;stroke-linecap:butt;stroke-linejoin:miter;stroke-opacity:1"
         id="text4214">
        <path
           d="m 384.754,148.12801 q 0.0195,-2.61719 0,-6.05469 -4.17969,0 -7.85156,-4.10156 -3.59375,-3.98438 -3.69141,-11.01563 l 0,-7.98828 4.16016,0 0,7.98828 q 0,5.50781 2.53906,8.71094 2.14844,2.73437 4.84375,3.00781 l 0,-19.70703 3.94531,0 0,19.70703 q 2.69531,-0.27344 4.84375,-3.00781 2.53906,-3.20313 2.53906,-8.71094 l 0,-7.98828 4.16016,0 0,7.98828 q -0.0977,7.03125 -3.69141,11.01563 -3.67187,4.10156 -7.85156,4.10156 -0.0195,1.40625 0,6.05469 l -3.94531,0 z"
           id="path5003"
           inkscape:connector-curvature="0" />
      </g>
    </g>
    <g
       id="g4782"
       transform="translate(-6.6043526,8.760158)">
      <g
         transform="translate(71.119839,0)"
         id="g4662">
        <g
           style="font-style:normal;font-weight:normal;font-size:40px;line-height:125%;font-family:sans-serif;letter-spacing:0px;word-spacing:0px;fill:#0000ff;fill-opacity:1;stroke:none;stroke-width:1px;stroke-linecap:butt;stroke-linejoin:miter;stroke-opacity:1"
           id="text4136-4">
          <path
             d="m 506.13641,86.760719 q -4.35547,0 -6.03515,0.996094 -1.67969,0.996094 -1.67969,3.398438 0,1.914062 1.25,3.046875 1.26953,1.113281 3.4375,1.113281 2.98828,0 4.78516,-2.109375 1.8164,-2.128906 1.8164,-5.644531 l 0,-0.800782 -3.57422,0 z m 7.16797,-1.484375 0,12.480469 -3.59375,0 0,-3.320312 q -1.23047,1.992187 -3.0664,2.949218 -1.83594,0.9375 -4.49219,0.9375 -3.35938,0 -5.35156,-1.875 -1.97266,-1.894531 -1.97266,-5.058593 0,-3.691407 2.46094,-5.566407 2.48047,-1.875 7.38281,-1.875 l 5.03906,0 0,-0.351562 q 0,-2.480469 -1.64062,-3.828125 -1.6211,-1.367188 -4.57032,-1.367188 -1.875,0 -3.65234,0.449219 -1.77734,0.449219 -3.41797,1.347656 l 0,-3.320312 q 1.97266,-0.761719 3.82813,-1.132813 1.85547,-0.390625 3.61328,-0.390625 4.74609,0 7.08984,2.460938 2.34375,2.460937 2.34375,7.460937 z"
             id="path4898"
             inkscape:connector-curvature="0" />
        </g>
        <g
           style="font-style:normal;font-weight:normal;font-size:40px;line-height:125%;font-family:sans-serif;letter-spacing:0px;word-spacing:0px;fill:#0000ff;fill-opacity:1;stroke:none;stroke-width:1px;stroke-linecap:butt;stroke-linejoin:miter;stroke-opacity:1"
           id="text4140-0">
          <path
             d="m 510.12079,137.21004 q 0,-3.96485 -1.64063,-6.21094 -1.62109,-2.26563 -4.47265,-2.26563 -2.85157,0 -4.49219,2.26563 -1.62109,2.24609 -1.62109,6.21094 0,3.96484 1.62109,6.23047 1.64062,2.24609 4.49219,2.24609 2.85156,0 4.47265,-2.24609 1.64063,-2.26563 1.64063,-6.23047 z m -12.22656,-7.63672 q 1.13281,-1.95313 2.85156,-2.89063 1.73828,-0.95703 4.14062,-0.95703 3.98438,0 6.46485,3.16406 2.5,3.16407 2.5,8.32032 0,5.15625 -2.5,8.32031 -2.48047,3.16406 -6.46485,3.16406 -2.40234,0 -4.14062,-0.9375 -1.71875,-0.95703 -2.85156,-2.91015 l 0,3.28125 -3.61329,0 0,-30.39063 3.61329,0 0,11.83594 z"
             id="path4901"
             inkscape:connector-curvature="0" />
        </g>
        <g
           style="font-style:normal;font-weight:normal;font-size:40px;line-height:125%;font-family:sans-serif;letter-spacing:0px;word-spacing:0px;fill:#0000ff;fill-opacity:1;stroke:none;stroke-width:1px;stroke-linecap:butt;stroke-linejoin:miter;stroke-opacity:1"
           id="text4148-0">
          <path
             d="m 510.24774,179.7785 0,-11.83593 3.59375,0 0,30.39062 -3.59375,0 0,-3.28125 q -1.13281,1.95313 -2.87109,2.91016 -1.71875,0.9375 -4.14063,0.9375 -3.96484,0 -6.46484,-3.16407 -2.48047,-3.16406 -2.48047,-8.32031 0,-5.15625 2.48047,-8.32031 2.5,-3.16406 6.46484,-3.16406 2.42188,0 4.14063,0.95703 1.73828,0.9375 2.87109,2.89062 z m -12.24609,7.63672 q 0,3.96485 1.62109,6.23047 1.64063,2.24609 4.49219,2.24609 2.85156,0 4.49219,-2.24609 1.64062,-2.26562 1.64062,-6.23047 0,-3.96484 -1.64062,-6.21094 -1.64063,-2.26562 -4.49219,-2.26562 -2.85156,0 -4.49219,2.26562 -1.62109,2.2461 -1.62109,6.21094 z"
             id="path4904"
             inkscape:connector-curvature="0" />
        </g>
      </g>
      <g
         transform="translate(-2.3318156,0)"
         id="g4710">
        <g
           id="g4560">
          <g
             style="font-style:normal;font-weight:normal;font-size:40px;line-height:125%;font-family:sans-serif;letter-spacing:0px;word-spacing:0px;fill:#0000ff;fill-opacity:1;stroke:none;stroke-width:1px;stroke-linecap:butt;stroke-linejoin:miter;stroke-opacity:1"
             id="text4136-0">
            <path
               d="m 681.80487,86.119446 q -4.35547,0 -6.03516,0.996094 -1.67968,0.996093 -1.67968,3.398437 0,1.914063 1.25,3.046875 1.26953,1.113281 3.4375,1.113281 2.98828,0 4.78515,-2.109375 1.81641,-2.128906 1.81641,-5.644531 l 0,-0.800781 -3.57422,0 z m 7.16797,-1.484375 0,12.480469 -3.59375,0 0,-3.320313 q -1.23047,1.992188 -3.06641,2.949219 -1.83593,0.9375 -4.49218,0.9375 -3.35938,0 -5.35157,-1.875 -1.97265,-1.894531 -1.97265,-5.058594 0,-3.691406 2.46093,-5.566406 2.48047,-1.875 7.38282,-1.875 l 5.03906,0 0,-0.351563 q 0,-2.480468 -1.64063,-3.828125 -1.62109,-1.367187 -4.57031,-1.367187 -1.875,0 -3.65234,0.449219 -1.77735,0.449218 -3.41797,1.347656 l 0,-3.320313 q 1.97266,-0.761718 3.82812,-1.132812 1.85547,-0.390625 3.61329,-0.390625 4.74609,0 7.08984,2.460937 2.34375,2.460938 2.34375,7.460938 z"
               id="path4907"
               inkscape:connector-curvature="0" />
          </g>
          <g
             style="font-style:normal;font-weight:normal;font-size:40px;line-height:125%;font-family:sans-serif;letter-spacing:0px;word-spacing:0px;fill:#b3ff80;fill-opacity:1;stroke:none;stroke-width:1px;stroke-linecap:butt;stroke-linejoin:miter;stroke-opacity:1"
             id="text4208-7">
            <path
               d="m 705.51581,74.983376 q -2.92969,0.410156 -4.84375,2.109375 -2.53906,2.246093 -2.53906,6.113281 0,3.847656 2.53906,6.09375 1.91406,1.699219 4.84375,2.109375 l 0,-16.425781 z m 3.94531,16.425781 q 2.92969,-0.410156 4.84375,-2.109375 2.5,-2.246094 2.5,-6.09375 0,-3.867188 -2.5,-6.113281 -1.91406,-1.699219 -4.84375,-2.109375 l 0,16.425781 z m -3.94531,3.261719 q -4.76563,-0.429688 -7.85156,-3.046875 -3.69141,-3.125 -3.69141,-8.417969 0,-5.292969 3.69141,-8.4375 3.0664,-2.636719 7.85156,-3.066406 l 0,-3.105469 3.94531,0 0,3.105469 q 4.76563,0.449218 7.83203,3.066406 3.67188,3.144531 3.67188,8.4375 0,5.273437 -3.67188,8.417969 -3.0664,2.617187 -7.83203,3.066406 l 0,3.066406 -3.94531,0 0,-3.085937 z"
               id="path4910"
               inkscape:connector-curvature="0" />
          </g>
        </g>
        <g
           id="g4640"
           transform="translate(-26.662043,0)">
          <g
             style="font-style:normal;font-weight:normal;font-size:40px;line-height:125%;font-family:sans-serif;letter-spacing:0px;word-spacing:0px;fill:#0000ff;fill-opacity:1;stroke:none;stroke-width:1px;stroke-linecap:butt;stroke-linejoin:miter;stroke-opacity:1"
             id="text4520">
            <path
               d="m 780.82043,186.49725 0,1.75782 -16.52343,0 q 0.23437,3.71093 2.22656,5.66406 2.01172,1.93359 5.58594,1.93359 2.07031,0 4.0039,-0.50781 1.95313,-0.50781 3.86719,-1.52344 l 0,3.39844 q -1.93359,0.82031 -3.96484,1.25 -2.03125,0.42969 -4.1211,0.42969 -5.23437,0 -8.30078,-3.04688 -3.04687,-3.04687 -3.04687,-8.24219 0,-5.37109 2.89062,-8.51562 2.91016,-3.16406 7.83203,-3.16406 4.41407,0 6.97266,2.85156 2.57812,2.83203 2.57812,7.71484 z m -3.59375,-1.05468 q -0.0391,-2.94922 -1.66015,-4.70704 -1.60156,-1.75781 -4.25781,-1.75781 -3.00782,0 -4.82422,1.69922 -1.79688,1.69922 -2.07032,4.78516 l 12.8125,-0.0195 z"
               id="path4913"
               inkscape:connector-curvature="0" />
          </g>
          <g
             transform="translate(-9.2672229,0)"
             id="g4572">
            <g
               style="font-style:normal;font-weight:normal;font-size:40px;line-height:125%;font-family:sans-serif;letter-spacing:0px;word-spacing:0px;fill:#0000ff;fill-opacity:1;stroke:none;stroke-width:1px;stroke-linecap:butt;stroke-linejoin:miter;stroke-opacity:1"
               id="text4516">
              <path
                 d="m 689.18921,180.47511 0,-11.83593 3.59375,0 0,30.39062 -3.59375,0 0,-3.28125 q -1.13281,1.95313 -2.87109,2.91016 -1.71875,0.9375 -4.14063,0.9375 -3.96484,0 -6.46484,-3.16407 -2.48047,-3.16406 -2.48047,-8.32031 0,-5.15625 2.48047,-8.32031 2.5,-3.16406 6.46484,-3.16406 2.42188,0 4.14063,0.95703 1.73828,0.9375 2.87109,2.89062 z m -12.24609,7.63672 q 0,3.96485 1.62109,6.23047 1.64062,2.24609 4.49219,2.24609 2.85156,0 4.49218,-2.24609 1.64063,-2.26562 1.64063,-6.23047 0,-3.96484 -1.64063,-6.21094 -1.64062,-2.26562 -4.49218,-2.26562 -2.85157,0 -4.49219,2.26562 -1.62109,2.2461 -1.62109,6.21094 z"
                 id="path4916"
                 inkscape:connector-curvature="0" />
            </g>
            <g
               style="font-style:normal;font-weight:normal;font-size:40px;line-height:125%;font-family:sans-serif;letter-spacing:0px;word-spacing:0px;fill:#b3ff80;fill-opacity:1;stroke:none;stroke-width:1px;stroke-linecap:butt;stroke-linejoin:miter;stroke-opacity:1"
               id="text4528">
              <path
                 d="m 709.32593,175.55975 q -2.92969,0.41016 -4.84375,2.10938 -2.53906,2.24609 -2.53906,6.11328 0,3.84766 2.53906,6.09375 1.91406,1.69922 4.84375,2.10937 l 0,-16.42578 z m 3.94531,16.42578 q 2.92969,-0.41015 4.84375,-2.10937 2.5,-2.24609 2.5,-6.09375 0,-3.86719 -2.5,-6.11328 -1.91406,-1.69922 -4.84375,-2.10938 l 0,16.42578 z m -3.94531,3.26172 q -4.76563,-0.42968 -7.85156,-3.04687 -3.69141,-3.125 -3.69141,-8.41797 0,-5.29297 3.69141,-8.4375 3.0664,-2.63672 7.85156,-3.06641 l 0,-3.10547 3.94531,0 0,3.10547 q 4.76563,0.44922 7.83203,3.06641 3.67188,3.14453 3.67188,8.4375 0,5.27344 -3.67188,8.41797 -3.0664,2.61719 -7.83203,3.0664 l 0,3.06641 -3.94531,0 0,-3.08594 z"
                 id="path4919"
                 inkscape:connector-curvature="0" />
            </g>
          </g>
          <g
             style="font-style:normal;font-weight:normal;font-size:40px;line-height:125%;font-family:sans-serif;letter-spacing:0px;word-spacing:0px;fill:#000000;fill-opacity:1;stroke:none;stroke-width:1px;stroke-linecap:butt;stroke-linejoin:miter;stroke-opacity:1"
             id="text4540">
            <path
               d="m 739.66809,173.25507 0,10.8789 10.87891,0 0,3.32031 -10.87891,0 0,10.87891 -3.28125,0 0,-10.87891 -10.87891,0 0,-3.32031 10.87891,0 0,-10.8789 3.28125,0 z"
               id="path4922"
               inkscape:connector-curvature="0" />
          </g>
        </g>
        <g
           id="g4651"
           transform="translate(-14.200129,0)">
          <g
             style="font-style:normal;font-weight:normal;font-size:40px;line-height:125%;font-family:sans-serif;letter-spacing:0px;word-spacing:0px;fill:#0000ff;fill-opacity:1;stroke:none;stroke-width:1px;stroke-linecap:butt;stroke-linejoin:miter;stroke-opacity:1"
             id="text4144-0">
            <path
               d="m 766.88391,127.09285 0,3.35937 q -1.52344,-0.83984 -3.06641,-1.25 -1.52343,-0.42968 -3.08593,-0.42968 -3.4961,0 -5.42969,2.22656 -1.93359,2.20703 -1.93359,6.21094 0,4.0039 1.93359,6.23047 1.93359,2.20703 5.42969,2.20703 1.5625,0 3.08593,-0.41016 1.54297,-0.42969 3.06641,-1.26953 l 0,3.32031 q -1.50391,0.70313 -3.125,1.05469 -1.60156,0.35156 -3.41797,0.35156 -4.9414,0 -7.85156,-3.10547 -2.91016,-3.10547 -2.91016,-8.3789 0,-5.35157 2.92969,-8.41797 2.94922,-3.06641 8.06641,-3.06641 1.66015,0 3.24218,0.35156 1.58204,0.33204 3.06641,1.01563 z"
               id="path4925"
               inkscape:connector-curvature="0" />
          </g>
          <g
             transform="translate(-3.2198597,0)"
             id="g4566">
            <g
               style="font-style:normal;font-weight:normal;font-size:40px;line-height:125%;font-family:sans-serif;letter-spacing:0px;word-spacing:0px;fill:#0000ff;fill-opacity:1;stroke:none;stroke-width:1px;stroke-linecap:butt;stroke-linejoin:miter;stroke-opacity:1"
               id="text4140-9">
              <path
                 d="m 672.03735,137.15469 q 0,-3.96484 -1.64062,-6.21093 -1.6211,-2.26563 -4.47266,-2.26563 -2.85156,0 -4.49219,2.26563 -1.62109,2.24609 -1.62109,6.21093 0,3.96485 1.62109,6.23047 1.64063,2.2461 4.49219,2.2461 2.85156,0 4.47266,-2.2461 1.64062,-2.26562 1.64062,-6.23047 z m -12.22656,-7.63672 q 1.13281,-1.95312 2.85156,-2.89062 1.73828,-0.95703 4.14063,-0.95703 3.98437,0 6.46484,3.16406 2.5,3.16406 2.5,8.32031 0,5.15625 -2.5,8.32032 -2.48047,3.16406 -6.46484,3.16406 -2.40235,0 -4.14063,-0.9375 -1.71875,-0.95703 -2.85156,-2.91016 l 0,3.28125 -3.61328,0 0,-30.39062 3.61328,0 0,11.83593 z"
                 id="path4928"
                 inkscape:connector-curvature="0" />
            </g>
            <g
               style="font-style:normal;font-weight:normal;font-size:40px;line-height:125%;font-family:sans-serif;letter-spacing:0px;word-spacing:0px;fill:#b3ff80;fill-opacity:1;stroke:none;stroke-width:1px;stroke-linecap:butt;stroke-linejoin:miter;stroke-opacity:1"
               id="text4208-9">
              <path
                 d="m 692.31079,125.35457 q -2.92969,0.41015 -4.84375,2.10937 -2.53906,2.2461 -2.53906,6.11328 0,3.84766 2.53906,6.09375 1.91406,1.69922 4.84375,2.10938 l 0,-16.42578 z m 3.94531,16.42578 q 2.92969,-0.41016 4.84375,-2.10938 2.5,-2.24609 2.5,-6.09375 0,-3.86718 -2.5,-6.11328 -1.91406,-1.69922 -4.84375,-2.10937 l 0,16.42578 z m -3.94531,3.26172 q -4.76562,-0.42969 -7.85156,-3.04688 -3.69141,-3.125 -3.69141,-8.41797 0,-5.29296 3.69141,-8.4375 3.0664,-2.63671 7.85156,-3.0664 l 0,-3.10547 3.94531,0 0,3.10547 q 4.76563,0.44922 7.83203,3.0664 3.67188,3.14454 3.67188,8.4375 0,5.27344 -3.67188,8.41797 -3.0664,2.61719 -7.83203,3.06641 l 0,3.06641 -3.94531,0 0,-3.08594 z"
                 id="path4931"
                 inkscape:connector-curvature="0" />
            </g>
          </g>
          <g
             style="font-style:normal;font-weight:normal;font-size:40px;line-height:125%;font-family:sans-serif;letter-spacing:0px;word-spacing:0px;fill:#000000;fill-opacity:1;stroke:none;stroke-width:1px;stroke-linecap:butt;stroke-linejoin:miter;stroke-opacity:1"
             id="text4544">
            <path
               d="m 728.70032,123.04988 0,10.87891 10.8789,0 0,3.32031 -10.8789,0 0,10.87891 -3.28125,0 0,-10.87891 -10.87891,0 0,-3.32031 10.87891,0 0,-10.87891 3.28125,0 z"
               id="path4934"
               inkscape:connector-curvature="0" />
          </g>
        </g>
      </g>
      <g
         transform="translate(-6.7875728,0)"
         id="g4737">
        <g
           id="g4634">
          <g
             style="font-style:normal;font-weight:normal;font-size:40px;line-height:125%;font-family:sans-serif;letter-spacing:0px;word-spacing:0px;fill:#0000ff;fill-opacity:1;stroke:none;stroke-width:1px;stroke-linecap:butt;stroke-linejoin:miter;stroke-opacity:1"
             id="text4136-9">
            <path
               d="m 899.36084,86.760719 q -4.35547,0 -6.03516,0.996094 -1.67968,0.996094 -1.67968,3.398438 0,1.914062 1.25,3.046875 1.26953,1.113281 3.4375,1.113281 2.98828,0 4.78515,-2.109375 1.81641,-2.128906 1.81641,-5.644531 l 0,-0.800782 -3.57422,0 z m 7.16797,-1.484375 0,12.480469 -3.59375,0 0,-3.320312 q -1.23047,1.992187 -3.06641,2.949218 -1.83594,0.9375 -4.49219,0.9375 -3.35937,0 -5.35156,-1.875 -1.97265,-1.894531 -1.97265,-5.058593 0,-3.691407 2.46093,-5.566407 2.48047,-1.875 7.38282,-1.875 l 5.03906,0 0,-0.351562 q 0,-2.480469 -1.64063,-3.828125 -1.62109,-1.367188 -4.57031,-1.367188 -1.875,0 -3.65234,0.449219 -1.77735,0.449219 -3.41797,1.347656 l 0,-3.320312 q 1.97265,-0.761719 3.82812,-1.132813 1.85547,-0.390625 3.61328,-0.390625 4.7461,0 7.08985,2.460938 2.34375,2.460937 2.34375,7.460937 z"
               id="path4937"
               inkscape:connector-curvature="0" />
          </g>
          <g
             style="font-style:normal;font-weight:normal;font-size:40px;line-height:125%;font-family:sans-serif;letter-spacing:0px;word-spacing:0px;fill:#b3ff80;fill-opacity:1;stroke:none;stroke-width:1px;stroke-linecap:butt;stroke-linejoin:miter;stroke-opacity:1"
             id="text4196-6">
            <path
               d="m 939.04834,94.280251 0,3.476562 -11.71875,0 0,-3.476562 q 3.45703,-1.894532 5.39062,-5.136719 1.9336,-3.242188 1.9336,-7.1875 0,-4.6875 -2.57813,-7.519531 -2.57812,-2.832032 -6.79687,-2.832032 -4.21875,0 -6.81641,2.851563 -2.57812,2.832031 -2.57812,7.5 0,3.945312 1.93359,7.1875 1.95313,3.242187 5.42969,5.136719 l 0,3.476562 -11.71875,0 0,-3.476562 6.23047,0 q -3.08594,-2.714844 -4.51172,-5.625 -1.40625,-2.910157 -1.40625,-6.503907 0,-6.210937 3.75,-10.058593 3.73047,-3.847657 9.6875,-3.847657 5.91797,0 9.6875,3.847657 3.75,3.828125 3.75,9.863281 0,3.789062 -1.38672,6.679687 -1.38672,2.890625 -4.53125,5.644532 l 6.25,0 z"
               id="path4940"
               inkscape:connector-curvature="0" />
          </g>
        </g>
        <g
           id="g4602"
           transform="translate(-25.043958,0)">
          <g
             style="font-style:normal;font-weight:normal;font-size:40px;line-height:125%;font-family:sans-serif;letter-spacing:0px;word-spacing:0px;fill:#0000ff;fill-opacity:1;stroke:none;stroke-width:1px;stroke-linecap:butt;stroke-linejoin:miter;stroke-opacity:1"
             id="text4156-5">
            <path
               d="m 1043.5304,167.94257 0,2.98828 -3.4375,0 q -1.9336,0 -2.6953,0.78125 -0.7422,0.78125 -0.7422,2.8125 l 0,1.93359 5.918,0 0,2.79297 -5.918,0 0,19.08203 -3.6133,0 0,-19.08203 -3.4375,0 0,-2.79297 3.4375,0 0,-1.52344 q 0,-3.65234 1.6992,-5.3125 1.6993,-1.67968 5.3907,-1.67968 l 3.3984,0 z"
               id="path4943"
               inkscape:connector-curvature="0" />
          </g>
          <g
             transform="translate(-24.563695,0)"
             id="g4578">
            <g
               style="font-style:normal;font-weight:normal;font-size:40px;line-height:125%;font-family:sans-serif;letter-spacing:0px;word-spacing:0px;fill:#0000ff;fill-opacity:1;stroke:none;stroke-width:1px;stroke-linecap:butt;stroke-linejoin:miter;stroke-opacity:1"
               id="text4148-7">
              <path
                 d="m 874.17883,179.7785 0,-11.83593 3.59375,0 0,30.39062 -3.59375,0 0,-3.28125 q -1.13281,1.95313 -2.87109,2.91016 -1.71875,0.9375 -4.14063,0.9375 -3.96484,0 -6.46484,-3.16407 -2.48047,-3.16406 -2.48047,-8.32031 0,-5.15625 2.48047,-8.32031 2.5,-3.16406 6.46484,-3.16406 2.42188,0 4.14063,0.95703 1.73828,0.9375 2.87109,2.89062 z m -12.24609,7.63672 q 0,3.96485 1.62109,6.23047 1.64063,2.24609 4.49219,2.24609 2.85156,0 4.49219,-2.24609 1.64062,-2.26562 1.64062,-6.23047 0,-3.96484 -1.64062,-6.21094 -1.64063,-2.26562 -4.49219,-2.26562 -2.85156,0 -4.49219,2.26562 -1.62109,2.2461 -1.62109,6.21094 z"
                 id="path4946"
                 inkscape:connector-curvature="0" />
            </g>
            <g
               style="font-style:normal;font-weight:normal;font-size:40px;line-height:125%;font-family:sans-serif;letter-spacing:0px;word-spacing:0px;fill:#b3ff80;fill-opacity:1;stroke:none;stroke-width:1px;stroke-linecap:butt;stroke-linejoin:miter;stroke-opacity:1"
               id="text4532">
              <path
                 d="m 911.78546,194.85663 0,3.47656 -11.71875,0 0,-3.47656 q 3.45703,-1.89453 5.39063,-5.13672 1.93359,-3.24219 1.93359,-7.1875 0,-4.6875 -2.57812,-7.51953 -2.57813,-2.83203 -6.79688,-2.83203 -4.21875,0 -6.81641,2.85156 -2.57812,2.83203 -2.57812,7.5 0,3.94531 1.93359,7.1875 1.95313,3.24219 5.42969,5.13672 l 0,3.47656 -11.71875,0 0,-3.47656 6.23047,0 q -3.08594,-2.71485 -4.51172,-5.625 -1.40625,-2.91016 -1.40625,-6.50391 0,-6.21094 3.75,-10.05859 3.73047,-3.84766 9.6875,-3.84766 5.91797,0 9.6875,3.84766 3.75,3.82812 3.75,9.86328 0,3.78906 -1.38672,6.67969 -1.38672,2.89062 -4.53125,5.64453 l 6.25,0 z"
                 id="path4949"
                 inkscape:connector-curvature="0" />
            </g>
          </g>
          <g
             transform="translate(6.3599499,0)"
             id="g4590">
            <g
               style="font-style:normal;font-weight:normal;font-size:40px;line-height:125%;font-family:sans-serif;letter-spacing:0px;word-spacing:0px;fill:#0000ff;fill-opacity:1;stroke:none;stroke-width:1px;stroke-linecap:butt;stroke-linejoin:miter;stroke-opacity:1"
               id="text4152-1">
              <path
                 d="m 946.17432,186.49725 0,1.75782 -16.52344,0 q 0.23437,3.71093 2.22656,5.66406 2.01172,1.93359 5.58594,1.93359 2.07031,0 4.00391,-0.50781 1.95312,-0.50781 3.86718,-1.52344 l 0,3.39844 q -1.93359,0.82031 -3.96484,1.25 -2.03125,0.42969 -4.12109,0.42969 -5.23438,0 -8.30079,-3.04688 -3.04687,-3.04687 -3.04687,-8.24219 0,-5.37109 2.89062,-8.51562 2.91016,-3.16406 7.83204,-3.16406 4.41406,0 6.97265,2.85156 2.57813,2.83203 2.57813,7.71484 z m -3.59375,-1.05468 q -0.0391,-2.94922 -1.66016,-4.70704 -1.60156,-1.75781 -4.25781,-1.75781 -3.00781,0 -4.82422,1.69922 -1.79688,1.69922 -2.07031,4.78516 l 12.8125,-0.0195 z"
                 id="path4952"
                 inkscape:connector-curvature="0" />
            </g>
            <g
               style="font-style:normal;font-weight:normal;font-size:40px;line-height:125%;font-family:sans-serif;letter-spacing:0px;word-spacing:0px;fill:#b3ff80;fill-opacity:1;stroke:none;stroke-width:1px;stroke-linecap:butt;stroke-linejoin:miter;stroke-opacity:1"
               id="text4536">
              <path
                 d="m 962.71729,198.33319 q 0.0195,-2.61719 0,-6.05469 -4.17969,0 -7.85157,-4.10156 -3.59375,-3.98437 -3.6914,-11.01562 l 0,-7.98829 4.16015,0 0,7.98829 q 0,5.50781 2.53907,8.71093 2.14843,2.73438 4.84375,3.00782 l 0,-19.70704 3.94531,0 0,19.70704 q 2.69531,-0.27344 4.84375,-3.00782 2.53906,-3.20312 2.53906,-8.71093 l 0,-7.98829 4.16016,0 0,7.98829 q -0.0977,7.03125 -3.69141,11.01562 -3.67187,4.10156 -7.85156,4.10156 -0.0195,1.40625 0,6.05469 l -3.94531,0 z"
                 id="path4955"
                 inkscape:connector-curvature="0" />
            </g>
          </g>
          <g
             style="font-style:normal;font-weight:normal;font-size:40px;line-height:125%;font-family:sans-serif;letter-spacing:0px;word-spacing:0px;fill:#000000;fill-opacity:1;stroke:none;stroke-width:1px;stroke-linecap:butt;stroke-linejoin:miter;stroke-opacity:1"
             id="text4548">
            <path
               d="m 911.3819,173.25507 0,10.8789 10.8789,0 0,3.32031 -10.8789,0 0,10.87891 -3.28125,0 0,-10.87891 -10.87891,0 0,-3.32031 10.87891,0 0,-10.8789 3.28125,0 z"
               id="path4958"
               inkscape:connector-curvature="0" />
          </g>
          <g
             style="font-style:normal;font-weight:normal;font-size:40px;line-height:125%;font-family:sans-serif;letter-spacing:0px;word-spacing:0px;fill:#000000;fill-opacity:1;stroke:none;stroke-width:1px;stroke-linecap:butt;stroke-linejoin:miter;stroke-opacity:1"
             id="text4552">
            <path
               d="m 1008.7256,173.25507 0,10.8789 10.879,0 0,3.32031 -10.879,0 0,10.87891 -3.2812,0 0,-10.87891 -10.87891,0 0,-3.32031 10.87891,0 0,-10.8789 3.2812,0 z"
               id="path4961"
               inkscape:connector-curvature="0" />
          </g>
        </g>
        <g
           id="g4620"
           transform="translate(-29.026051,0)">
          <g
             transform="translate(-23.077098,0)"
             id="g4584">
            <g
               style="font-style:normal;font-weight:normal;font-size:40px;line-height:125%;font-family:sans-serif;letter-spacing:0px;word-spacing:0px;fill:#0000ff;fill-opacity:1;stroke:none;stroke-width:1px;stroke-linecap:butt;stroke-linejoin:miter;stroke-opacity:1"
               id="text4140-7">
              <path
                 d="m 908.26086,137.21004 q 0,-3.96485 -1.64062,-6.21094 -1.62109,-2.26563 -4.47266,-2.26563 -2.85156,0 -4.49218,2.26563 -1.6211,2.24609 -1.6211,6.21094 0,3.96484 1.6211,6.23047 1.64062,2.24609 4.49218,2.24609 2.85157,0 4.47266,-2.24609 1.64062,-2.26563 1.64062,-6.23047 z m -12.22656,-7.63672 q 1.13281,-1.95313 2.85156,-2.89063 1.73829,-0.95703 4.14063,-0.95703 3.98437,0 6.46484,3.16406 2.5,3.16407 2.5,8.32032 0,5.15625 -2.5,8.32031 -2.48047,3.16406 -6.46484,3.16406 -2.40234,0 -4.14063,-0.9375 -1.71875,-0.95703 -2.85156,-2.91015 l 0,3.28125 -3.61328,0 0,-30.39063 3.61328,0 0,11.83594 z"
                 id="path4964"
                 inkscape:connector-curvature="0" />
            </g>
            <g
               style="font-style:normal;font-weight:normal;font-size:40px;line-height:125%;font-family:sans-serif;letter-spacing:0px;word-spacing:0px;fill:#b3ff80;fill-opacity:1;stroke:none;stroke-width:1px;stroke-linecap:butt;stroke-linejoin:miter;stroke-opacity:1"
               id="text4196-5">
              <path
                 d="m 944.51086,144.65144 0,3.47657 -11.71875,0 0,-3.47657 q 3.45704,-1.89453 5.39063,-5.13672 1.93359,-3.24218 1.93359,-7.1875 0,-4.6875 -2.57812,-7.51953 -2.57813,-2.83203 -6.79688,-2.83203 -4.21875,0 -6.8164,2.85156 -2.57813,2.83204 -2.57813,7.5 0,3.94532 1.9336,7.1875 1.95312,3.24219 5.42968,5.13672 l 0,3.47657 -11.71875,0 0,-3.47657 6.23047,0 q -3.08594,-2.71484 -4.51172,-5.625 -1.40625,-2.91015 -1.40625,-6.5039 0,-6.21094 3.75,-10.0586 3.73047,-3.84765 9.6875,-3.84765 5.91797,0 9.6875,3.84765 3.75,3.82813 3.75,9.86328 0,3.78907 -1.38672,6.67969 -1.38671,2.89063 -4.53125,5.64453 l 6.25,0 z"
                 id="path4967"
                 inkscape:connector-curvature="0" />
            </g>
          </g>
          <g
             transform="translate(20.171315,0)"
             id="g4596">
            <g
               style="font-style:normal;font-weight:normal;font-size:40px;line-height:125%;font-family:sans-serif;letter-spacing:0px;word-spacing:0px;fill:#0000ff;fill-opacity:1;stroke:none;stroke-width:1px;stroke-linecap:butt;stroke-linejoin:miter;stroke-opacity:1"
               id="text4144-5">
              <path
                 d="m 963.6062,127.09285 0,3.35937 q -1.52344,-0.83984 -3.06641,-1.25 -1.52343,-0.42968 -3.08593,-0.42968 -3.4961,0 -5.42969,2.22656 -1.93359,2.20703 -1.93359,6.21094 0,4.0039 1.93359,6.23047 1.93359,2.20703 5.42969,2.20703 1.5625,0 3.08593,-0.41016 1.54297,-0.42969 3.06641,-1.26953 l 0,3.32031 q -1.50391,0.70313 -3.125,1.05469 -1.60156,0.35156 -3.41797,0.35156 -4.9414,0 -7.85156,-3.10547 -2.91016,-3.10547 -2.91016,-8.3789 0,-5.35157 2.92969,-8.41797 2.94922,-3.06641 8.06641,-3.06641 1.66015,0 3.24218,0.35156 1.58204,0.33204 3.06641,1.01563 z"
                 id="path4970"
                 inkscape:connector-curvature="0" />
            </g>
            <g
               style="font-style:normal;font-weight:normal;font-size:40px;line-height:125%;font-family:sans-serif;letter-spacing:0px;word-spacing:0px;fill:#b3ff80;fill-opacity:1;stroke:none;stroke-width:1px;stroke-linecap:butt;stroke-linejoin:miter;stroke-opacity:1"
               id="text4482">
              <path
                 d="m 980.14917,148.12801 q 0.0195,-2.61719 0,-6.05469 -4.17969,0 -7.85156,-4.10156 -3.59375,-3.98438 -3.69141,-11.01563 l 0,-7.98828 4.16016,0 0,7.98828 q 0,5.50781 2.53906,8.71094 2.14844,2.73437 4.84375,3.00781 l 0,-19.70703 3.94531,0 0,19.70703 q 2.69531,-0.27344 4.84375,-3.00781 2.53906,-3.20313 2.53906,-8.71094 l 0,-7.98828 4.16016,0 0,7.98828 q -0.0977,7.03125 -3.69141,11.01563 -3.67187,4.10156 -7.85156,4.10156 -0.0195,1.40625 0,6.05469 l -3.94531,0 z"
                 id="path4973"
                 inkscape:connector-curvature="0" />
            </g>
          </g>
          <g
             style="font-style:normal;font-weight:normal;font-size:40px;line-height:125%;font-family:sans-serif;letter-spacing:0px;word-spacing:0px;fill:#000000;fill-opacity:1;stroke:none;stroke-width:1px;stroke-linecap:butt;stroke-linejoin:miter;stroke-opacity:1"
             id="text4556">
            <path
               d="m 945.59393,123.04988 0,10.87891 10.87891,0 0,3.32031 -10.87891,0 0,10.87891 -3.28125,0 0,-10.87891 -10.8789,0 0,-3.32031 10.8789,0 0,-10.87891 3.28125,0 z"
               id="path4976"
               inkscape:connector-curvature="0" />
          </g>
        </g>
      </g>
    </g>
    <g
       style="font-style:normal;font-weight:normal;font-size:40px;line-height:125%;font-family:sans-serif;letter-spacing:0px;word-spacing:0px;fill:#000000;fill-opacity:1;stroke:none;stroke-width:1px;stroke-linecap:butt;stroke-linejoin:miter;stroke-opacity:1"
       id="text4774">
      <path
         d="m 300.07571,131.7433 -7.91015,10.64453 8.32031,11.23047 -4.23828,0 -6.36719,-8.59375 -6.36719,8.59375 -4.23828,0 8.4961,-11.44531 -7.77344,-10.42969 4.23828,0 5.80078,7.79297 5.80078,-7.79297 4.23828,0 z"
         id="path4895"
         inkscape:connector-curvature="0" />
    </g>
    <g
       style="font-style:normal;font-weight:normal;font-size:40px;line-height:125%;font-family:sans-serif;letter-spacing:0px;word-spacing:0px;fill:#000000;fill-opacity:1;stroke:none;stroke-width:1px;stroke-linecap:butt;stroke-linejoin:miter;stroke-opacity:1"
       id="text4778">
      <path
         d="m 493.75735,137.03627 25.03907,0 0,3.28125 -25.03907,0 0,-3.28125 z m 0,7.96875 25.03907,0 0,3.32031 -25.03907,0 0,-3.32031 z"
         id="path4892"
         inkscape:connector-curvature="0" />
    </g>
    <text
       xml:space="preserve"
       style="font-style:normal;font-weight:normal;font-size:70px;line-height:125%;font-family:sans-serif;letter-spacing:0px;word-spacing:0px;fill:#000000;fill-opacity:1;stroke:none;stroke-width:1px;stroke-linecap:butt;stroke-linejoin:miter;stroke-opacity:1"
       x="167.13383"
       y="297.65833"
       id="text4245"
       sodipodi:linespacing="125%"><tspan
         sodipodi:role="line"
         id="tspan4247"
         x="167.13383"
         y="297.65833">L</tspan></text>
    <text
       xml:space="preserve"
       style="font-style:normal;font-weight:normal;font-size:70px;line-height:125%;font-family:sans-serif;letter-spacing:0px;word-spacing:0px;fill:#000000;fill-opacity:1;stroke:none;stroke-width:1px;stroke-linecap:butt;stroke-linejoin:miter;stroke-opacity:1"
       x="371.50397"
       y="297.16272"
       id="text4249"
       sodipodi:linespacing="125%"><tspan
         sodipodi:role="line"
         id="tspan4251"
         x="371.50397"
         y="297.16272">U</tspan></text>
    <text
       xml:space="preserve"
       style="font-style:normal;font-weight:normal;font-size:70px;line-height:125%;font-family:sans-serif;letter-spacing:0px;word-spacing:0px;fill:#000000;fill-opacity:1;stroke:none;stroke-width:1px;stroke-linecap:butt;stroke-linejoin:miter;stroke-opacity:1"
       x="758.01971"
       y="297.65833"
       id="text4253"
       sodipodi:linespacing="125%"><tspan
         sodipodi:role="line"
         id="tspan4255"
         x="758.01971"
         y="297.65833"
         style="font-size:70px">A</tspan></text>
  </g>
</svg>
