<?xml version="1.0" encoding="UTF-8" standalone="no"?>
<!-- Generated by graphviz version 2.38.0 (20140413.2041)
 -->

<!-- Title: G Pages: 1 -->

<svg
   xmlns:dc="http://purl.org/dc/elements/1.1/"
   xmlns:cc="http://creativecommons.org/ns#"
   xmlns:rdf="http://www.w3.org/1999/02/22-rdf-syntax-ns#"
   xmlns:svg="http://www.w3.org/2000/svg"
   xmlns="http://www.w3.org/2000/svg"
   xmlns:sodipodi="http://sodipodi.sourceforge.net/DTD/sodipodi-0.dtd"
   xmlns:inkscape="http://www.inkscape.org/namespaces/inkscape"
   width="492pt"
   height="425pt"
   viewBox="0.00 0.00 492.17 424.89"
   id="svg2"
   version="1.1"
   inkscape:version="0.48.5 r10040"
   sodipodi:docname="test2.svg">
  <metadata
     id="metadata158">
    <rdf:RDF>
      <cc:Work
         rdf:about="">
        <dc:format>image/svg+xml</dc:format>
        <dc:type
           rdf:resource="http://purl.org/dc/dcmitype/StillImage" />
      </cc:Work>
    </rdf:RDF>
  </metadata>
  <defs
     id="defs156" />
  <sodipodi:namedview
     pagecolor="#ffffff"
     bordercolor="#666666"
     borderopacity="1"
     objecttolerance="10"
     gridtolerance="10"
     guidetolerance="10"
     inkscape:pageopacity="0"
     inkscape:pageshadow="2"
     inkscape:window-width="2560"
     inkscape:window-height="1569"
     id="namedview154"
     showgrid="false"
     inkscape:zoom="1.2564872"
     inkscape:cx="232.86497"
     inkscape:cy="44.539672"
     inkscape:window-x="2560"
     inkscape:window-y="0"
     inkscape:window-maximized="1"
     inkscape:current-layer="svg2" />
  <ellipse
     cx="28.2215"
     cy="-104.457"
     rx="27"
     ry="18"
     id="ellipse12"
     d="m 55.2215,-104.457 c 0,9.941125 -12.088311,17.999999 -27,17.999999 -14.911688,0 -26.9999996,-8.058874 -26.9999996,-17.999999 0,-9.94113 12.0883116,-18 26.9999996,-18 14.911689,0 27,8.05887 27,18 z"
     sodipodi:cx="28.2215"
     sodipodi:cy="-104.457"
     sodipodi:rx="27"
     sodipodi:ry="18"
     style="fill:#ffe6d5;stroke:#000000"
     transform="translate(4,420.893)" />
  <text
     x="32.2215"
     y="320.13599"
     font-size="14.00"
     id="text14"
     style="font-size:14px;text-anchor:middle;font-family:'Times,serif'">0</text>
  <ellipse
     cx="164.09801"
     cy="-114.946"
     rx="27"
     ry="18"
     id="ellipse19"
     d="m 191.09801,-114.946 c 0,9.94113 -12.08831,18.000001 -27,18.000001 -14.91169,0 -27,-8.058871 -27,-18.000001 0,-9.94112 12.08831,-18 27,-18 14.91169,0 27,8.05888 27,18 z"
     sodipodi:cx="164.09801"
     sodipodi:cy="-114.946"
     sodipodi:rx="27"
     sodipodi:ry="18"
     style="fill:#abc837;stroke:#000000"
     transform="translate(4,420.893)" />
  <text
     x="168.09801"
     y="309.647"
     font-size="14.00"
     id="text21"
     style="font-size:14px;text-anchor:middle;font-family:'Times,serif'">1</text>
  <path
     d="m 59.0663,314.364 c 23.6664,-1.827 57.9897,-4.477 81.7777,-6.313"
     id="path26"
     inkscape:connector-curvature="0"
     style="fill:none;stroke:#000000" />
  <ellipse
     cx="213.58"
     cy="-18"
     rx="27"
     ry="18"
     id="ellipse31"
     d="m 240.58,-18 c 0,9.9411255 -12.08831,18 -27,18 -14.91169,0 -27,-8.0588745 -27,-18 0,-9.941125 12.08831,-18 27,-18 14.91169,0 27,8.058875 27,18 z"
     sodipodi:cx="213.58"
     sodipodi:cy="-18"
     sodipodi:rx="27"
     sodipodi:ry="18"
     style="fill:#ffe6d5;stroke:#000000"
     transform="translate(4,420.893)" />
  <text
     x="217.58"
     y="406.59299"
     font-size="14.00"
     id="text33"
     style="font-size:14px;text-anchor:middle;font-family:'Times,serif'">2</text>
  <path
     d="m 54.5801,326.8645 c 35.723,16.6624 105.2599,49.0968 140.8509,65.6973"
     id="path38"
     inkscape:connector-curvature="0"
     style="fill:none;stroke:#000000" />
  <ellipse
     cx="27"
     cy="-310.18301"
     rx="27"
     ry="18"
     id="ellipse43"
     d="m 54,-310.18301 c 0,9.94112 -12.088312,18 -27,18 -14.911688,0 -27,-8.05888 -27,-18 0,-9.94113 12.088312,-18 27,-18 14.911688,0 27,8.05887 27,18 z"
     sodipodi:cx="27"
     sodipodi:cy="-310.18301"
     sodipodi:rx="27"
     sodipodi:ry="18"
     style="fill:#ffe6d5;stroke:#000000"
     transform="translate(4,420.893)" />
  <text
     x="31"
     y="114.41"
     font-size="14.00"
     id="text45"
     style="font-size:14px;text-anchor:middle;font-family:'Times,serif'">4</text>
  <path
     d="M 32.1131,298.179 C 31.8813,259.139 31.3397,167.93 31.1082,128.926"
     id="path50"
     inkscape:connector-curvature="0"
     style="fill:none;stroke:#000000" />
  <ellipse
     cx="354.62601"
     cy="-41.0527"
     rx="27"
     ry="18"
     id="ellipse55"
     d="m 381.62601,-41.0527 c 0,9.941125 -12.08831,18 -27,18 -14.91169,0 -27,-8.058875 -27,-18 0,-9.941126 12.08831,-18 27,-18 14.91169,0 27,8.058874 27,18 z"
     sodipodi:cx="354.62601"
     sodipodi:cy="-41.0527"
     sodipodi:rx="27"
     sodipodi:ry="18"
     style="fill:#abc837;stroke:#000000"
     transform="translate(4,420.893)" />
  <text
     x="358.62601"
     y="383.54031"
     font-size="14.00"
     id="text57"
     style="font-size:14px;text-anchor:middle;font-family:'Times,serif'">3</text>
  <path
     d="m 191.461,315.008 c 36.567,14.182 106.926,41.4699 143.611,55.6975"
     id="path62"
     inkscape:connector-curvature="0"
     style="fill:none;stroke:#000000" />
  <ellipse
     cx="163.05"
     cy="-300.97"
     rx="27"
     ry="18"
     id="ellipse67"
     d="m 190.05,-300.97 c 0,9.94112 -12.08831,18 -27,18 -14.91169,0 -27,-8.05888 -27,-18 0,-9.94113 12.08831,-18 27,-18 14.91169,0 27,8.05887 27,18 z"
     sodipodi:cx="163.05"
     sodipodi:cy="-300.97"
     sodipodi:rx="27"
     sodipodi:ry="18"
     style="fill:#abc837;stroke:#000000"
     transform="translate(4,420.893)" />
  <text
     x="167.05"
     y="123.62301"
     font-size="14.00"
     id="text69"
     style="font-size:14px;text-anchor:middle;font-family:'Times,serif'">5</text>
  <path
     d="m 167.996,287.772 c -0.201,-35.564 -0.642,-113.977 -0.843,-149.6"
     id="path74"
     inkscape:connector-curvature="0"
     style="fill:none;stroke:#000000" />
  <path
     d="m 244.11,398.557 c 25.216,-4.1215 62.928,-10.2851 88.105,-14.4001"
     id="path79"
     inkscape:connector-curvature="0"
     style="fill:none;stroke:#000000" />
  <ellipse
     cx="313.53"
     cy="-209.091"
     rx="27"
     ry="18"
     id="ellipse84"
     d="m 340.53,-209.091 c 0,9.94112 -12.08831,18 -27,18 -14.91169,0 -27,-8.05888 -27,-18 0,-9.94113 12.08831,-18 27,-18 14.91169,0 27,8.05887 27,18 z"
     sodipodi:cx="313.53"
     sodipodi:cy="-209.091"
     sodipodi:rx="27"
     sodipodi:ry="18"
     style="fill:#ffe6d5;stroke:#000000"
     transform="translate(4,420.893)" />
  <text
     x="317.53"
     y="215.502"
     font-size="14.00"
     id="text86"
     style="font-size:14px;text-anchor:middle;font-family:'Times,serif'">6</text>
  <path
     d="M 226.626,385.5979 C 245.656,349.2163 289.628,265.147 308.577,228.92"
     id="path91"
     inkscape:connector-curvature="0"
     style="fill:none;stroke:#000000" />
  <path
     d="m 57.8792,112.53 c 23.6966,1.605 58.0638,3.932 81.8818,5.545"
     id="path96"
     inkscape:connector-curvature="0"
     style="fill:none;stroke:#000000" />
  <ellipse
     cx="211.504"
     cy="-398.89301"
     rx="27"
     ry="18"
     id="ellipse101"
     d="m 238.504,-398.89301 c 0,9.94113 -12.08831,18 -27,18 -14.91169,0 -27,-8.05887 -27,-18 0,-9.94112 12.08831,-18 27,-18 14.91169,0 27,8.05888 27,18 z"
     sodipodi:cx="211.504"
     sodipodi:cy="-398.89301"
     sodipodi:rx="27"
     sodipodi:ry="18"
     style="fill:#ffe6d5;stroke:#000000"
     transform="translate(4,420.893)" />
  <text
     x="215.504"
     y="25.700006"
     font-size="14.00"
     id="text103"
     style="font-size:14px;text-anchor:middle;font-family:'Times,serif'">8</text>
  <path
     d="M 53.2554,100.01 C 88.8137,82.913 158.03,49.633 193.456,32.6"
     id="path108"
     inkscape:connector-curvature="0"
     style="fill:none;stroke:#000000" />
  <ellipse
     cx="457.17401"
     cy="-209.408"
     rx="27"
     ry="18"
     id="ellipse113"
     d="m 484.17401,-209.408 c 0,9.94112 -12.08831,18 -27,18 -14.91169,0 -27,-8.05888 -27,-18 0,-9.94113 12.08831,-18 27,-18 14.91169,0 27,8.05887 27,18 z"
     sodipodi:cx="457.17401"
     sodipodi:cy="-209.408"
     sodipodi:rx="27"
     sodipodi:ry="18"
     style="fill:#abc837;stroke:#000000"
     transform="translate(4,420.893)" />
  <text
     x="461.17401"
     y="215.18501"
     font-size="14.00"
     id="text115"
     style="font-size:14px;text-anchor:middle;font-family:'Times,serif'">7</text>
  <path
     d="M 368.833,363.0823 C 388.49,330.8121 431.383,260.392 451.007,228.176"
     id="path120"
     inkscape:connector-curvature="0"
     style="fill:none;stroke:#000000" />
  <ellipse
     cx="352.78"
     cy="-376.94101"
     rx="27"
     ry="18"
     id="ellipse125"
     d="m 379.78,-376.94101 c 0,9.94113 -12.08831,18 -27,18 -14.91169,0 -27,-8.05887 -27,-18 0,-9.94113 12.08831,-18 27,-18 14.91169,0 27,8.05887 27,18 z"
     sodipodi:cx="352.78"
     sodipodi:cy="-376.94101"
     sodipodi:rx="27"
     sodipodi:ry="18"
     style="fill:#abc837;stroke:#000000"
     transform="translate(4,420.893)" />
  <text
     x="356.78"
     y="47.652004"
     font-size="14.00"
     id="text127"
     style="font-size:14px;text-anchor:middle;font-family:'Times,serif'">9</text>
  <path
     d="M 190.315,110.608 C 226.828,95.987 297.175,67.819 333.623,53.225"
     id="path132"
     inkscape:connector-curvature="0"
     style="fill:none;stroke:#000000" />
  <path
     d="m 344.549,211.742 c 25.518,-0.056 63.601,-0.14 89.239,-0.196"
     id="path137"
     inkscape:connector-curvature="0"
     style="fill:none;stroke:#000000" />
  <path
     d="M 308.296,194.624 C 288.872,158.487 243.985,74.985 224.643,39.003"
     id="path142"
     inkscape:connector-curvature="0"
     style="fill:none;stroke:#000000" />
  <path
     d="M 450.782,194.809 C 430.875,162.862 387.556,93.342 367.441,61.06"
     id="path147"
     inkscape:connector-curvature="0"
     style="fill:none;stroke:#000000" />
  <path
     d="m 242.077,26.129 c 25.258,3.925 63.031,9.794 88.25,13.712"
     id="path152"
     inkscape:connector-curvature="0"
     style="fill:none;stroke:#000000" />
</svg>
