<?xml version="1.0" encoding="UTF-8" standalone="no"?>
<!-- Generated by graphviz version 2.26.0 (20091210.2329)
 -->

<!-- Title: G Pages: 1 -->

<svg
   xmlns:dc="http://purl.org/dc/elements/1.1/"
   xmlns:cc="http://creativecommons.org/ns#"
   xmlns:rdf="http://www.w3.org/1999/02/22-rdf-syntax-ns#"
   xmlns:svg="http://www.w3.org/2000/svg"
   xmlns="http://www.w3.org/2000/svg"
   xmlns:sodipodi="http://sodipodi.sourceforge.net/DTD/sodipodi-0.dtd"
   xmlns:inkscape="http://www.inkscape.org/namespaces/inkscape"
   width="350pt"
   height="638pt"
   viewBox="0.00 0.00 350.00 638.00"
   id="svg2"
   version="1.1"
   inkscape:version="0.48.0 r9654"
   sodipodi:docname="graph_node_RowFactoThreader.viz.svg">
  <metadata
     id="metadata468">
    <rdf:RDF>
      <cc:Work
         rdf:about="">
        <dc:format>image/svg+xml</dc:format>
        <dc:type
           rdf:resource="http://purl.org/dc/dcmitype/StillImage" />
      </cc:Work>
    </rdf:RDF>
  </metadata>
  <defs
     id="defs466" />
  <sodipodi:namedview
     pagecolor="#ffffff"
     bordercolor="#666666"
     borderopacity="1"
     objecttolerance="10"
     gridtolerance="10"
     guidetolerance="10"
     inkscape:pageopacity="0"
     inkscape:pageshadow="2"
     inkscape:window-width="2560"
     inkscape:window-height="1507"
     id="namedview464"
     showgrid="false"
     inkscape:zoom="1.4394984"
     inkscape:cx="252.32137"
     inkscape:cy="370.21057"
     inkscape:window-x="0"
     inkscape:window-y="33"
     inkscape:window-maximized="1"
     inkscape:current-layer="svg2" />
  <g
     id="g3706">
    <g
       transform="translate(4,634)"
       id="node1"
       class="node">
      <title
         id="title10">0</title>
      <ellipse
         cx="171"
         cy="-611"
         rx="27"
         ry="19.0919"
         id="ellipse12"
         d="m 198,-611 c 0,10.54417 -12.08831,19.0919 -27,19.0919 -14.91169,0 -27,-8.54773 -27,-19.0919 0,-10.54417 12.08831,-19.0919 27,-19.0919 14.91169,0 27,8.54773 27,19.0919 z"
         sodipodi:cx="171"
         sodipodi:cy="-611"
         sodipodi:rx="27"
         sodipodi:ry="19.0919"
         style="fill:#ffffff;stroke:#000000" />
      <text
         x="171"
         y="-607.90002"
         font-size="14.00"
         id="text14"
         style="font-size:14px;text-anchor:middle;font-family:'Times Roman,serif'">0</text>
    </g>
    <g
       transform="translate(4,634)"
       id="node3"
       class="node">
      <title
         id="title17">5</title>
      <ellipse
         cx="135"
         cy="-537"
         rx="27"
         ry="19.0919"
         id="ellipse19"
         d="m 162,-537 c 0,10.54417 -12.08831,19.0919 -27,19.0919 -14.91169,0 -27,-8.54773 -27,-19.0919 0,-10.54417 12.08831,-19.0919 27,-19.0919 14.91169,0 27,8.54773 27,19.0919 z"
         sodipodi:cx="135"
         sodipodi:cy="-537"
         sodipodi:rx="27"
         sodipodi:ry="19.0919"
         style="fill:#ffffff;stroke:#000000" />
      <text
         x="135"
         y="-533.90002"
         font-size="14.00"
         id="text21"
         style="font-size:14px;text-anchor:middle;font-family:'Times Roman,serif'">5</text>
    </g>
    <g
       transform="translate(4,634)"
       id="edge2"
       class="edge">
      <title
         id="title24">0-&gt;5</title>
      <path
         d="m 162.101,-592.708 c -4.185,8.603 -9.261,19.037 -13.883,28.538"
         id="path26"
         inkscape:connector-curvature="0"
         style="fill:none;stroke:#000000" />
      <polygon
         points="145.024,-565.605 151.319,-562.543 151.319,-562.543 143.797,-555.082 "
         id="polygon28"
         style="fill:#000000;stroke:#000000" />
    </g>
    <g
       transform="translate(4,634)"
       id="node5"
       class="node">
      <title
         id="title31">25</title>
      <ellipse
         cx="207"
         cy="-537"
         rx="27"
         ry="19.0919"
         id="ellipse33"
         d="m 234,-537 c 0,10.54417 -12.08831,19.0919 -27,19.0919 -14.91169,0 -27,-8.54773 -27,-19.0919 0,-10.54417 12.08831,-19.0919 27,-19.0919 14.91169,0 27,8.54773 27,19.0919 z"
         sodipodi:cx="207"
         sodipodi:cy="-537"
         sodipodi:rx="27"
         sodipodi:ry="19.0919"
         style="fill:#000000;stroke:#000000" />
      <text
         x="207"
         y="-533.90002"
         font-size="14.00"
         id="text35"
         style="font-size:14px;text-anchor:middle;fill:#ffffff;font-family:'Times Roman,serif'">25</text>
    </g>
    <g
       transform="translate(4,634)"
       id="edge4"
       class="edge">
      <title
         id="title38">0-&gt;25</title>
      <path
         d="m 179.899,-592.708 c 4.185,8.603 9.261,19.037 13.883,28.538"
         id="path40"
         inkscape:connector-curvature="0"
         style="fill:none;stroke:#000000" />
      <polygon
         points="190.681,-562.543 196.976,-565.605 196.976,-565.605 198.203,-555.082 "
         id="polygon42"
         style="fill:#000000;stroke:#000000" />
    </g>
    <g
       transform="translate(4,634)"
       id="node7"
       class="node">
      <title
         id="title45">10</title>
      <ellipse
         cx="99"
         cy="-463"
         rx="27"
         ry="19.0919"
         id="ellipse47"
         d="m 126,-463 c 0,10.54417 -12.08831,19.0919 -27,19.0919 -14.911688,0 -27,-8.54773 -27,-19.0919 0,-10.54417 12.088312,-19.0919 27,-19.0919 14.91169,0 27,8.54773 27,19.0919 z"
         sodipodi:cx="99"
         sodipodi:cy="-463"
         sodipodi:rx="27"
         sodipodi:ry="19.0919"
         style="fill:#ffffff;stroke:#000000" />
      <text
         x="99"
         y="-459.89999"
         font-size="14.00"
         id="text49"
         style="font-size:14px;text-anchor:middle;font-family:'Times Roman,serif'">10</text>
    </g>
    <g
       transform="translate(4,634)"
       id="edge6"
       class="edge">
      <title
         id="title52">5-&gt;10</title>
      <path
         d="m 126.101,-518.708 c -4.185,8.603 -9.261,19.037 -13.883,28.538"
         id="path54"
         inkscape:connector-curvature="0"
         style="fill:none;stroke:#000000" />
      <polygon
         points="109.024,-491.605 115.319,-488.543 115.319,-488.543 107.797,-481.082 "
         id="polygon56"
         style="fill:#000000;stroke:#000000" />
    </g>
    <g
       transform="translate(4,634)"
       id="node9"
       class="node">
      <title
         id="title59">30</title>
      <ellipse
         cx="171"
         cy="-463"
         rx="27"
         ry="19.0919"
         id="ellipse61"
         d="m 198,-463 c 0,10.54417 -12.08831,19.0919 -27,19.0919 -14.91169,0 -27,-8.54773 -27,-19.0919 0,-10.54417 12.08831,-19.0919 27,-19.0919 14.91169,0 27,8.54773 27,19.0919 z"
         sodipodi:cx="171"
         sodipodi:cy="-463"
         sodipodi:rx="27"
         sodipodi:ry="19.0919"
         style="fill:#000000;stroke:#000000" />
      <text
         x="171"
         y="-459.89999"
         font-size="14.00"
         id="text63"
         style="font-size:14px;text-anchor:middle;fill:#ffffff;font-family:'Times Roman,serif'">30</text>
    </g>
    <g
       transform="translate(4,634)"
       id="edge8"
       class="edge">
      <title
         id="title66">5-&gt;30</title>
      <path
         d="m 143.899,-518.708 c 4.185,8.603 9.261,19.037 13.883,28.538"
         id="path68"
         inkscape:connector-curvature="0"
         style="fill:none;stroke:#000000" />
      <polygon
         points="154.681,-488.543 160.976,-491.605 160.976,-491.605 162.203,-481.082 "
         id="polygon70"
         style="fill:#000000;stroke:#000000" />
    </g>
    <g
       transform="translate(4,634)"
       id="edge20"
       class="edge">
      <title
         id="title73">25-&gt;30</title>
      <path
         d="m 198.101,-518.708 c -4.185,8.603 -9.261,19.037 -13.883,28.538"
         id="path75"
         inkscape:connector-curvature="0"
         style="fill:none;stroke:#000000" />
      <polygon
         points="181.024,-491.605 187.319,-488.543 187.319,-488.543 179.797,-481.082 "
         id="polygon77"
         style="fill:#000000;stroke:#000000" />
    </g>
    <g
       transform="translate(4,634)"
       id="node22"
       class="node">
      <title
         id="title80">50</title>
      <ellipse
         cx="243"
         cy="-463"
         rx="27"
         ry="19.0919"
         id="ellipse82"
         d="m 270,-463 c 0,10.54417 -12.08831,19.0919 -27,19.0919 -14.91169,0 -27,-8.54773 -27,-19.0919 0,-10.54417 12.08831,-19.0919 27,-19.0919 14.91169,0 27,8.54773 27,19.0919 z"
         sodipodi:cx="243"
         sodipodi:cy="-463"
         sodipodi:rx="27"
         sodipodi:ry="19.0919"
         style="fill:#000000;stroke:#000000" />
      <text
         x="243"
         y="-459.89999"
         font-size="14.00"
         id="text84"
         style="font-size:14px;text-anchor:middle;fill:#ffffff;font-family:'Times Roman,serif'">50</text>
    </g>
    <g
       transform="translate(4,634)"
       id="edge22"
       class="edge">
      <title
         id="title87">25-&gt;50</title>
      <path
         d="m 215.899,-518.708 c 4.185,8.603 9.261,19.037 13.883,28.538"
         id="path89"
         inkscape:connector-curvature="0"
         style="fill:none;stroke:#000000" />
      <polygon
         points="226.681,-488.543 232.976,-491.605 232.976,-491.605 234.203,-481.082 "
         id="polygon91"
         style="fill:#000000;stroke:#000000" />
    </g>
    <g
       transform="translate(4,634)"
       id="node11"
       class="node">
      <title
         id="title94">15</title>
      <ellipse
         cx="63"
         cy="-389"
         rx="27"
         ry="19.0919"
         id="ellipse96"
         d="m 90,-389 c 0,10.54417 -12.088312,19.0919 -27,19.0919 -14.911688,0 -27,-8.54773 -27,-19.0919 0,-10.54417 12.088312,-19.0919 27,-19.0919 14.911688,0 27,8.54773 27,19.0919 z"
         sodipodi:cx="63"
         sodipodi:cy="-389"
         sodipodi:rx="27"
         sodipodi:ry="19.0919"
         style="fill:#ffffff;stroke:#000000" />
      <text
         x="63"
         y="-385.89999"
         font-size="14.00"
         id="text98"
         style="font-size:14px;text-anchor:middle;font-family:'Times Roman,serif'">15</text>
    </g>
    <g
       transform="translate(4,634)"
       id="edge10"
       class="edge">
      <title
         id="title101">10-&gt;15</title>
      <path
         d="m 90.1011,-444.708 c -4.1851,8.603 -9.261,19.037 -13.8833,28.538"
         id="path103"
         inkscape:connector-curvature="0"
         style="fill:none;stroke:#000000" />
      <polygon
         points="73.0239,-417.605 79.3186,-414.543 79.3186,-414.543 71.7965,-407.082 "
         id="polygon105"
         style="fill:#000000;stroke:#000000" />
    </g>
    <g
       transform="translate(4,634)"
       id="node13"
       class="node">
      <title
         id="title108">35</title>
      <ellipse
         cx="135"
         cy="-389"
         rx="27"
         ry="19.0919"
         id="ellipse110"
         d="m 162,-389 c 0,10.54417 -12.08831,19.0919 -27,19.0919 -14.91169,0 -27,-8.54773 -27,-19.0919 0,-10.54417 12.08831,-19.0919 27,-19.0919 14.91169,0 27,8.54773 27,19.0919 z"
         sodipodi:cx="135"
         sodipodi:cy="-389"
         sodipodi:rx="27"
         sodipodi:ry="19.0919"
         style="fill:#ffffff;stroke:#000000" />
      <text
         x="135"
         y="-385.89999"
         font-size="14.00"
         id="text112"
         style="font-size:14px;text-anchor:middle;font-family:'Times Roman,serif'">35</text>
    </g>
    <g
       transform="translate(4,634)"
       id="edge12"
       class="edge">
      <title
         id="title115">10-&gt;35</title>
      <path
         d="m 107.899,-444.708 c 4.185,8.603 9.261,19.037 13.883,28.538"
         id="path117"
         inkscape:connector-curvature="0"
         style="fill:none;stroke:#000000" />
      <polygon
         points="118.681,-414.543 124.976,-417.605 124.976,-417.605 126.203,-407.082 "
         id="polygon119"
         style="fill:#000000;stroke:#000000" />
    </g>
    <g
       transform="translate(4,634)"
       id="edge24"
       class="edge">
      <title
         id="title122">30-&gt;35</title>
      <path
         d="m 162.101,-444.708 c -4.185,8.603 -9.261,19.037 -13.883,28.538"
         id="path124"
         inkscape:connector-curvature="0"
         style="fill:none;stroke:#000000" />
      <polygon
         points="145.024,-417.605 151.319,-414.543 151.319,-414.543 143.797,-407.082 "
         id="polygon126"
         style="fill:#000000;stroke:#000000" />
    </g>
    <g
       transform="translate(4,634)"
       id="node25"
       class="node">
      <title
         id="title129">55</title>
      <ellipse
         cx="207"
         cy="-389"
         rx="27"
         ry="19.0919"
         id="ellipse131"
         d="m 234,-389 c 0,10.54417 -12.08831,19.0919 -27,19.0919 -14.91169,0 -27,-8.54773 -27,-19.0919 0,-10.54417 12.08831,-19.0919 27,-19.0919 14.91169,0 27,8.54773 27,19.0919 z"
         sodipodi:cx="207"
         sodipodi:cy="-389"
         sodipodi:rx="27"
         sodipodi:ry="19.0919"
         style="fill:#000000;stroke:#000000" />
      <text
         x="207"
         y="-385.89999"
         font-size="14.00"
         id="text133"
         style="font-size:14px;text-anchor:middle;fill:#ffffff;font-family:'Times Roman,serif'">55</text>
    </g>
    <g
       transform="translate(4,634)"
       id="edge26"
       class="edge">
      <title
         id="title136">30-&gt;55</title>
      <path
         d="m 179.899,-444.708 c 4.185,8.603 9.261,19.037 13.883,28.538"
         id="path138"
         inkscape:connector-curvature="0"
         style="fill:none;stroke:#000000" />
      <polygon
         points="190.681,-414.543 196.976,-417.605 196.976,-417.605 198.203,-407.082 "
         id="polygon140"
         style="fill:#000000;stroke:#000000" />
    </g>
    <g
       transform="translate(4,634)"
       id="node15"
       class="node">
      <title
         id="title143">20</title>
      <ellipse
         cx="27"
         cy="-315"
         rx="27"
         ry="19.0919"
         id="ellipse145"
         d="m 54,-315 c 0,10.54417 -12.088312,19.0919 -27,19.0919 -14.911688,0 -27,-8.54773 -27,-19.0919 0,-10.54417 12.088312,-19.0919 27,-19.0919 14.911688,0 27,8.54773 27,19.0919 z"
         sodipodi:cx="27"
         sodipodi:cy="-315"
         sodipodi:rx="27"
         sodipodi:ry="19.0919"
         style="fill:#ffffff;stroke:#000000" />
      <text
         x="27"
         y="-311.89999"
         font-size="14.00"
         id="text147"
         style="font-size:14px;text-anchor:middle;font-family:'Times Roman,serif'">20</text>
    </g>
    <g
       transform="translate(4,634)"
       id="edge14"
       class="edge">
      <title
         id="title150">15-&gt;20</title>
      <path
         d="m 54.1011,-370.708 c -4.1851,8.603 -9.261,19.037 -13.8833,28.538"
         id="path152"
         inkscape:connector-curvature="0"
         style="fill:none;stroke:#000000" />
      <polygon
         points="37.0239,-343.605 43.3186,-340.543 43.3186,-340.543 35.7965,-333.082 "
         id="polygon154"
         style="fill:#000000;stroke:#000000" />
    </g>
    <g
       transform="translate(4,634)"
       id="node17"
       class="node">
      <title
         id="title157">40</title>
      <ellipse
         cx="99"
         cy="-315"
         rx="27"
         ry="19.0919"
         id="ellipse159"
         d="m 126,-315 c 0,10.54417 -12.08831,19.0919 -27,19.0919 -14.911688,0 -27,-8.54773 -27,-19.0919 0,-10.54417 12.088312,-19.0919 27,-19.0919 14.91169,0 27,8.54773 27,19.0919 z"
         sodipodi:cx="99"
         sodipodi:cy="-315"
         sodipodi:rx="27"
         sodipodi:ry="19.0919"
         style="fill:#ffffff;stroke:#000000" />
      <text
         x="99"
         y="-311.89999"
         font-size="14.00"
         id="text161"
         style="font-size:14px;text-anchor:middle;font-family:'Times Roman,serif'">40</text>
    </g>
    <g
       transform="translate(4,634)"
       id="edge16"
       class="edge">
      <title
         id="title164">15-&gt;40</title>
      <path
         d="m 71.8989,-370.708 c 4.1851,8.603 9.261,19.037 13.8833,28.538"
         id="path166"
         inkscape:connector-curvature="0"
         style="fill:none;stroke:#000000" />
      <polygon
         points="82.6814,-340.543 88.9761,-343.605 88.9761,-343.605 90.2035,-333.082 "
         id="polygon168"
         style="fill:#000000;stroke:#000000" />
    </g>
    <g
       transform="translate(4,634)"
       id="edge28"
       class="edge">
      <title
         id="title171">35-&gt;40</title>
      <path
         d="m 126.101,-370.708 c -4.185,8.603 -9.261,19.037 -13.883,28.538"
         id="path173"
         inkscape:connector-curvature="0"
         style="fill:none;stroke:#000000" />
      <polygon
         points="109.024,-343.605 115.319,-340.543 115.319,-340.543 107.797,-333.082 "
         id="polygon175"
         style="fill:#000000;stroke:#000000" />
    </g>
    <g
       transform="translate(4,634)"
       id="node28"
       class="node">
      <title
         id="title178">60</title>
      <ellipse
         cx="171"
         cy="-315"
         rx="27"
         ry="19.0919"
         id="ellipse180"
         d="m 198,-315 c 0,10.54417 -12.08831,19.0919 -27,19.0919 -14.91169,0 -27,-8.54773 -27,-19.0919 0,-10.54417 12.08831,-19.0919 27,-19.0919 14.91169,0 27,8.54773 27,19.0919 z"
         sodipodi:cx="171"
         sodipodi:cy="-315"
         sodipodi:rx="27"
         sodipodi:ry="19.0919"
         style="fill:#ffffff;stroke:#000000" />
      <text
         x="171"
         y="-311.89999"
         font-size="14.00"
         id="text182"
         style="font-size:14px;text-anchor:middle;font-family:'Times Roman,serif'">60</text>
    </g>
    <g
       transform="translate(4,634)"
       id="edge30"
       class="edge">
      <title
         id="title185">35-&gt;60</title>
      <path
         d="m 143.899,-370.708 c 4.185,8.603 9.261,19.037 13.883,28.538"
         id="path187"
         inkscape:connector-curvature="0"
         style="fill:none;stroke:#000000" />
      <polygon
         points="154.681,-340.543 160.976,-343.605 160.976,-343.605 162.203,-333.082 "
         id="polygon189"
         style="fill:#000000;stroke:#000000" />
    </g>
    <g
       transform="translate(4,634)"
       id="node19"
       class="node">
      <title
         id="title192">45</title>
      <ellipse
         cx="63"
         cy="-241"
         rx="27"
         ry="19.0919"
         id="ellipse194"
         d="m 90,-241 c 0,10.54417 -12.088312,19.0919 -27,19.0919 -14.911688,0 -27,-8.54773 -27,-19.0919 0,-10.54417 12.088312,-19.0919 27,-19.0919 14.911688,0 27,8.54773 27,19.0919 z"
         sodipodi:cx="63"
         sodipodi:cy="-241"
         sodipodi:rx="27"
         sodipodi:ry="19.0919"
         style="fill:#ffffff;stroke:#000000" />
      <text
         x="63"
         y="-237.89999"
         font-size="14.00"
         id="text196"
         style="font-size:14px;text-anchor:middle;font-family:'Times Roman,serif'">45</text>
    </g>
    <g
       transform="translate(4,634)"
       id="edge18"
       class="edge">
      <title
         id="title199">20-&gt;45</title>
      <path
         d="m 35.8989,-296.708 c 4.1851,8.603 9.261,19.037 13.8833,28.538"
         id="path201"
         inkscape:connector-curvature="0"
         style="fill:none;stroke:#000000" />
      <polygon
         points="46.6814,-266.543 52.9761,-269.605 52.9761,-269.605 54.2035,-259.082 "
         id="polygon203"
         style="fill:#000000;stroke:#000000" />
    </g>
    <g
       transform="translate(4,634)"
       id="edge34"
       class="edge">
      <title
         id="title206">40-&gt;45</title>
      <path
         d="m 90.1011,-296.708 c -4.1851,8.603 -9.261,19.037 -13.8833,28.538"
         id="path208"
         inkscape:connector-curvature="0"
         style="fill:none;stroke:#000000" />
      <polygon
         points="73.0239,-269.605 79.3186,-266.543 79.3186,-266.543 71.7965,-259.082 "
         id="polygon210"
         style="fill:#000000;stroke:#000000" />
    </g>
    <g
       transform="translate(4,634)"
       id="node30"
       class="node">
      <title
         id="title213">65</title>
      <ellipse
         cx="135"
         cy="-241"
         rx="27"
         ry="19.0919"
         id="ellipse215"
         d="m 162,-241 c 0,10.54417 -12.08831,19.0919 -27,19.0919 -14.91169,0 -27,-8.54773 -27,-19.0919 0,-10.54417 12.08831,-19.0919 27,-19.0919 14.91169,0 27,8.54773 27,19.0919 z"
         sodipodi:cx="135"
         sodipodi:cy="-241"
         sodipodi:rx="27"
         sodipodi:ry="19.0919"
         style="fill:#ffffff;stroke:#000000" />
      <text
         x="135"
         y="-237.89999"
         font-size="14.00"
         id="text217"
         style="font-size:14px;text-anchor:middle;font-family:'Times Roman,serif'">65</text>
    </g>
    <g
       transform="translate(4,634)"
       id="edge32"
       class="edge">
      <title
         id="title220">40-&gt;65</title>
      <path
         d="m 107.899,-296.708 c 4.185,8.603 9.261,19.037 13.883,28.538"
         id="path222"
         inkscape:connector-curvature="0"
         style="fill:none;stroke:#000000" />
      <polygon
         points="118.681,-266.543 124.976,-269.605 124.976,-269.605 126.203,-259.082 "
         id="polygon224"
         style="fill:#000000;stroke:#000000" />
    </g>
    <g
       transform="translate(4,634)"
       id="node33"
       class="node">
      <title
         id="title227">70</title>
      <ellipse
         cx="99"
         cy="-167"
         rx="27"
         ry="19.0919"
         id="ellipse229"
         d="m 126,-167 c 0,10.54417 -12.08831,19.0919 -27,19.0919 -14.911688,0 -27,-8.54773 -27,-19.0919 0,-10.54417 12.088312,-19.0919 27,-19.0919 14.91169,0 27,8.54773 27,19.0919 z"
         sodipodi:cx="99"
         sodipodi:cy="-167"
         sodipodi:rx="27"
         sodipodi:ry="19.0919"
         style="fill:#ffffff;stroke:#000000" />
      <text
         x="99"
         y="-163.89999"
         font-size="14.00"
         id="text231"
         style="font-size:14px;text-anchor:middle;font-family:'Times Roman,serif'">70</text>
    </g>
    <g
       transform="translate(4,634)"
       id="edge36"
       class="edge">
      <title
         id="title234">45-&gt;70</title>
      <path
         d="m 71.8989,-222.708 c 4.1851,8.603 9.261,19.037 13.8833,28.538"
         id="path236"
         inkscape:connector-curvature="0"
         style="fill:none;stroke:#000000" />
      <polygon
         points="82.6814,-192.543 88.9761,-195.605 88.9761,-195.605 90.2035,-185.082 "
         id="polygon238"
         style="fill:#000000;stroke:#000000" />
    </g>
    <g
       transform="translate(4,634)"
       id="edge38"
       class="edge">
      <title
         id="title241">50-&gt;55</title>
      <path
         d="m 234.101,-444.708 c -4.185,8.603 -9.261,19.037 -13.883,28.538"
         id="path243"
         inkscape:connector-curvature="0"
         style="fill:none;stroke:#000000" />
      <polygon
         points="217.024,-417.605 223.319,-414.543 223.319,-414.543 215.797,-407.082 "
         id="polygon245"
         style="fill:#000000;stroke:#000000" />
    </g>
    <g
       transform="translate(4,634)"
       id="node36"
       class="node">
      <title
         id="title248">75</title>
      <ellipse
         cx="279"
         cy="-389"
         rx="27"
         ry="19.0919"
         id="ellipse250"
         d="m 306,-389 c 0,10.54417 -12.08831,19.0919 -27,19.0919 -14.91169,0 -27,-8.54773 -27,-19.0919 0,-10.54417 12.08831,-19.0919 27,-19.0919 14.91169,0 27,8.54773 27,19.0919 z"
         sodipodi:cx="279"
         sodipodi:cy="-389"
         sodipodi:rx="27"
         sodipodi:ry="19.0919"
         style="fill:#000000;stroke:#000000" />
      <text
         x="279"
         y="-385.89999"
         font-size="14.00"
         id="text252"
         style="font-size:14px;text-anchor:middle;fill:#ffffff;font-family:'Times Roman,serif'">75</text>
    </g>
    <g
       transform="translate(4,634)"
       id="edge40"
       class="edge">
      <title
         id="title255">50-&gt;75</title>
      <path
         d="m 251.899,-444.708 c 4.185,8.603 9.261,19.037 13.883,28.538"
         id="path257"
         inkscape:connector-curvature="0"
         style="fill:none;stroke:#000000" />
      <polygon
         points="262.681,-414.543 268.976,-417.605 268.976,-417.605 270.203,-407.082 "
         id="polygon259"
         style="fill:#000000;stroke:#000000" />
    </g>
    <g
       transform="translate(4,634)"
       id="edge42"
       class="edge">
      <title
         id="title262">55-&gt;60</title>
      <path
         d="m 198.101,-370.708 c -4.185,8.603 -9.261,19.037 -13.883,28.538"
         id="path264"
         inkscape:connector-curvature="0"
         style="fill:none;stroke:#000000" />
      <polygon
         points="181.024,-343.605 187.319,-340.543 187.319,-340.543 179.797,-333.082 "
         id="polygon266"
         style="fill:#000000;stroke:#000000" />
    </g>
    <g
       transform="translate(4,634)"
       id="node39"
       class="node">
      <title
         id="title269">80</title>
      <ellipse
         cx="243"
         cy="-315"
         rx="27"
         ry="19.0919"
         id="ellipse271"
         d="m 270,-315 c 0,10.54417 -12.08831,19.0919 -27,19.0919 -14.91169,0 -27,-8.54773 -27,-19.0919 0,-10.54417 12.08831,-19.0919 27,-19.0919 14.91169,0 27,8.54773 27,19.0919 z"
         sodipodi:cx="243"
         sodipodi:cy="-315"
         sodipodi:rx="27"
         sodipodi:ry="19.0919"
         style="fill:#000000;stroke:#000000" />
      <text
         x="243"
         y="-311.89999"
         font-size="14.00"
         id="text273"
         style="font-size:14px;text-anchor:middle;fill:#ffffff;font-family:'Times Roman,serif'">80</text>
    </g>
    <g
       transform="translate(4,634)"
       id="edge44"
       class="edge">
      <title
         id="title276">55-&gt;80</title>
      <path
         d="m 215.899,-370.708 c 4.185,8.603 9.261,19.037 13.883,28.538"
         id="path278"
         inkscape:connector-curvature="0"
         style="fill:none;stroke:#000000" />
      <polygon
         points="226.681,-340.543 232.976,-343.605 232.976,-343.605 234.203,-333.082 "
         id="polygon280"
         style="fill:#000000;stroke:#000000" />
    </g>
    <g
       transform="translate(4,634)"
       id="edge46"
       class="edge">
      <title
         id="title283">60-&gt;65</title>
      <path
         d="m 162.101,-296.708 c -4.185,8.603 -9.261,19.037 -13.883,28.538"
         id="path285"
         inkscape:connector-curvature="0"
         style="fill:none;stroke:#000000" />
      <polygon
         points="145.024,-269.605 151.319,-266.543 151.319,-266.543 143.797,-259.082 "
         id="polygon287"
         style="fill:#000000;stroke:#000000" />
    </g>
    <g
       transform="translate(4,634)"
       id="node42"
       class="node">
      <title
         id="title290">85</title>
      <ellipse
         cx="207"
         cy="-241"
         rx="27"
         ry="19.0919"
         id="ellipse292"
         d="m 234,-241 c 0,10.54417 -12.08831,19.0919 -27,19.0919 -14.91169,0 -27,-8.54773 -27,-19.0919 0,-10.54417 12.08831,-19.0919 27,-19.0919 14.91169,0 27,8.54773 27,19.0919 z"
         sodipodi:cx="207"
         sodipodi:cy="-241"
         sodipodi:rx="27"
         sodipodi:ry="19.0919"
         style="fill:#000000;stroke:#000000" />
      <text
         x="207"
         y="-237.89999"
         font-size="14.00"
         id="text294"
         style="font-size:14px;text-anchor:middle;fill:#ffffff;font-family:'Times Roman,serif'">85</text>
    </g>
    <g
       transform="translate(4,634)"
       id="edge48"
       class="edge">
      <title
         id="title297">60-&gt;85</title>
      <path
         d="m 179.899,-296.708 c 4.185,8.603 9.261,19.037 13.883,28.538"
         id="path299"
         inkscape:connector-curvature="0"
         style="fill:none;stroke:#000000" />
      <polygon
         points="190.681,-266.543 196.976,-269.605 196.976,-269.605 198.203,-259.082 "
         id="polygon301"
         style="fill:#000000;stroke:#000000" />
    </g>
    <g
       transform="translate(4,634)"
       id="edge50"
       class="edge">
      <title
         id="title304">65-&gt;70</title>
      <path
         d="m 126.101,-222.708 c -4.185,8.603 -9.261,19.037 -13.883,28.538"
         id="path306"
         inkscape:connector-curvature="0"
         style="fill:none;stroke:#000000" />
      <polygon
         points="109.024,-195.605 115.319,-192.543 115.319,-192.543 107.797,-185.082 "
         id="polygon308"
         style="fill:#000000;stroke:#000000" />
    </g>
    <g
       transform="translate(4,634)"
       id="node45"
       class="node">
      <title
         id="title311">90</title>
      <ellipse
         cx="171"
         cy="-167"
         rx="27"
         ry="19.0919"
         id="ellipse313"
         d="m 198,-167 c 0,10.54417 -12.08831,19.0919 -27,19.0919 -14.91169,0 -27,-8.54773 -27,-19.0919 0,-10.54417 12.08831,-19.0919 27,-19.0919 14.91169,0 27,8.54773 27,19.0919 z"
         sodipodi:cx="171"
         sodipodi:cy="-167"
         sodipodi:rx="27"
         sodipodi:ry="19.0919"
         style="fill:#000000;stroke:#000000" />
      <text
         x="171"
         y="-163.89999"
         font-size="14.00"
         id="text315"
         style="font-size:14px;text-anchor:middle;fill:#ffffff;font-family:'Times Roman,serif'">90</text>
    </g>
    <g
       transform="translate(4,634)"
       id="edge52"
       class="edge">
      <title
         id="title318">65-&gt;90</title>
      <path
         d="m 143.899,-222.708 c 4.185,8.603 9.261,19.037 13.883,28.538"
         id="path320"
         inkscape:connector-curvature="0"
         style="fill:none;stroke:#000000" />
      <polygon
         points="154.681,-192.543 160.976,-195.605 160.976,-195.605 162.203,-185.082 "
         id="polygon322"
         style="fill:#000000;stroke:#000000" />
    </g>
    <g
       transform="translate(4,634)"
       id="node47"
       class="node">
      <title
         id="title325">95</title>
      <ellipse
         cx="135"
         cy="-93"
         rx="27"
         ry="19.0919"
         id="ellipse327"
         d="m 162,-93 c 0,10.544165 -12.08831,19.0919 -27,19.0919 -14.91169,0 -27,-8.547735 -27,-19.0919 0,-10.54417 12.08831,-19.0919 27,-19.0919 14.91169,0 27,8.54773 27,19.0919 z"
         sodipodi:cx="135"
         sodipodi:cy="-93"
         sodipodi:rx="27"
         sodipodi:ry="19.0919"
         style="fill:#ffffff;stroke:#000000" />
      <text
         x="135"
         y="-89.900002"
         font-size="14.00"
         id="text329"
         style="font-size:14px;text-anchor:middle;font-family:'Times Roman,serif'">95</text>
    </g>
    <g
       transform="translate(4,634)"
       id="edge54"
       class="edge">
      <title
         id="title332">70-&gt;95</title>
      <path
         d="m 107.899,-148.708 c 4.185,8.603 9.261,19.037 13.883,28.538"
         id="path334"
         inkscape:connector-curvature="0"
         style="fill:none;stroke:#000000" />
      <polygon
         points="118.681,-118.543 124.976,-121.605 124.976,-121.605 126.203,-111.082 "
         id="polygon336"
         style="fill:#000000;stroke:#000000" />
    </g>
    <g
       transform="translate(4,634)"
       id="edge56"
       class="edge">
      <title
         id="title339">75-&gt;80</title>
      <path
         d="m 270.101,-370.708 c -4.185,8.603 -9.261,19.037 -13.883,28.538"
         id="path341"
         inkscape:connector-curvature="0"
         style="fill:none;stroke:#000000" />
      <polygon
         points="253.024,-343.605 259.319,-340.543 259.319,-340.543 251.797,-333.082 "
         id="polygon343"
         style="fill:#000000;stroke:#000000" />
    </g>
    <g
       transform="translate(4,634)"
       id="node50"
       class="node">
      <title
         id="title346">100</title>
      <ellipse
         cx="315"
         cy="-315"
         rx="27"
         ry="19.0919"
         id="ellipse348"
         d="m 342,-315 c 0,10.54417 -12.08831,19.0919 -27,19.0919 -14.91169,0 -27,-8.54773 -27,-19.0919 0,-10.54417 12.08831,-19.0919 27,-19.0919 14.91169,0 27,8.54773 27,19.0919 z"
         sodipodi:cx="315"
         sodipodi:cy="-315"
         sodipodi:rx="27"
         sodipodi:ry="19.0919"
         style="fill:#000000;stroke:#000000" />
      <text
         x="315"
         y="-311.89999"
         font-size="14.00"
         id="text350"
         style="font-size:14px;text-anchor:middle;fill:#ffffff;font-family:'Times Roman,serif'">100</text>
    </g>
    <g
       transform="translate(4,634)"
       id="edge58"
       class="edge">
      <title
         id="title353">75-&gt;100</title>
      <path
         d="m 287.899,-370.708 c 4.185,8.603 9.261,19.037 13.883,28.538"
         id="path355"
         inkscape:connector-curvature="0"
         style="fill:none;stroke:#000000" />
      <polygon
         points="298.681,-340.543 304.976,-343.605 304.976,-343.605 306.203,-333.082 "
         id="polygon357"
         style="fill:#000000;stroke:#000000" />
    </g>
    <g
       transform="translate(4,634)"
       id="edge60"
       class="edge">
      <title
         id="title360">80-&gt;85</title>
      <path
         d="m 234.101,-296.708 c -4.185,8.603 -9.261,19.037 -13.883,28.538"
         id="path362"
         inkscape:connector-curvature="0"
         style="fill:none;stroke:#000000" />
      <polygon
         points="217.024,-269.605 223.319,-266.543 223.319,-266.543 215.797,-259.082 "
         id="polygon364"
         style="fill:#000000;stroke:#000000" />
    </g>
    <g
       transform="translate(4,634)"
       id="node53"
       class="node">
      <title
         id="title367">105</title>
      <ellipse
         cx="279"
         cy="-241"
         rx="27"
         ry="19.0919"
         id="ellipse369"
         d="m 306,-241 c 0,10.54417 -12.08831,19.0919 -27,19.0919 -14.91169,0 -27,-8.54773 -27,-19.0919 0,-10.54417 12.08831,-19.0919 27,-19.0919 14.91169,0 27,8.54773 27,19.0919 z"
         sodipodi:cx="279"
         sodipodi:cy="-241"
         sodipodi:rx="27"
         sodipodi:ry="19.0919"
         style="fill:#000000;stroke:#000000" />
      <text
         x="279"
         y="-237.89999"
         font-size="14.00"
         id="text371"
         style="font-size:14px;text-anchor:middle;fill:#ffffff;font-family:'Times Roman,serif'">105</text>
    </g>
    <g
       transform="translate(4,634)"
       id="edge62"
       class="edge">
      <title
         id="title374">80-&gt;105</title>
      <path
         d="m 251.899,-296.708 c 4.185,8.603 9.261,19.037 13.883,28.538"
         id="path376"
         inkscape:connector-curvature="0"
         style="fill:none;stroke:#000000" />
      <polygon
         points="262.681,-266.543 268.976,-269.605 268.976,-269.605 270.203,-259.082 "
         id="polygon378"
         style="fill:#000000;stroke:#000000" />
    </g>
    <g
       transform="translate(4,634)"
       id="edge64"
       class="edge">
      <title
         id="title381">85-&gt;90</title>
      <path
         d="m 198.101,-222.708 c -4.185,8.603 -9.261,19.037 -13.883,28.538"
         id="path383"
         inkscape:connector-curvature="0"
         style="fill:none;stroke:#000000" />
      <polygon
         points="181.024,-195.605 187.319,-192.543 187.319,-192.543 179.797,-185.082 "
         id="polygon385"
         style="fill:#000000;stroke:#000000" />
    </g>
    <g
       transform="translate(4,634)"
       id="node56"
       class="node">
      <title
         id="title388">110</title>
      <ellipse
         cx="243"
         cy="-167"
         rx="27"
         ry="19.0919"
         id="ellipse390"
         d="m 270,-167 c 0,10.54417 -12.08831,19.0919 -27,19.0919 -14.91169,0 -27,-8.54773 -27,-19.0919 0,-10.54417 12.08831,-19.0919 27,-19.0919 14.91169,0 27,8.54773 27,19.0919 z"
         sodipodi:cx="243"
         sodipodi:cy="-167"
         sodipodi:rx="27"
         sodipodi:ry="19.0919"
         style="fill:#000000;stroke:#000000" />
      <text
         x="243"
         y="-163.89999"
         font-size="14.00"
         id="text392"
         style="font-size:14px;text-anchor:middle;fill:#ffffff;font-family:'Times Roman,serif'">110</text>
    </g>
    <g
       transform="translate(4,634)"
       id="edge66"
       class="edge">
      <title
         id="title395">85-&gt;110</title>
      <path
         d="m 215.899,-222.708 c 4.185,8.603 9.261,19.037 13.883,28.538"
         id="path397"
         inkscape:connector-curvature="0"
         style="fill:none;stroke:#000000" />
      <polygon
         points="226.681,-192.543 232.976,-195.605 232.976,-195.605 234.203,-185.082 "
         id="polygon399"
         style="fill:#000000;stroke:#000000" />
    </g>
    <g
       transform="translate(4,634)"
       id="edge68"
       class="edge">
      <title
         id="title402">90-&gt;95</title>
      <path
         d="m 162.101,-148.708 c -4.185,8.603 -9.261,19.037 -13.883,28.538"
         id="path404"
         inkscape:connector-curvature="0"
         style="fill:none;stroke:#000000" />
      <polygon
         points="145.024,-121.605 151.319,-118.543 151.319,-118.543 143.797,-111.082 "
         id="polygon406"
         style="fill:#000000;stroke:#000000" />
    </g>
    <g
       transform="translate(4,634)"
       id="node59"
       class="node">
      <title
         id="title409">115</title>
      <ellipse
         cx="207"
         cy="-93"
         rx="27"
         ry="19.0919"
         id="ellipse411"
         d="m 234,-93 c 0,10.544165 -12.08831,19.0919 -27,19.0919 -14.91169,0 -27,-8.547735 -27,-19.0919 0,-10.54417 12.08831,-19.0919 27,-19.0919 14.91169,0 27,8.54773 27,19.0919 z"
         sodipodi:cx="207"
         sodipodi:cy="-93"
         sodipodi:rx="27"
         sodipodi:ry="19.0919"
         style="fill:#000000;stroke:#000000" />
      <text
         x="207"
         y="-89.900002"
         font-size="14.00"
         id="text413"
         style="font-size:14px;text-anchor:middle;fill:#ffffff;font-family:'Times Roman,serif'">115</text>
    </g>
    <g
       transform="translate(4,634)"
       id="edge70"
       class="edge">
      <title
         id="title416">90-&gt;115</title>
      <path
         d="m 179.899,-148.708 c 4.185,8.603 9.261,19.037 13.883,28.538"
         id="path418"
         inkscape:connector-curvature="0"
         style="fill:none;stroke:#000000" />
      <polygon
         points="190.681,-118.543 196.976,-121.605 196.976,-121.605 198.203,-111.082 "
         id="polygon420"
         style="fill:#000000;stroke:#000000" />
    </g>
    <g
       transform="translate(4,634)"
       id="node61"
       class="node">
      <title
         id="title423">120</title>
      <ellipse
         cx="171"
         cy="-19"
         rx="27"
         ry="19.0919"
         id="ellipse425"
         d="m 198,-19 c 0,10.5441651 -12.08831,19.09189987 -27,19.09189987 -14.91169,0 -27,-8.54773477 -27,-19.09189987 0,-10.544165 12.08831,-19.0919 27,-19.0919 14.91169,0 27,8.547735 27,19.0919 z"
         sodipodi:cx="171"
         sodipodi:cy="-19"
         sodipodi:rx="27"
         sodipodi:ry="19.0919"
         style="fill:#ffffff;stroke:#000000" />
      <text
         x="171"
         y="-15.9"
         font-size="14.00"
         id="text427"
         style="font-size:14px;text-anchor:middle;font-family:'Times Roman,serif'">120</text>
    </g>
    <g
       transform="translate(4,634)"
       id="edge72"
       class="edge">
      <title
         id="title430">95-&gt;120</title>
      <path
         d="m 143.899,-74.7079 c 4.185,8.6028 9.261,19.0366 13.883,28.538"
         id="path432"
         inkscape:connector-curvature="0"
         style="fill:none;stroke:#000000" />
      <polygon
         points="154.681,-44.5429 160.976,-47.6052 160.976,-47.6052 162.203,-37.0817 "
         id="polygon434"
         style="fill:#000000;stroke:#000000" />
    </g>
    <g
       transform="translate(4,634)"
       id="edge74"
       class="edge">
      <title
         id="title437">100-&gt;105</title>
      <path
         d="m 306.101,-296.708 c -4.185,8.603 -9.261,19.037 -13.883,28.538"
         id="path439"
         inkscape:connector-curvature="0"
         style="fill:none;stroke:#000000" />
      <polygon
         points="289.024,-269.605 295.319,-266.543 295.319,-266.543 287.797,-259.082 "
         id="polygon441"
         style="fill:#000000;stroke:#000000" />
    </g>
    <g
       transform="translate(4,634)"
       id="edge76"
       class="edge">
      <title
         id="title444">105-&gt;110</title>
      <path
         d="m 270.101,-222.708 c -4.185,8.603 -9.261,19.037 -13.883,28.538"
         id="path446"
         inkscape:connector-curvature="0"
         style="fill:none;stroke:#000000" />
      <polygon
         points="253.024,-195.605 259.319,-192.543 259.319,-192.543 251.797,-185.082 "
         id="polygon448"
         style="fill:#000000;stroke:#000000" />
    </g>
    <g
       transform="translate(4,634)"
       id="edge78"
       class="edge">
      <title
         id="title451">110-&gt;115</title>
      <path
         d="m 234.101,-148.708 c -4.185,8.603 -9.261,19.037 -13.883,28.538"
         id="path453"
         inkscape:connector-curvature="0"
         style="fill:none;stroke:#000000" />
      <polygon
         points="217.024,-121.605 223.319,-118.543 223.319,-118.543 215.797,-111.082 "
         id="polygon455"
         style="fill:#000000;stroke:#000000" />
    </g>
    <g
       transform="translate(4,634)"
       id="edge80"
       class="edge">
      <title
         id="title458">115-&gt;120</title>
      <path
         d="m 198.101,-74.7079 c -4.185,8.6028 -9.261,19.0366 -13.883,28.538"
         id="path460"
         inkscape:connector-curvature="0"
         style="fill:none;stroke:#000000" />
      <polygon
         points="181.024,-47.6052 187.319,-44.5429 187.319,-44.5429 179.797,-37.0817 "
         id="polygon462"
         style="fill:#000000;stroke:#000000" />
    </g>
  </g>
</svg>
