<?xml version="1.0" encoding="UTF-8" standalone="no"?>
<!-- Generated by graphviz version 2.38.0 (20140413.2041)
 -->

<!-- Title: G Pages: 1 -->

<svg
   xmlns:dc="http://purl.org/dc/elements/1.1/"
   xmlns:cc="http://creativecommons.org/ns#"
   xmlns:rdf="http://www.w3.org/1999/02/22-rdf-syntax-ns#"
   xmlns:svg="http://www.w3.org/2000/svg"
   xmlns="http://www.w3.org/2000/svg"
   xmlns:xlink="http://www.w3.org/1999/xlink"
   xmlns:sodipodi="http://sodipodi.sourceforge.net/DTD/sodipodi-0.dtd"
   xmlns:inkscape="http://www.inkscape.org/namespaces/inkscape"
   width="813.90076pt"
   height="246.30183pt"
   viewBox="0 0 813.90076 246.30183"
   id="svg2"
   version="1.1"
   inkscape:version="0.91 r13725"
   sodipodi:docname="numa_distrib_exemple.svg">
  <metadata
     id="metadata342">
    <rdf:RDF>
      <cc:Work
         rdf:about="">
        <dc:format>image/svg+xml</dc:format>
        <dc:type
           rdf:resource="http://purl.org/dc/dcmitype/StillImage" />
        <dc:title></dc:title>
      </cc:Work>
    </rdf:RDF>
  </metadata>
  <defs
     id="defs340">
    <linearGradient
       inkscape:collect="always"
       id="linearGradient8955">
      <stop
         style="stop-color:#ffffff;stop-opacity:1"
         offset="0"
         id="stop8957" />
      <stop
         style="stop-color:#ffffff;stop-opacity:0"
         offset="1"
         id="stop8959" />
    </linearGradient>
    <linearGradient
       inkscape:collect="always"
       xlink:href="#linearGradient8955"
       id="linearGradient8973"
       x1="325.17172"
       y1="-34.245422"
       x2="325.17172"
       y2="-9.8526335"
       gradientUnits="userSpaceOnUse"
       gradientTransform="translate(20.779043,34.623754)" />
    <linearGradient
       inkscape:collect="always"
       xlink:href="#linearGradient8955"
       id="linearGradient8977"
       gradientUnits="userSpaceOnUse"
       x1="325.17172"
       y1="-34.245422"
       x2="325.17172"
       y2="-9.8526335"
       gradientTransform="translate(17.165297,-211.86766)" />
  </defs>
  <sodipodi:namedview
     pagecolor="#ffffff"
     bordercolor="#666666"
     borderopacity="1"
     objecttolerance="10"
     gridtolerance="10"
     guidetolerance="10"
     inkscape:pageopacity="0"
     inkscape:pageshadow="2"
     inkscape:window-width="2560"
     inkscape:window-height="1497"
     id="namedview338"
     showgrid="false"
     fit-margin-top="0"
     fit-margin-left="0"
     fit-margin-right="0"
     fit-margin-bottom="0"
     inkscape:zoom="1.2522968"
     inkscape:cx="528.996"
     inkscape:cy="170.97759"
     inkscape:window-x="0"
     inkscape:window-y="39"
     inkscape:window-maximized="1"
     inkscape:current-layer="svg2" />
  <ellipse
     cx="555.77905"
     cy="56.623753"
     rx="27"
     ry="18"
     id="ellipse12"
     style="fill:#d4ff2a;stroke:#000000" />
  <text
     x="555.77905"
     y="60.32375"
     font-size="14.00"
     id="text14"
     style="font-size:14px;font-family:Times, serif;text-anchor:middle">190</text>
  <ellipse
     cx="519.77905"
     cy="128.62375"
     rx="27"
     ry="18"
     id="ellipse19"
     style="fill:#d4ff2a;fill-opacity:1;stroke:#000000" />
  <text
     x="519.77905"
     y="132.32375"
     font-size="14.00"
     id="text21"
     style="font-size:14px;font-family:Times, serif;text-anchor:middle">181</text>
  <path
     d="m 547.42904,73.858754 c -4.362,8.482 -9.797,19.051 -14.691,28.567996"
     id="path26"
     inkscape:connector-curvature="0"
     style="fill:none;stroke:#000000" />
  <polygon
     points="503.304,-107.147 504.765,-117.641 510.99,-114.439 510.99,-114.439 "
     id="polygon28"
     style="fill:#000000;stroke:#000000"
     transform="translate(24.779043,218.62375)" />
  <ellipse
     cx="483.77905"
     cy="56.623753"
     rx="27"
     ry="18"
     id="ellipse47"
     style="fill:#d4ff2a;stroke:#000000" />
  <text
     x="483.77905"
     y="60.32375"
     font-size="14.00"
     id="text49"
     style="font-size:14px;font-family:Times, serif;text-anchor:middle">180</text>
  <path
     d="m 492.12904,73.858754 c 4.362,8.482 9.797,19.051 14.691,28.567996"
     id="path54"
     inkscape:connector-curvature="0"
     style="fill:none;stroke:#000000" />
  <polygon
     points="486.696,-107.147 479.01,-114.439 485.235,-117.641 485.235,-117.641 "
     id="polygon56"
     style="fill:#000000;stroke:#000000"
     transform="translate(24.779043,218.62375)" />
  <ellipse
     cx="447.77905"
     cy="128.62375"
     rx="27"
     ry="18"
     id="ellipse61"
     style="fill:#ffb380;fill-opacity:1;stroke:#000000" />
  <text
     x="447.77905"
     y="132.32375"
     font-size="14.00"
     id="text63"
     style="font-size:14px;font-family:Times, serif;text-anchor:middle">171</text>
  <path
     d="m 475.42904,73.858754 c -4.362,8.482 -9.797,19.051 -14.691,28.567996"
     id="path68"
     inkscape:connector-curvature="0"
     style="fill:none;stroke:#000000" />
  <polygon
     points="431.304,-107.147 432.765,-117.641 438.99,-114.439 438.99,-114.439 "
     id="polygon70"
     style="fill:#000000;stroke:#000000"
     transform="translate(24.779043,218.62375)" />
  <ellipse
     cx="411.77905"
     cy="56.623753"
     rx="27"
     ry="18"
     id="ellipse96"
     style="fill:#ffb380;stroke:#000000" />
  <text
     x="411.77905"
     y="60.32375"
     font-size="14.00"
     id="text98"
     style="font-size:14px;font-family:Times, serif;text-anchor:middle">170</text>
  <path
     d="m 420.12904,73.858754 c 4.362,8.482 9.797,19.051 14.691,28.567996"
     id="path103"
     inkscape:connector-curvature="0"
     style="fill:none;stroke:#000000" />
  <polygon
     points="414.696,-107.147 407.01,-114.439 413.235,-117.641 413.235,-117.641 "
     id="polygon105"
     style="fill:#000000;stroke:#000000"
     transform="translate(24.779043,218.62375)" />
  <ellipse
     cx="375.77905"
     cy="128.62375"
     rx="27"
     ry="18"
     id="ellipse110"
     style="fill:#ffb380;fill-opacity:1;stroke:#000000" />
  <text
     x="375.77905"
     y="132.32375"
     font-size="14.00"
     id="text112"
     style="font-size:14px;font-family:Times, serif;text-anchor:middle">161</text>
  <path
     d="m 403.42904,73.858754 c -4.362,8.482 -9.797,19.051 -14.691,28.567996"
     id="path117"
     inkscape:connector-curvature="0"
     style="fill:none;stroke:#000000" />
  <polygon
     points="359.304,-107.147 360.765,-117.641 366.99,-114.439 366.99,-114.439 "
     id="polygon119"
     style="fill:#000000;stroke:#000000"
     transform="translate(24.779043,218.62375)" />
  <ellipse
     cx="339.77905"
     cy="56.623753"
     rx="27"
     ry="18"
     id="ellipse145"
     style="fill:#ffb380;stroke:#000000" />
  <text
     x="339.77905"
     y="60.32375"
     font-size="14.00"
     id="text147"
     style="font-size:14px;font-family:Times, serif;text-anchor:middle">160</text>
  <path
     d="m 348.12904,73.858754 c 4.362,8.482 9.797,19.051 14.691,28.567996"
     id="path152"
     inkscape:connector-curvature="0"
     style="fill:none;stroke:#000000" />
  <polygon
     points="342.696,-107.147 335.01,-114.439 341.235,-117.641 341.235,-117.641 "
     id="polygon154"
     style="fill:#000000;stroke:#000000"
     transform="translate(24.779043,218.62375)" />
  <ellipse
     cx="303.77905"
     cy="128.62375"
     rx="27"
     ry="18"
     id="ellipse159"
     style="fill:#2c89a0;fill-opacity:1;stroke:#000000" />
  <text
     x="303.77905"
     y="132.32375"
     font-size="14.00"
     id="text161"
     style="font-size:14px;font-family:Times, serif;text-anchor:middle;fill:#ffffff">151</text>
  <path
     d="m 331.42904,73.858754 c -4.362,8.482 -9.797,19.051 -14.691,28.567996"
     id="path166"
     inkscape:connector-curvature="0"
     style="fill:none;stroke:#000000" />
  <polygon
     points="287.304,-107.147 288.765,-117.641 294.99,-114.439 294.99,-114.439 "
     id="polygon168"
     style="fill:#000000;stroke:#000000"
     transform="translate(24.779043,218.62375)" />
  <ellipse
     cx="267.77905"
     cy="56.623753"
     rx="27"
     ry="18"
     id="ellipse194"
     style="fill:#2c89a0;stroke:#000000" />
  <text
     x="267.77905"
     y="60.32375"
     font-size="14.00"
     id="text196"
     style="font-size:14px;font-family:Times, serif;text-anchor:middle;fill:#ffffff">150</text>
  <path
     d="m 276.12904,73.858754 c 4.362,8.482 9.797,19.051 14.691,28.567996"
     id="path201"
     inkscape:connector-curvature="0"
     style="fill:none;stroke:#000000" />
  <polygon
     points="270.696,-107.147 263.01,-114.439 269.235,-117.641 269.235,-117.641 "
     id="polygon203"
     style="fill:#000000;stroke:#000000"
     transform="translate(24.779043,218.62375)" />
  <ellipse
     cx="231.77904"
     cy="128.62375"
     rx="27"
     ry="18"
     id="ellipse208"
     style="fill:#2c89a0;fill-opacity:1;stroke:#000000" />
  <text
     x="231.77904"
     y="132.32375"
     font-size="14.00"
     id="text210"
     style="font-size:14px;font-family:Times, serif;text-anchor:middle;fill:#ffffff">141</text>
  <path
     d="m 259.42904,73.858754 c -4.362,8.482 -9.797,19.051 -14.691,28.567996"
     id="path215"
     inkscape:connector-curvature="0"
     style="fill:none;stroke:#000000" />
  <polygon
     points="215.304,-107.147 216.765,-117.641 222.99,-114.439 222.99,-114.439 "
     id="polygon217"
     style="fill:#000000;stroke:#000000"
     transform="translate(24.779043,218.62375)" />
  <ellipse
     cx="195.77904"
     cy="56.623753"
     rx="27"
     ry="18"
     id="ellipse243"
     style="fill:#2c89a0;stroke:#000000" />
  <text
     x="195.77904"
     y="60.32375"
     font-size="14.00"
     id="text245"
     style="font-size:14px;font-family:Times, serif;text-anchor:middle;fill:#ffffff">140</text>
  <path
     d="m 204.12904,73.858754 c 4.362,8.482 9.797,19.051 14.691,28.567996"
     id="path250"
     inkscape:connector-curvature="0"
     style="fill:none;stroke:#000000" />
  <polygon
     points="198.696,-107.147 191.01,-114.439 197.235,-117.641 197.235,-117.641 "
     id="polygon252"
     style="fill:#000000;stroke:#000000"
     transform="translate(24.779043,218.62375)" />
  <ellipse
     cx="159.77904"
     cy="128.62375"
     rx="27"
     ry="18"
     id="ellipse257"
     style="fill:#d40000;stroke:#000000" />
  <text
     x="159.77904"
     y="132.32375"
     font-size="14.00"
     id="text259"
     style="font-size:14px;font-family:Times, serif;text-anchor:middle;fill:#ffffff">131</text>
  <path
     d="m 187.42904,73.858754 c -4.362,8.482 -9.797,19.051 -14.691,28.567996"
     id="path264"
     inkscape:connector-curvature="0"
     style="fill:none;stroke:#000000" />
  <polygon
     points="143.304,-107.147 144.765,-117.641 150.99,-114.439 150.99,-114.439 "
     id="polygon266"
     style="fill:#000000;stroke:#000000"
     transform="translate(24.779043,218.62375)" />
  <ellipse
     cx="123.77905"
     cy="56.623753"
     rx="27"
     ry="18"
     id="ellipse292"
     style="fill:#d40000;stroke:#000000" />
  <text
     x="123.77905"
     y="60.32375"
     font-size="14.00"
     id="text294"
     style="font-size:14px;font-family:Times, serif;text-anchor:middle;fill:#ffffff">130</text>
  <path
     d="m 132.12904,73.858754 c 4.362,8.482 9.797,19.051 14.691,28.567996"
     id="path299"
     inkscape:connector-curvature="0"
     style="fill:none;stroke:#000000" />
  <polygon
     points="126.696,-107.147 119.01,-114.439 125.235,-117.641 125.235,-117.641 "
     id="polygon301"
     style="fill:#000000;stroke:#000000"
     transform="translate(24.779043,218.62375)" />
  <ellipse
     cx="87.779045"
     cy="128.62375"
     rx="27"
     ry="18"
     id="ellipse306"
     style="fill:#d40000;stroke:#000000" />
  <text
     x="87.779045"
     y="132.32375"
     font-size="14.00"
     id="text308"
     style="font-size:14px;font-family:Times, serif;text-anchor:middle;fill:#ffffff">121</text>
  <path
     d="m 115.42944,73.858754 c -4.3619,8.482 -9.7973,19.051 -14.6917,28.567996"
     id="path313"
     inkscape:connector-curvature="0"
     style="fill:none;stroke:#000000" />
  <polygon
     points="71.3043,-107.147 72.7654,-117.641 78.9904,-114.439 78.9904,-114.439 "
     id="polygon315"
     style="fill:#000000;stroke:#000000"
     transform="translate(24.779043,218.62375)" />
  <ellipse
     cx="51.779045"
     cy="56.623753"
     rx="27"
     ry="18"
     id="ellipse327"
     style="fill:#d40000;stroke:#000000" />
  <text
     x="51.779045"
     y="60.32375"
     font-size="14.00"
     id="text329"
     style="font-size:14px;font-family:Times, serif;text-anchor:middle;fill:#ffffff">120</text>
  <path
     d="m 60.128643,73.858754 c 4.3619,8.482 9.7973,19.051 14.6917,28.567996"
     id="path334"
     inkscape:connector-curvature="0"
     style="fill:none;stroke:#000000" />
  <polygon
     points="54.6957,-107.147 47.0096,-114.439 53.2346,-117.641 53.2346,-117.641 "
     id="polygon336"
     style="fill:#000000;stroke:#000000"
     transform="translate(24.779043,218.62375)" />
  <ellipse
     style="fill:none;stroke:#000000"
     id="ellipse8745"
     ry="18"
     rx="27"
     cy="200.44696"
     cx="484.54501" />
  <text
     style="font-size:14px;font-family:Times, serif;text-anchor:middle"
     id="text8747"
     font-size="14.00"
     y="204.14696"
     x="484.54501">172</text>
  <path
     style="fill:none;stroke:#000000"
     inkscape:connector-curvature="0"
     id="path8749"
     d="m 512.19501,145.68196 c -4.362,8.482 -9.797,19.051 -14.691,28.568" />
  <polygon
     transform="translate(-10.454987,290.44696)"
     style="fill:#000000;stroke:#000000"
     id="polygon8751"
     points="504.765,-117.641 510.99,-114.439 510.99,-114.439 503.304,-107.147 " />
  <path
     style="fill:none;stroke:#000000"
     inkscape:connector-curvature="0"
     id="path8753"
     d="m 456.89501,145.68196 c 4.362,8.482 9.797,19.051 14.691,28.568" />
  <polygon
     transform="translate(-10.454987,290.44696)"
     style="fill:#000000;stroke:#000000"
     id="polygon8755"
     points="479.01,-114.439 485.235,-117.641 485.235,-117.641 486.696,-107.147 " />
  <ellipse
     style="fill:none;stroke:#000000"
     id="ellipse8757"
     ry="18"
     rx="27"
     cy="200.44696"
     cx="412.54501" />
  <text
     style="font-size:14px;font-family:Times, serif;text-anchor:middle"
     id="text8759"
     font-size="14.00"
     y="204.14696"
     x="412.54501">162</text>
  <path
     style="fill:none;stroke:#000000"
     inkscape:connector-curvature="0"
     id="path8761"
     d="m 440.19501,145.68196 c -4.362,8.482 -9.797,19.051 -14.691,28.568" />
  <polygon
     transform="translate(-10.454987,290.44696)"
     style="fill:#000000;stroke:#000000"
     id="polygon8763"
     points="432.765,-117.641 438.99,-114.439 438.99,-114.439 431.304,-107.147 " />
  <path
     style="fill:none;stroke:#000000"
     inkscape:connector-curvature="0"
     id="path8765"
     d="m 384.89501,145.68196 c 4.362,8.482 9.797,19.051 14.691,28.568" />
  <polygon
     transform="translate(-10.454987,290.44696)"
     style="fill:#000000;stroke:#000000"
     id="polygon8767"
     points="407.01,-114.439 413.235,-117.641 413.235,-117.641 414.696,-107.147 " />
  <ellipse
     style="fill:none;stroke:#000000"
     id="ellipse8769"
     ry="18"
     rx="27"
     cy="200.44696"
     cx="340.54501" />
  <text
     style="font-size:14px;font-family:Times, serif;text-anchor:middle"
     id="text8771"
     font-size="14.00"
     y="204.14696"
     x="340.54501">152</text>
  <path
     style="fill:none;stroke:#000000"
     inkscape:connector-curvature="0"
     id="path8773"
     d="m 368.19501,145.68196 c -4.362,8.482 -9.797,19.051 -14.691,28.568" />
  <polygon
     transform="translate(-10.454987,290.44696)"
     style="fill:#000000;stroke:#000000"
     id="polygon8775"
     points="360.765,-117.641 366.99,-114.439 366.99,-114.439 359.304,-107.147 " />
  <path
     style="fill:none;stroke:#000000"
     inkscape:connector-curvature="0"
     id="path8777"
     d="m 312.89501,145.68196 c 4.362,8.482 9.797,19.051 14.691,28.568" />
  <polygon
     transform="translate(-10.454987,290.44696)"
     style="fill:#000000;stroke:#000000"
     id="polygon8779"
     points="335.01,-114.439 341.235,-117.641 341.235,-117.641 342.696,-107.147 " />
  <ellipse
     style="fill:none;stroke:#000000"
     id="ellipse8781"
     ry="18"
     rx="27"
     cy="200.44696"
     cx="268.54501" />
  <text
     style="font-size:14px;font-family:Times, serif;text-anchor:middle"
     id="text8783"
     font-size="14.00"
     y="204.14696"
     x="268.54501">142</text>
  <path
     style="fill:none;stroke:#000000"
     inkscape:connector-curvature="0"
     id="path8785"
     d="m 296.19501,145.68196 c -4.362,8.482 -9.797,19.051 -14.691,28.568" />
  <polygon
     transform="translate(-10.454987,290.44696)"
     style="fill:#000000;stroke:#000000"
     id="polygon8787"
     points="288.765,-117.641 294.99,-114.439 294.99,-114.439 287.304,-107.147 " />
  <path
     style="fill:none;stroke:#000000"
     inkscape:connector-curvature="0"
     id="path8789"
     d="m 240.89501,145.68196 c 4.362,8.482 9.797,19.051 14.691,28.568" />
  <polygon
     transform="translate(-10.454987,290.44696)"
     style="fill:#000000;stroke:#000000"
     id="polygon8791"
     points="263.01,-114.439 269.235,-117.641 269.235,-117.641 270.696,-107.147 " />
  <ellipse
     style="fill:none;stroke:#000000"
     id="ellipse8793"
     ry="18"
     rx="27"
     cy="200.44696"
     cx="196.54501" />
  <text
     style="font-size:14px;font-family:Times, serif;text-anchor:middle"
     id="text8795"
     font-size="14.00"
     y="204.14696"
     x="196.54501">132</text>
  <path
     style="fill:none;stroke:#000000"
     inkscape:connector-curvature="0"
     id="path8797"
     d="m 224.19501,145.68196 c -4.362,8.482 -9.797,19.051 -14.691,28.568" />
  <polygon
     transform="translate(-10.454987,290.44696)"
     style="fill:#000000;stroke:#000000"
     id="polygon8799"
     points="216.765,-117.641 222.99,-114.439 222.99,-114.439 215.304,-107.147 " />
  <path
     style="fill:none;stroke:#000000"
     inkscape:connector-curvature="0"
     id="path8801"
     d="m 168.89501,145.68196 c 4.362,8.482 9.797,19.051 14.691,28.568" />
  <polygon
     transform="translate(-10.454987,290.44696)"
     style="fill:#000000;stroke:#000000"
     id="polygon8803"
     points="191.01,-114.439 197.235,-117.641 197.235,-117.641 198.696,-107.147 " />
  <ellipse
     style="fill:none;stroke:#000000"
     id="ellipse8805"
     ry="18"
     rx="27"
     cy="200.44696"
     cx="124.54501" />
  <text
     style="font-size:14px;font-family:Times, serif;text-anchor:middle"
     id="text8807"
     font-size="14.00"
     y="204.14696"
     x="124.54501">122</text>
  <path
     style="fill:none;stroke:#000000"
     inkscape:connector-curvature="0"
     id="path8809"
     d="m 152.19501,145.68196 c -4.362,8.482 -9.797,19.051 -14.691,28.568" />
  <polygon
     transform="translate(-10.454987,290.44696)"
     style="fill:#000000;stroke:#000000"
     id="polygon8811"
     points="144.765,-117.641 150.99,-114.439 150.99,-114.439 143.304,-107.147 " />
  <path
     style="fill:none;stroke:#000000"
     inkscape:connector-curvature="0"
     id="path8813"
     d="m 96.895013,145.68196 c 4.361997,8.482 9.796997,19.051 14.690997,28.568" />
  <polygon
     transform="translate(-10.454987,290.44696)"
     style="fill:#000000;stroke:#000000"
     id="polygon8815"
     points="119.01,-114.439 125.235,-117.641 125.235,-117.641 126.696,-107.147 " />
  <path
     d="m 493.93591,217.50517 c 4.362,8.482 9.797,19.051 14.691,28.568"
     id="path8821"
     inkscape:connector-curvature="0"
     style="fill:none;stroke:#000000;stroke-opacity:1" />
  <path
     d="m 477.23591,217.50517 c -4.362,8.482 -9.797,19.051 -14.691,28.568"
     id="path8825"
     inkscape:connector-curvature="0"
     style="fill:none;stroke:#000000;stroke-opacity:1" />
  <path
     d="m 421.93591,217.50517 c 4.362,8.482 9.797,19.051 14.691,28.568"
     id="path8829"
     inkscape:connector-curvature="0"
     style="fill:none;stroke:#000000;stroke-opacity:1" />
  <path
     d="m 405.23591,217.50517 c -4.362,8.482 -9.797,19.051 -14.691,28.568"
     id="path8833"
     inkscape:connector-curvature="0"
     style="fill:none;stroke:#000000;stroke-opacity:1" />
  <path
     d="m 349.93591,217.50517 c 4.362,8.482 9.797,19.051 14.691,28.568"
     id="path8837"
     inkscape:connector-curvature="0"
     style="fill:none;stroke:#000000;stroke-opacity:1" />
  <path
     d="m 333.23591,217.50517 c -4.362,8.482 -9.797,19.051 -14.691,28.568"
     id="path8841"
     inkscape:connector-curvature="0"
     style="fill:none;stroke:#000000;stroke-opacity:1" />
  <path
     d="m 277.93591,217.50517 c 4.362,8.482 9.797,19.051 14.691,28.568"
     id="path8845"
     inkscape:connector-curvature="0"
     style="fill:none;stroke:#000000;stroke-opacity:1" />
  <path
     d="m 261.23591,217.50517 c -4.362,8.482 -9.797,19.051 -14.691,28.568"
     id="path8849"
     inkscape:connector-curvature="0"
     style="fill:none;stroke:#000000;stroke-opacity:1" />
  <path
     d="m 205.93591,217.50517 c 4.362,8.482 9.797,19.051 14.691,28.568"
     id="path8853"
     inkscape:connector-curvature="0"
     style="fill:none;stroke:#000000;stroke-opacity:1" />
  <path
     d="m 189.23591,217.50517 c -4.362,8.482 -9.797,19.051 -14.691,28.568"
     id="path8857"
     inkscape:connector-curvature="0"
     style="fill:none;stroke:#000000;stroke-opacity:1" />
  <path
     d="m 133.93591,217.50517 c 4.362,8.482 9.797,19.051 14.691,28.568"
     id="path8861"
     inkscape:connector-curvature="0"
     style="fill:none;stroke:#000000;stroke-opacity:1" />
  <path
     style="fill:none;stroke:#000000"
     inkscape:connector-curvature="0"
     id="path8865"
     d="m 584.46994,0.2286669 c -4.362,8.482 -9.797,19.0510001 -14.691,28.5679991" />
  <polygon
     transform="translate(61.819946,144.99366)"
     style="fill:#000000;stroke:#000000"
     id="polygon8867"
     points="504.765,-117.641 510.99,-114.439 510.99,-114.439 503.304,-107.147 " />
  <path
     style="fill:none;stroke:#000000"
     inkscape:connector-curvature="0"
     id="path8869"
     d="m 529.16994,0.2286669 c 4.362,8.482 9.797,19.0510001 14.691,28.5679991" />
  <polygon
     transform="translate(61.819946,144.99366)"
     style="fill:#000000;stroke:#000000"
     id="polygon8871"
     points="479.01,-114.439 485.235,-117.641 485.235,-117.641 486.696,-107.147 " />
  <path
     style="fill:none;stroke:#000000"
     inkscape:connector-curvature="0"
     id="path8873"
     d="m 512.46994,0.2286669 c -4.362,8.482 -9.797,19.0510001 -14.691,28.5679991" />
  <polygon
     transform="translate(61.819946,144.99366)"
     style="fill:#000000;stroke:#000000"
     id="polygon8875"
     points="432.765,-117.641 438.99,-114.439 438.99,-114.439 431.304,-107.147 " />
  <path
     style="fill:none;stroke:#000000"
     inkscape:connector-curvature="0"
     id="path8877"
     d="m 457.16994,0.2286669 c 4.362,8.482 9.797,19.0510001 14.691,28.5679991" />
  <polygon
     transform="translate(61.819946,144.99366)"
     style="fill:#000000;stroke:#000000"
     id="polygon8879"
     points="407.01,-114.439 413.235,-117.641 413.235,-117.641 414.696,-107.147 " />
  <path
     style="fill:none;stroke:#000000"
     inkscape:connector-curvature="0"
     id="path8881"
     d="m 440.46994,0.2286669 c -4.362,8.482 -9.797,19.0510001 -14.691,28.5679991" />
  <polygon
     transform="translate(61.819946,144.99366)"
     style="fill:#000000;stroke:#000000"
     id="polygon8883"
     points="360.765,-117.641 366.99,-114.439 366.99,-114.439 359.304,-107.147 " />
  <path
     style="fill:none;stroke:#000000"
     inkscape:connector-curvature="0"
     id="path8885"
     d="m 385.16994,0.2286669 c 4.362,8.482 9.797,19.0510001 14.691,28.5679991" />
  <polygon
     transform="translate(61.819946,144.99366)"
     style="fill:#000000;stroke:#000000"
     id="polygon8887"
     points="335.01,-114.439 341.235,-117.641 341.235,-117.641 342.696,-107.147 " />
  <path
     style="fill:none;stroke:#000000"
     inkscape:connector-curvature="0"
     id="path8889"
     d="m 368.46994,0.2286669 c -4.362,8.482 -9.797,19.0510001 -14.691,28.5679991" />
  <polygon
     transform="translate(61.819946,144.99366)"
     style="fill:#000000;stroke:#000000"
     id="polygon8891"
     points="288.765,-117.641 294.99,-114.439 294.99,-114.439 287.304,-107.147 " />
  <path
     style="fill:none;stroke:#000000"
     inkscape:connector-curvature="0"
     id="path8893"
     d="m 313.16994,0.2286669 c 4.362,8.482 9.797,19.0510001 14.691,28.5679991" />
  <polygon
     transform="translate(61.819946,144.99366)"
     style="fill:#000000;stroke:#000000"
     id="polygon8895"
     points="263.01,-114.439 269.235,-117.641 269.235,-117.641 270.696,-107.147 " />
  <path
     style="fill:none;stroke:#000000"
     inkscape:connector-curvature="0"
     id="path8897"
     d="m 296.46994,0.2286669 c -4.362,8.482 -9.797,19.0510001 -14.691,28.5679991" />
  <polygon
     transform="translate(61.819946,144.99366)"
     style="fill:#000000;stroke:#000000"
     id="polygon8899"
     points="216.765,-117.641 222.99,-114.439 222.99,-114.439 215.304,-107.147 " />
  <path
     style="fill:none;stroke:#000000"
     inkscape:connector-curvature="0"
     id="path8901"
     d="m 241.16994,0.2286669 c 4.362,8.482 9.797,19.0510001 14.691,28.5679991" />
  <polygon
     transform="translate(61.819946,144.99366)"
     style="fill:#000000;stroke:#000000"
     id="polygon8903"
     points="191.01,-114.439 197.235,-117.641 197.235,-117.641 198.696,-107.147 " />
  <path
     style="fill:none;stroke:#000000"
     inkscape:connector-curvature="0"
     id="path8905"
     d="m 224.46994,0.2286669 c -4.362,8.482 -9.797,19.0510001 -14.691,28.5679991" />
  <polygon
     transform="translate(61.819946,144.99366)"
     style="fill:#000000;stroke:#000000"
     id="polygon8907"
     points="144.765,-117.641 150.99,-114.439 150.99,-114.439 143.304,-107.147 " />
  <path
     style="fill:none;stroke:#000000"
     inkscape:connector-curvature="0"
     id="path8909"
     d="m 169.16994,0.2286669 c 4.362,8.482 9.797,19.0510001 14.691,28.5679991" />
  <polygon
     transform="translate(61.819946,144.99366)"
     style="fill:#000000;stroke:#000000"
     id="polygon8911"
     points="119.01,-114.439 125.235,-117.641 125.235,-117.641 126.696,-107.147 " />
  <path
     style="fill:none;stroke:#000000"
     inkscape:connector-curvature="0"
     id="path8913"
     d="m 152.47034,0.2286669 c -4.3619,8.482 -9.7973,19.0510001 -14.6917,28.5679991" />
  <polygon
     transform="translate(61.819946,144.99366)"
     style="fill:#000000;stroke:#000000"
     id="polygon8915"
     points="72.7654,-117.641 78.9904,-114.439 78.9904,-114.439 71.3043,-107.147 " />
  <path
     style="fill:none;stroke:#000000"
     inkscape:connector-curvature="0"
     id="path8917"
     d="m 97.169546,0.2286669 c 4.361904,8.482 9.797304,19.0510001 14.691704,28.5679991" />
  <polygon
     transform="translate(61.819946,144.99366)"
     style="fill:#000000;stroke:#000000"
     id="polygon8919"
     points="47.0096,-114.439 53.2346,-117.641 53.2346,-117.641 54.6957,-107.147 " />
  <path
     d="m 81.098847,0.2286669 c -4.3619,8.482 -9.7973,19.0510001 -14.6917,28.5679991"
     id="path8921"
     inkscape:connector-curvature="0"
     style="fill:none;stroke:#000000" />
  <polygon
     points="78.9904,-114.439 78.9904,-114.439 71.3043,-107.147 72.7654,-117.641 "
     id="polygon8923"
     style="fill:#000000;stroke:#000000"
     transform="translate(-9.5515498,144.99366)" />
  <rect
     style="opacity:1;fill:url(#linearGradient8973);fill-opacity:1;stroke:none;stroke-width:8;stroke-linecap:round;stroke-miterlimit:4;stroke-dasharray:none;stroke-dashoffset:0;stroke-opacity:1"
     id="rect8953"
     width="643.69861"
     height="23.489334"
     x="3.6137466"
     y="0.37833536" />
  <rect
     y="-246.11308"
     x="0"
     height="23.489334"
     width="643.69861"
     id="rect8975"
     style="opacity:1;fill:url(#linearGradient8977);fill-opacity:1;stroke:none;stroke-width:8;stroke-linecap:round;stroke-miterlimit:4;stroke-dasharray:none;stroke-dashoffset:0;stroke-opacity:1"
     transform="scale(1,-1)" />
  <ellipse
     style="fill:#d40000;stroke:#000000"
     id="ellipse9255"
     ry="18"
     rx="27"
     cy="26.598925"
     cx="664.41339" />
  <ellipse
     style="fill:#2c89a0;stroke:#000000"
     id="ellipse9257"
     ry="18"
     rx="27"
     cy="89.203896"
     cx="664.41339" />
  <ellipse
     style="fill:#ffb380;stroke:#000000"
     id="ellipse9259"
     ry="18"
     rx="27"
     cy="151.80885"
     cx="664.41339" />
  <ellipse
     style="fill:#d4ff2a;stroke:#000000"
     id="ellipse9261"
     ry="18"
     rx="27"
     cy="214.41382"
     cx="664.41339" />
  <text
     xml:space="preserve"
     style="font-style:normal;font-weight:normal;font-size:14px;line-height:125%;font-family:Sans;letter-spacing:0px;word-spacing:0px;fill:#000000;fill-opacity:1;stroke:none;stroke-width:1px;stroke-linecap:butt;stroke-linejoin:miter;stroke-opacity:1"
     x="709.06482"
     y="31.818163"
     id="text9263"
     sodipodi:linespacing="125%"><tspan
       sodipodi:role="line"
       id="tspan9265"
       x="709.06482"
       y="31.818163">Noeud NUMA 1</tspan></text>
  <text
     xml:space="preserve"
     style="font-style:normal;font-weight:normal;font-size:14px;line-height:125%;font-family:Sans;letter-spacing:0px;word-spacing:0px;fill:#000000;fill-opacity:1;stroke:none;stroke-width:1px;stroke-linecap:butt;stroke-linejoin:miter;stroke-opacity:1"
     x="709.06482"
     y="94.423134"
     id="text9267"
     sodipodi:linespacing="125%"><tspan
       sodipodi:role="line"
       id="tspan9269"
       x="709.06482"
       y="94.423134">Noeud NUMA 2</tspan></text>
  <text
     xml:space="preserve"
     style="font-style:normal;font-weight:normal;font-size:14px;line-height:125%;font-family:Sans;letter-spacing:0px;word-spacing:0px;fill:#000000;fill-opacity:1;stroke:none;stroke-width:1px;stroke-linecap:butt;stroke-linejoin:miter;stroke-opacity:1"
     x="709.06482"
     y="157.02809"
     id="text9271"
     sodipodi:linespacing="125%"><tspan
       sodipodi:role="line"
       id="tspan9273"
       x="709.06482"
       y="157.02809">Noeud NUMA 3</tspan></text>
  <text
     xml:space="preserve"
     style="font-style:normal;font-weight:normal;font-size:14px;line-height:125%;font-family:Sans;letter-spacing:0px;word-spacing:0px;fill:#000000;fill-opacity:1;stroke:none;stroke-width:1px;stroke-linecap:butt;stroke-linejoin:miter;stroke-opacity:1"
     x="709.06482"
     y="219.63306"
     id="text9275"
     sodipodi:linespacing="125%"><tspan
       sodipodi:role="line"
       id="tspan9277"
       x="709.06482"
       y="219.63306">Noeud NUMA 4</tspan></text>
</svg>
