<?xml version="1.0" encoding="UTF-8" standalone="no"?>
<!-- Created with Inkscape (http://www.inkscape.org/) -->

<svg
   xmlns:ns0="http://www.iki.fi/pav/software/textext/"
   xmlns:dc="http://purl.org/dc/elements/1.1/"
   xmlns:cc="http://creativecommons.org/ns#"
   xmlns:rdf="http://www.w3.org/1999/02/22-rdf-syntax-ns#"
   xmlns:svg="http://www.w3.org/2000/svg"
   xmlns="http://www.w3.org/2000/svg"
   xmlns:xlink="http://www.w3.org/1999/xlink"
   xmlns:sodipodi="http://sodipodi.sourceforge.net/DTD/sodipodi-0.dtd"
   xmlns:inkscape="http://www.inkscape.org/namespaces/inkscape"
   width="338.90845"
   height="276.09134"
   id="svg2"
   version="1.1"
   inkscape:version="0.91pre2 r13656"
   sodipodi:docname="rocks.svg">
  <sodipodi:namedview
     id="base"
     pagecolor="#ffffff"
     bordercolor="#666666"
     borderopacity="1.0"
     inkscape:pageopacity="0.0"
     inkscape:pageshadow="2"
     inkscape:zoom="2.8"
     inkscape:cx="104.93227"
     inkscape:cy="117.60365"
     inkscape:document-units="px"
     inkscape:current-layer="layer1"
     showgrid="false"
     inkscape:window-width="2560"
     inkscape:window-height="1497"
     inkscape:window-x="0"
     inkscape:window-y="39"
     inkscape:window-maximized="1"
     fit-margin-top="0"
     fit-margin-left="0"
     fit-margin-right="0"
     fit-margin-bottom="0" />
  <defs
     id="defs4">
    <marker
       style="overflow:visible"
       id="Arrow1Mstart"
       refX="0"
       refY="0"
       orient="auto"
       inkscape:stockid="Arrow1Mstart">
      <path
         transform="matrix(0.4,0,0,0.4,4,0)"
         style="fill-rule:evenodd;stroke:#000000;stroke-width:1pt"
         d="M 0,0 5,-5 -12.5,0 5,5 0,0 Z"
         id="path3781"
         inkscape:connector-curvature="0" />
    </marker>
    <marker
       style="overflow:visible"
       id="Arrow2Mend"
       refX="0"
       refY="0"
       orient="auto"
       inkscape:stockid="Arrow2Mend">
      <path
         transform="scale(-0.6,-0.6)"
         d="M 8.7185878,4.0337352 -2.2072895,0.01601326 8.7185884,-4.0017078 c -1.7454984,2.3720609 -1.7354408,5.6174519 -6e-7,8.035443 z"
         style="fill-rule:evenodd;stroke-width:0.625;stroke-linejoin:round"
         id="path3802"
         inkscape:connector-curvature="0" />
    </marker>
    <marker
       style="overflow:visible"
       id="Arrow1Sstart"
       refX="0"
       refY="0"
       orient="auto"
       inkscape:stockid="Arrow1Sstart">
      <path
         transform="matrix(0.2,0,0,0.2,1.2,0)"
         style="fill-rule:evenodd;stroke:#000000;stroke-width:1pt"
         d="M 0,0 5,-5 -12.5,0 5,5 0,0 Z"
         id="path3787"
         inkscape:connector-curvature="0" />
    </marker>
    <marker
       style="overflow:visible"
       id="Arrow1Lend"
       refX="0"
       refY="0"
       orient="auto"
       inkscape:stockid="Arrow1Lend">
      <path
         transform="matrix(-0.8,0,0,-0.8,-10,0)"
         style="fill-rule:evenodd;stroke:#000000;stroke-width:1pt"
         d="M 0,0 5,-5 -12.5,0 5,5 0,0 Z"
         id="path3778"
         inkscape:connector-curvature="0" />
    </marker>
    <defs
       id="defs5112">
      <g
         id="g5114">
        <symbol
           style="overflow:visible"
           overflow="visible"
           id="textext-c94dfeff-0">
          <path
             inkscape:connector-curvature="0"
             style="stroke:none"
             d=""
             id="path5117" />
        </symbol>
        <symbol
           style="overflow:visible"
           overflow="visible"
           id="textext-c94dfeff-1">
          <path
             inkscape:connector-curvature="0"
             style="stroke:none"
             d="M 4.828125,-4.09375 4,-6.078125 c -0.03125,-0.078125 -0.046875,-0.125 -0.046875,-0.125 0,-0.0625 0.15625,-0.25 0.578125,-0.296875 0.109375,-0.015625 0.203125,-0.015625 0.203125,-0.1875 0,-0.125 -0.125,-0.125 -0.15625,-0.125 -0.40625,0 -0.828125,0.03125 -1.25,0.03125 -0.25,0 -0.859375,-0.03125 -1.109375,-0.03125 -0.0625,0 -0.1875,0 -0.1875,0.203125 C 2.03125,-6.5 2.140625,-6.5 2.265625,-6.5 c 0.59375,0 0.65625,0.09375 0.75,0.3125 l 1.171875,2.78125 -2.109375,2.265625 -0.125,0.109375 C 1.46875,-0.5 1,-0.34375 0.484375,-0.3125 c -0.125,0.015625 -0.21875,0.015625 -0.21875,0.203125 0,0.015625 0,0.109375 0.140625,0.109375 0.296875,0 0.625,-0.03125 0.921875,-0.03125 C 1.703125,-0.03125 2.09375,0 2.453125,0 2.515625,0 2.625,0 2.625,-0.203125 2.625,-0.296875 2.53125,-0.3125 2.515625,-0.3125 c -0.09375,0 -0.40625,-0.03125 -0.40625,-0.3125 0,-0.15625 0.15625,-0.3125 0.265625,-0.4375 L 3.40625,-2.140625 4.296875,-3.125 l 1,2.390625 c 0.046875,0.109375 0.0625,0.109375 0.0625,0.140625 0,0.078125 -0.203125,0.25 -0.578125,0.28125 C 4.671875,-0.296875 4.578125,-0.296875 4.578125,-0.125 4.578125,0 4.6875,0 4.71875,0 5,0 5.703125,-0.03125 5.984375,-0.03125 6.234375,-0.03125 6.84375,0 7.09375,0 c 0.0625,0 0.1875,0 0.1875,-0.1875 0,-0.125 -0.109375,-0.125 -0.1875,-0.125 -0.65625,0 -0.6875,-0.03125 -0.859375,-0.4375 C 5.859375,-1.671875 5.1875,-3.234375 4.953125,-3.828125 5.625,-4.53125 6.671875,-5.71875 7,-5.984375 7.28125,-6.234375 7.671875,-6.46875 8.265625,-6.5 c 0.125,-0.015625 0.21875,-0.015625 0.21875,-0.203125 0,0 0,-0.109375 -0.125,-0.109375 -0.296875,0 -0.640625,0.03125 -0.9375,0.03125 -0.375,0 -0.75,-0.03125 -1.109375,-0.03125 -0.0625,0 -0.1875,0 -0.1875,0.203125 0,0.0625 0.046875,0.09375 0.109375,0.109375 0.09375,0.015625 0.40625,0.03125 0.40625,0.3125 0,0.140625 -0.109375,0.265625 -0.1875,0.359375 z m 0,0"
             id="path5120" />
        </symbol>
        <symbol
           style="overflow:visible"
           overflow="visible"
           id="textext-c94dfeff-2">
          <path
             inkscape:connector-curvature="0"
             style="stroke:none"
             d=""
             id="path5123" />
        </symbol>
        <symbol
           style="overflow:visible"
           overflow="visible"
           id="textext-c94dfeff-3">
          <path
             inkscape:connector-curvature="0"
             style="stroke:none"
             d="M 3.59375,-2.21875 C 3.59375,-2.984375 3.5,-3.546875 3.1875,-4.03125 2.96875,-4.34375 2.53125,-4.625 1.984375,-4.625 c -1.625,0 -1.625,1.90625 -1.625,2.40625 0,0.5 0,2.359375 1.625,2.359375 1.609375,0 1.609375,-1.859375 1.609375,-2.359375 z M 1.984375,-0.0625 c -0.328125,0 -0.75,-0.1875 -0.890625,-0.75 C 1,-1.21875 1,-1.796875 1,-2.3125 1,-2.828125 1,-3.359375 1.09375,-3.734375 1.25,-4.28125 1.6875,-4.4375 1.984375,-4.4375 c 0.375,0 0.734375,0.234375 0.859375,0.640625 0.109375,0.375 0.125,0.875 0.125,1.484375 0,0.515625 0,1.03125 -0.09375,1.46875 -0.140625,0.640625 -0.609375,0.78125 -0.890625,0.78125 z m 0,0"
             id="path5126" />
        </symbol>
      </g>
    </defs>
  </defs>
  <metadata
     id="metadata7">
    <rdf:RDF>
      <cc:Work
         rdf:about="">
        <dc:format>image/svg+xml</dc:format>
        <dc:type
           rdf:resource="http://purl.org/dc/dcmitype/StillImage" />
        <dc:title></dc:title>
      </cc:Work>
    </rdf:RDF>
  </metadata>
  <g
     id="layer1"
     inkscape:groupmode="layer"
     inkscape:label="Calque 1"
     transform="translate(-187.40285,-249.32713)">
    <rect
       style="opacity:1;fill:#c6afe9;fill-opacity:1;stroke:#000000;stroke-width:10;stroke-linecap:round;stroke-miterlimit:4;stroke-dasharray:none;stroke-dashoffset:0;stroke-opacity:0"
       id="rect3509"
       width="272.4306"
       height="247.45596"
       x="218.65176"
       y="272.96249" />
    <path
       inkscape:connector-curvature="0"
       id="path2997"
       d="m 201.97299,251.81627 0,263.64981"
       style="fill:none;stroke:#000000;stroke-width:1px;stroke-linecap:butt;stroke-linejoin:miter;stroke-opacity:1;marker-end:url(#Arrow1Lend)" />
    <text
       sodipodi:linespacing="125%"
       id="text2999"
       y="517.16949"
       x="186.93019"
       style="font-style:normal;font-weight:normal;font-size:11px;line-height:125%;font-family:Sans;letter-spacing:0px;word-spacing:0px;fill:#000000;fill-opacity:1;stroke:none"
       xml:space="preserve"><tspan
         y="517.16949"
         x="186.93019"
         id="tspan3001"
         sodipodi:role="line">z</tspan></text>
    <rect
       style="fill:none;stroke:#000000;stroke-width:1.42878532;stroke-linecap:round;stroke-miterlimit:4;stroke-dasharray:1.42878532, 4.28635597;stroke-dashoffset:0"
       id="rect4258"
       width="271.05075"
       height="21.042181"
       x="219.55099"
       y="250.04152" />
    <rect
       y="272.72"
       x="219.55099"
       height="21.042181"
       width="271.05075"
       id="rect4260"
       style="fill:none;stroke:#000000;stroke-width:1.42878532;stroke-linecap:round;stroke-miterlimit:4;stroke-dasharray:1.42878532, 4.28635597;stroke-dashoffset:0" />
    <rect
       style="fill:none;stroke:#000000;stroke-width:1.42878532;stroke-linecap:round;stroke-miterlimit:4;stroke-dasharray:1.42878532, 4.28635597;stroke-dashoffset:0"
       id="rect4262"
       width="271.05075"
       height="21.042181"
       x="219.55099"
       y="295.39847" />
    <rect
       y="318.07693"
       x="219.55099"
       height="21.042181"
       width="271.05075"
       id="rect4264"
       style="fill:none;stroke:#000000;stroke-width:1.42878532;stroke-linecap:round;stroke-miterlimit:4;stroke-dasharray:1.42878532, 4.28635597;stroke-dashoffset:0" />
    <rect
       style="fill:none;stroke:#000000;stroke-width:1.42878532;stroke-linecap:round;stroke-miterlimit:4;stroke-dasharray:1.42878532, 4.28635597;stroke-dashoffset:0"
       id="rect4266"
       width="271.05075"
       height="21.042181"
       x="219.55099"
       y="340.7554" />
    <rect
       y="408.7908"
       x="219.55099"
       height="21.042181"
       width="271.05075"
       id="rect4268"
       style="fill:none;stroke:#000000;stroke-width:1.42878532;stroke-linecap:round;stroke-miterlimit:4;stroke-dasharray:1.42878532, 4.28635597;stroke-dashoffset:0" />
    <rect
       style="fill:none;stroke:#000000;stroke-width:1.42878532;stroke-linecap:round;stroke-miterlimit:4;stroke-dasharray:1.42878532, 4.28635597;stroke-dashoffset:0"
       id="rect4270"
       width="271.05075"
       height="21.042181"
       x="219.55099"
       y="363.43387" />
    <rect
       y="386.11234"
       x="219.55099"
       height="21.042181"
       width="271.05075"
       id="rect4272"
       style="fill:none;stroke:#000000;stroke-width:1.42878532;stroke-linecap:round;stroke-miterlimit:4;stroke-dasharray:1.42878532, 4.28635597;stroke-dashoffset:0" />
    <rect
       style="fill:none;stroke:#000000;stroke-width:1.42878532;stroke-linecap:round;stroke-miterlimit:4;stroke-dasharray:1.42878532, 4.28635597;stroke-dashoffset:0"
       id="rect4274"
       width="271.05075"
       height="21.042181"
       x="219.55099"
       y="430.22018" />
    <rect
       y="452.89865"
       x="219.55099"
       height="21.042181"
       width="271.05075"
       id="rect4276"
       style="fill:none;stroke:#000000;stroke-width:1.42878532;stroke-linecap:round;stroke-miterlimit:4;stroke-dasharray:1.42878532, 4.28635597;stroke-dashoffset:0" />
    <rect
       style="fill:none;stroke:#000000;stroke-width:1.42878532;stroke-linecap:round;stroke-miterlimit:4;stroke-dasharray:1.42878532, 4.28635597;stroke-dashoffset:0"
       id="rect4278"
       width="271.05075"
       height="21.042181"
       x="219.55099"
       y="475.57715" />
    <rect
       y="498.25562"
       x="219.55099"
       height="21.042181"
       width="271.05075"
       id="rect4280"
       style="fill:none;stroke:#000000;stroke-width:1.42878532;stroke-linecap:round;stroke-miterlimit:4;stroke-dasharray:1.42878532, 4.28635597;stroke-dashoffset:0" />
    <path
       inkscape:connector-curvature="0"
       id="path4292"
       d="m 500.02551,259.89751 0,26.76904"
       style="fill:none;stroke:#000000;stroke-width:1px;stroke-linecap:butt;stroke-linejoin:miter;stroke-opacity:1;marker-start:url(#Arrow1Mstart);marker-end:url(#Arrow2Mend)" />
    <text
       sodipodi:linespacing="125%"
       id="text5046"
       y="297.77823"
       x="169.20055"
       style="font-style:normal;font-weight:normal;font-size:11px;line-height:125%;font-family:Sans;letter-spacing:0px;word-spacing:0px;fill:#000000;fill-opacity:1;stroke:none"
       xml:space="preserve"><tspan
         y="297.77823"
         x="169.20055"
         id="tspan5048"
         sodipodi:role="line" /></text>
    <text
       xml:space="preserve"
       style="font-style:normal;font-weight:normal;font-size:11px;line-height:125%;font-family:Sans;letter-spacing:0px;word-spacing:0px;fill:#000000;fill-opacity:1;stroke:none"
       x="167.68532"
       y="408.89502"
       id="text5050"
       sodipodi:linespacing="125%"><tspan
         sodipodi:role="line"
         id="tspan5052"
         x="167.68532"
         y="408.89502" /></text>
    <text
       sodipodi:linespacing="125%"
       id="text5054"
       y="476.07016"
       x="167.68532"
       style="font-style:normal;font-weight:normal;font-size:11px;line-height:125%;font-family:Sans;letter-spacing:0px;word-spacing:0px;fill:#000000;fill-opacity:1;stroke:none"
       xml:space="preserve"><tspan
         y="476.07016"
         x="167.68532"
         id="tspan5056"
         sodipodi:role="line" /></text>
    <g
       transform="matrix(1.5,0,0,1.5,171.72593,76.445155)"
       ns0:text="$\\Delta{z}$"
       ns0:preamble=""
       id="g5261">
      <defs
         id="defs5263">
        <g
           id="g5265">
          <symbol
             style="overflow:visible"
             overflow="visible"
             id="textext-328af73f-0">
            <path
               inkscape:connector-curvature="0"
               style="stroke:none"
               d=""
               id="path5268" />
          </symbol>
          <symbol
             style="overflow:visible"
             overflow="visible"
             id="textext-328af73f-1">
            <path
               inkscape:connector-curvature="0"
               style="stroke:none"
               d="m 4.40625,-6.953125 c -0.0625,-0.140625 -0.09375,-0.1875 -0.265625,-0.1875 -0.15625,0 -0.1875,0.046875 -0.25,0.1875 l -3.375,6.75 C 0.46875,-0.109375 0.46875,-0.09375 0.46875,-0.078125 0.46875,0 0.53125,0 0.6875,0 l 6.921875,0 c 0.15625,0 0.21875,0 0.21875,-0.078125 0,-0.015625 0,-0.03125 -0.046875,-0.125 z m -0.578125,0.8125 2.6875,5.390625 -5.375,0 z m 0,0"
               id="path5271" />
          </symbol>
          <symbol
             style="overflow:visible"
             overflow="visible"
             id="textext-328af73f-2">
            <path
               inkscape:connector-curvature="0"
               style="stroke:none"
               d=""
               id="path5274" />
          </symbol>
          <symbol
             style="overflow:visible"
             overflow="visible"
             id="textext-328af73f-3">
            <path
               inkscape:connector-curvature="0"
               style="stroke:none"
               d="m 1.328125,-0.828125 c 0.53125,-0.578125 0.828125,-0.828125 1.1875,-1.140625 0,0 0.609375,-0.53125 0.96875,-0.890625 C 4.4375,-3.78125 4.65625,-4.265625 4.65625,-4.3125 c 0,-0.09375 -0.09375,-0.09375 -0.109375,-0.09375 -0.078125,0 -0.09375,0.015625 -0.15625,0.109375 -0.296875,0.484375 -0.5,0.640625 -0.734375,0.640625 -0.25,0 -0.359375,-0.15625 -0.515625,-0.328125 -0.1875,-0.21875 -0.359375,-0.421875 -0.6875,-0.421875 -0.75,0 -1.203125,0.921875 -1.203125,1.140625 0,0.046875 0.03125,0.109375 0.109375,0.109375 0.09375,0 0.109375,-0.046875 0.140625,-0.109375 0.1875,-0.46875 0.765625,-0.46875 0.84375,-0.46875 0.203125,0 0.390625,0.0625 0.625,0.140625 0.40625,0.15625 0.515625,0.15625 0.765625,0.15625 -0.359375,0.421875 -1.1875,1.140625 -1.375,1.296875 l -0.90625,0.84375 C 0.78125,-0.625 0.421875,-0.0625 0.421875,0.015625 c 0,0.09375 0.109375,0.09375 0.125,0.09375 0.078125,0 0.09375,-0.015625 0.15625,-0.125 0.234375,-0.359375 0.53125,-0.625 0.859375,-0.625 0.21875,0 0.328125,0.09375 0.578125,0.375 0.15625,0.21875 0.34375,0.375 0.625,0.375 1,0 1.578125,-1.265625 1.578125,-1.53125 0,-0.046875 -0.046875,-0.109375 -0.125,-0.109375 -0.09375,0 -0.109375,0.0625 -0.140625,0.140625 C 3.84375,-0.75 3.203125,-0.5625 2.875,-0.5625 c -0.1875,0 -0.375,-0.0625 -0.578125,-0.125 -0.34375,-0.125 -0.5,-0.171875 -0.703125,-0.171875 -0.015625,0 -0.171875,0 -0.265625,0.03125 z m 0,0"
               id="path5277" />
          </symbol>
        </g>
      </defs>
      <g
         id="textext-328af73f-4">
        <g
           style="fill:#000000;fill-opacity:1"
           id="g5280">
          <use
             height="1052.3622"
             width="744.09448"
             xlink:href="#textext-328af73f-1"
             x="223.43201"
             y="134.765"
             id="use5282" />
        </g>
        <g
           style="fill:#000000;fill-opacity:1"
           id="g5284">
          <use
             height="1052.3622"
             width="744.09448"
             xlink:href="#textext-328af73f-3"
             x="231.73399"
             y="134.765"
             id="use5286" />
        </g>
      </g>
    </g>
    <g
       transform="matrix(1.5,0,0,1.5,8.5862921,62.298514)"
       ns0:text="$X_0$"
       ns0:preamble=""
       id="g5455">
      <defs
         id="defs5457">
        <g
           id="g5459">
          <symbol
             style="overflow:visible"
             overflow="visible"
             id="textext-3a9a154f-0">
            <path
               inkscape:connector-curvature="0"
               style="stroke:none"
               d=""
               id="path5462" />
          </symbol>
          <symbol
             style="overflow:visible"
             overflow="visible"
             id="textext-3a9a154f-1">
            <path
               inkscape:connector-curvature="0"
               style="stroke:none"
               d="M 4.828125,-4.09375 4,-6.078125 c -0.03125,-0.078125 -0.046875,-0.125 -0.046875,-0.125 0,-0.0625 0.15625,-0.25 0.578125,-0.296875 0.109375,-0.015625 0.203125,-0.015625 0.203125,-0.1875 0,-0.125 -0.125,-0.125 -0.15625,-0.125 -0.40625,0 -0.828125,0.03125 -1.25,0.03125 -0.25,0 -0.859375,-0.03125 -1.109375,-0.03125 -0.0625,0 -0.1875,0 -0.1875,0.203125 C 2.03125,-6.5 2.140625,-6.5 2.265625,-6.5 c 0.59375,0 0.65625,0.09375 0.75,0.3125 l 1.171875,2.78125 -2.109375,2.265625 -0.125,0.109375 C 1.46875,-0.5 1,-0.34375 0.484375,-0.3125 c -0.125,0.015625 -0.21875,0.015625 -0.21875,0.203125 0,0.015625 0,0.109375 0.140625,0.109375 0.296875,0 0.625,-0.03125 0.921875,-0.03125 C 1.703125,-0.03125 2.09375,0 2.453125,0 2.515625,0 2.625,0 2.625,-0.203125 2.625,-0.296875 2.53125,-0.3125 2.515625,-0.3125 c -0.09375,0 -0.40625,-0.03125 -0.40625,-0.3125 0,-0.15625 0.15625,-0.3125 0.265625,-0.4375 L 3.40625,-2.140625 4.296875,-3.125 l 1,2.390625 c 0.046875,0.109375 0.0625,0.109375 0.0625,0.140625 0,0.078125 -0.203125,0.25 -0.578125,0.28125 C 4.671875,-0.296875 4.578125,-0.296875 4.578125,-0.125 4.578125,0 4.6875,0 4.71875,0 5,0 5.703125,-0.03125 5.984375,-0.03125 6.234375,-0.03125 6.84375,0 7.09375,0 c 0.0625,0 0.1875,0 0.1875,-0.1875 0,-0.125 -0.109375,-0.125 -0.1875,-0.125 -0.65625,0 -0.6875,-0.03125 -0.859375,-0.4375 C 5.859375,-1.671875 5.1875,-3.234375 4.953125,-3.828125 5.625,-4.53125 6.671875,-5.71875 7,-5.984375 7.28125,-6.234375 7.671875,-6.46875 8.265625,-6.5 c 0.125,-0.015625 0.21875,-0.015625 0.21875,-0.203125 0,0 0,-0.109375 -0.125,-0.109375 -0.296875,0 -0.640625,0.03125 -0.9375,0.03125 -0.375,0 -0.75,-0.03125 -1.109375,-0.03125 -0.0625,0 -0.1875,0 -0.1875,0.203125 0,0.0625 0.046875,0.09375 0.109375,0.109375 0.09375,0.015625 0.40625,0.03125 0.40625,0.3125 0,0.140625 -0.109375,0.265625 -0.1875,0.359375 z m 0,0"
               id="path5465" />
          </symbol>
          <symbol
             style="overflow:visible"
             overflow="visible"
             id="textext-3a9a154f-2">
            <path
               inkscape:connector-curvature="0"
               style="stroke:none"
               d=""
               id="path5468" />
          </symbol>
          <symbol
             style="overflow:visible"
             overflow="visible"
             id="textext-3a9a154f-3">
            <path
               inkscape:connector-curvature="0"
               style="stroke:none"
               d="M 3.59375,-2.21875 C 3.59375,-2.984375 3.5,-3.546875 3.1875,-4.03125 2.96875,-4.34375 2.53125,-4.625 1.984375,-4.625 c -1.625,0 -1.625,1.90625 -1.625,2.40625 0,0.5 0,2.359375 1.625,2.359375 1.609375,0 1.609375,-1.859375 1.609375,-2.359375 z M 1.984375,-0.0625 c -0.328125,0 -0.75,-0.1875 -0.890625,-0.75 C 1,-1.21875 1,-1.796875 1,-2.3125 1,-2.828125 1,-3.359375 1.09375,-3.734375 1.25,-4.28125 1.6875,-4.4375 1.984375,-4.4375 c 0.375,0 0.734375,0.234375 0.859375,0.640625 0.109375,0.375 0.125,0.875 0.125,1.484375 0,0.515625 0,1.03125 -0.09375,1.46875 -0.140625,0.640625 -0.609375,0.78125 -0.890625,0.78125 z m 0,0"
               id="path5471" />
          </symbol>
        </g>
      </defs>
      <g
         id="textext-3a9a154f-4">
        <g
           style="fill:#000000;fill-opacity:1"
           id="g5474" />
      </g>
    </g>
    <g
       transform="matrix(1.5,0,0,1.5,11.698708,62.298514)"
       ns0:text="$Z_0$"
       ns0:preamble=""
       id="g3127">
      <defs
         id="defs3129">
        <g
           id="g3131">
          <symbol
             overflow="visible"
             id="textext-a11089bb-0"
             style="overflow:visible">
            <path
               style="stroke:none"
               d=""
               id="path3134"
               inkscape:connector-curvature="0" />
          </symbol>
          <symbol
             overflow="visible"
             id="textext-a11089bb-1"
             style="overflow:visible">
            <path
               style="stroke:none"
               d="m 7.171875,-6.5625 c 0.015625,-0.046875 0.03125,-0.09375 0.03125,-0.15625 0,-0.09375 -0.046875,-0.09375 -0.25,-0.09375 l -4.203125,0 c -0.234375,0 -0.25,0.015625 -0.3125,0.203125 L 1.890625,-4.8125 c -0.015625,0.046875 -0.03125,0.125 -0.03125,0.140625 0,0 0,0.109375 0.125,0.109375 0.09375,0 0.109375,-0.078125 0.125,-0.109375 C 2.5,-5.84375 3.015625,-6.5 4.5625,-6.5 l 1.625,0 -5.5625,6.234375 c 0,0 -0.046875,0.140625 -0.046875,0.171875 C 0.578125,0 0.640625,0 0.828125,0 L 5.15625,0 c 0.25,0 0.25,-0.015625 0.3125,-0.203125 L 6.1875,-2.40625 c 0,-0.03125 0.03125,-0.109375 0.03125,-0.140625 0,-0.0625 -0.03125,-0.109375 -0.125,-0.109375 -0.09375,0 -0.109375,0.03125 -0.171875,0.25 C 5.484375,-1.0625 5,-0.34375 3.3125,-0.34375 l -1.703125,0 z m 0,0"
               id="path3137"
               inkscape:connector-curvature="0" />
          </symbol>
          <symbol
             overflow="visible"
             id="textext-a11089bb-2"
             style="overflow:visible">
            <path
               style="stroke:none"
               d=""
               id="path3140"
               inkscape:connector-curvature="0" />
          </symbol>
          <symbol
             overflow="visible"
             id="textext-a11089bb-3"
             style="overflow:visible">
            <path
               style="stroke:none"
               d="M 3.59375,-2.21875 C 3.59375,-2.984375 3.5,-3.546875 3.1875,-4.03125 2.96875,-4.34375 2.53125,-4.625 1.984375,-4.625 c -1.625,0 -1.625,1.90625 -1.625,2.40625 0,0.5 0,2.359375 1.625,2.359375 1.609375,0 1.609375,-1.859375 1.609375,-2.359375 z M 1.984375,-0.0625 c -0.328125,0 -0.75,-0.1875 -0.890625,-0.75 C 1,-1.21875 1,-1.796875 1,-2.3125 1,-2.828125 1,-3.359375 1.09375,-3.734375 1.25,-4.28125 1.6875,-4.4375 1.984375,-4.4375 c 0.375,0 0.734375,0.234375 0.859375,0.640625 0.109375,0.375 0.125,0.875 0.125,1.484375 0,0.515625 0,1.03125 -0.09375,1.46875 -0.140625,0.640625 -0.609375,0.78125 -0.890625,0.78125 z m 0,0"
               id="path3143"
               inkscape:connector-curvature="0" />
          </symbol>
        </g>
      </defs>
      <g
         id="textext-a11089bb-4">
        <g
           style="fill:#000000;fill-opacity:1"
           id="g3146">
          <use
             xlink:href="#textext-a11089bb-1"
             x="223.43201"
             y="134.765"
             id="use3148"
             width="394.9144"
             height="300.69977" />
        </g>
        <g
           style="fill:#000000;fill-opacity:1"
           id="g3150">
          <use
             xlink:href="#textext-a11089bb-3"
             x="230.233"
             y="136.259"
             id="use3152"
             width="394.9144"
             height="300.69977" />
        </g>
      </g>
    </g>
    <g
       id="g3334"
       ns0:preamble=""
       ns0:text="$Z_1$"
       transform="matrix(1.5,0,0,1.5,11.921364,85.082465)">
      <defs
         id="defs3336">
        <g
           id="g3338">
          <symbol
             id="textext-81efc5a1-0"
             overflow="visible"
             style="overflow:visible">
            <path
               id="path3341"
               d=""
               style="stroke:none"
               inkscape:connector-curvature="0" />
          </symbol>
          <symbol
             id="textext-81efc5a1-1"
             overflow="visible"
             style="overflow:visible">
            <path
               id="path3344"
               d="m 7.171875,-6.5625 c 0.015625,-0.046875 0.03125,-0.09375 0.03125,-0.15625 0,-0.09375 -0.046875,-0.09375 -0.25,-0.09375 l -4.203125,0 c -0.234375,0 -0.25,0.015625 -0.3125,0.203125 L 1.890625,-4.8125 c -0.015625,0.046875 -0.03125,0.125 -0.03125,0.140625 0,0 0,0.109375 0.125,0.109375 0.09375,0 0.109375,-0.078125 0.125,-0.109375 C 2.5,-5.84375 3.015625,-6.5 4.5625,-6.5 l 1.625,0 -5.5625,6.234375 c 0,0 -0.046875,0.140625 -0.046875,0.171875 C 0.578125,0 0.640625,0 0.828125,0 L 5.15625,0 c 0.25,0 0.25,-0.015625 0.3125,-0.203125 L 6.1875,-2.40625 c 0,-0.03125 0.03125,-0.109375 0.03125,-0.140625 0,-0.0625 -0.03125,-0.109375 -0.125,-0.109375 -0.09375,0 -0.109375,0.03125 -0.171875,0.25 C 5.484375,-1.0625 5,-0.34375 3.3125,-0.34375 l -1.703125,0 z m 0,0"
               style="stroke:none"
               inkscape:connector-curvature="0" />
          </symbol>
          <symbol
             id="textext-81efc5a1-2"
             overflow="visible"
             style="overflow:visible">
            <path
               id="path3347"
               d=""
               style="stroke:none"
               inkscape:connector-curvature="0" />
          </symbol>
          <symbol
             id="textext-81efc5a1-3"
             overflow="visible"
             style="overflow:visible">
            <path
               id="path3350"
               d="m 2.328125,-4.4375 c 0,-0.1875 0,-0.1875 -0.203125,-0.1875 -0.453125,0.4375 -1.078125,0.4375 -1.359375,0.4375 l 0,0.25 c 0.15625,0 0.625,0 1,-0.1875 l 0,3.546875 c 0,0.234375 0,0.328125 -0.6875,0.328125 l -0.265625,0 0,0.25 c 0.125,0 0.984375,-0.03125 1.234375,-0.03125 0.21875,0 1.09375,0.03125 1.25,0.03125 l 0,-0.25 -0.265625,0 c -0.703125,0 -0.703125,-0.09375 -0.703125,-0.328125 z m 0,0"
               style="stroke:none"
               inkscape:connector-curvature="0" />
          </symbol>
        </g>
      </defs>
      <g
         id="textext-81efc5a1-4">
        <g
           id="g3353"
           style="fill:#000000;fill-opacity:1">
          <use
             id="use3355"
             y="134.765"
             x="223.43201"
             xlink:href="#textext-81efc5a1-1"
             width="394.9144"
             height="300.69977" />
        </g>
        <g
           id="g3357"
           style="fill:#000000;fill-opacity:1">
          <use
             id="use3359"
             y="136.259"
             x="230.233"
             xlink:href="#textext-81efc5a1-3"
             width="394.9144"
             height="300.69977" />
        </g>
      </g>
    </g>
    <g
       ns0:text="$Z_{n-2}$"
       ns0:preamble=""
       transform="matrix(1.5,0,0,1.5,3.3933067,287.89274)"
       id="g3605">
      <defs
         id="defs3607">
        <g
           id="g3609">
          <symbol
             style="overflow:visible"
             overflow="visible"
             id="textext-44301e59-0">
            <path
               inkscape:connector-curvature="0"
               style="stroke:none"
               d=""
               id="path3612" />
          </symbol>
          <symbol
             style="overflow:visible"
             overflow="visible"
             id="textext-44301e59-1">
            <path
               inkscape:connector-curvature="0"
               style="stroke:none"
               d="m 7.171875,-6.5625 c 0.015625,-0.046875 0.03125,-0.09375 0.03125,-0.15625 0,-0.09375 -0.046875,-0.09375 -0.25,-0.09375 l -4.203125,0 c -0.234375,0 -0.25,0.015625 -0.3125,0.203125 L 1.890625,-4.8125 c -0.015625,0.046875 -0.03125,0.125 -0.03125,0.140625 0,0 0,0.109375 0.125,0.109375 0.09375,0 0.109375,-0.078125 0.125,-0.109375 C 2.5,-5.84375 3.015625,-6.5 4.5625,-6.5 l 1.625,0 -5.5625,6.234375 c 0,0 -0.046875,0.140625 -0.046875,0.171875 C 0.578125,0 0.640625,0 0.828125,0 L 5.15625,0 c 0.25,0 0.25,-0.015625 0.3125,-0.203125 L 6.1875,-2.40625 c 0,-0.03125 0.03125,-0.109375 0.03125,-0.140625 0,-0.0625 -0.03125,-0.109375 -0.125,-0.109375 -0.09375,0 -0.109375,0.03125 -0.171875,0.25 C 5.484375,-1.0625 5,-0.34375 3.3125,-0.34375 l -1.703125,0 z m 0,0"
               id="path3615" />
          </symbol>
          <symbol
             style="overflow:visible"
             overflow="visible"
             id="textext-44301e59-2">
            <path
               inkscape:connector-curvature="0"
               style="stroke:none"
               d=""
               id="path3618" />
          </symbol>
          <symbol
             style="overflow:visible"
             overflow="visible"
             id="textext-44301e59-3">
            <path
               inkscape:connector-curvature="0"
               style="stroke:none"
               d="m 0.84375,-0.4375 c -0.015625,0.09375 -0.0625,0.265625 -0.0625,0.28125 0,0.15625 0.125,0.21875 0.234375,0.21875 0.125,0 0.234375,-0.078125 0.28125,-0.140625 0.03125,-0.0625 0.078125,-0.296875 0.125,-0.4375 0.03125,-0.125 0.109375,-0.453125 0.140625,-0.625 0.046875,-0.15625 0.09375,-0.3125 0.125,-0.46875 0.078125,-0.28125 0.09375,-0.34375 0.296875,-0.625 C 2.171875,-2.515625 2.5,-2.875 3.03125,-2.875 c 0.390625,0 0.40625,0.359375 0.40625,0.484375 0,0.421875 -0.296875,1.1875 -0.40625,1.484375 -0.078125,0.203125 -0.109375,0.265625 -0.109375,0.375 0,0.375 0.296875,0.59375 0.65625,0.59375 0.703125,0 1,-0.953125 1,-1.0625 0,-0.09375 -0.078125,-0.09375 -0.109375,-0.09375 -0.09375,0 -0.09375,0.046875 -0.125,0.125 C 4.1875,-0.40625 3.875,-0.125 3.609375,-0.125 c -0.15625,0 -0.1875,-0.09375 -0.1875,-0.25 0,-0.15625 0.046875,-0.25 0.171875,-0.5625 0.078125,-0.21875 0.359375,-0.953125 0.359375,-1.34375 0,-0.671875 -0.53125,-0.796875 -0.90625,-0.796875 -0.578125,0 -0.96875,0.359375 -1.171875,0.640625 -0.046875,-0.484375 -0.453125,-0.640625 -0.75,-0.640625 -0.296875,0 -0.453125,0.21875 -0.546875,0.375 -0.15625,0.265625 -0.25,0.65625 -0.25,0.703125 0,0.078125 0.09375,0.078125 0.125,0.078125 0.09375,0 0.09375,-0.015625 0.140625,-0.203125 0.109375,-0.40625 0.25,-0.75 0.515625,-0.75 0.1875,0 0.234375,0.15625 0.234375,0.34375 0,0.125 -0.0625,0.390625 -0.125,0.578125 -0.046875,0.1875 -0.109375,0.46875 -0.140625,0.625 z m 0,0"
               id="path3621" />
          </symbol>
          <symbol
             style="overflow:visible"
             overflow="visible"
             id="textext-44301e59-4">
            <path
               inkscape:connector-curvature="0"
               style="stroke:none"
               d=""
               id="path3624" />
          </symbol>
          <symbol
             style="overflow:visible"
             overflow="visible"
             id="textext-44301e59-5">
            <path
               inkscape:connector-curvature="0"
               style="stroke:none"
               d="m 5.1875,-1.578125 c 0.109375,0 0.28125,0 0.28125,-0.15625 0,-0.1875 -0.171875,-0.1875 -0.28125,-0.1875 l -4.15625,0 c -0.109375,0 -0.28125,0 -0.28125,0.171875 0,0.171875 0.15625,0.171875 0.28125,0.171875 z m 0,0"
               id="path3627" />
          </symbol>
          <symbol
             style="overflow:visible"
             overflow="visible"
             id="textext-44301e59-6">
            <path
               inkscape:connector-curvature="0"
               style="stroke:none"
               d=""
               id="path3630" />
          </symbol>
          <symbol
             style="overflow:visible"
             overflow="visible"
             id="textext-44301e59-7">
            <path
               inkscape:connector-curvature="0"
               style="stroke:none"
               d="m 3.515625,-1.265625 -0.234375,0 c -0.015625,0.15625 -0.09375,0.5625 -0.1875,0.625 -0.046875,0.046875 -0.578125,0.046875 -0.6875,0.046875 l -1.28125,0 c 0.734375,-0.640625 0.984375,-0.84375 1.390625,-1.171875 0.515625,-0.40625 1,-0.84375 1,-1.5 0,-0.84375 -0.734375,-1.359375 -1.625,-1.359375 -0.859375,0 -1.453125,0.609375 -1.453125,1.25 0,0.34375 0.296875,0.390625 0.375,0.390625 0.15625,0 0.359375,-0.125 0.359375,-0.375 0,-0.125 -0.046875,-0.375 -0.40625,-0.375 C 0.984375,-4.21875 1.453125,-4.375 1.78125,-4.375 c 0.703125,0 1.0625,0.546875 1.0625,1.109375 0,0.609375 -0.4375,1.078125 -0.65625,1.328125 L 0.515625,-0.265625 C 0.4375,-0.203125 0.4375,-0.1875 0.4375,0 l 2.875,0 z m 0,0"
               id="path3633" />
          </symbol>
        </g>
      </defs>
      <g
         id="textext-44301e59-8">
        <g
           style="fill:#000000;fill-opacity:1"
           id="g3636">
          <use
             height="300.69977"
             width="394.9144"
             xlink:href="#textext-44301e59-1"
             x="223.43201"
             y="134.765"
             id="use3638" />
        </g>
        <g
           style="fill:#000000;fill-opacity:1"
           id="g3640">
          <use
             height="300.69977"
             width="394.9144"
             xlink:href="#textext-44301e59-3"
             x="230.233"
             y="136.259"
             id="use3642" />
        </g>
        <g
           style="fill:#000000;fill-opacity:1"
           id="g3644">
          <use
             height="300.69977"
             width="394.9144"
             xlink:href="#textext-44301e59-5"
             x="235.158"
             y="136.259"
             id="use3646" />
        </g>
        <g
           style="fill:#000000;fill-opacity:1"
           id="g3648">
          <use
             height="300.69977"
             width="394.9144"
             xlink:href="#textext-44301e59-7"
             x="241.38499"
             y="136.259"
             id="use3650" />
        </g>
      </g>
    </g>
    <g
       id="g4032"
       transform="matrix(1.5,0,0,1.5,3.5573692,310.5712)"
       ns0:preamble=""
       ns0:text="$Z_{n-1}$">
      <defs
         id="defs4034">
        <g
           id="g4036">
          <symbol
             id="textext-4386531e-0"
             overflow="visible"
             style="overflow:visible">
            <path
               id="path4039"
               d=""
               style="stroke:none"
               inkscape:connector-curvature="0" />
          </symbol>
          <symbol
             id="textext-4386531e-1"
             overflow="visible"
             style="overflow:visible">
            <path
               id="path4042"
               d="m 7.171875,-6.5625 c 0.015625,-0.046875 0.03125,-0.09375 0.03125,-0.15625 0,-0.09375 -0.046875,-0.09375 -0.25,-0.09375 l -4.203125,0 c -0.234375,0 -0.25,0.015625 -0.3125,0.203125 L 1.890625,-4.8125 c -0.015625,0.046875 -0.03125,0.125 -0.03125,0.140625 0,0 0,0.109375 0.125,0.109375 0.09375,0 0.109375,-0.078125 0.125,-0.109375 C 2.5,-5.84375 3.015625,-6.5 4.5625,-6.5 l 1.625,0 -5.5625,6.234375 c 0,0 -0.046875,0.140625 -0.046875,0.171875 C 0.578125,0 0.640625,0 0.828125,0 L 5.15625,0 c 0.25,0 0.25,-0.015625 0.3125,-0.203125 L 6.1875,-2.40625 c 0,-0.03125 0.03125,-0.109375 0.03125,-0.140625 0,-0.0625 -0.03125,-0.109375 -0.125,-0.109375 -0.09375,0 -0.109375,0.03125 -0.171875,0.25 C 5.484375,-1.0625 5,-0.34375 3.3125,-0.34375 l -1.703125,0 z m 0,0"
               style="stroke:none"
               inkscape:connector-curvature="0" />
          </symbol>
          <symbol
             id="textext-4386531e-2"
             overflow="visible"
             style="overflow:visible">
            <path
               id="path4045"
               d=""
               style="stroke:none"
               inkscape:connector-curvature="0" />
          </symbol>
          <symbol
             id="textext-4386531e-3"
             overflow="visible"
             style="overflow:visible">
            <path
               id="path4048"
               d="m 0.84375,-0.4375 c -0.015625,0.09375 -0.0625,0.265625 -0.0625,0.28125 0,0.15625 0.125,0.21875 0.234375,0.21875 0.125,0 0.234375,-0.078125 0.28125,-0.140625 0.03125,-0.0625 0.078125,-0.296875 0.125,-0.4375 0.03125,-0.125 0.109375,-0.453125 0.140625,-0.625 0.046875,-0.15625 0.09375,-0.3125 0.125,-0.46875 0.078125,-0.28125 0.09375,-0.34375 0.296875,-0.625 C 2.171875,-2.515625 2.5,-2.875 3.03125,-2.875 c 0.390625,0 0.40625,0.359375 0.40625,0.484375 0,0.421875 -0.296875,1.1875 -0.40625,1.484375 -0.078125,0.203125 -0.109375,0.265625 -0.109375,0.375 0,0.375 0.296875,0.59375 0.65625,0.59375 0.703125,0 1,-0.953125 1,-1.0625 0,-0.09375 -0.078125,-0.09375 -0.109375,-0.09375 -0.09375,0 -0.09375,0.046875 -0.125,0.125 C 4.1875,-0.40625 3.875,-0.125 3.609375,-0.125 c -0.15625,0 -0.1875,-0.09375 -0.1875,-0.25 0,-0.15625 0.046875,-0.25 0.171875,-0.5625 0.078125,-0.21875 0.359375,-0.953125 0.359375,-1.34375 0,-0.671875 -0.53125,-0.796875 -0.90625,-0.796875 -0.578125,0 -0.96875,0.359375 -1.171875,0.640625 -0.046875,-0.484375 -0.453125,-0.640625 -0.75,-0.640625 -0.296875,0 -0.453125,0.21875 -0.546875,0.375 -0.15625,0.265625 -0.25,0.65625 -0.25,0.703125 0,0.078125 0.09375,0.078125 0.125,0.078125 0.09375,0 0.09375,-0.015625 0.140625,-0.203125 0.109375,-0.40625 0.25,-0.75 0.515625,-0.75 0.1875,0 0.234375,0.15625 0.234375,0.34375 0,0.125 -0.0625,0.390625 -0.125,0.578125 -0.046875,0.1875 -0.109375,0.46875 -0.140625,0.625 z m 0,0"
               style="stroke:none"
               inkscape:connector-curvature="0" />
          </symbol>
          <symbol
             id="textext-4386531e-4"
             overflow="visible"
             style="overflow:visible">
            <path
               id="path4051"
               d=""
               style="stroke:none"
               inkscape:connector-curvature="0" />
          </symbol>
          <symbol
             id="textext-4386531e-5"
             overflow="visible"
             style="overflow:visible">
            <path
               id="path4054"
               d="m 5.1875,-1.578125 c 0.109375,0 0.28125,0 0.28125,-0.15625 0,-0.1875 -0.171875,-0.1875 -0.28125,-0.1875 l -4.15625,0 c -0.109375,0 -0.28125,0 -0.28125,0.171875 0,0.171875 0.15625,0.171875 0.28125,0.171875 z m 0,0"
               style="stroke:none"
               inkscape:connector-curvature="0" />
          </symbol>
          <symbol
             id="textext-4386531e-6"
             overflow="visible"
             style="overflow:visible">
            <path
               id="path4057"
               d=""
               style="stroke:none"
               inkscape:connector-curvature="0" />
          </symbol>
          <symbol
             id="textext-4386531e-7"
             overflow="visible"
             style="overflow:visible">
            <path
               id="path4060"
               d="m 2.328125,-4.4375 c 0,-0.1875 0,-0.1875 -0.203125,-0.1875 -0.453125,0.4375 -1.078125,0.4375 -1.359375,0.4375 l 0,0.25 c 0.15625,0 0.625,0 1,-0.1875 l 0,3.546875 c 0,0.234375 0,0.328125 -0.6875,0.328125 l -0.265625,0 0,0.25 c 0.125,0 0.984375,-0.03125 1.234375,-0.03125 0.21875,0 1.09375,0.03125 1.25,0.03125 l 0,-0.25 -0.265625,0 c -0.703125,0 -0.703125,-0.09375 -0.703125,-0.328125 z m 0,0"
               style="stroke:none"
               inkscape:connector-curvature="0" />
          </symbol>
        </g>
      </defs>
      <g
         id="textext-4386531e-8">
        <g
           id="g4063"
           style="fill:#000000;fill-opacity:1">
          <use
             id="use4065"
             y="134.765"
             x="223.43201"
             xlink:href="#textext-4386531e-1"
             width="394.9144"
             height="300.69977" />
        </g>
        <g
           id="g4067"
           style="fill:#000000;fill-opacity:1">
          <use
             id="use4069"
             y="136.259"
             x="230.233"
             xlink:href="#textext-4386531e-3"
             width="394.9144"
             height="300.69977" />
        </g>
        <g
           id="g4071"
           style="fill:#000000;fill-opacity:1">
          <use
             id="use4073"
             y="136.259"
             x="235.158"
             xlink:href="#textext-4386531e-5"
             width="394.9144"
             height="300.69977" />
        </g>
        <g
           id="g4075"
           style="fill:#000000;fill-opacity:1">
          <use
             id="use4077"
             y="136.259"
             x="241.38499"
             xlink:href="#textext-4386531e-7"
             width="394.9144"
             height="300.69977" />
        </g>
      </g>
    </g>
  </g>
</svg>
