<?xml version="1.0" encoding="UTF-8" standalone="no"?>
<!-- Created with Inkscape (http://www.inkscape.org/) -->

<svg
   xmlns:dc="http://purl.org/dc/elements/1.1/"
   xmlns:cc="http://creativecommons.org/ns#"
   xmlns:rdf="http://www.w3.org/1999/02/22-rdf-syntax-ns#"
   xmlns:svg="http://www.w3.org/2000/svg"
   xmlns="http://www.w3.org/2000/svg"
   xmlns:sodipodi="http://sodipodi.sourceforge.net/DTD/sodipodi-0.dtd"
   xmlns:inkscape="http://www.inkscape.org/namespaces/inkscape"
   width="524.38934"
   height="364.4375"
   id="svg2"
   version="1.1"
   inkscape:version="0.48.5 r10040"
   sodipodi:docname="Nouveau document 1">
  <sodipodi:namedview
     id="base"
     pagecolor="#ffffff"
     bordercolor="#666666"
     borderopacity="1.0"
     inkscape:pageopacity="0.0"
     inkscape:pageshadow="2"
     inkscape:zoom="1.4142136"
     inkscape:cx="168.22252"
     inkscape:cy="28.76625"
     inkscape:document-units="px"
     inkscape:current-layer="layer1"
     showgrid="false"
     showguides="true"
     inkscape:guide-bbox="true"
     inkscape:window-width="2560"
     inkscape:window-height="1569"
     inkscape:window-x="2560"
     inkscape:window-y="0"
     inkscape:window-maximized="1"
     fit-margin-top="0"
     fit-margin-left="0"
     fit-margin-right="0"
     fit-margin-bottom="0" />
  <defs
     id="defs4">
    <marker
       inkscape:stockid="Arrow1Mend"
       orient="auto"
       refY="0"
       refX="0"
       id="Arrow1Mend"
       style="overflow:visible">
      <path
         id="path5603"
         d="M 0,0 5,-5 -12.5,0 5,5 0,0 z"
         style="fill-rule:evenodd;stroke:#000000;stroke-width:1pt"
         transform="matrix(-0.4,0,0,-0.4,-4,0)"
         inkscape:connector-curvature="0" />
    </marker>
    <marker
       style="overflow:visible"
       id="Arrow2Send"
       refX="0"
       refY="0"
       orient="auto"
       inkscape:stockid="Arrow2Send">
      <path
         transform="matrix(-0.3,0,0,-0.3,0.69,0)"
         d="M 8.7185878,4.0337352 -2.2072895,0.01601326 8.7185884,-4.0017078 c -1.7454984,2.3720609 -1.7354408,5.6174519 -6e-7,8.035443 z"
         style="fill-rule:evenodd;stroke-width:0.625;stroke-linejoin:round"
         id="path5627"
         inkscape:connector-curvature="0" />
    </marker>
    <marker
       style="overflow:visible"
       id="Arrow1Lend"
       refX="0"
       refY="0"
       orient="auto"
       inkscape:stockid="Arrow1Lend">
      <path
         transform="matrix(-0.8,0,0,-0.8,-10,0)"
         style="fill-rule:evenodd;stroke:#000000;stroke-width:1pt"
         d="M 0,0 5,-5 -12.5,0 5,5 0,0 z"
         id="path5597"
         inkscape:connector-curvature="0" />
    </marker>
    <marker
       style="overflow:visible"
       id="Arrow2Sendt"
       refX="0"
       refY="0"
       orient="auto"
       inkscape:stockid="Arrow2Sendt">
      <path
         transform="matrix(-0.3,0,0,-0.3,0.69,0)"
         d="M 8.7185878,4.0337352 -2.2072895,0.01601326 8.7185884,-4.0017078 c -1.7454984,2.3720609 -1.7354408,5.6174519 -6e-7,8.035443 z"
         style="fill:#ff0000;fill-rule:evenodd;stroke:#ff0000;stroke-width:0.625;stroke-linejoin:round"
         id="path6227"
         inkscape:connector-curvature="0" />
    </marker>
    <marker
       inkscape:stockid="Arrow1Mendv"
       orient="auto"
       refY="0"
       refX="0"
       id="Arrow1Mendv"
       style="overflow:visible">
      <path
         id="path7519"
         d="M 0,0 5,-5 -12.5,0 5,5 0,0 z"
         style="fill:#000000;fill-rule:evenodd;stroke:#000000;stroke-width:1pt"
         transform="matrix(-0.4,0,0,-0.4,-4,0)"
         inkscape:connector-curvature="0" />
    </marker>
    <marker
       inkscape:stockid="Arrow1MendT"
       orient="auto"
       refY="0"
       refX="0"
       id="Arrow1MendT"
       style="overflow:visible">
      <path
         id="path7522"
         d="M 0,0 5,-5 -12.5,0 5,5 0,0 z"
         style="fill:#000000;fill-rule:evenodd;stroke:#000000;stroke-width:1pt"
         transform="matrix(-0.4,0,0,-0.4,-4,0)"
         inkscape:connector-curvature="0" />
    </marker>
    <marker
       inkscape:stockid="Arrow1Mende"
       orient="auto"
       refY="0"
       refX="0"
       id="Arrow1Mende"
       style="overflow:visible">
      <path
         id="path7525"
         d="M 0,0 5,-5 -12.5,0 5,5 0,0 z"
         style="fill:#000000;fill-rule:evenodd;stroke:#000000;stroke-width:1pt"
         transform="matrix(-0.4,0,0,-0.4,-4,0)"
         inkscape:connector-curvature="0" />
    </marker>
    <marker
       inkscape:stockid="Arrow1MendE"
       orient="auto"
       refY="0"
       refX="0"
       id="Arrow1MendE"
       style="overflow:visible">
      <path
         id="path7528"
         d="M 0,0 5,-5 -12.5,0 5,5 0,0 z"
         style="fill:#000000;fill-rule:evenodd;stroke:#000000;stroke-width:1pt"
         transform="matrix(-0.4,0,0,-0.4,-4,0)"
         inkscape:connector-curvature="0" />
    </marker>
    <marker
       inkscape:stockid="Arrow1Mendz"
       orient="auto"
       refY="0"
       refX="0"
       id="Arrow1Mendz"
       style="overflow:visible">
      <path
         id="path7531"
         d="M 0,0 5,-5 -12.5,0 5,5 0,0 z"
         style="fill:#000000;fill-rule:evenodd;stroke:#000000;stroke-width:1pt"
         transform="matrix(-0.4,0,0,-0.4,-4,0)"
         inkscape:connector-curvature="0" />
    </marker>
    <marker
       inkscape:stockid="Arrow1MendvD"
       orient="auto"
       refY="0"
       refX="0"
       id="Arrow1MendvD"
       style="overflow:visible">
      <path
         id="path7724"
         d="M 0,0 5,-5 -12.5,0 5,5 0,0 z"
         style="fill:#ff0000;fill-rule:evenodd;stroke:#ff0000;stroke-width:1pt"
         transform="matrix(-0.4,0,0,-0.4,-4,0)"
         inkscape:connector-curvature="0" />
    </marker>
    <marker
       inkscape:stockid="Arrow1MendTk"
       orient="auto"
       refY="0"
       refX="0"
       id="Arrow1MendTk"
       style="overflow:visible">
      <path
         id="path7727"
         d="M 0,0 5,-5 -12.5,0 5,5 0,0 z"
         style="fill:#ff0000;fill-rule:evenodd;stroke:#ff0000;stroke-width:1pt"
         transform="matrix(-0.4,0,0,-0.4,-4,0)"
         inkscape:connector-curvature="0" />
    </marker>
    <marker
       inkscape:stockid="Arrow1Mendem"
       orient="auto"
       refY="0"
       refX="0"
       id="Arrow1Mendem"
       style="overflow:visible">
      <path
         id="path7730"
         d="M 0,0 5,-5 -12.5,0 5,5 0,0 z"
         style="fill:#ff0000;fill-rule:evenodd;stroke:#ff0000;stroke-width:1pt"
         transform="matrix(-0.4,0,0,-0.4,-4,0)"
         inkscape:connector-curvature="0" />
    </marker>
    <marker
       inkscape:stockid="Arrow1MendzB"
       orient="auto"
       refY="0"
       refX="0"
       id="Arrow1MendzB"
       style="overflow:visible">
      <path
         id="path7733"
         d="M 0,0 5,-5 -12.5,0 5,5 0,0 z"
         style="fill:#ff0000;fill-rule:evenodd;stroke:#ff0000;stroke-width:1pt"
         transform="matrix(-0.4,0,0,-0.4,-4,0)"
         inkscape:connector-curvature="0" />
    </marker>
    <marker
       inkscape:stockid="Arrow1MendE1"
       orient="auto"
       refY="0"
       refX="0"
       id="Arrow1MendE1"
       style="overflow:visible">
      <path
         id="path7736"
         d="M 0,0 5,-5 -12.5,0 5,5 0,0 z"
         style="fill:#ff0000;fill-rule:evenodd;stroke:#ff0000;stroke-width:1pt"
         transform="matrix(-0.4,0,0,-0.4,-4,0)"
         inkscape:connector-curvature="0" />
    </marker>
    <marker
       style="overflow:visible"
       id="Arrow2SendG"
       refX="0"
       refY="0"
       orient="auto"
       inkscape:stockid="Arrow2SendG">
      <path
         transform="matrix(-0.3,0,0,-0.3,0.69,0)"
         d="M 8.7185878,4.0337352 -2.2072895,0.01601326 8.7185884,-4.0017078 c -1.7454984,2.3720609 -1.7354408,5.6174519 -6e-7,8.035443 z"
         style="fill:#ff0000;fill-rule:evenodd;stroke:#ff0000;stroke-width:0.625;stroke-linejoin:round"
         id="path8367"
         inkscape:connector-curvature="0" />
    </marker>
    <marker
       style="overflow:visible"
       id="Arrow2Sendt3"
       refX="0"
       refY="0"
       orient="auto"
       inkscape:stockid="Arrow2Sendt3">
      <path
         transform="matrix(-0.3,0,0,-0.3,0.69,0)"
         d="M 8.7185878,4.0337352 -2.2072895,0.01601326 8.7185884,-4.0017078 c -1.7454984,2.3720609 -1.7354408,5.6174519 -6e-7,8.035443 z"
         style="fill:#ffaaaa;fill-rule:evenodd;stroke:#ffaaaa;stroke-width:0.625;stroke-linejoin:round"
         id="path8590"
         inkscape:connector-curvature="0" />
    </marker>
    <marker
       inkscape:stockid="Arrow1MendTkb"
       orient="auto"
       refY="0"
       refX="0"
       id="Arrow1MendTkb"
       style="overflow:visible">
      <path
         id="path8593"
         d="M 0,0 5,-5 -12.5,0 5,5 0,0 z"
         style="fill:#ffaaaa;fill-rule:evenodd;stroke:#ffaaaa;stroke-width:1pt"
         transform="matrix(-0.4,0,0,-0.4,-4,0)"
         inkscape:connector-curvature="0" />
    </marker>
    <marker
       style="overflow:visible"
       id="Arrow2SendGM"
       refX="0"
       refY="0"
       orient="auto"
       inkscape:stockid="Arrow2SendGM">
      <path
         transform="matrix(-0.3,0,0,-0.3,0.69,0)"
         d="M 8.7185878,4.0337352 -2.2072895,0.01601326 8.7185884,-4.0017078 c -1.7454984,2.3720609 -1.7354408,5.6174519 -6e-7,8.035443 z"
         style="fill:#ffaaaa;fill-rule:evenodd;stroke:#ffaaaa;stroke-width:0.625;stroke-linejoin:round"
         id="path8596"
         inkscape:connector-curvature="0" />
    </marker>
    <marker
       style="overflow:visible"
       id="Arrow2SendGI"
       refX="0"
       refY="0"
       orient="auto"
       inkscape:stockid="Arrow2SendGI">
      <path
         transform="matrix(-0.3,0,0,-0.3,0.69,0)"
         d="M 8.7185878,4.0337352 -2.2072895,0.01601326 8.7185884,-4.0017078 c -1.7454984,2.3720609 -1.7354408,5.6174519 -6e-7,8.035443 z"
         style="fill:#ffaaaa;fill-rule:evenodd;stroke:#ffaaaa;stroke-width:0.625;stroke-linejoin:round"
         id="path8599"
         inkscape:connector-curvature="0" />
    </marker>
    <marker
       inkscape:stockid="Arrow1MendvDd"
       orient="auto"
       refY="0"
       refX="0"
       id="Arrow1MendvDd"
       style="overflow:visible">
      <path
         id="path8602"
         d="M 0,0 5,-5 -12.5,0 5,5 0,0 z"
         style="fill:#ffaaaa;fill-rule:evenodd;stroke:#ffaaaa;stroke-width:1pt"
         transform="matrix(-0.4,0,0,-0.4,-4,0)"
         inkscape:connector-curvature="0" />
    </marker>
    <marker
       style="overflow:visible"
       id="Arrow2SendGMv"
       refX="0"
       refY="0"
       orient="auto"
       inkscape:stockid="Arrow2SendGMv">
      <path
         transform="matrix(-0.3,0,0,-0.3,0.69,0)"
         d="M 8.7185878,4.0337352 -2.2072895,0.01601326 8.7185884,-4.0017078 c -1.7454984,2.3720609 -1.7354408,5.6174519 -6e-7,8.035443 z"
         style="fill:#ffaaaa;fill-rule:evenodd;stroke:#ffaaaa;stroke-width:0.625;stroke-linejoin:round"
         id="path8605"
         inkscape:connector-curvature="0" />
    </marker>
    <marker
       style="overflow:visible"
       id="Arrow2Sendtc"
       refX="0"
       refY="0"
       orient="auto"
       inkscape:stockid="Arrow2Sendtc">
      <path
         transform="matrix(-0.3,0,0,-0.3,0.69,0)"
         d="M 8.7185878,4.0337352 -2.2072895,0.01601326 8.7185884,-4.0017078 c -1.7454984,2.3720609 -1.7354408,5.6174519 -6e-7,8.035443 z"
         style="fill:#ffaaaa;fill-rule:evenodd;stroke:#ffaaaa;stroke-width:0.625;stroke-linejoin:round"
         id="path8608"
         inkscape:connector-curvature="0" />
    </marker>
    <marker
       inkscape:stockid="Arrow1Mendem2"
       orient="auto"
       refY="0"
       refX="0"
       id="Arrow1Mendem2"
       style="overflow:visible">
      <path
         id="path8611"
         d="M 0,0 5,-5 -12.5,0 5,5 0,0 z"
         style="fill:#ffaaaa;fill-rule:evenodd;stroke:#ffaaaa;stroke-width:1pt"
         transform="matrix(-0.4,0,0,-0.4,-4,0)"
         inkscape:connector-curvature="0" />
    </marker>
    <marker
       inkscape:stockid="Arrow1MendzB7"
       orient="auto"
       refY="0"
       refX="0"
       id="Arrow1MendzB7"
       style="overflow:visible">
      <path
         id="path8614"
         d="M 0,0 5,-5 -12.5,0 5,5 0,0 z"
         style="fill:#ffaaaa;fill-rule:evenodd;stroke:#ffaaaa;stroke-width:1pt"
         transform="matrix(-0.4,0,0,-0.4,-4,0)"
         inkscape:connector-curvature="0" />
    </marker>
    <marker
       inkscape:stockid="Arrow1MendE1n"
       orient="auto"
       refY="0"
       refX="0"
       id="Arrow1MendE1n"
       style="overflow:visible">
      <path
         id="path8617"
         d="M 0,0 5,-5 -12.5,0 5,5 0,0 z"
         style="fill:#ffaaaa;fill-rule:evenodd;stroke:#ffaaaa;stroke-width:1pt"
         transform="matrix(-0.4,0,0,-0.4,-4,0)"
         inkscape:connector-curvature="0" />
    </marker>
  </defs>
  <metadata
     id="metadata7">
    <rdf:RDF>
      <cc:Work
         rdf:about="">
        <dc:format>image/svg+xml</dc:format>
        <dc:type
           rdf:resource="http://purl.org/dc/dcmitype/StillImage" />
        <dc:title></dc:title>
      </cc:Work>
    </rdf:RDF>
  </metadata>
  <g
     id="layer1"
     inkscape:groupmode="layer"
     inkscape:label="Calque 1"
     transform="translate(-60.308555,-553.34375)">
    <path
       inkscape:connector-curvature="0"
       id="path5584"
       d="m 232.33329,771.63628 -109.28125,0 0,85.56255 106,0 c 0.0192,-0.1147 0.0434,-0.2292 0.0625,-0.3438 l 0.6875,-4.25 c 0.2357,-1.4143 0.59968,-2.8212 0.71875,-4.25 0.11744,-1.4093 0,-2.8358 0,-4.25 l 0,-8.125 0,-4.25 c 0,-1.06067 0.12393,-2.10285 0,-3.15625 -0.11355,-0.9651 -0.59821,-1.87945 -0.71875,-2.84375 -0.11694,-0.9355 0.0672,-1.87209 0,-2.8125 -0.1684,-2.35751 -0.2193,-2.24544 -0.34375,-2.125 -0.0622,0.0602 -0.13989,0.12628 -0.25,-0.125 -0.11011,-0.25128 -0.27151,-0.81656 -0.46875,-2 -0.11625,-0.69749 0.10752,-1.42612 0,-2.125 -0.13046,-0.848 -0.49099,-1.63359 -0.6875,-2.46875 -0.27527,-1.1699 -0.45804,-2.35802 -0.71875,-3.53125 -0.21082,-0.94868 -0.53691,-1.88909 -0.71875,-2.84375 -0.20212,-1.06111 -0.43357,-2.3225 -0.59375,-3.625 -0.16018,-1.3025 -0.22946,-2.62775 -0.0937,-3.78125 0.12696,-1.07909 0.56055,-2.10841 0.6875,-3.1875 0.11016,-0.93635 -0.11694,-1.90822 0,-2.84375 0.12054,-0.96432 0.50793,-1.86382 0.71875,-2.8125 0.50693,-2.2812 0.81204,-4.46073 1.40625,-6.71875 0.31313,-1.18989 0.76408,-2.33759 1.0625,-3.53125 0.29149,-1.16597 0.42726,-2.39653 0.71875,-3.5625 0.50721,-2.02884 1.22185,-3.99387 1.8125,-6 z"
       style="fill:#80b3ff;fill-opacity:1;stroke:#999999;stroke-width:1;stroke-linecap:round;stroke-miterlimit:4;stroke-dasharray:none;stroke-dashoffset:0" />
    <path
       inkscape:connector-curvature="0"
       id="rect5575"
       d="m 232.33329,771.63628 c -0.59065,2.00613 -1.30529,3.97116 -1.8125,6 -0.29149,1.16597 -0.42726,2.39653 -0.71875,3.5625 -0.29842,1.19366 -0.74937,2.34136 -1.0625,3.53125 -0.59421,2.25802 -0.89932,4.43755 -1.40625,6.71875 -0.21082,0.94868 -0.59821,1.84818 -0.71875,2.8125 -0.11694,0.93553 0.11016,1.9074 0,2.84375 -0.12695,1.07909 -0.56054,2.10841 -0.6875,3.1875 -0.13571,1.1535 -0.0664,2.47875 0.0937,3.78125 0.16018,1.3025 0.39163,2.56389 0.59375,3.625 0.18184,0.95466 0.50793,1.89507 0.71875,2.84375 0.26071,1.17323 0.44348,2.36135 0.71875,3.53125 0.19651,0.83516 0.55704,1.62075 0.6875,2.46875 0.10752,0.69888 -0.11625,1.42751 0,2.125 0.19724,1.18344 0.35864,1.74872 0.46875,2 0.11011,0.25128 0.18778,0.18522 0.25,0.125 0.12445,-0.12044 0.17535,-0.23251 0.34375,2.125 0.0672,0.94041 -0.11694,1.877 0,2.8125 0.12054,0.9643 0.6052,1.87865 0.71875,2.84375 0.12393,1.0534 0,2.09558 0,3.15625 l 0,4.25 0,8.125 c 0,1.4142 0.11744,2.8407 0,4.25 -0.11907,1.4288 -0.48305,2.8357 -0.71875,4.25 l -0.6875,4.25 c -0.0191,0.1146 -0.0433,0.2291 -0.0625,0.3438 l 230.5625,0 0,-85.56255 -227.28125,0 z"
       style="fill:#b380ff;fill-opacity:1;stroke:#999999;stroke-width:1;stroke-linecap:round;stroke-miterlimit:4;stroke-dasharray:none;stroke-dashoffset:0" />
    <g
       transform="translate(-9.2043559,0)"
       id="g5555">
      <path
         style="fill:#b3b3b3;fill-opacity:1;stroke:#000000;stroke-width:1.27926815;stroke-linecap:round;stroke-miterlimit:4;stroke-dasharray:none;stroke-dashoffset:0"
         d="m 497.9375,846.5 c -51.60776,2.7085 -103.23033,5.876 -154.93748,5.8566 -30.50448,0.5336 -61.1681,-0.914 -91.56252,-0.7316 -6.16982,-1.0086 -7.57287,1.7958 -13.34375,-1.25 -37.79931,-2.9568 -75.78838,-2.4661 -113.51558,1.26 -18.11113,1.5975 -36.189089,3.545 -54.296919,5.1775 -0.45051,6.8592 0.7823,13.9228 0.78125,20.5313 -2.24612,8.9888 0.53581,18.4513 -0.46875,27.5624 0.24523,3.9167 -0.81959,8.1189 0.25,11.8438 173.573589,0.5896 347.318369,-3.2816 520.781249,0.375 3.62123,-1.5388 -0.0902,-6.4366 1.17163,-9.2812 C 592.55656,889.4004 594.15014,870.8787 592,852.5 c -4.24071,-0.7182 -8.82723,1.3289 -12.90625,-0.5 -4.70922,1.6877 -9.7407,1.3818 -14.28125,-0.5625 -12.75795,-1.6628 -26.04495,0.027 -38.5542,-3.6911 -9.32732,-1.1157 -18.87789,-1.4219 -28.3208,-1.2464 z"
         id="path5356"
         inkscape:connector-curvature="0"
         sodipodi:nodetypes="cccccccccccccccc" />
      <path
         inkscape:connector-curvature="0"
         id="path5217"
         d="m 498.71039,846.5807 c -7.03154,0.0525 -14.43513,0.43844 -24.34375,1.12513 -1.44935,0.10048 -2.79003,0.20997 -4.21875,0.30682 -0.84211,1.04368 -2.08068,2.12502 -3.5,3.06849 -2.87486,1.91101 -5.4759,2.3822 -5.78125,1.07394 -0.1996,-0.85516 0.6346,-2.27312 2.03125,-3.68213 -4.70451,0.30574 -9.34603,0.60255 -13.875,0.86935 0.002,0.0679 0.0312,0.13572 0.0312,0.20459 0,2.03362 -1.07096,3.6822 -2.375,3.6822 -1.29336,0 -2.32692,-1.62046 -2.34375,-3.63108 -5.72721,0.32444 -11.37414,0.60449 -16.9375,0.86942 0.34844,0.32612 0.6769,0.71096 1.03125,1.07401 3.86194,3.95673 6.4719,8.5557 5.8125,10.2794 -0.6594,1.72371 -4.32556,-0.0835 -8.1875,-4.0402 -2.30301,-2.35954 -4.14026,-4.93598 -5.125,-7.00633 -25.64704,1.12695 -50.73121,1.64724 -80.15625,1.73877 0.2123,0.74022 0.2586,1.35905 0.0937,1.78996 -0.5094,1.3316 -2.82278,0.52103 -5.625,-1.73877 -1.91191,0 -3.70351,6.7e-4 -5.65625,0 -33.58913,-0.0148 -53.22591,-0.2658 -77.53125,-1.27854 -0.18693,1.95964 -3.81325,3.52872 -8.25,3.52872 -4.55635,0 -8.25,-1.64858 -8.25,-3.6822 0,-0.22241 0.0403,-0.45324 0.125,-0.66482 -4.71969,-0.23338 -8.94025,-0.42876 -14.28125,-0.71594 -6.48441,-0.34873 -12.00127,-0.60221 -17.21875,-0.81831 0.70965,0.59522 1.44131,1.28116 2.1875,2.04566 3.86194,3.95681 6.4719,8.55577 5.8125,10.27947 -0.6594,1.72364 -4.32556,-0.0835 -8.1875,-4.0402 -2.89646,-2.9676 -5.08185,-6.28339 -5.71875,-8.48945 -24.55433,-0.798 -40.45097,0.26404 -87.53125,4.50043 -2.93183,0.26378 -3.30803,0.26196 -6.09375,0.51142 -2.86698,2.21655 -5.218704,2.99827 -5.718754,1.63654 -0.1106,-0.30124 -0.13742,-0.67741 -0.0625,-1.12513 -8.50553,0.75791 -19.23627,1.72781 -20.65625,1.84107 -2.23622,0.17843 -4.88537,0.49123 -5.90625,0.66482 l -1.875,0.30689 0,13.65478 c 3.43836,0.4441 5.96875,1.85102 5.96875,3.52873 0,1.67776 -2.53039,3.08469 -5.96875,3.52878 l 0,9.35883 c 0,16.5439 0.13305,29.9654 0.28125,29.8155 237.397134,0 367.795424,-2.7171 522.281254,0.053 l 0,-33.90916 0,-14.57531 c -0.66705,1.34835 -2.29394,3.08678 -4.34375,4.44932 -2.87486,1.91101 -5.44465,2.38221 -5.75,1.07394 -0.30535,-1.30819 1.75014,-3.91907 4.625,-5.83008 1.79679,-1.1944 3.47998,-1.84941 4.5625,-1.84114 0.38679,0 0.68833,0.1249 0.90625,0.30689 l 0,-13.60367 -10.53125,-0.35793 c -1.95355,-0.0742 -3.63013,-0.17339 -5.40625,-0.25571 0.14989,0.46481 0.17724,0.87137 0.0937,1.22735 -0.44529,1.89857 -4.24623,1.29118 -8.5,-1.38083 -0.19401,-0.12187 -0.37353,-0.23203 -0.5625,-0.35794 -5.89867,-0.39506 -12.40349,-0.99182 -20.71875,-1.84113 -1.43294,0.53597 -3.26545,0.86942 -5.28125,0.86942 -3.32234,0 -6.1613,-0.88475 -7.46875,-2.14795 -15.72131,-1.60419 -25.53503,-2.32807 -35.90625,-2.25019 z m -183.84375,8.08034 c 1.30404,0 2.34375,1.64858 2.34375,3.6822 0,2.03362 -1.03971,3.6822 -2.34375,3.6822 -1.30404,0 -2.375,-1.64858 -2.375,-3.6822 0,-2.03362 1.07096,-3.6822 2.375,-3.6822 z m -26.09375,0.1023 c 1.5986,-0.0451 4.09139,0.83592 6.75,2.50589 4.25377,2.67201 7.32029,6.38636 6.875,8.28493 -0.44529,1.89857 -4.24623,1.29118 -8.5,-1.38084 -4.25377,-2.67194 -7.35154,-6.38629 -6.90625,-8.28486 0.16698,-0.71197 0.82209,-1.09816 1.78125,-1.12512 z m -107.21875,1.68765 c 4.55635,0 8.25,1.64858 8.25,3.6822 0,2.03362 -3.69365,3.6822 -8.25,3.6822 -4.55635,0 -8.25,-1.64858 -8.25,-3.6822 0,-2.03362 3.69365,-3.6822 8.25,-3.6822 z m 199.03125,0.71601 c 0.64951,0.007 1.07299,0.27649 1.1875,0.76712 0.30535,1.30826 -1.78139,3.91914 -4.65625,5.83009 -2.87486,1.91101 -5.44465,2.38227 -5.75,1.07401 -0.30535,-1.30827 1.78139,-3.91914 4.65625,-5.83016 1.79679,-1.19433 3.47998,-1.8494 4.5625,-1.84106 z m -106.0625,1.84106 c 0.49649,0.0256 0.83998,0.22908 1,0.66483 0.64007,1.74307 -2.00083,6.28521 -5.90625,10.12606 -3.90542,3.84079 -7.60993,5.5275 -8.25,3.78443 -0.64007,-1.74307 2.03208,-6.28521 5.9375,-10.126 2.92906,-2.88057 5.72929,-4.52639 7.21875,-4.44932 z m 226.59375,2.14796 c 1.49007,-0.0323 4.25979,1.73742 7.15625,4.70503 3.86194,3.95673 6.4719,8.5557 5.8125,10.2794 -0.6594,1.72371 -4.32556,-0.0835 -8.1875,-4.04013 -3.86194,-3.95681 -6.4719,-8.55577 -5.8125,-10.27948 0.16485,-0.43091 0.53456,-0.65399 1.03125,-0.66482 z m 48.25,3.98902 c 1.49007,-0.0323 4.29104,1.73742 7.1875,4.70503 3.86194,3.9568 6.4719,8.55577 5.8125,10.2794 -0.6594,1.72371 -4.32556,-0.0835 -8.1875,-4.04013 -3.86194,-3.95681 -6.4719,-8.55577 -5.8125,-10.27948 0.16485,-0.43091 0.50331,-0.65399 1,-0.66482 z m -203.6875,0.71601 c 1.49007,-0.0323 4.25979,1.73742 7.15625,4.70502 3.86194,3.95674 6.4719,8.55571 5.8125,10.27941 -0.6594,1.7237 -4.32556,-0.0835 -8.1875,-4.0402 -3.86194,-3.95674 -6.4719,-8.5557 -5.8125,-10.27941 0.16485,-0.43091 0.53456,-0.654 1.03125,-0.66482 z m -125.9375,1.27853 c 1.5986,-0.0451 4.06014,0.83593 6.71875,2.50589 4.25377,2.67202 7.35154,6.38636 6.90625,8.28493 -0.44529,1.89857 -4.24623,1.24007 -8.5,-1.43194 -4.25377,-2.67202 -7.35154,-6.33525 -6.90625,-8.23382 0.16698,-0.7119 0.82209,-1.09809 1.78125,-1.12506 z m 265.625,0.25571 c 0.64951,0.007 1.07299,0.22537 1.1875,0.71594 0.30535,1.30826 -1.78139,3.91914 -4.65625,5.83015 -2.87486,1.91102 -5.44465,2.38221 -5.75,1.07395 -0.30535,-1.30827 1.78139,-3.91914 4.65625,-5.83009 1.79679,-1.1944 3.47998,-1.79829 4.5625,-1.78995 z m 45.59375,0.76712 c 1.30404,0 2.375,1.64858 2.375,3.6822 0,2.03355 -1.07096,3.68213 -2.375,3.68213 -1.30404,0 -2.34375,-1.64858 -2.34375,-3.68213 0,-2.03362 1.03971,-3.6822 2.34375,-3.6822 z m -380.21875,2.7616 c 0.64951,0.007 1.07299,0.22538 1.1875,0.71601 0.30535,1.30826 -1.78139,3.91914 -4.65625,5.83015 -2.87486,1.91095 -5.44465,2.43332 -5.75,1.12506 -0.30535,-1.30826 1.78139,-3.91914 4.65625,-5.83009 1.79679,-1.1944 3.47998,-1.8494 4.5625,-1.84113 z m 267.59375,0.30689 c 0.64951,0.007 1.07299,0.22537 1.1875,0.71594 0.30535,1.30826 -1.78139,3.91914 -4.65625,5.83015 -2.87486,1.91101 -5.44465,2.43339 -5.75,1.12513 -0.30535,-1.30827 1.78139,-3.91914 4.65625,-5.83015 1.79679,-1.19434 3.47998,-1.84941 4.5625,-1.84107 z m -174.25,5.52326 c 1.49007,-0.0323 4.25979,1.73743 7.15625,4.70503 3.86194,3.95673 6.4719,8.55573 5.8125,10.27943 -0.6594,1.7237 -4.32556,-0.083 -8.1875,-4.0402 -3.86194,-3.95676 -6.4719,-8.55573 -5.8125,-10.27943 0.16485,-0.43091 0.53456,-0.654 1.03125,-0.66483 z m 155.40625,0.4603 c 0.49649,0.0256 0.83998,0.22901 1,0.66483 0.64007,1.74307 -2.00083,6.28521 -5.90625,10.12603 -3.90542,3.8408 -7.57868,5.5275 -8.21875,3.7845 -0.64007,-1.7432 2.00083,-6.2341 5.90625,-10.07492 2.92906,-2.88064 5.72929,-4.57751 7.21875,-4.50044 z m 52.84375,0.51142 c 1.49007,-0.0323 4.29104,1.73742 7.1875,4.70496 3.86194,3.95678 6.44065,8.55578 5.78125,10.27948 -0.6594,1.7237 -4.32556,-0.084 -8.1875,-4.0402 -3.86194,-3.9567 -6.44065,-8.55578 -5.78125,-10.27942 0.16485,-0.43091 0.50331,-0.65399 1,-0.66482 z m -338.875,1.12506 c 1.5986,-0.0451 4.09139,0.83599 6.75,2.50596 4.25377,2.67201 7.32029,6.33522 6.875,8.23372 -0.44529,1.8986 -4.24623,1.2912 -8.5,-1.3807 -4.25377,-2.6721 -7.35154,-6.3864 -6.90625,-8.28497 0.16698,-0.71197 0.82209,-1.04698 1.78125,-1.07401 z m 217.15625,2.35254 c 1.30404,0 2.34375,1.64858 2.34375,3.68224 0,2.0335 -1.03971,3.6821 -2.34375,3.6821 -1.30404,0 -2.375,-1.6486 -2.375,-3.6821 0,-2.03366 1.07096,-3.68224 2.375,-3.68224 z m 98,1.43195 c 1.49007,-0.0323 4.29104,1.73743 7.1875,4.70499 3.86194,3.9568 6.44065,8.5557 5.78125,10.2794 -0.6594,1.7238 -4.32556,-0.083 -8.1875,-4.0401 -3.86194,-3.9568 -6.44065,-8.5558 -5.78125,-10.27946 0.16485,-0.43091 0.50331,-0.654 1,-0.66483 z m -145.75,0.61371 c 4.55635,0 8.25,1.64858 8.25,3.68218 0,2.0336 -3.69365,3.6822 -8.25,3.6822 -4.55635,0 -8.25,-1.6486 -8.25,-3.6822 0,-2.0336 3.69365,-3.68218 8.25,-3.68218 z m -198.843754,0.92054 c 1.54005,0.14547 4.1919,1.89194 6.9375,4.70504 3.86194,3.9567 6.44065,8.6069 5.78125,10.3306 -0.6594,1.7236 -4.32556,-0.1346 -8.1875,-4.0913 -3.86194,-3.9568 -6.44065,-8.5558 -5.78125,-10.2795 0.12364,-0.32318 0.33978,-0.52986 0.65625,-0.61373 0.17142,-0.0457 0.37374,-0.0718 0.59375,-0.0511 z m 78.531254,0 c 1.49007,-0.0323 4.25979,1.73744 7.15625,4.70504 3.86194,3.9567 6.4719,8.5557 5.8125,10.2794 -0.6594,1.7237 -4.32556,-0.083 -8.1875,-4.0401 -3.86194,-3.9568 -6.4719,-8.5558 -5.8125,-10.2795 0.16485,-0.43093 0.53456,-0.65402 1.03125,-0.66484 z m 147.59375,0.20459 c 4.55635,0 8.25,1.64855 8.25,3.68215 0,2.0336 -3.69365,3.6822 -8.25,3.6822 -4.55635,0 -8.25,-1.6486 -8.25,-3.6822 0,-2.0336 3.69365,-3.68215 8.25,-3.68215 z m -108.8125,4.60275 c 0.49649,0.026 0.83998,0.229 1,0.6648 0.64007,1.7431 -2.00083,6.2852 -5.90625,10.126 -3.90542,3.8408 -7.60993,5.5276 -8.25,3.7845 -0.64007,-1.7431 2.03208,-6.2852 5.9375,-10.1261 2.92906,-2.8805 5.72929,-4.5263 7.21875,-4.4492 z m 174.71875,0.7671 c 0.49649,0.026 0.83998,0.229 1,0.6648 0.64007,1.7431 -2.00083,6.2852 -5.90625,10.126 -3.90542,3.8408 -7.57868,5.5276 -8.21875,3.7845 -0.64007,-1.7431 2.00083,-6.2341 5.90625,-10.0749 2.92906,-2.8806 5.72929,-4.5775 7.21875,-4.5004 z m 164.25,2.3014 c 1.53407,0.1454 4.16065,1.8919 6.90625,4.7049 3.86194,3.9568 6.4719,8.5558 5.8125,10.2795 -0.6594,1.7237 -4.32556,-0.083 -8.1875,-4.0402 -3.86194,-3.9567 -6.4719,-8.5557 -5.8125,-10.2794 0.12364,-0.3232 0.37103,-0.5298 0.6875,-0.6137 0.17142,-0.046 0.3746,-0.072 0.59375,-0.051 z m -49.25,0.8693 c 1.49007,-0.032 4.29104,1.7375 7.1875,4.705 3.86194,3.9569 6.44065,8.5558 5.78125,10.2795 -0.6594,1.7237 -4.32556,-0.083 -8.1875,-4.0402 -3.86194,-3.9568 -6.44065,-8.5558 -5.78125,-10.2794 0.16485,-0.431 0.50331,-0.654 1,-0.6649 z m 36.53125,2.2503 c 0.49649,0.025 0.87123,0.229 1.03125,0.6648 0.64007,1.7431 -2.03208,6.2852 -5.9375,10.126 -3.90542,3.8408 -7.57868,5.5276 -8.21875,3.7845 -0.64007,-1.7431 2.00083,-6.2852 5.90625,-10.126 2.92906,-2.8807 5.72929,-4.5264 7.21875,-4.4493 z m 49.90625,0.9717 c 4.55635,0 8.25,1.6485 8.25,3.6821 0,2.0336 -3.69365,3.6822 -8.25,3.6822 -4.55635,0 -8.25,-1.6486 -8.25,-3.6822 0,-2.0336 3.69365,-3.6821 8.25,-3.6821 z m -102.71875,2.5059 c 1.30404,0 2.34375,1.6486 2.34375,3.6822 0,2.0336 -1.03971,3.6822 -2.34375,3.6822 -1.30404,0 -2.375,-1.6486 -2.375,-3.6822 0,-2.0336 1.07096,-3.6822 2.375,-3.6822 z m -208.9375,4.0913 c 4.55635,0 8.25,1.6486 8.25,3.6822 0,2.0336 -3.69365,3.6822 -8.25,3.6822 -4.55635,0 -8.25,-1.6486 -8.25,-3.6822 0,-2.0336 3.69365,-3.6822 8.25,-3.6822 z m -132.65625,4.4493 c 1.30404,0 2.375,1.6486 2.375,3.6822 0,2.0336 -1.07096,3.6822 -2.375,3.6822 -1.30404,0 -2.34375,-1.6486 -2.34375,-3.6822 0,-2.0336 1.03971,-3.6822 2.34375,-3.6822 z"
         style="fill:#8a916f;fill-opacity:1;stroke:#000000;stroke-width:1.27926815;stroke-linecap:round;stroke-miterlimit:4;stroke-dasharray:none;stroke-dashoffset:0"
         sodipodi:nodetypes="cccssccssccsssccccccsscccscscccccccccscsccccscsccccccsccscccssssscsscscssssscscsccccsssccssccccscccccsssccccssccccssccssssscscsccccsscccsscccccscsccsscsccsccscssssscsccscssssscccsccccsscscsssssccssccccsssccsscscccccscccccssccssssssssssssssssssss" />
    </g>
    <rect
       y="553.85156"
       x="61.22459"
       height="148.49307"
       width="522.56268"
       id="rect4972"
       style="fill:#d5f6ff;fill-opacity:1;stroke:#000000;stroke-width:0.9993366;stroke-linecap:round;stroke-miterlimit:4;stroke-dasharray:none;stroke-dashoffset:0" />
    <g
       transform="matrix(1,0,0,2.4332804,-184,-657.90167)"
       id="g4963">
      <path
         style="fill:#cccccc;stroke:#000000;stroke-width:0.35355338;stroke-linecap:round;stroke-miterlimit:4;stroke-dasharray:none;stroke-dashoffset:0"
         d="m 245.22998,574.50786 0,-18.38021 1.85616,-0.19288 c 1.02088,-0.10608 3.68579,-0.28207 5.92201,-0.39108 2.23623,-0.109 16.87334,-0.90239 32.52692,-1.76308 60.12063,-3.30565 69.14064,-3.47792 110.66221,-2.11351 42.16752,1.38564 61.86144,1.69685 108.18733,1.7096 54.80618,0.0151 92.99636,-0.76515 144.78012,-2.95791 26.42299,-1.11887 34.95013,-0.98286 66.46803,1.06022 19.56749,1.26842 27.76392,1.65826 41.63092,1.98003 l 10.51821,0.24407 0,18.33417 0,18.33417 -6.27557,0.004 c -7.39517,0.004 -15.87027,0.40633 -31.37787,1.48962 -14.58333,1.01873 -40.93692,1.10368 -52.50268,0.16925 -23.52915,-1.901 -84.92045,-3.30496 -128.69343,-2.94309 -30.45393,0.25176 -42.41821,0.48424 -93.33809,1.81365 -18.37594,0.47975 -40.72935,1.05814 -49.67425,1.2853 -21.87128,0.55545 -55.97261,0.55375 -91.76834,-0.005 -23.30921,-0.36372 -33.64064,-0.3733 -48.96284,-0.0455 -10.68096,0.22847 -19.54117,0.49034 -19.68938,0.58194 -0.1482,0.0916 -0.26946,-8.10455 -0.26946,-18.21366 z"
         id="path4960"
         inkscape:connector-curvature="0" />
      <path
         style="fill:#8a916f;fill-opacity:1;stroke:#000000;stroke-width:1;stroke-linecap:round;stroke-miterlimit:4;stroke-dasharray:none;stroke-dashoffset:0"
         d="m 673.50603,549.72265 c -7.03154,0.0322 -14.43513,0.26792 -24.34375,0.6875 -1.44935,0.0614 -2.79003,0.12833 -4.21875,0.1875 -0.84211,0.63773 -2.08068,1.2985 -3.5,1.875 -2.87486,1.16771 -5.4759,1.45566 -5.78125,0.65625 -0.1996,-0.52256 0.6346,-1.38899 2.03125,-2.25 -4.70451,0.18684 -9.34603,0.36818 -13.875,0.53125 0.002,0.0415 0.0312,0.0829 0.0312,0.125 0,1.24264 -1.07096,2.25 -2.375,2.25 -1.29336,0 -2.32692,-0.99016 -2.34375,-2.21875 -5.72721,0.19824 -11.37414,0.36934 -16.9375,0.53125 0.34844,0.19926 0.6769,0.43441 1.03125,0.65625 3.86194,2.41779 6.4719,5.22799 5.8125,6.28125 -0.6594,1.05326 -4.32556,-0.051 -8.1875,-2.46875 -2.30301,-1.44182 -4.14026,-3.01615 -5.125,-4.28125 -25.64704,0.68865 -50.73121,1.00654 -80.15625,1.0625 0.2123,0.45228 0.2586,0.83043 0.0937,1.09375 -0.5094,0.81366 -2.82278,0.31835 -5.625,-1.0625 -1.91191,0.002 -3.70351,5.4e-4 -5.65625,0 -33.58913,-0.009 -53.22591,-0.16242 -77.53125,-0.78125 -0.18693,1.19747 -3.81325,2.15625 -8.25,2.15625 -4.55635,0 -8.25,-1.00736 -8.25,-2.25 0,-0.13591 0.0403,-0.27698 0.125,-0.40625 -4.71969,-0.14261 -8.94025,-0.26199 -14.28125,-0.4375 -6.48441,-0.21308 -12.00127,-0.36796 -17.21875,-0.5 0.70965,0.3637 1.44131,0.78285 2.1875,1.25 3.86194,2.41779 6.4719,5.22799 5.8125,6.28125 -0.6594,1.05326 -4.32556,-0.051 -8.1875,-2.46875 -2.89646,-1.81334 -5.08185,-3.83945 -5.71875,-5.1875 -24.55433,-0.48761 -40.45097,0.16136 -87.53125,2.75 -2.93183,0.1612 -3.30803,0.16007 -6.09375,0.3125 -2.86698,1.35445 -5.2187,1.8321 -5.71875,1 -0.1106,-0.18404 -0.13742,-0.4139 -0.0625,-0.6875 -8.50553,0.46312 -19.23627,1.05579 -20.65625,1.125 -2.23622,0.10901 -4.88537,0.30017 -5.90625,0.40625 l -1.875,0.1875 0,8.34375 c 3.43836,0.27137 5.96875,1.13107 5.96875,2.15625 0,1.02518 -2.53039,1.88488 -5.96875,2.15625 l 0,5.71875 c 0,10.10911 0.13305,18.31035 0.28125,18.21875 0.14821,-0.0916 9.00654,-0.36528 19.6875,-0.59375 15.3222,-0.3278 25.65954,-0.30122 48.96875,0.0625 2.36451,0.0369 4.62206,0.0617 6.96875,0.0937 -0.73151,-0.91129 -1.06011,-1.67958 -0.78125,-2.125 0.16485,-0.26331 0.50331,-0.39962 1,-0.40625 1.41024,-0.0188 3.99044,0.95276 6.71875,2.59375 26.87281,0.31476 51.99196,0.33589 70.5625,0 -1.38876,-0.48233 -3.04094,-1.2738 -4.75,-2.34375 -3.86194,-2.41779 -6.44065,-5.22799 -5.78125,-6.28125 0.16485,-0.26331 0.50331,-0.39962 1,-0.40625 1.49007,-0.0199 4.29104,1.06166 7.1875,2.875 3.6497,2.28492 6.16739,4.92201 5.875,6.09375 1.24035,-0.0266 2.57823,-0.064 3.75,-0.0937 1.65402,-0.042 6.72646,-0.18682 9.1875,-0.25 -0.22728,-0.34724 -0.375,-0.74646 -0.375,-1.1875 0,-1.24264 1.03971,-2.25 2.34375,-2.25 1.30404,0 2.375,1.00736 2.375,2.25 0,0.4008 -0.11779,0.76781 -0.3125,1.09375 10.8984,-0.28052 22.98153,-0.58538 36.46875,-0.9375 1.12645,-0.0294 1.72356,-0.0341 2.8125,-0.0625 -0.40213,-0.63922 -0.55794,-1.18912 -0.34375,-1.53125 0.16485,-0.26331 0.50331,-0.39962 1,-0.40625 1.15657,-0.0154 3.09068,0.6424 5.25,1.78125 22.64939,-0.58502 37.82878,-0.96596 50.3125,-1.1875 -1.40353,-1.36143 -2.12974,-2.54969 -1.75,-3.15625 0.16485,-0.26331 0.53456,-0.39962 1.03125,-0.40625 1.49007,-0.0199 4.25979,1.06166 7.15625,2.875 0.30995,0.19405 0.58222,0.39576 0.875,0.59375 8.33069,-0.12485 16.65371,-0.22697 27,-0.3125 10.83948,-0.0896 22.74851,-0.0764 34.90625,0.0312 0.78971,-0.60395 1.67989,-1.22577 2.65625,-1.8125 2.92906,-1.76019 5.72929,-2.79708 7.21875,-2.75 0.49649,0.0157 0.83998,0.17122 1,0.4375 0.46862,0.77981 -0.83632,2.45371 -3.09375,4.21875 34.53338,0.40875 69.53554,1.48228 86,2.8125 11.56576,0.93443 37.91667,0.86248 52.5,-0.15625 15.5076,-1.08329 23.97983,-1.496 31.375,-1.5 l 6.28125,0 0,-18.34375 0,-8.90625 c -0.66705,0.82388 -2.29394,1.88616 -4.34375,2.71875 -2.87486,1.16771 -5.44465,1.45566 -5.75,0.65625 -0.30535,-0.79941 1.75014,-2.39479 4.625,-3.5625 1.79679,-0.72982 3.47998,-1.13007 4.5625,-1.125 0.38679,0.002 0.68833,0.0763 0.90625,0.1875 l 0,-8.3125 -10.53125,-0.21875 c -1.95355,-0.0453 -3.63013,-0.10595 -5.40625,-0.15625 0.14989,0.28402 0.17724,0.53248 0.0937,0.75 -0.44529,1.16012 -4.24623,0.78897 -8.5,-0.84375 -0.19401,-0.0745 -0.37353,-0.1418 -0.5625,-0.21875 -5.89867,-0.2414 -12.40349,-0.60602 -20.71875,-1.125 -1.43294,0.32749 -3.26545,0.53125 -5.28125,0.53125 -3.32234,0 -6.1613,-0.54063 -7.46875,-1.3125 -15.72131,-0.98025 -25.53503,-1.42257 -35.90625,-1.375 z m -183.84375,4.9375 c 1.30404,0 2.34375,1.00736 2.34375,2.25 0,1.24264 -1.03971,2.25 -2.34375,2.25 -1.30404,0 -2.375,-1.00736 -2.375,-2.25 0,-1.24264 1.07096,-2.25 2.375,-2.25 z m -26.09375,0.0625 c 1.5986,-0.0275 4.09139,0.5108 6.75,1.53125 4.25377,1.63272 7.32029,3.90238 6.875,5.0625 -0.44529,1.16012 -4.24623,0.78897 -8.5,-0.84375 -4.25377,-1.63272 -7.35154,-3.90238 -6.90625,-5.0625 0.16698,-0.43504 0.82209,-0.67101 1.78125,-0.6875 z m -107.21875,1.03125 c 4.55635,0 8.25,1.00736 8.25,2.25 0,1.24264 -3.69365,2.25 -8.25,2.25 -4.55635,0 -8.25,-1.00736 -8.25,-2.25 0,-1.24264 3.69365,-2.25 8.25,-2.25 z m 199.03125,0.4375 c 0.64951,0.003 1.07299,0.16897 1.1875,0.46875 0.30535,0.79941 -1.78139,2.39479 -4.65625,3.5625 -2.87486,1.16771 -5.44465,1.45566 -5.75,0.65625 -0.30535,-0.79941 1.78139,-2.39479 4.65625,-3.5625 1.79679,-0.72982 3.47998,-1.13007 4.5625,-1.125 z m -106.0625,1.125 c 0.49649,0.0157 0.83998,0.13997 1,0.40625 0.64007,1.06511 -2.00083,3.84058 -5.90625,6.1875 -3.90542,2.34692 -7.60993,3.37761 -8.25,2.3125 -0.64007,-1.06511 2.03208,-3.84058 5.9375,-6.1875 2.92906,-1.76019 5.72929,-2.76583 7.21875,-2.71875 z m 226.59375,1.3125 c 1.49007,-0.0199 4.25979,1.06166 7.15625,2.875 3.86194,2.41779 6.4719,5.22799 5.8125,6.28125 -0.6594,1.05326 -4.32556,-0.051 -8.1875,-2.46875 -3.86194,-2.41779 -6.4719,-5.22799 -5.8125,-6.28125 0.16485,-0.26331 0.53456,-0.39962 1.03125,-0.40625 z m 48.25,2.4375 c 1.49007,-0.0199 4.29104,1.06166 7.1875,2.875 3.86194,2.41779 6.4719,5.22799 5.8125,6.28125 -0.6594,1.05326 -4.32556,-0.051 -8.1875,-2.46875 -3.86194,-2.41779 -6.4719,-5.22799 -5.8125,-6.28125 0.16485,-0.26331 0.50331,-0.39962 1,-0.40625 z m -203.6875,0.4375 c 1.49007,-0.0199 4.25979,1.06166 7.15625,2.875 3.86194,2.41779 6.4719,5.22799 5.8125,6.28125 -0.6594,1.05326 -4.32556,-0.051 -8.1875,-2.46875 -3.86194,-2.41779 -6.4719,-5.22799 -5.8125,-6.28125 0.16485,-0.26331 0.53456,-0.39962 1.03125,-0.40625 z m -125.9375,0.78125 c 1.5986,-0.0275 4.06014,0.5108 6.71875,1.53125 4.25377,1.63272 7.35154,3.90238 6.90625,5.0625 -0.44529,1.16012 -4.24623,0.75772 -8.5,-0.875 -4.25377,-1.63272 -7.35154,-3.87113 -6.90625,-5.03125 0.16698,-0.43504 0.82209,-0.67101 1.78125,-0.6875 z m 265.625,0.15625 c 0.64951,0.003 1.07299,0.13772 1.1875,0.4375 0.30535,0.79941 -1.78139,2.39479 -4.65625,3.5625 -2.87486,1.16771 -5.44465,1.45566 -5.75,0.65625 -0.30535,-0.79941 1.78139,-2.39479 4.65625,-3.5625 1.79679,-0.72982 3.47998,-1.09882 4.5625,-1.09375 z m 45.59375,0.46875 c 1.30404,0 2.375,1.00736 2.375,2.25 0,1.24264 -1.07096,2.25 -2.375,2.25 -1.30404,0 -2.34375,-1.00736 -2.34375,-2.25 0,-1.24264 1.03971,-2.25 2.34375,-2.25 z m -380.21875,1.6875 c 0.64951,0.003 1.07299,0.13772 1.1875,0.4375 0.30535,0.79941 -1.78139,2.39479 -4.65625,3.5625 -2.87486,1.16771 -5.44465,1.48691 -5.75,0.6875 -0.30535,-0.79941 1.78139,-2.39479 4.65625,-3.5625 1.79679,-0.72982 3.47998,-1.13007 4.5625,-1.125 z m 267.59375,0.1875 c 0.64951,0.003 1.07299,0.13772 1.1875,0.4375 0.30535,0.79941 -1.78139,2.39479 -4.65625,3.5625 -2.87486,1.16771 -5.44465,1.48691 -5.75,0.6875 -0.30535,-0.79941 1.78139,-2.39479 4.65625,-3.5625 1.79679,-0.72982 3.47998,-1.13007 4.5625,-1.125 z m -174.25,3.375 c 1.49007,-0.0199 4.25979,1.06166 7.15625,2.875 3.86194,2.41779 6.4719,5.22799 5.8125,6.28125 -0.6594,1.05326 -4.32556,-0.051 -8.1875,-2.46875 -3.86194,-2.41779 -6.4719,-5.22799 -5.8125,-6.28125 0.16485,-0.26331 0.53456,-0.39962 1.03125,-0.40625 z m 155.40625,0.28125 c 0.49649,0.0157 0.83998,0.13997 1,0.40625 0.64007,1.06511 -2.00083,3.84058 -5.90625,6.1875 -3.90542,2.34692 -7.57868,3.37761 -8.21875,2.3125 -0.64007,-1.06511 2.00083,-3.80933 5.90625,-6.15625 2.92906,-1.76019 5.72929,-2.79708 7.21875,-2.75 z m 52.84375,0.3125 c 1.49007,-0.0199 4.29104,1.06166 7.1875,2.875 3.86194,2.41779 6.44065,5.22799 5.78125,6.28125 -0.6594,1.05326 -4.32556,-0.051 -8.1875,-2.46875 -3.86194,-2.41779 -6.44065,-5.22799 -5.78125,-6.28125 0.16485,-0.26331 0.50331,-0.39962 1,-0.40625 z m -338.875,0.6875 c 1.5986,-0.0275 4.09139,0.5108 6.75,1.53125 4.25377,1.63272 7.32029,3.87113 6.875,5.03125 -0.44529,1.16012 -4.24623,0.78897 -8.5,-0.84375 -4.25377,-1.63272 -7.35154,-3.90238 -6.90625,-5.0625 0.16698,-0.43504 0.82209,-0.63976 1.78125,-0.65625 z m 217.15625,1.4375 c 1.30404,0 2.34375,1.00736 2.34375,2.25 0,1.24264 -1.03971,2.25 -2.34375,2.25 -1.30404,0 -2.375,-1.00736 -2.375,-2.25 0,-1.24264 1.07096,-2.25 2.375,-2.25 z m 98,0.875 c 1.49007,-0.0199 4.29104,1.06166 7.1875,2.875 3.86194,2.41779 6.44065,5.22799 5.78125,6.28125 -0.6594,1.05326 -4.32556,-0.051 -8.1875,-2.46875 -3.86194,-2.41779 -6.44065,-5.22799 -5.78125,-6.28125 0.16485,-0.26331 0.50331,-0.39962 1,-0.40625 z m -145.75,0.375 c 4.55635,0 8.25,1.00736 8.25,2.25 0,1.24264 -3.69365,2.25 -8.25,2.25 -4.55635,0 -8.25,-1.00736 -8.25,-2.25 0,-1.24264 3.69365,-2.25 8.25,-2.25 z m -198.84375,0.5625 c 1.54005,0.0889 4.1919,1.15611 6.9375,2.875 3.86194,2.41779 6.44065,5.25924 5.78125,6.3125 -0.6594,1.05326 -4.32556,-0.0822 -8.1875,-2.5 -3.86194,-2.41779 -6.44065,-5.22799 -5.78125,-6.28125 0.12364,-0.19749 0.33978,-0.32376 0.65625,-0.375 0.17142,-0.0278 0.37374,-0.0439 0.59375,-0.0312 z m 78.53125,0 c 1.49007,-0.0199 4.25979,1.06166 7.15625,2.875 3.86194,2.41779 6.4719,5.22799 5.8125,6.28125 -0.6594,1.05326 -4.32556,-0.051 -8.1875,-2.46875 -3.86194,-2.41779 -6.4719,-5.22799 -5.8125,-6.28125 0.16485,-0.26331 0.53456,-0.39962 1.03125,-0.40625 z m 147.59375,0.125 c 4.55635,0 8.25,1.00736 8.25,2.25 0,1.24264 -3.69365,2.25 -8.25,2.25 -4.55635,0 -8.25,-1.00736 -8.25,-2.25 0,-1.24264 3.69365,-2.25 8.25,-2.25 z m -108.8125,2.8125 c 0.49649,0.0157 0.83998,0.13997 1,0.40625 0.64007,1.06511 -2.00083,3.84058 -5.90625,6.1875 -3.90542,2.34692 -7.60993,3.37761 -8.25,2.3125 -0.64007,-1.06511 2.03208,-3.84058 5.9375,-6.1875 2.92906,-1.76019 5.72929,-2.76583 7.21875,-2.71875 z m 174.71875,0.46875 c 0.49649,0.0157 0.83998,0.13997 1,0.40625 0.64007,1.06511 -2.00083,3.84058 -5.90625,6.1875 -3.90542,2.34692 -7.57868,3.37761 -8.21875,2.3125 -0.64007,-1.06511 2.00083,-3.80933 5.90625,-6.15625 2.92906,-1.76019 5.72929,-2.79708 7.21875,-2.75 z m 164.25,1.40625 c 1.53407,0.0889 4.16065,1.15611 6.90625,2.875 3.86194,2.41779 6.4719,5.22799 5.8125,6.28125 -0.6594,1.05326 -4.32556,-0.051 -8.1875,-2.46875 -3.86194,-2.41779 -6.4719,-5.22799 -5.8125,-6.28125 0.12364,-0.19749 0.37103,-0.32376 0.6875,-0.375 0.17142,-0.0278 0.3746,-0.0439 0.59375,-0.0312 z m -49.25,0.53125 c 1.49007,-0.0199 4.29104,1.06166 7.1875,2.875 3.86194,2.41779 6.44065,5.22799 5.78125,6.28125 -0.6594,1.05326 -4.32556,-0.051 -8.1875,-2.46875 -3.86194,-2.41779 -6.44065,-5.22799 -5.78125,-6.28125 0.16485,-0.26331 0.50331,-0.39962 1,-0.40625 z m 36.53125,1.375 c 0.49649,0.0157 0.87123,0.13997 1.03125,0.40625 0.64007,1.06511 -2.03208,3.84058 -5.9375,6.1875 -3.90542,2.34692 -7.57868,3.37761 -8.21875,2.3125 -0.64007,-1.06511 2.00083,-3.84058 5.90625,-6.1875 2.92906,-1.76019 5.72929,-2.76583 7.21875,-2.71875 z m 49.90625,0.59375 c 4.55635,0 8.25,1.00736 8.25,2.25 0,1.24264 -3.69365,2.25 -8.25,2.25 -4.55635,0 -8.25,-1.00736 -8.25,-2.25 0,-1.24264 3.69365,-2.25 8.25,-2.25 z m -102.71875,1.53125 c 1.30404,0 2.34375,1.00736 2.34375,2.25 0,1.24264 -1.03971,2.25 -2.34375,2.25 -1.30404,0 -2.375,-1.00736 -2.375,-2.25 0,-1.24264 1.07096,-2.25 2.375,-2.25 z m -208.9375,2.5 c 4.55635,0 8.25,1.00736 8.25,2.25 0,1.24264 -3.69365,2.25 -8.25,2.25 -4.55635,0 -8.25,-1.00736 -8.25,-2.25 0,-1.24264 3.69365,-2.25 8.25,-2.25 z m -132.65625,2.71875 c 1.30404,0 2.375,1.00736 2.375,2.25 0,1.24264 -1.07096,2.25 -2.375,2.25 -1.30404,0 -2.34375,-1.00736 -2.34375,-2.25 0,-1.24264 1.03971,-2.25 2.34375,-2.25 z"
         id="rect3926"
         inkscape:connector-curvature="0" />
    </g>
    <g
       id="g5002">
      <rect
         style="fill:#ffffff;fill-opacity:1;stroke:#000000;stroke-width:1;stroke-linecap:round;stroke-miterlimit:4;stroke-dasharray:1, 3;stroke-dashoffset:0"
         id="rect4998"
         width="18.5"
         height="168"
         x="115"
         y="684.86218" />
      <path
         sodipodi:type="arc"
         style="fill:#ffffff;fill-opacity:1;stroke:#000000;stroke-width:1;stroke-linecap:round;stroke-miterlimit:4;stroke-dasharray:none;stroke-dashoffset:0"
         id="path5000"
         sodipodi:cx="125.75"
         sodipodi:cy="857.86218"
         sodipodi:rx="18.25"
         sodipodi:ry="8.5"
         d="m 144,857.86218 c 0,4.69442 -8.1708,8.5 -18.25,8.5 -10.0792,0 -18.25,-3.80558 -18.25,-8.5 0,-4.69442 8.1708,-8.5 18.25,-8.5 10.0792,0 18.25,3.80558 18.25,8.5 z"
         transform="translate(-1.5,0)" />
    </g>
    <g
       transform="translate(0.25,5)"
       id="g4985">
      <rect
         style="fill:#999999;fill-opacity:1;stroke:#000000;stroke-width:0.89116073;stroke-linecap:round;stroke-miterlimit:4;stroke-dasharray:none;stroke-dashoffset:0"
         id="rect3809"
         width="7.4246211"
         height="73.845299"
         x="120.59921"
         y="680.19604" />
      <rect
         style="fill:#999999;fill-opacity:1;stroke:#000000;stroke-width:1;stroke-linecap:round;stroke-miterlimit:4;stroke-dasharray:none;stroke-dashoffset:0"
         id="rect3805"
         width="5.25"
         height="4.625"
         x="121.68652"
         y="674.32483" />
      <path
         style="fill:#999999;stroke:#000000;stroke-width:1px;stroke-linecap:butt;stroke-linejoin:miter;stroke-opacity:1"
         d="m 112.59962,670.09245 c -6.80815,0 -8.82986,5.44693 -10.3547,7.08405 -1.52484,1.63712 -2.942363,4.44328 -6.135603,4.44892 0,1.23967 0,1.07601 -0.0165,2.53234 5.986013,0.009 7.293923,-3.38011 9.423433,-6.08567 2.12951,-2.70556 2.6546,-5.21403 7.08333,-5.21338 0,-1.25941 0,-1.71383 0,-2.76626 z"
         id="path3784"
         inkscape:connector-curvature="0"
         sodipodi:nodetypes="czcczcc" />
      <rect
         style="fill:#999999;fill-opacity:1;stroke:#000000;stroke-width:1;stroke-linecap:round;stroke-miterlimit:4;stroke-dasharray:none;stroke-dashoffset:0"
         id="rect3776"
         width="2.5253813"
         height="5.9346461"
         x="123.04882"
         y="662.39709" />
      <rect
         style="fill:#999999;fill-opacity:1;stroke:#000000;stroke-width:1;stroke-linecap:round;stroke-miterlimit:4;stroke-dasharray:none;stroke-dashoffset:0"
         id="rect3772"
         width="5.4295697"
         height="2.5253813"
         x="116.67223"
         y="670.30914" />
      <rect
         style="fill:#999999;fill-opacity:1;stroke:#000000;stroke-width:1;stroke-linecap:round;stroke-miterlimit:4;stroke-dasharray:none;stroke-dashoffset:0"
         id="rect3768"
         width="4.0406103"
         height="3.9143412"
         x="127.65765"
         y="669.61469" />
      <path
         sodipodi:type="arc"
         style="fill:#999999;fill-opacity:1;stroke:#000000"
         id="path2996"
         sodipodi:cx="239.97437"
         sodipodi:cy="693.06354"
         sodipodi:rx="4.3562827"
         sodipodi:ry="4.3562827"
         d="m 244.33065,693.06354 c 0,2.40591 -1.95038,4.35628 -4.35628,4.35628 -2.40591,0 -4.35629,-1.95037 -4.35629,-4.35628 0,-2.40591 1.95038,-4.35629 4.35629,-4.35629 2.4059,0 4.35628,1.95038 4.35628,4.35629 z"
         transform="translate(-115.66285,-21.491648)" />
      <path
         sodipodi:type="arc"
         style="fill:#999999;fill-opacity:1;stroke:#000000;stroke-width:1;stroke-linecap:round;stroke-miterlimit:4;stroke-dasharray:none;stroke-dashoffset:0"
         id="path3770"
         sodipodi:cx="148.49243"
         sodipodi:cy="698.30371"
         sodipodi:rx="2.3991122"
         sodipodi:ry="2.3991122"
         d="m 150.89154,698.30371 c 0,1.32499 -1.07412,2.39911 -2.39911,2.39911 -1.32499,0 -2.39911,-1.07412 -2.39911,-2.39911 0,-1.32499 1.07412,-2.39911 2.39911,-2.39911 1.32499,0 2.39911,1.07412 2.39911,2.39911 z"
         transform="translate(-34.451533,-26.731822)" />
      <rect
         style="fill:#999999;fill-opacity:1;stroke:#000000;stroke-width:1;stroke-linecap:round;stroke-miterlimit:4;stroke-dasharray:none;stroke-dashoffset:0"
         id="rect3774"
         width="5.177032"
         height="1.1364216"
         x="111.45238"
         y="667.46814" />
      <path
         sodipodi:type="arc"
         style="fill:#999999;fill-opacity:1;stroke:#000000;stroke-width:1;stroke-linecap:round;stroke-miterlimit:4;stroke-dasharray:none;stroke-dashoffset:0"
         id="path3778"
         sodipodi:cx="156.82619"
         sodipodi:cy="688.45471"
         sodipodi:rx="1.6414979"
         sodipodi:ry="1.6414979"
         d="m 158.46768,688.45471 c 0,0.90658 -0.73492,1.6415 -1.64149,1.6415 -0.90658,0 -1.6415,-0.73492 -1.6415,-1.6415 0,-0.90657 0.73492,-1.6415 1.6415,-1.6415 0.90657,0 1.64149,0.73493 1.64149,1.6415 z"
         transform="translate(-32.514671,-26.03732)" />
      <rect
         style="fill:#999999;fill-opacity:1;stroke:#000000;stroke-width:1;stroke-linecap:round;stroke-miterlimit:4;stroke-dasharray:none;stroke-dashoffset:0"
         id="rect3807"
         width="13.410709"
         height="3.125"
         x="117.60616"
         y="678.82483" />
    </g>
    <g
       transform="matrix(0.70721065,0,0,0.70721065,-458.45724,216.98917)"
       id="g5111">
      <path
         style="fill:#000000"
         d="m 1284.7064,662.79679 c 2.6546,-1.06704 3.1993,-6.39058 0.75,-7.33047 -0.825,-0.31658 -1.5,-1.26472 -1.5,-2.10699 0,-0.84226 0.675,-1.53138 1.5,-1.53138 0.8333,0 1.5,-0.88889 1.5,-2 0,-1.1 -0.6036,-2 -1.3412,-2 -1.9481,0 -1.6334,-9.77765 0.3545,-11.0142 1.2279,-0.76378 1.2676,-1.27828 0.2282,-2.95529 -1.1111,-1.79274 -1.0154,-2.03051 0.8174,-2.03051 1.5773,0 1.9324,0.45196 1.4787,1.88159 -0.3737,1.17742 0.2231,2.80254 1.5947,4.34246 2.045,2.29588 2.383,2.3656 5.0404,1.03993 1.5666,-0.78152 2.5901,-1.83881 2.2744,-2.34953 -0.3156,-0.51072 0.1297,-1.19854 0.9895,-1.5285 1.2448,-0.47767 1.5634,-2.29825 1.5634,-8.93392 0,-4.8435 -0.4484,-8.61111 -1.0706,-8.99564 -0.6284,-0.3884 -0.8313,-2.16789 -0.4912,-4.30901 0.3186,-2.00606 0.7981,-9.02328 1.0655,-15.59383 0.5116,-12.57068 0.8847,-14.67693 3.2366,-18.27481 l 1.4521,-2.22126 3.8115,1.94453 c 2.0964,1.06948 3.9656,2.38038 4.1539,2.91309 0.1882,0.53272 9.1172,1.48312 19.8422,2.11201 10.725,0.62888 24.225,1.44256 30,1.80816 l 10.5,0.66473 0,6.91742 c 0,4.45555 -0.4256,7.05853 -1.1917,7.31391 -1.7147,0.57155 -4.8245,7.60054 -7.2259,16.33246 -2.9428,10.70065 -3.039,10.42548 3.6694,10.50064 9.5218,0.1067 15.6666,1.82028 22.5055,6.27601 7.0648,4.60305 7.7447,4.83651 7.7447,2.65956 0,-0.825 0.675,-1.5 1.5,-1.5 0.825,0 1.5,0.64468 1.5,1.43261 0,0.78794 0.912,1.72207 2.0266,2.07585 3.3551,1.06484 5.4039,5.31746 5.5402,11.49933 0.1566,7.10166 0.7128,7.99221 4.9922,7.99221 3.1567,0 3.441,0.2479 3.441,3 l 0,3 -67.25,-0.0634 c -41.1526,-0.0388 -66.3769,-0.41435 -65,-0.96777 z m 7.25,-2.96884 c 0,-2.33333 0.4444,-3 2,-3 1.6981,0 2,-0.66667 2,-4.41667 0,-2.57139 0.5065,-4.58551 1.2124,-4.8208 0.6668,-0.22227 -0.2784,-1.14785 -2.1005,-2.05684 -3.1772,-1.585 -3.3341,-1.57185 -3.8291,0.3208 -0.2838,1.08543 -1.1386,1.97351 -1.8994,1.97351 -0.7609,0 -1.3834,0.9 -1.3834,2 0,1.11111 0.6667,2 1.5,2 0.8333,0 1.5,0.88889 1.5,2 0,1.11111 -0.6667,2 -1.5,2 -1.0476,0 -1.5,1.05556 -1.5,3.5 0,2.83333 0.381,3.5 2,3.5 1.5556,0 2,-0.66667 2,-3 z m 25.4652,2 c 3.4605,0 4.4038,-0.39102 4.8245,-2 0.2877,-1.1 1.1628,-2 1.9448,-2 1.4447,0 1.7983,-3.01131 4.814,-41 0.5457,-6.875 1.2357,-14.4125 1.5331,-16.75 0.4235,-3.3269 0.2199,-4.25 -0.937,-4.25 -0.8129,0 -1.6279,-0.39841 -1.8113,-0.88534 -0.1833,-0.48694 -4.0006,-1.20478 -8.4829,-1.5952 l -8.1497,-0.70985 -0.5625,2.84519 c -0.3093,1.56486 -0.8525,4.96243 -1.2071,7.55016 -0.4787,3.49376 -1.2883,5.12667 -3.1448,6.3431 -2.8959,1.89744 -4,1.14379 -4.4656,-3.04806 -0.1833,-1.65 -0.4345,4.0875 -0.5581,12.75 -0.1237,8.6625 0.1641,15.75 0.6396,15.75 0.4755,0 1.0999,0.9 1.3875,2 0.3079,1.17707 1.3641,2 2.567,2 1.1242,0 2.4727,0.76624 2.9968,1.70276 0.7916,1.41445 1.2159,1.48453 2.5059,0.41391 1.9082,-1.58367 3.6406,-0.6594 3.6406,1.94235 0,2.15036 -1.1985,2.44028 -3.9658,0.95929 -1.3621,-0.729 -1.9806,-0.6003 -2.4029,0.5 -0.3127,0.81493 -1.4561,1.48169 -2.5409,1.48169 -1.0848,0 -2.2505,0.45 -2.5904,1 -0.3399,0.55 -0.1415,1 0.441,1 0.5824,0 1.059,1.84213 1.059,4.09362 0,3.25262 0.4109,4.20107 2,4.61663 1.2412,0.32459 2,1.36402 2,2.73971 0,2.72317 0.9547,3.78142 2.7796,3.08114 0.7612,-0.29211 3.3197,-0.5311 5.6856,-0.5311 z m 98.2846,-0.75 c 0.3295,-0.98795 -9.2442,-1.25 -45.6665,-1.25 -29.605,0 -46.0833,0.35241 -46.0833,0.98555 0,0.6203 11.3962,1.08355 30.75,1.25 54.8653,0.47184 60.5445,0.38009 60.9998,-0.98555 z m -107.9371,-1 c -0.2749,-1.44079 -1.613,-1.80191 -7.5733,-2.04381 -6.7203,-0.27274 -7.2394,-0.14726 -7.2394,1.75 0,1.8785 0.6126,2.04381 7.5733,2.04381 6.6733,0 7.5337,-0.20799 7.2394,-1.75 z m 21.1898,-2.5 c 0,-0.1375 0.9002,-11.725 1.9975,-25.75 2.2604,-28.89121 2.3115,-30.17612 1.1133,-28 -0.4543,0.825 -1.5814,12.075 -2.5047,25 -0.9233,12.925 -1.8767,24.7375 -2.1187,26.25 -0.2419,1.5125 0,2.75 0.5351,2.75 0.5363,0 0.9761,-0.1125 0.9775,-0.25 z m 19.9975,-0.84887 c 0,-0.60438 -0.7263,-2.62938 -1.6139,-4.5 l -1.614,-3.40113 -7.2853,0 -7.2854,0 -0.3579,4.5 -0.3579,4.5 9.2572,0 c 6.0601,0 9.2572,-0.37951 9.2572,-1.09887 z m 2.6,-1.50113 c -0.3559,-0.92744 -0.8721,-1.46126 -1.1471,-1.18626 -0.275,0.275 -0.2088,1.25882 0.1471,2.18626 0.3559,0.92744 0.8721,1.46126 1.1471,1.18626 0.275,-0.275 0.2088,-1.25882 -0.1471,-2.18626 z m 7.4,-5.95902 c 0,-4.85112 -0.392,-8.31676 -0.9048,-7.99981 -0.4977,0.30757 -0.6721,2.29426 -0.3877,4.41487 0.5713,4.25919 -0.9755,8.14396 -3.2427,8.14396 -1.6466,0 -1.7134,0.1885 -0.8578,2.41821 0.3338,0.86999 1.6838,1.58179 3,1.58179 2.3376,0 2.393,-0.19811 2.393,-8.55902 z m 31.2543,5.30902 c 0.6362,-4.29589 0.065,-5.53355 -3.3755,-7.31267 l -2.8788,-1.48869 0,6.02568 c 0,5.97588 0.024,6.02568 2.8865,6.02568 2.4912,0 2.9524,-0.44512 3.3678,-3.25 z m -86.2543,-1.25 c 0,-3.33333 -0.1667,-3.5 -3.5,-3.5 -3.1765,0 -3.5,0.2619 -3.5,2.83333 0,3.54541 0.6213,4.16667 4.1667,4.16667 2.5714,0 2.8333,-0.32353 2.8333,-3.5 z m 67,-3.5 0,-6 -5,0 -5,0 0,6 0,6 5,0 5,0 0,-6 z m 11.7999,0.25 -0.2999,-5.75 -5,0 -5,0 -0.1442,5.75 -0.1442,5.75 5.4441,0 5.4441,0 -0.2999,-5.75 z m 12.2001,5.35699 c 0,-0.94863 -2.9934,-1.42672 -3.527,-0.56332 -0.3251,0.52598 0.3355,0.95633 1.468,0.95633 1.1324,0 2.059,-0.17686 2.059,-0.39301 z m 13,-0.54797 c 0,-1.73246 -1.7601,-2.053 -3.0091,-0.54801 -1.0284,1.23911 -0.8796,1.48899 0.8867,1.48899 1.1673,0 2.1224,-0.42344 2.1224,-0.94098 z m -3.4545,-2.51357 c 1.5472,-1.54723 2.4545,-3.59708 2.4545,-5.54545 0,-3.47106 -3.7993,-8.00231 -6.7045,-7.99626 -1.2406,0.003 -0.7911,0.61611 1.4545,1.9853 2.6286,1.60267 3.25,2.62397 3.25,5.34127 0,5.9674 -4.1971,7.87521 -11.5,5.22742 -1.7331,-0.62836 -1.6849,-0.44703 0.3608,1.35857 3.2024,2.82653 7.6414,2.67246 10.6847,-0.37085 z m -115.8163,0.85038 c -0.3323,-0.33229 -1.1948,-0.36782 -1.9167,-0.079 -0.7977,0.31923 -0.5608,0.55619 0.6042,0.60417 1.0541,0.0434 1.6448,-0.19293 1.3125,-0.52522 z m 67.5805,-3.80996 c 0.6797,-2.04974 0.6086,-3.48711 -0.24,-4.8458 -0.9759,-1.56278 -0.9068,-2.26259 0.362,-3.6646 2.2854,-2.52536 2.0521,-2.78204 -3.1817,-3.4998 -2.6125,-0.35828 -6.0158,-0.90134 -7.5628,-1.2068 -2.7782,-0.54853 -2.8042,-0.50806 -2.1164,3.28788 1.9988,11.0296 10.2431,17.45548 12.7389,9.92912 z m 45.4678,0.85743 c 1.2224,-0.85619 2.2225,-2.39905 2.2225,-3.42858 0,-2.21587 -2.5514,-5.01472 -4.5714,-5.01472 -1.631,0 -5.4286,3.49782 -5.4286,5 0,1.17809 3.6518,5 4.7775,5 0.4276,0 1.7776,-0.70052 3,-1.5567 z m -5.4159,-1.9433 c -0.8753,-2.28102 0.3499,-4.5 2.4846,-4.5 1.0499,0 2.4691,0.675 3.1538,1.5 1.5649,1.88558 -0.2674,4.5 -3.1538,4.5 -1.0499,0 -2.168,-0.675 -2.4846,-1.5 z m 3.8551,-2.68333 c -1.5276,-1.52752 -2.6547,-0.40039 -1.8075,1.80742 0.5003,1.30358 0.934,1.43275 1.8236,0.54313 0.8896,-0.88963 0.8858,-1.44865 -0.016,-2.35055 z m -4.4024,-3.89245 2.6857,-2.11978 -2.4666,0.34778 c -3.0824,0.43461 -5.7109,4.77111 -4.5102,7.44096 0.7589,1.68757 0.9005,1.59315 1.2315,-0.82118 0.2056,-1.5004 1.5825,-3.6819 3.0596,-4.84778 z m -106.5453,4.41984 c -0.677,-0.27392 -2.027,-0.29059 -3,-0.0371 -0.9729,0.25354 -0.419,0.47766 1.231,0.49804 1.65,0.0204 2.4461,-0.18706 1.769,-0.46099 z m 54.1036,-2.09406 c -1.687,-6.97144 -2.0761,-7.38631 -6.6198,-7.05764 -4.1875,0.30291 -4.2615,0.37315 -4.8219,4.57186 -0.313,2.34532 -0.3505,4.48281 -0.083,4.75 0.2671,0.26718 3.1193,0.48578 6.3381,0.48578 l 5.8524,0 -0.6655,-2.75 z m 46.6274,0.88486 c 0,-1.02583 0.9513,-3.07453 2.114,-4.55266 1.1627,-1.47814 1.9502,-2.80002 1.75,-2.93752 -2.1906,-1.50449 -5.9069,-3.64468 -6.3288,-3.64468 -0.2944,0 -0.5352,0.81399 -0.5352,1.80887 0,0.99488 -0.6607,2.68238 -1.4682,3.75 -2.1141,2.79514 -1.8623,4.97609 0.7182,6.22063 3.2114,1.54882 3.75,1.45623 3.75,-0.64464 z m -86.6241,-1.3661 c 1.5716,-2.49562 -1.649,-5.71622 -4.1447,-4.14463 -2.2274,1.4027 -2.8129,4.38826 -1.0796,5.50479 1.8842,1.2137 3.9406,0.67831 5.2243,-1.36016 z m -15.0143,-1.26876 c -0.3166,-0.825 -0.7043,-1.5 -0.8616,-1.5 -0.1573,0 -0.545,0.675 -0.8616,1.5 -0.3471,0.90455 -0.01,1.5 0.8616,1.5 0.8667,0 1.2087,-0.59545 0.8616,-1.5 z m 18.3215,-0.6875 c -0.3192,-0.79773 -0.5562,-0.56078 -0.6042,0.60417 -0.043,1.05416 0.193,1.64479 0.5253,1.3125 0.3323,-0.33229 0.3678,-1.1948 0.079,-1.91667 z m 7.3169,1.1875 c 0,-0.55 -0.4766,-1 -1.059,-1 -0.5825,0 -0.7809,0.45 -0.441,1 0.3399,0.55 0.8165,1 1.059,1 0.2426,0 0.441,-0.45 0.441,-1 z m 69,-3.10699 c 0,-0.60884 -0.675,-0.84797 -1.5,-0.53138 -2.1877,0.83949 -4.5441,-0.33467 -5.5203,-2.75073 -0.7673,-1.89905 -0.8593,-1.82194 -0.9163,0.76831 l -0.063,2.87921 -7,-0.68976 c -4.7,-0.46313 -7,-0.3413 -7,0.37079 0,0.68312 3.9146,1.06055 11,1.06055 7.3754,0 11,-0.36476 11,-1.10699 z m -93.731,-0.54895 c -0.677,-0.27392 -2.027,-0.29059 -3,-0.0371 -0.9729,0.25354 -0.419,0.47766 1.231,0.49804 1.65,0.0204 2.4461,-0.18706 1.769,-0.46099 z m 84.7157,-5.50616 c 0.014,-2.365 -0.459,-2.73587 -4.2347,-3.32305 -2.3375,-0.36352 -5.0375,-0.8834 -6,-1.15529 -1.3355,-0.37726 -1.75,0.10439 -1.75,2.03363 0,1.39037 -0.6308,3.1082 -1.4017,3.81738 -1.1632,1.06996 -0.2696,1.46683 5.25,2.33169 7.2888,1.14209 8.1107,0.7679 8.1364,-3.70436 z m 11.0461,-0.67602 c -0.7396,-1.26721 -0.9622,-0.71195 -0.937,2.33812 0.029,3.49852 0.1504,3.70687 0.97,1.66188 0.5907,-1.47402 0.5785,-2.95231 -0.033,-4 z m -3.2184,2.57361 c 0.4112,-2.13526 -2.699,-3.53694 -3.8208,-1.72189 -1.1536,1.86649 -0.026,4.13959 1.8727,3.77401 0.887,-0.17082 1.7637,-1.09427 1.9481,-2.05212 z m -40.2211,-3.89011 c -0.886,-5.54037 -1.1547,-5.84538 -5.1503,-5.84538 -2.6979,0 -3.441,0.40494 -3.441,1.875 0,1.03125 -0.2812,3.28125 -0.625,5 l -0.625,3.125 5.2528,0 5.2528,0 -0.6643,-4.15462 z m 13.4195,2.66761 c -0.6865,-0.82714 -0.9646,-2.5608 -0.6268,-3.90676 0.5678,-2.26244 0.2784,-2.46499 -4.4524,-3.11563 -2.7828,-0.38274 -5.2985,-0.45707 -5.5904,-0.16518 -0.2918,0.29188 -0.6005,2.02557 -0.6859,3.85264 -0.1469,3.1426 0.061,3.35477 3.8447,3.93004 7.6304,1.16 8.8849,1.0606 7.5108,-0.59511 z m 4.9786,-1.00025 c 1.517,-1.82781 0.6308,-4.51274 -1.4894,-4.51274 -1.8349,0 -2.9581,2.36374 -2.1384,4.5 0.7313,1.90573 2.0529,1.91037 3.6278,0.0127 z m 18.4458,-2.61752 c -0.8726,-1.41193 -2.4352,-1.04399 -2.4352,0.57339 0,0.89209 0.5866,1.24352 1.4943,0.89522 0.8218,-0.31537 1.2452,-0.97625 0.9409,-1.46861 z m -7.706,-2.49939 c -0.3323,-0.33229 -1.1948,-0.36782 -1.9167,-0.079 -0.7977,0.31923 -0.5608,0.55619 0.6042,0.60417 1.0541,0.0434 1.6448,-0.19293 1.3125,-0.52522 z m -30.3853,-13.4866 c -2.7404,-11.70625 -3.0181,-12.5684 -3.7966,-11.78989 -0.3955,0.39551 0.9933,6.53501 4.5767,20.2316 0.5541,2.11802 1.2062,3.65217 1.4492,3.40923 0.2429,-0.24293 -0.7603,-5.57586 -2.2293,-11.85094 z m 17.6561,10.24441 c 0,-1.0155 0.7066,-3.26286 1.5703,-4.99414 5.4457,-10.91615 -6.2242,-10.2974 -12.3551,0.65508 l -2.2849,4.08172 3.7849,0.63374 c 2.0816,0.34856 4.2348,0.78637 4.7848,0.97291 2.685,0.91065 4.5,0.36645 4.5,-1.34931 z m -19,-3.19812 c 0,-2.16575 -3.3116,-14.49529 -4.1377,-15.40552 -0.4913,-0.54122 -0.8623,2.11293 -0.8623,6.16821 0,3.91502 -0.2731,7.83002 -0.607,8.7 -0.4732,1.23322 0.078,1.58179 2.5,1.58179 1.7089,0 3.107,-0.47002 3.107,-1.04448 z m 15.2034,-10.26563 c 2.9517,-1.44269 4.1363,-1.57848 5.8357,-0.66898 1.1727,0.62762 2.3486,0.92471 2.6131,0.6602 0.9254,-0.92538 1.3891,-13.19303 0.5465,-14.45845 -1.0714,-1.60903 -23.0287,-2.81633 -25.1083,-1.38056 -1.1246,0.77642 -1.1818,1.54786 -0.2832,3.81554 0.6194,1.5633 2.0707,6.89236 3.2249,11.84236 1.1543,4.95 2.2977,9.60823 2.5409,10.35162 0.2652,0.81043 1.7405,-0.59099 3.6846,-3.5 1.892,-2.831 4.7848,-5.6055 6.9458,-6.66173 z m -53.5203,2.12261 c -0.3192,-0.79773 -0.5562,-0.56078 -0.6042,0.60417 -0.043,1.05416 0.193,1.64479 0.5253,1.3125 0.3323,-0.33229 0.3678,-1.1948 0.079,-1.91667 z m 5.8937,-5.93677 c 1.1485,-1.85826 3.3825,-16.00861 3.4035,-21.55834 0.017,-4.45148 -0.287,-5.27995 -2.1541,-5.87255 -2.9668,-0.94162 -4.5466,1.46894 -5.3908,8.22556 -0.6463,5.1734 0.046,15.81345 1.2289,18.89712 0.6589,1.71702 1.9569,1.85438 2.9125,0.30821 z m 60.9742,-4.34361 c 1.6505,-3.95019 1.8667,-6.53212 0.5468,-6.53212 -1.04,0 -3.0978,5.41337 -3.0978,8.14922 0,2.82193 0.9471,2.22154 2.551,-1.6171 z m -30.7379,-3.28212 c -0.1834,-0.9625 -1.3414,-1.8938 -2.5733,-2.06955 -1.7012,-0.2427 -2.2398,0.17815 -2.2398,1.75 0,1.55658 0.6378,2.06955 2.5733,2.06955 1.9112,0 2.4875,-0.45029 2.2398,-1.75 z m -2.3131,-4.25 c 0.3399,-0.55 0.1415,-1 -0.441,-1 -0.5824,0 -1.059,0.45 -1.059,1 0,0.55 0.1984,1 0.441,1 0.2425,0 0.7191,-0.45 1.059,-1 z m 35.5,-4.38337 c 0,-2.48577 -0.5052,-3.51549 -1.9044,-3.88139 -1.5502,-0.40537 -1.9786,0.13671 -2.3028,2.91394 -0.4521,3.8729 -0.1914,4.35082 2.3739,4.35082 1.4165,0 1.8333,-0.76919 1.8333,-3.38337 z m -6,-1.11663 c 0,-3.45017 -0.061,-3.50007 -4.25,-3.50517 -2.3375,-0.003 -8.6375,-0.29572 -14,-0.65083 l -9.75,-0.64565 0,3.60311 0,3.60311 6.25,0.35503 c 3.4375,0.19527 9.7375,0.44175 14,0.54772 l 7.75,0.19268 0,-3.5 z m -32,-0.89301 c 0,-4.24551 -0.9088,-4.60699 -11.5818,-4.60699 -8.3127,0 -8.4182,0.0313 -8.4182,2.5 0,1.375 0,2.8375 -0.01,3.25 -0.01,0.4125 3.9317,1.00246 8.75,1.31103 4.8182,0.30857 9.3229,0.64607 10.0104,0.75 0.7915,0.11966 1.25,-1.05552 1.25,-3.20404 z"
         id="path5043"
         inkscape:connector-curvature="0" />
      <path
         style="fill:#999999;fill-opacity:1;stroke:#999999;stroke-width:0.25;stroke-linecap:round;stroke-miterlimit:4;stroke-dasharray:none;stroke-dashoffset:0"
         d="m 1304.5254,608.38866 c -0.7563,-0.52974 -1.2551,-2.28015 -1.6733,-5.87156 -1.0526,-9.03949 -0.5871,-16.66928 1.2364,-20.26779 0.3337,-0.65857 0.8589,-1.37398 1.167,-1.58981 1.3852,-0.97027 3.8365,-0.0482 4.2739,1.6076 0.6535,2.47414 -0.3374,13.31647 -1.9241,21.05287 -0.8854,4.31712 -1.8609,5.92252 -3.0799,5.06869 z"
         id="path5051"
         inkscape:connector-curvature="0" />
      <path
         style="fill:#999999;fill-opacity:1;stroke:#999999;stroke-width:0.25;stroke-linecap:round;stroke-miterlimit:4;stroke-dasharray:none;stroke-dashoffset:0"
         d="m 1323.0795,591.97085 c -7.1339,-0.57173 -8.5052,-0.72838 -10.2211,-1.16756 l -0.9712,-0.24856 0.1286,-2.25484 c 0.091,-1.59033 0.2454,-2.37167 0.525,-2.65126 0.5823,-0.58234 5.7428,-0.84268 11.6556,-0.58801 6.974,0.30038 7.5475,0.62574 7.5475,4.28148 0,2.17594 -0.4213,3.2765 -1.2327,3.21987 -0.2375,-0.0166 -3.5817,-0.28258 -7.4317,-0.59112 z"
         id="path5053"
         inkscape:connector-curvature="0" />
      <path
         style="fill:#999999;fill-opacity:1;stroke:#999999;stroke-width:0.25;stroke-linecap:round;stroke-miterlimit:4;stroke-dasharray:none;stroke-dashoffset:0"
         d="m 1347.2045,593.19842 c -4.1938,-0.17817 -8.4407,-0.39709 -9.4375,-0.48647 l -1.8125,-0.16251 0,-3.48085 0,-3.48086 1.3125,0.13154 c 2.5706,0.25761 13.6566,0.89272 19.4375,1.11355 3.2312,0.12344 6.0631,0.29722 6.2931,0.38619 0.5982,0.23139 0.6798,0.57384 0.8657,3.63364 l 0.1663,2.73945 -4.6,-0.0349 c -2.5301,-0.0192 -8.0314,-0.18064 -12.2251,-0.35882 z"
         id="path5055"
         inkscape:connector-curvature="0" />
      <path
         style="fill:#999999;fill-opacity:1;stroke:#999999;stroke-width:0.25;stroke-linecap:round;stroke-miterlimit:4;stroke-dasharray:none;stroke-dashoffset:0"
         d="m 1398.7037,647.7078 c -0.5957,-0.977 -0.6432,-2.00999 -0.1127,-2.45028 0.3202,-0.26571 0.4993,-0.23661 1.0432,0.16943 1.016,0.75858 1.2218,1.21487 0.8561,1.89818 -0.1738,0.32481 -0.535,0.72733 -0.8027,0.89447 -0.4275,0.26697 -0.547,0.20478 -0.9839,-0.5118 l 0,0 z"
         id="path5059"
         inkscape:connector-curvature="0" />
      <path
         style="fill:#999999;fill-opacity:1;stroke:#999999;stroke-width:0.25;stroke-linecap:round;stroke-miterlimit:4;stroke-dasharray:none;stroke-dashoffset:0"
         d="m 1397.2082,650.72023 c -1.6177,-1.35157 -3.0037,-3.15522 -3.0037,-3.90883 0,-1.16453 2.7472,-4.00539 4.5283,-4.68253 1.3184,-0.50127 3.5067,0.84533 4.4946,2.76577 0.7356,1.43017 0.627,2.71204 -0.3369,3.97583 -0.884,1.15892 -3.2349,2.71894 -4.0999,2.7206 -0.2963,5.7e-4 -1.0084,-0.39131 -1.5824,-0.87084 l 0,0 z m 3.5835,-1.2614 c 1.7734,-0.86279 2.3461,-2.97106 1.1571,-4.25986 -1.3858,-1.50212 -3.724,-1.81478 -5.0058,-0.66937 -1.3681,1.22245 -1.2556,3.97107 0.1993,4.87316 0.8597,0.53302 2.6137,0.55997 3.6494,0.0561 l 0,0 z"
         id="path5061"
         inkscape:connector-curvature="0" />
      <path
         style="fill:#999999;fill-opacity:1;stroke:#999999;stroke-width:0.25;stroke-linecap:round;stroke-miterlimit:4;stroke-dasharray:none;stroke-dashoffset:0"
         d="m 1396.629,654.23112 c -1.0965,-0.39109 -2.6014,-1.38786 -3.4348,-2.27491 -0.7017,-0.74692 -0.7055,-0.74675 1.4214,-0.0639 2.2647,0.72708 6.3026,0.79958 7.5184,0.13498 1.9399,-1.06049 2.8205,-2.88323 2.8205,-5.83848 0,-2.91722 -0.4047,-3.57679 -3.4686,-5.65401 -1.2423,-0.84227 -1.7409,-1.31325 -1.529,-1.44424 0.7734,-0.47796 2.9796,0.7114 4.4786,2.41434 1.4591,1.65759 2.1132,3.17241 2.2283,5.1608 0.087,1.50996 0.011,1.87642 -0.6897,3.29934 -1.7736,3.60266 -5.9105,5.49116 -9.3451,4.26605 l 0,0 z"
         id="path5063"
         inkscape:connector-curvature="0" />
      <path
         style="fill:#999999;fill-opacity:1;stroke:#999999;stroke-width:0.125;stroke-linecap:round;stroke-miterlimit:4;stroke-dasharray:none;stroke-dashoffset:0"
         d="m 1327.7712,657.64434 c -0.364,-0.43854 -0.3979,-1.34064 -0.1434,-3.81179 0.2926,-2.84045 0.6168,-6.7013 1.0668,-12.70523 0.9806,-13.08063 1.6077,-21.09086 1.9425,-24.8125 0.4479,-4.97735 1.065,-10.48343 1.3054,-11.64765 0.1852,-0.89667 0.5108,-1.52529 0.7224,-1.39453 0.1924,0.11891 0.034,4.67192 -0.344,9.85468 -0.5903,8.10558 -3.4165,44.45691 -3.4592,44.49218 -0.1629,0.13482 -0.9838,0.15352 -1.0905,0.0248 z"
         id="path5067"
         inkscape:connector-curvature="0" />
      <path
         style="fill:#999999;fill-opacity:1;stroke:#999999;stroke-width:0.125;stroke-linecap:round;stroke-miterlimit:4;stroke-dasharray:none;stroke-dashoffset:0"
         d="m 1342.2239,626.19368 c -0.3612,-0.55378 -0.8936,-2.30084 -1.9706,-6.46636 -2.3345,-9.02885 -3.8085,-15.53728 -3.7211,-16.43063 0.053,-0.54197 0.4459,-0.51232 0.7373,0.0556 0.8832,1.72161 5.404,21.60083 5.2125,22.9213 -0.035,0.23994 -0.053,0.23426 -0.2581,-0.0799 l 0,0 z"
         id="path5069"
         inkscape:connector-curvature="0" />
      <path
         style="fill:#999999;fill-opacity:1;stroke:#999999;stroke-width:0.25;stroke-linecap:round;stroke-miterlimit:4;stroke-dasharray:none;stroke-dashoffset:0"
         d="m 1352.924,626.12444 c -0.7562,-0.1849 -2.7812,-0.58773 -4.5,-0.89519 -1.7187,-0.30745 -3.1654,-0.58727 -3.2148,-0.62182 -0.2043,-0.14286 3.1116,-5.65517 4.2428,-7.05314 3.7532,-4.63862 9.1883,-6.73002 10.8599,-4.17888 0.7682,1.1725 0.5199,3.04838 -0.8549,6.45795 -0.6798,1.68576 -1.3595,3.73834 -1.5105,4.56128 -0.1558,0.84926 -0.4569,1.6314 -0.6963,1.80877 -0.5325,0.39457 -2.5392,0.35794 -4.3262,-0.079 z"
         id="path5071"
         inkscape:connector-curvature="0" />
      <path
         style="fill:#999999;fill-opacity:1;stroke:#999999;stroke-width:0.25;stroke-linecap:round;stroke-miterlimit:4;stroke-dasharray:none;stroke-dashoffset:0"
         d="m 1348.5858,634.98676 c -3.8895,-0.58658 -4.5773,-0.89151 -4.8101,-2.13227 -0.2752,-1.46697 0.2605,-5.11896 0.8104,-5.52441 0.5229,-0.38557 2.5557,-0.28076 6.5781,0.33914 3.1331,0.48285 3.2802,0.62932 3.0914,3.07748 -0.1255,1.62739 -0.066,2.10617 0.3851,3.12718 0.2933,0.66307 0.5333,1.30379 0.5333,1.42381 0,0.35641 -3.1485,0.20782 -6.5882,-0.31093 z"
         id="path5073"
         inkscape:connector-curvature="0" />
      <path
         style="fill:#999999;fill-opacity:1;stroke:#999999;stroke-width:0.25;stroke-linecap:round;stroke-miterlimit:4;stroke-dasharray:none;stroke-dashoffset:0"
         d="m 1356.7934,633.91735 c -0.8964,-1.36797 -0.657,-3.74651 0.4554,-4.52566 1.7371,-1.21675 3.9339,0.7419 3.1537,2.81183 -0.1425,0.37806 -0.6118,1.05302 -1.0429,1.49989 -0.9681,1.0037 -1.9928,1.08912 -2.5662,0.21394 z"
         id="path5075"
         inkscape:connector-curvature="0" />
      <path
         style="fill:#999999;fill-opacity:1;stroke:#999999;stroke-width:0.25;stroke-linecap:round;stroke-miterlimit:4;stroke-dasharray:none;stroke-dashoffset:0"
         d="m 1366.0242,637.26351 c -3.2927,-0.49862 -5.0599,-0.91111 -5.5208,-1.28866 -0.2195,-0.17978 -0.1061,-0.51163 0.44,-1.28805 0.4935,-0.70151 0.8216,-1.58096 0.9967,-2.67089 0.4284,-2.66752 0.458,-2.75 0.9867,-2.75 0.4263,0 2.1393,0.31071 8.4018,1.52391 0.7038,0.13634 1.4696,0.38674 1.7016,0.55644 0.6114,0.44703 0.8982,2.07193 0.6667,3.77677 -0.3771,2.77651 -1.4662,3.08035 -7.6727,2.14048 l 0,0 z"
         id="path5077"
         inkscape:connector-curvature="0" />
      <path
         style="fill:#999999;fill-opacity:1;stroke:#999999;stroke-width:0.25;stroke-linecap:round;stroke-miterlimit:4;stroke-dasharray:none;stroke-dashoffset:0"
         d="m 1350.9097,652.02358 c -1.71,-0.90409 -3.7248,-3.25913 -5.074,-5.93088 -1.5551,-3.0793 -3.0018,-9.09376 -2.3454,-9.7502 0.2633,-0.26326 1.4683,-0.13926 6.5656,0.67556 5.9973,0.95871 7.6181,1.33176 7.6181,1.75341 0,0.10719 -0.4881,0.85292 -1.0848,1.65717 -1.3967,1.88261 -1.4812,2.15567 -1.0358,3.34635 0.2038,0.54501 0.5449,1.45859 0.7579,2.03018 0.3143,0.84342 0.3361,1.2792 0.1155,2.3125 -0.7962,3.7304 -2.9565,5.25979 -5.5171,3.90591 z"
         id="path5079"
         inkscape:connector-curvature="0" />
      <path
         style="fill:#999999;fill-opacity:1;stroke:#999999;stroke-width:0.25;stroke-linecap:round;stroke-miterlimit:4;stroke-dasharray:none;stroke-dashoffset:0"
         d="m 1361.174,649.89091 0,-5.875 4.875,0 4.875,0 0,5.875 0,5.875 -4.875,0 -4.875,0 0,-5.875 z"
         id="path5081"
         inkscape:connector-curvature="0" />
      <path
         style="fill:#999999;fill-opacity:1;stroke:#999999;stroke-width:0.08838835;stroke-linecap:round;stroke-miterlimit:4;stroke-dasharray:none;stroke-dashoffset:0"
         d="m 1365.6526,640.64625 c -2.5116,-0.14139 -4.2237,-0.42584 -4.5546,-0.75673 -0.1322,-0.13222 -0.1301,-0.15658 0.027,-0.31346 0.2328,-0.23287 0.6821,-0.32619 1.8761,-0.38978 1.1797,-0.0628 3.1814,0.078 8.3739,0.58924 1.9561,0.19258 3.5705,0.35015 3.5876,0.35015 0.017,0 0.057,-1.02923 0.088,-2.28719 0.058,-2.30571 0.1135,-2.7893 0.2957,-2.55984 0.052,0.065 0.2624,0.50556 0.4683,0.97892 0.7097,1.63118 1.6522,2.58281 3.0079,3.03692 0.69,0.23116 1.7989,0.21097 2.6313,-0.0479 0.675,-0.20995 0.9971,-0.19485 1.2798,0.06 0.085,0.0767 0.1547,0.23164 0.1547,0.34439 0,0.51851 -1.4131,0.8158 -4.773,1.00415 -1.8162,0.10182 -10.6076,0.0956 -12.4627,-0.009 l 0,0 z"
         id="path5083"
         inkscape:connector-curvature="0" />
      <path
         style="fill:#999999;fill-opacity:1;stroke:#999999;stroke-width:0.08838835;stroke-linecap:round;stroke-miterlimit:4;stroke-dasharray:none;stroke-dashoffset:0"
         d="m 1376.2862,632.04579 c -0.2192,-0.18856 -0.2479,-0.2732 -0.2474,-0.7292 7e-4,-0.62122 0.1606,-0.96924 0.5739,-1.24899 0.381,-0.2578 0.7631,-0.21975 1.209,0.1204 0.6685,0.5099 0.7719,0.99414 0.3148,1.47471 -0.5544,0.58283 -1.4117,0.76033 -1.8503,0.38308 z"
         id="path5085"
         inkscape:connector-curvature="0" />
      <path
         style="fill:#999999;fill-opacity:1;stroke:#999999;stroke-width:0.08838835;stroke-linecap:round;stroke-miterlimit:4;stroke-dasharray:none;stroke-dashoffset:0"
         d="m 1368.7973,628.65026 c -0.1907,-0.0326 -0.3613,-0.10372 -0.3791,-0.15804 -0.1025,-0.31166 1.5416,-0.61202 2.0066,-0.36658 0.2706,0.14289 0.3294,0.37738 0.1156,0.46142 -0.2331,0.0916 -1.3418,0.13183 -1.7431,0.0632 z"
         id="path5087"
         inkscape:connector-curvature="0" />
      <path
         style="fill:#999999;fill-opacity:1;stroke:#999999;stroke-width:0.08838835;stroke-linecap:round;stroke-miterlimit:4;stroke-dasharray:none;stroke-dashoffset:0"
         d="m 1379.2202,637.58939 c -0.097,-0.0186 -0.2673,-0.0532 -0.3779,-0.0769 -0.3174,-0.0679 -0.9121,-0.66209 -1.0993,-1.09849 -0.259,-0.60379 -0.2434,-1.52241 0.036,-2.12974 0.4173,-0.90661 1.0251,-1.2928 1.8938,-1.20315 1.1739,0.12116 2.0695,1.05741 2.0644,2.15822 -0.01,1.21571 -1.4413,2.55613 -2.5171,2.35002 z"
         id="path5089"
         inkscape:connector-curvature="0" />
      <path
         style="fill:#999999;fill-opacity:1;stroke:#999999;stroke-width:0.125;stroke-linecap:round;stroke-miterlimit:4;stroke-dasharray:none;stroke-dashoffset:0"
         d="m 1384.1808,637.53645 c -0.1097,-0.87872 -0.026,-4.7317 0.1071,-4.93803 0.1456,-0.22537 0.4036,0.004 0.7355,0.65395 0.3594,0.70374 0.4274,1.92611 0.1635,2.93694 -0.1905,0.72956 -0.7458,2.00893 -0.872,2.00893 -0.028,0 -0.089,-0.29781 -0.1341,-0.66179 z"
         id="path5093"
         inkscape:connector-curvature="0" />
      <path
         style="fill:#999999;fill-opacity:1;stroke:#999999;stroke-width:0.125;stroke-linecap:round;stroke-miterlimit:4;stroke-dasharray:none;stroke-dashoffset:0"
         d="m 1372.2917,652.82949 c 0.045,-1.59844 0.1176,-4.15782 0.1612,-5.6875 l 0.079,-2.78125 4.9102,0 4.9101,0 0.069,0.65625 c 0.038,0.36093 0.1551,2.42812 0.2604,4.59375 0.1052,2.16562 0.2262,4.42968 0.2687,5.03125 l 0.077,1.09375 -5.4091,0 -5.409,0 0.082,-2.90625 z"
         id="path5095"
         inkscape:connector-curvature="0" />
      <path
         style="fill:#999999;fill-opacity:1;stroke:#999999;stroke-width:0.0625;stroke-linecap:round;stroke-miterlimit:4;stroke-dasharray:none;stroke-dashoffset:0"
         d="m 1391.941,648.26724 c -0.095,-0.14834 -0.2823,-0.53582 -0.417,-0.86105 -0.2146,-0.51791 -0.249,-0.67078 -0.2776,-1.23097 -0.019,-0.37948 0,-0.79989 0.042,-1.03366 0.4365,-2.30671 2.293,-4.51082 4.226,-5.01747 0.4195,-0.10994 2.5697,-0.42568 2.6704,-0.39211 0.036,0.0119 -0.4664,0.43968 -1.116,0.95056 -0.6496,0.51088 -1.3903,1.11419 -1.6459,1.34068 -1.0065,0.89179 -1.9993,2.33403 -2.4722,3.59147 -0.089,0.23631 -0.2437,0.90512 -0.3442,1.48625 -0.2523,1.4603 -0.3588,1.64693 -0.6654,1.1663 l 0,0 z"
         id="path5097"
         inkscape:connector-curvature="0" />
      <path
         style="fill:#999999;fill-opacity:1;stroke:#999999;stroke-width:0.0625;stroke-linecap:round;stroke-miterlimit:4;stroke-dasharray:none;stroke-dashoffset:0"
         d="m 1391.9905,655.66356 c -0.3616,-0.12962 -0.5343,-0.27202 -0.6011,-0.4957 -0.057,-0.19026 0.2879,-0.53838 0.6261,-0.63229 0.3407,-0.0946 1.1721,-0.0827 1.615,0.023 0.7616,0.18191 1.4085,0.64072 1.2523,0.8883 -0.1162,0.18419 -0.59,0.27561 -1.589,0.30658 -0.8462,0.0262 -1.011,0.0149 -1.3033,-0.0899 z"
         id="path5099"
         inkscape:connector-curvature="0" />
      <path
         style="fill:#999999;fill-opacity:1;stroke:#999999;stroke-width:0.0625;stroke-linecap:round;stroke-miterlimit:4;stroke-dasharray:none;stroke-dashoffset:0"
         d="m 1404.6748,655.69713 c -0.4421,-0.15503 -0.4186,-0.38235 0.1123,-1.08683 0.8102,-1.07501 1.8461,-1.47374 2.5752,-0.99123 0.4582,0.3032 0.7082,1.20191 0.4318,1.55208 -0.3159,0.40018 -1.0554,0.607 -2.1565,0.60318 -0.4133,-10e-4 -0.8455,-0.0361 -0.9628,-0.0772 z"
         id="path5101"
         inkscape:connector-curvature="0" />
      <path
         style="fill:#999999;fill-opacity:1;stroke:#999999;stroke-width:0.25;stroke-linecap:round;stroke-miterlimit:4;stroke-dasharray:none;stroke-dashoffset:0"
         d="m 1348.5862,661.86175 c -17.247,-0.22916 -27.0221,-0.77507 -22.625,-1.26355 3.7748,-0.41935 37.1211,-0.77602 58.375,-0.62438 21.2769,0.15181 29.4725,0.38162 30.7735,0.86289 l 0.583,0.21565 -0.5854,0.3133 c -0.322,0.17231 -1.6678,0.41008 -2.9908,0.52837 -2.8088,0.25114 -43.7658,0.23034 -63.5303,-0.0323 z"
         id="path5103"
         inkscape:connector-curvature="0" />
      <path
         style="fill:#999999;fill-opacity:1;stroke:#999999;stroke-width:0.25;stroke-linecap:round;stroke-miterlimit:4;stroke-dasharray:none;stroke-dashoffset:0"
         d="m 1366.2108,594.28254 c -0.5122,-0.37452 -0.5898,-1.64406 -0.2613,-4.27338 0.2336,-1.86952 0.7745,-2.50582 1.9438,-2.28645 1.4243,0.26719 1.8179,1.09072 1.8179,3.8033 0,1.55998 -0.1077,2.4039 -0.3431,2.6875 -0.4289,0.51678 -2.4836,0.5617 -3.1573,0.069 l 0,0 z"
         id="path5105"
         inkscape:connector-curvature="0" />
      <path
         style="fill:#999999;fill-opacity:1;stroke:#999999;stroke-width:0.25;stroke-linecap:round;stroke-miterlimit:4;stroke-dasharray:none;stroke-dashoffset:0"
         d="m 1332.5862,601.12693 c -0.5804,-0.58038 -0.6649,-1.9289 -0.1639,-2.61411 0.5128,-0.70127 2.4739,-0.41146 3.4329,0.50732 0.77,0.73768 0.9636,1.77416 0.431,2.30679 -0.165,0.165 -0.9525,0.3 -1.75,0.3 -1.1167,0 -1.5649,-0.11494 -1.95,-0.5 z"
         id="path5107"
         inkscape:connector-curvature="0" />
    </g>
    <g
       transform="translate(336.58283,0)"
       id="g5187">
      <rect
         y="684.86218"
         x="115"
         height="168"
         width="18.5"
         id="rect5189"
         style="fill:#ffffff;fill-opacity:1;stroke:#000000;stroke-width:1;stroke-linecap:round;stroke-miterlimit:4;stroke-dasharray:1, 3;stroke-dashoffset:0" />
      <path
         transform="translate(-1.5,0)"
         d="m 144,857.86218 c 0,4.69442 -8.1708,8.5 -18.25,8.5 -10.0792,0 -18.25,-3.80558 -18.25,-8.5 0,-4.69442 8.1708,-8.5 18.25,-8.5 10.0792,0 18.25,3.80558 18.25,8.5 z"
         sodipodi:ry="8.5"
         sodipodi:rx="18.25"
         sodipodi:cy="857.86218"
         sodipodi:cx="125.75"
         id="path5191"
         style="fill:#ffffff;fill-opacity:1;stroke:#000000;stroke-width:1;stroke-linecap:round;stroke-miterlimit:4;stroke-dasharray:none;stroke-dashoffset:0"
         sodipodi:type="arc" />
    </g>
    <g
       id="g5175">
      <rect
         y="681.69604"
         x="457.34921"
         height="73.845299"
         width="7.4246211"
         id="rect5142"
         style="fill:#999999;fill-opacity:1;stroke:#000000;stroke-width:0.89116073;stroke-linecap:round;stroke-miterlimit:4;stroke-dasharray:none;stroke-dashoffset:0" />
      <rect
         y="675.82483"
         x="458.43652"
         height="4.625"
         width="5.25"
         id="rect5144"
         style="fill:#999999;fill-opacity:1;stroke:#000000;stroke-width:1;stroke-linecap:round;stroke-miterlimit:4;stroke-dasharray:none;stroke-dashoffset:0" />
      <rect
         y="663.89709"
         x="459.79883"
         height="5.9346461"
         width="2.5253813"
         id="rect5148"
         style="fill:#999999;fill-opacity:1;stroke:#000000;stroke-width:1;stroke-linecap:round;stroke-miterlimit:4;stroke-dasharray:none;stroke-dashoffset:0" />
      <rect
         y="671.80914"
         x="453.42224"
         height="2.5253813"
         width="5.4295697"
         id="rect5150"
         style="fill:#999999;fill-opacity:1;stroke:#000000;stroke-width:1;stroke-linecap:round;stroke-miterlimit:4;stroke-dasharray:none;stroke-dashoffset:0" />
      <rect
         y="671.11469"
         x="464.40765"
         height="3.9143412"
         width="4.0406103"
         id="rect5152"
         style="fill:#999999;fill-opacity:1;stroke:#000000;stroke-width:1;stroke-linecap:round;stroke-miterlimit:4;stroke-dasharray:none;stroke-dashoffset:0" />
      <path
         transform="translate(221.08715,-19.991648)"
         d="m 244.33065,693.06354 c 0,2.40591 -1.95038,4.35628 -4.35628,4.35628 -2.40591,0 -4.35629,-1.95037 -4.35629,-4.35628 0,-2.40591 1.95038,-4.35629 4.35629,-4.35629 2.4059,0 4.35628,1.95038 4.35628,4.35629 z"
         sodipodi:ry="4.3562827"
         sodipodi:rx="4.3562827"
         sodipodi:cy="693.06354"
         sodipodi:cx="239.97437"
         id="path5154"
         style="fill:#999999;fill-opacity:1;stroke:#000000"
         sodipodi:type="arc" />
      <path
         transform="translate(302.29847,-25.231822)"
         d="m 150.89154,698.30371 c 0,1.32499 -1.07412,2.39911 -2.39911,2.39911 -1.32499,0 -2.39911,-1.07412 -2.39911,-2.39911 0,-1.32499 1.07412,-2.39911 2.39911,-2.39911 1.32499,0 2.39911,1.07412 2.39911,2.39911 z"
         sodipodi:ry="2.3991122"
         sodipodi:rx="2.3991122"
         sodipodi:cy="698.30371"
         sodipodi:cx="148.49243"
         id="path5156"
         style="fill:#999999;fill-opacity:1;stroke:#000000;stroke-width:1;stroke-linecap:round;stroke-miterlimit:4;stroke-dasharray:none;stroke-dashoffset:0"
         sodipodi:type="arc" />
      <rect
         y="668.96814"
         x="448.20239"
         height="1.1364216"
         width="5.177032"
         id="rect5158"
         style="fill:#999999;fill-opacity:1;stroke:#000000;stroke-width:1;stroke-linecap:round;stroke-miterlimit:4;stroke-dasharray:none;stroke-dashoffset:0" />
      <path
         transform="translate(304.23533,-24.53732)"
         d="m 158.46768,688.45471 c 0,0.90658 -0.73492,1.6415 -1.64149,1.6415 -0.90658,0 -1.6415,-0.73492 -1.6415,-1.6415 0,-0.90657 0.73492,-1.6415 1.6415,-1.6415 0.90657,0 1.64149,0.73493 1.64149,1.6415 z"
         sodipodi:ry="1.6414979"
         sodipodi:rx="1.6414979"
         sodipodi:cy="688.45471"
         sodipodi:cx="156.82619"
         id="path5160"
         style="fill:#999999;fill-opacity:1;stroke:#000000;stroke-width:1;stroke-linecap:round;stroke-miterlimit:4;stroke-dasharray:none;stroke-dashoffset:0"
         sodipodi:type="arc" />
      <rect
         y="680.32483"
         x="454.35617"
         height="3.125"
         width="13.410709"
         id="rect5162"
         style="fill:#999999;fill-opacity:1;stroke:#000000;stroke-width:1;stroke-linecap:round;stroke-miterlimit:4;stroke-dasharray:none;stroke-dashoffset:0" />
    </g>
    <path
       inkscape:connector-curvature="0"
       id="path5588"
       d="m 128.69343,811.94588 c 0,0 -15.9099,16.61701 -0.35355,16.61701 15.55635,0 18.03122,0 18.03122,0"
       style="fill:none;stroke:#ffaaaa;stroke-width:4.5999999;stroke-linecap:butt;stroke-linejoin:miter;stroke-miterlimit:4;stroke-opacity:1;stroke-dasharray:none;marker-end:url(#Arrow2Sendtc)" />
    <path
       style="fill:none;stroke:#ffaaaa;stroke-width:4.5999999;stroke-linecap:butt;stroke-linejoin:miter;stroke-miterlimit:4;stroke-opacity:1;stroke-dasharray:none;marker-end:url(#Arrow2Sendt3)"
       d="m 442.76794,810.06174 c 0,0 16.61701,15.9099 16.61701,0.35355 0,-15.55635 0,-18.03122 0,-18.03122"
       id="path6375"
       inkscape:connector-curvature="0" />
    <path
       style="fill:none;stroke:#ffaaaa;stroke-width:1px;stroke-linecap:butt;stroke-linejoin:miter;stroke-opacity:1;marker-end:url(#Arrow1MendTkb)"
       d="m 208.95006,799.92506 15.20279,0"
       id="path6377"
       inkscape:connector-curvature="0" />
    <path
       inkscape:connector-curvature="0"
       id="path7499"
       d="m 209.12684,808.49873 15.20279,0"
       style="fill:none;stroke:#ffaaaa;stroke-width:1px;stroke-linecap:butt;stroke-linejoin:miter;stroke-opacity:1;marker-end:url(#Arrow1MendE1n)" />
    <path
       style="fill:none;stroke:#ffaaaa;stroke-width:1px;stroke-linecap:butt;stroke-linejoin:miter;stroke-opacity:1;marker-end:url(#Arrow1Mendem2)"
       d="m 211.07138,817.24918 15.20279,0"
       id="path7501"
       inkscape:connector-curvature="0" />
    <path
       inkscape:connector-curvature="0"
       id="path7503"
       d="m 212.83914,825.82285 15.20279,0"
       style="fill:none;stroke:#ffaaaa;stroke-width:1px;stroke-linecap:butt;stroke-linejoin:miter;stroke-opacity:1;marker-end:url(#Arrow1MendzB7)" />
    <path
       style="fill:none;stroke:#ffaaaa;stroke-width:1px;stroke-linecap:butt;stroke-linejoin:miter;stroke-opacity:1;marker-end:url(#Arrow1MendvDd)"
       d="m 213.54625,834.21974 15.20279,0"
       id="path7505"
       inkscape:connector-curvature="0" />
    <path
       style="fill:none;stroke:#ffaaaa;stroke-width:4.5999999;stroke-linecap:butt;stroke-linejoin:miter;stroke-miterlimit:4;stroke-opacity:1;stroke-dasharray:none;marker-start:none;marker-end:url(#Arrow2SendGMv)"
       d="m 275,811.36218 33.5,0"
       id="path7917"
       inkscape:connector-curvature="0" />
    <path
       inkscape:connector-curvature="0"
       id="path8552"
       d="m 362.5,802.86218 33.5,0"
       style="fill:none;stroke:#ffaaaa;stroke-width:4.5999999;stroke-linecap:butt;stroke-linejoin:miter;stroke-miterlimit:4;stroke-opacity:1;stroke-dasharray:none;marker-start:none;marker-end:url(#Arrow2SendGI)" />
    <path
       style="fill:none;stroke:#ffaaaa;stroke-width:4.5999999;stroke-linecap:butt;stroke-linejoin:miter;stroke-miterlimit:4;stroke-opacity:1;stroke-dasharray:none;marker-start:none;marker-end:url(#Arrow2SendGM)"
       d="m 162.5,815.86218 33.5,0"
       id="path8554"
       inkscape:connector-curvature="0" />
    <text
       xml:space="preserve"
       style="font-size:14px;font-style:normal;font-weight:normal;line-height:125%;letter-spacing:0px;word-spacing:0px;fill:#000000;fill-opacity:1;stroke:none;font-family:Sans"
       x="136.80762"
       y="797.66547"
       id="text8826"
       sodipodi:linespacing="125%"><tspan
         sodipodi:role="line"
         id="tspan8828"
         x="136.80762"
         y="797.66547">Water</tspan></text>
    <text
       xml:space="preserve"
       style="font-size:14px;font-style:normal;font-weight:normal;line-height:125%;letter-spacing:0px;word-spacing:0px;fill:#000000;fill-opacity:1;stroke:none;font-family:Sans"
       x="359.41422"
       y="792.19061"
       id="text8830"
       sodipodi:linespacing="125%"><tspan
         sodipodi:role="line"
         id="tspan8832"
         x="359.41422"
         y="792.19061">Hydrocarbon</tspan></text>
    <text
       xml:space="preserve"
       style="font-size:14px;font-style:normal;font-weight:normal;line-height:125%;letter-spacing:0px;word-spacing:0px;fill:#000000;fill-opacity:1;stroke:none;font-family:Sans"
       x="67.524384"
       y="655.22809"
       id="text8834"
       sodipodi:linespacing="125%"><tspan
         sodipodi:role="line"
         id="tspan8836"
         x="67.524384"
         y="655.22809">Injector well</tspan></text>
    <text
       xml:space="preserve"
       style="font-size:14px;font-style:normal;font-weight:normal;line-height:125%;letter-spacing:0px;word-spacing:0px;fill:#000000;fill-opacity:1;stroke:none;font-family:Sans"
       x="477.97906"
       y="620.00623"
       id="text8838"
       sodipodi:linespacing="125%"><tspan
         sodipodi:role="line"
         id="tspan8840"
         x="477.97906"
         y="620.00623">Productor well</tspan></text>
  </g>
</svg>
