<?xml version="1.0" encoding="UTF-8" standalone="no"?>
<!-- Generated by graphviz version 2.38.0 (20140413.2041)
 -->

<!-- Title: G Pages: 1 -->

<svg
   xmlns:dc="http://purl.org/dc/elements/1.1/"
   xmlns:cc="http://creativecommons.org/ns#"
   xmlns:rdf="http://www.w3.org/1999/02/22-rdf-syntax-ns#"
   xmlns:svg="http://www.w3.org/2000/svg"
   xmlns="http://www.w3.org/2000/svg"
   xmlns:sodipodi="http://sodipodi.sourceforge.net/DTD/sodipodi-0.dtd"
   xmlns:inkscape="http://www.inkscape.org/namespaces/inkscape"
   width="602.82867pt"
   height="577.12354pt"
   viewBox="0 0 602.82867 577.12354"
   id="svg2"
   version="1.1"
   inkscape:version="0.91 r13725"
   sodipodi:docname="1.svg">
  <metadata
     id="metadata104">
    <rdf:RDF>
      <cc:Work
         rdf:about="">
        <dc:format>image/svg+xml</dc:format>
        <dc:type
           rdf:resource="http://purl.org/dc/dcmitype/StillImage" />
        <dc:title></dc:title>
      </cc:Work>
    </rdf:RDF>
  </metadata>
  <defs
     id="defs102">
    <marker
       inkscape:isstock="true"
       style="overflow:visible"
       id="marker4972"
       refX="0"
       refY="0"
       orient="auto"
       inkscape:stockid="Arrow2Mend">
      <path
         transform="scale(-0.6,-0.6)"
         d="M 8.7185878,4.0337352 -2.2072895,0.01601326 8.7185884,-4.0017078 c -1.7454984,2.3720609 -1.7354408,5.6174519 -6e-7,8.035443 z"
         style="fill:#008000;fill-opacity:1;fill-rule:evenodd;stroke:#008000;stroke-width:0.625;stroke-linejoin:round;stroke-opacity:1"
         id="path4974"
         inkscape:connector-curvature="0" />
    </marker>
    <marker
       inkscape:stockid="Arrow2Mend"
       orient="auto"
       refY="0"
       refX="0"
       id="Arrow2Mend"
       style="overflow:visible"
       inkscape:isstock="true"
       inkscape:collect="always">
      <path
         id="path4689"
         style="fill:#ff0000;fill-opacity:1;fill-rule:evenodd;stroke:#ff0000;stroke-width:0.625;stroke-linejoin:round;stroke-opacity:1"
         d="M 8.7185878,4.0337352 -2.2072895,0.01601326 8.7185884,-4.0017078 c -1.7454984,2.3720609 -1.7354408,5.6174519 -6e-7,8.035443 z"
         transform="scale(-0.6,-0.6)"
         inkscape:connector-curvature="0" />
    </marker>
    <marker
       inkscape:stockid="Arrow1Send"
       orient="auto"
       refY="0"
       refX="0"
       id="Arrow1Send"
       style="overflow:visible"
       inkscape:isstock="true">
      <path
         id="path4677"
         d="M 0,0 5,-5 -12.5,0 5,5 0,0 Z"
         style="fill:#ff0000;fill-opacity:1;fill-rule:evenodd;stroke:#ff0000;stroke-width:1pt;stroke-opacity:1"
         transform="matrix(-0.2,0,0,-0.2,-1.2,0)"
         inkscape:connector-curvature="0" />
    </marker>
  </defs>
  <sodipodi:namedview
     pagecolor="#ffffff"
     bordercolor="#666666"
     borderopacity="1"
     objecttolerance="10"
     gridtolerance="10"
     guidetolerance="10"
     inkscape:pageopacity="0"
     inkscape:pageshadow="2"
     inkscape:window-width="1920"
     inkscape:window-height="1018"
     id="namedview100"
     showgrid="false"
     fit-margin-top="0"
     fit-margin-left="0"
     fit-margin-right="0"
     fit-margin-bottom="0"
     inkscape:zoom="0.5686747"
     inkscape:cx="111.71095"
     inkscape:cy="429.90226"
     inkscape:window-x="0"
     inkscape:window-y="31"
     inkscape:window-maximized="1"
     inkscape:current-layer="svg2" />
  <g
     id="g4627"
     transform="translate(0.5,158.65919)">
    <polygon
       transform="translate(4,328)"
       points="-4,-328 202,-328 202,4 -4,4 -4,4 "
       id="polygon7"
       style="fill:none;stroke:#000000" />
    <ellipse
       style="fill:none;stroke:#000000"
       id="ellipse12"
       ry="18"
       rx="27"
       cy="22"
       cx="103" />
    <text
       style="font-size:14px;font-family:Times, serif;text-anchor:middle"
       id="text14"
       font-size="14.00"
       y="25.700012"
       x="103">T0</text>
    <ellipse
       style="fill:none;stroke:#000000"
       id="ellipse19"
       ry="18"
       rx="27"
       cy="94"
       cx="31" />
    <text
       style="font-size:14px;font-family:Times, serif;text-anchor:middle"
       id="text21"
       font-size="14.00"
       y="97.699997"
       x="31">T1</text>
    <path
       style="fill:none;stroke:#000000"
       inkscape:connector-curvature="0"
       id="path26"
       d="M 88.4297,37.166 C 78.2501,47.062 64.4761,60.454 52.9694,71.641" />
    <polygon
       transform="translate(4,328)"
       style="fill:#000000;stroke:#000000"
       id="polygon28"
       points="51.4055,-253.846 41.7957,-249.385 46.5259,-258.865 51.4055,-253.846 " />
    <ellipse
       style="fill:none;stroke:#000000"
       id="ellipse33"
       ry="18"
       rx="27"
       cy="94"
       cx="103" />
    <text
       style="font-size:14px;font-family:Times, serif;text-anchor:middle"
       id="text35"
       font-size="14.00"
       y="97.699997"
       x="103">T5</text>
    <path
       style="fill:none;stroke:#000000"
       inkscape:connector-curvature="0"
       id="path40"
       d="m 103,40.303 c 0,7.714 0,16.985 0,25.585" />
    <polygon
       transform="translate(4,328)"
       style="fill:#000000;stroke:#000000"
       id="polygon42"
       points="102.5,-262.104 99,-252.104 95.5001,-262.104 102.5,-262.104 " />
    <ellipse
       style="fill:none;stroke:#000000"
       id="ellipse47"
       ry="18"
       rx="27"
       cy="94"
       cx="175" />
    <text
       style="font-size:14px;font-family:Times, serif;text-anchor:middle"
       id="text49"
       font-size="14.00"
       y="97.699997"
       x="175">T6</text>
    <path
       style="fill:none;stroke:#000000"
       inkscape:connector-curvature="0"
       id="path54"
       d="m 117.57,37.166 c 10.18,9.896 23.954,23.288 35.461,34.475" />
    <polygon
       transform="translate(4,328)"
       style="fill:#000000;stroke:#000000"
       id="polygon56"
       points="151.474,-258.865 156.204,-249.385 146.595,-253.846 151.474,-258.865 " />
    <ellipse
       style="fill:none;stroke:#000000"
       id="ellipse61"
       ry="18"
       rx="27"
       cy="166"
       cx="31" />
    <text
       style="font-size:14px;font-family:Times, serif;text-anchor:middle"
       id="text63"
       font-size="14.00"
       y="169.7"
       x="31">T2</text>
    <path
       style="fill:none;stroke:#000000"
       inkscape:connector-curvature="0"
       id="path68"
       d="m 31,112.303 c 0,7.714 0,16.985 0,25.585" />
    <polygon
       transform="translate(4,328)"
       style="fill:#000000;stroke:#000000"
       id="polygon70"
       points="30.5001,-190.104 27,-180.104 23.5001,-190.104 30.5001,-190.104 " />
    <ellipse
       style="fill:none;stroke:#000000"
       id="ellipse75"
       ry="18"
       rx="27"
       cy="238"
       cx="31" />
    <text
       style="font-size:14px;font-family:Times, serif;text-anchor:middle"
       id="text77"
       font-size="14.00"
       y="241.7"
       x="31">T3</text>
    <path
       style="fill:none;stroke:#000000"
       inkscape:connector-curvature="0"
       id="path82"
       d="m 31,184.303 c 0,7.714 0,16.985 0,25.585" />
    <polygon
       transform="translate(4,328)"
       style="fill:#000000;stroke:#000000"
       id="polygon84"
       points="30.5001,-118.104 27,-108.104 23.5001,-118.104 30.5001,-118.104 " />
    <ellipse
       style="fill:none;stroke:#000000"
       id="ellipse89"
       ry="18"
       rx="27"
       cy="310"
       cx="31" />
    <text
       style="font-size:14px;font-family:Times, serif;text-anchor:middle"
       id="text91"
       font-size="14.00"
       y="313.70001"
       x="31">T4</text>
    <path
       style="fill:none;stroke:#000000"
       inkscape:connector-curvature="0"
       id="path96"
       d="m 31,256.3034 c 0,7.7139 0,16.9841 0,25.5842" />
    <polygon
       transform="translate(4,328)"
       style="fill:#000000;stroke:#000000"
       id="polygon98"
       points="30.5001,-46.1043 27,-36.1043 23.5001,-46.1044 30.5001,-46.1043 " />
  </g>
  <g
     id="g4606"
     transform="translate(0.5,147.56141)">
    <polygon
       transform="matrix(0.99793816,0,0,0.99793816,363.82545,425.07139)"
       style="fill:none;stroke:#000000"
       points="-4,-184 238.496,-184 238.496,4 -4,4 -4,4 "
       id="polygon7-3" />
    <ellipse
       id="ellipse12-7"
       ry="17.962887"
       rx="26.94433"
       cy="263.4054"
       cx="499.04208"
       style="fill:none;stroke:#000000;stroke-width:0.99793816" />
    <text
       id="text14-1"
       font-size="14.00"
       y="267.09778"
       x="499.04208"
       style="font-size:13.97113419px;font-family:Times, serif;text-anchor:middle">T0</text>
    <ellipse
       id="ellipse19-4"
       ry="17.962887"
       rx="45.398106"
       cy="335.25696"
       cx="409.22763"
       style="fill:none;stroke:#000000;stroke-width:0.99793816" />
    <text
       id="text21-1"
       font-size="14.00"
       y="338.94931"
       x="409.22763"
       style="font-size:13.97113419px;font-family:Times, serif;text-anchor:middle">T1,T2,T3</text>
    <path
       id="path26-6"
       d="m 482.14898,277.5422 c -12.65884,9.84566 -30.26148,23.53737 -45.00092,35.00069"
       inkscape:connector-curvature="0"
       style="fill:none;stroke:#000000;stroke-width:0.99793816" />
    <polygon
       transform="matrix(0.99793816,0,0,0.99793816,363.82545,425.07139)"
       id="polygon28-9"
       points="65.1686,-106.301 70.9134,-115.203 75.211,-109.678 75.211,-109.678 "
       style="fill:#000000;stroke:#000000" />
    <ellipse
       id="ellipse33-5"
       ry="17.962887"
       rx="26.94433"
       cy="335.25696"
       cx="499.04208"
       style="fill:none;stroke:#000000;stroke-width:0.99793816" />
    <text
       id="text35-3"
       font-size="14.00"
       y="338.94931"
       x="499.04208"
       style="font-size:13.97113419px;font-family:Times, serif;text-anchor:middle">T6</text>
    <path
       id="path40-4"
       d="m 499.04208,281.67067 c 0,7.6981 0,16.94998 0,25.53225"
       inkscape:connector-curvature="0"
       style="fill:none;stroke:#000000;stroke-width:0.99793816" />
    <polygon
       transform="matrix(0.99793816,0,0,0.99793816,363.82545,425.07139)"
       id="polygon42-6"
       points="135.496,-108.104 131.996,-118.104 138.996,-118.104 138.996,-118.104 "
       style="fill:#000000;stroke:#000000" />
    <ellipse
       id="ellipse47-4"
       ry="17.962887"
       rx="26.94433"
       cy="335.25696"
       cx="570.89362"
       style="fill:none;stroke:#000000;stroke-width:0.99793816" />
    <text
       id="text49-6"
       font-size="14.00"
       y="338.94931"
       x="570.89362"
       style="font-size:13.97113419px;font-family:Times, serif;text-anchor:middle">T5</text>
    <path
       id="path54-2"
       d="m 513.58204,278.54014 c 10.15901,9.87559 23.90461,23.23998 35.38788,34.40392"
       inkscape:connector-curvature="0"
       style="fill:none;stroke:#000000;stroke-width:0.99793816" />
    <polygon
       transform="matrix(0.99793816,0,0,0.99793816,363.82545,425.07139)"
       id="polygon56-7"
       points="192.7,-105.385 183.09,-109.846 187.97,-114.865 187.97,-114.865 "
       style="fill:#000000;stroke:#000000" />
    <ellipse
       id="ellipse61-0"
       ry="17.962887"
       rx="26.94433"
       cy="407.10849"
       cx="409.22763"
       style="fill:none;stroke:#000000;stroke-width:0.99793816" />
    <text
       id="text63-0"
       font-size="14.00"
       y="410.80087"
       x="409.22763"
       style="font-size:13.97113419px;font-family:Times, serif;text-anchor:middle">T4</text>
    <path
       id="path68-3"
       d="m 409.22764,353.52262 c 0,7.69799 0,16.94908 0,25.53145"
       inkscape:connector-curvature="0"
       style="fill:none;stroke:#000000;stroke-width:0.99793816" />
    <polygon
       transform="matrix(0.99793816,0,0,0.99793816,363.82545,425.07139)"
       id="polygon70-1"
       points="45.496,-36.1043 41.9961,-46.1044 48.9961,-46.1043 48.9961,-46.1043 "
       style="fill:#000000;stroke:#000000" />
  </g>
  <g
     id="g4585"
     transform="translate(-13.940507,147.56141)">
    <polygon
       transform="translate(449.77626,180.93859)"
       style="fill:none;stroke:#000000"
       points="94.9919,4 -4,4 -4,4 -4,-328 94.9919,-328 "
       id="polygon7-5" />
    <ellipse
       id="ellipse12-3"
       ry="18"
       rx="27"
       cy="-125.06141"
       cx="495.27225"
       style="fill:none;stroke:#000000" />
    <text
       id="text14-12"
       font-size="14.00"
       y="-121.3614"
       x="495.27225"
       style="font-size:14px;font-family:Times, serif;text-anchor:middle">T0</text>
    <ellipse
       id="ellipse19-7"
       ry="18"
       rx="45.491901"
       cy="-53.061409"
       cx="495.27225"
       style="fill:none;stroke:#000000" />
    <text
       id="text21-2"
       font-size="14.00"
       y="-49.361412"
       x="495.27225"
       style="font-size:14px;font-family:Times, serif;text-anchor:middle">T1,T5,T6</text>
    <path
       id="path26-0"
       d="m 495.27226,-106.75841 c 0,7.714 0,16.985 0,25.585"
       inkscape:connector-curvature="0"
       style="fill:none;stroke:#000000" />
    <polygon
       transform="translate(449.77626,180.93859)"
       id="polygon28-4"
       points="48.9961,-262.104 48.9961,-262.104 45.496,-252.104 41.9961,-262.104 "
       style="fill:#000000;stroke:#000000" />
    <ellipse
       id="ellipse33-1"
       ry="18"
       rx="27"
       cy="18.938589"
       cx="495.27225"
       style="fill:none;stroke:#000000" />
    <text
       id="text35-6"
       font-size="14.00"
       y="22.638586"
       x="495.27225"
       style="font-size:14px;font-family:Times, serif;text-anchor:middle">T2</text>
    <path
       id="path40-3"
       d="m 495.27226,-34.75841 c 0,7.714 0,16.985 0,25.585"
       inkscape:connector-curvature="0"
       style="fill:none;stroke:#000000" />
    <polygon
       transform="translate(449.77626,180.93859)"
       id="polygon42-8"
       points="48.9961,-190.104 48.9961,-190.104 45.496,-180.104 41.9961,-190.104 "
       style="fill:#000000;stroke:#000000" />
    <ellipse
       id="ellipse47-44"
       ry="18"
       rx="27"
       cy="90.938591"
       cx="495.27225"
       style="fill:none;stroke:#000000" />
    <text
       id="text49-3"
       font-size="14.00"
       y="94.638588"
       x="495.27225"
       style="font-size:14px;font-family:Times, serif;text-anchor:middle">T3</text>
    <path
       id="path54-4"
       d="m 495.27226,37.24159 c 0,7.714 0,16.985 0,25.585"
       inkscape:connector-curvature="0"
       style="fill:none;stroke:#000000" />
    <polygon
       transform="translate(449.77626,180.93859)"
       id="polygon56-5"
       points="48.9961,-118.104 48.9961,-118.104 45.496,-108.104 41.9961,-118.104 "
       style="fill:#000000;stroke:#000000" />
    <ellipse
       id="ellipse61-8"
       ry="18"
       rx="27"
       cy="162.93858"
       cx="495.27225"
       style="fill:none;stroke:#000000" />
    <text
       id="text63-1"
       font-size="14.00"
       y="166.6386"
       x="495.27225"
       style="font-size:14px;font-family:Times, serif;text-anchor:middle">T4</text>
    <path
       id="path68-7"
       d="m 495.27226,109.24199 c 0,7.7139 0,16.9841 0,25.5842"
       inkscape:connector-curvature="0"
       style="fill:none;stroke:#000000" />
    <polygon
       transform="translate(449.77626,180.93859)"
       id="polygon70-6"
       points="48.9961,-46.1043 48.9961,-46.1043 45.496,-36.1043 41.9961,-46.1044 "
       style="fill:#000000;stroke:#000000" />
  </g>
  <path
     style="fill:none;fill-rule:evenodd;stroke:#ff0000;stroke-width:4;stroke-linecap:butt;stroke-linejoin:miter;stroke-miterlimit:4;stroke-dasharray:none;stroke-opacity:1;marker-end:url(#Arrow2Mend)"
     d="M 232.27522,269.67055 381.25813,183.65522"
     id="path4656"
     inkscape:connector-curvature="0" />
  <path
     style="fill:none;fill-rule:evenodd;stroke:#008000;stroke-width:4;stroke-linecap:butt;stroke-linejoin:miter;stroke-miterlimit:4;stroke-dasharray:none;stroke-opacity:1;marker-end:url(#marker4972)"
     d="m 233.26997,394.01347 101.46382,80.57422"
     id="path4964"
     inkscape:connector-curvature="0" />
</svg>
