<?xml version="1.0" encoding="UTF-8" standalone="no"?>
<!-- Generated by graphviz version 2.22.0 (20090304.0156)
 -->

<!-- Title: _anonymous_0 Pages: 1 -->

<svg
   xmlns:dc="http://purl.org/dc/elements/1.1/"
   xmlns:cc="http://creativecommons.org/ns#"
   xmlns:rdf="http://www.w3.org/1999/02/22-rdf-syntax-ns#"
   xmlns:svg="http://www.w3.org/2000/svg"
   xmlns="http://www.w3.org/2000/svg"
   xmlns:sodipodi="http://sodipodi.sourceforge.net/DTD/sodipodi-0.dtd"
   xmlns:inkscape="http://www.inkscape.org/namespaces/inkscape"
   width="534.18433"
   height="327.5"
   viewBox="0 0 427.34746 262"
   id="svg2"
   version="1.1"
   inkscape:version="0.48.5 r10040"
   sodipodi:docname="algo_S.svg">
  <metadata
     id="metadata69">
    <rdf:RDF>
      <cc:Work
         rdf:about="">
        <dc:format>image/svg+xml</dc:format>
        <dc:type
           rdf:resource="http://purl.org/dc/dcmitype/StillImage" />
      </cc:Work>
    </rdf:RDF>
  </metadata>
  <defs
     id="defs67">
    <marker
       inkscape:stockid="Arrow2Send"
       orient="auto"
       refY="0"
       refX="0"
       id="Arrow2Send"
       style="overflow:visible">
      <path
         id="path3838"
         style="font-size:12px;fill-rule:evenodd;stroke-width:0.625;stroke-linejoin:round"
         d="M 8.7185878,4.0337352 -2.2072895,0.01601326 8.7185884,-4.0017078 c -1.7454984,2.3720609 -1.7354408,5.6174519 -6e-7,8.035443 z"
         transform="matrix(-0.3,0,0,-0.3,0.69,0)" />
    </marker>
    <marker
       inkscape:stockid="Arrow1Lend"
       orient="auto"
       refY="0"
       refX="0"
       id="Arrow1Lend"
       style="overflow:visible">
      <path
         id="path3808"
         d="M 0,0 5,-5 -12.5,0 5,5 0,0 z"
         style="fill-rule:evenodd;stroke:#000000;stroke-width:1pt;marker-start:none"
         transform="matrix(-0.8,0,0,-0.8,-10,0)" />
    </marker>
    <inkscape:perspective
       sodipodi:type="inkscape:persp3d"
       inkscape:vp_x="0 : 117.5 : 1"
       inkscape:vp_y="0 : 1000 : 0"
       inkscape:vp_z="167.5 : 117.5 : 1"
       inkscape:persp3d-origin="83.75 : 78.333333 : 1"
       id="perspective71" />
    <inkscape:perspective
       id="perspective2974"
       inkscape:persp3d-origin="83.75 : 108.33333 : 1"
       inkscape:vp_z="167.5 : 162.5 : 1"
       inkscape:vp_y="0 : 1000 : 0"
       inkscape:vp_x="0 : 162.5 : 1"
       sodipodi:type="inkscape:persp3d" />
  </defs>
  <sodipodi:namedview
     pagecolor="#ffffff"
     bordercolor="#666666"
     borderopacity="1"
     objecttolerance="10"
     gridtolerance="10"
     guidetolerance="10"
     inkscape:pageopacity="0"
     inkscape:pageshadow="2"
     inkscape:window-width="2560"
     inkscape:window-height="1497"
     id="namedview65"
     showgrid="false"
     inkscape:zoom="2.0085106"
     inkscape:cx="137.03832"
     inkscape:cy="150.34195"
     inkscape:window-x="0"
     inkscape:window-y="39"
     inkscape:window-maximized="1"
     inkscape:current-layer="svg2" />
  <ellipse
     cx="63"
     cy="-162"
     rx="27"
     ry="18"
     id="ellipse12"
     d="m 90,-162 c 0,9.94113 -12.088312,18 -27,18 -14.911688,0 -27,-8.05887 -27,-18 0,-9.94113 12.088312,-18 27,-18 14.911688,0 27,8.05887 27,18 z"
     sodipodi:cx="63"
     sodipodi:cy="-162"
     sodipodi:rx="27"
     sodipodi:ry="18"
     style="fill:#ffffff;stroke:#000000"
     transform="translate(295.84746,220.5)" />
  <text
     x="358.84747"
     y="61.899994"
     font-size="14.00"
     id="text14"
     style="font-size:14px;text-anchor:middle;font-family:'Times New Roman,serif'">0</text>
  <ellipse
     cx="27"
     cy="-90"
     rx="27"
     ry="18"
     id="ellipse19"
     d="m 54,-90 c 0,9.941125 -12.088312,18 -27,18 -14.911688,0 -27,-8.058875 -27,-18 0,-9.941125 12.088312,-18 27,-18 14.911688,0 27,8.058875 27,18 z"
     sodipodi:cx="27"
     sodipodi:cy="-90"
     sodipodi:rx="27"
     sodipodi:ry="18"
     style="fill:#ffff00;stroke:#000000"
     transform="translate(295.84746,220.5)" />
  <text
     x="322.84747"
     y="133.89999"
     font-size="14.00"
     id="text21"
     style="font-size:14px;text-anchor:middle;font-family:'Times New Roman,serif'">1-2</text>
  <path
     d="m 350.13286,75.929 c -4.2451,8.49 -9.439,18.878 -14.1517,28.304"
     id="path26"
     style="fill:none;stroke:#000000"
     inkscape:connector-curvature="0" />
  <polygon
     points="36.976,-117.778 43.237,-114.648 43.237,-114.648 35.6343,-107.269 "
     id="polygon28"
     style="fill:#000000;stroke:#000000"
     transform="translate(295.84746,220.5)" />
  <ellipse
     cx="99"
     cy="-90"
     rx="27"
     ry="18"
     id="ellipse33"
     d="m 126,-90 c 0,9.941125 -12.08831,18 -27,18 -14.911688,0 -27,-8.058875 -27,-18 0,-9.941125 12.088312,-18 27,-18 14.91169,0 27,8.058875 27,18 z"
     sodipodi:cx="99"
     sodipodi:cy="-90"
     sodipodi:rx="27"
     sodipodi:ry="18"
     style="fill:#0000ff;stroke:#000000"
     transform="translate(295.84746,220.5)" />
  <text
     x="394.84747"
     y="133.89999"
     font-size="14.00"
     id="text35"
     style="font-size:14px;text-anchor:middle;fill:#ffffff;font-family:'Times New Roman,serif'">3-4</text>
  <path
     d="m 367.56206,75.929 c 4.2451,8.49 9.439,18.878 14.1517,28.304"
     id="path40"
     style="fill:none;stroke:#000000"
     inkscape:connector-curvature="0" />
  <polygon
     points="82.763,-114.648 89.024,-117.778 89.024,-117.778 90.3657,-107.269 "
     id="polygon42"
     style="fill:#000000;stroke:#000000"
     transform="translate(295.84746,220.5)" />
  <ellipse
     cx="63"
     cy="-18"
     rx="27"
     ry="18"
     id="ellipse47"
     d="M 90,-18 C 90,-8.0588745 77.911688,0 63,0 48.088312,0 36,-8.0588745 36,-18 c 0,-9.941125 12.088312,-18 27,-18 14.911688,0 27,8.058875 27,18 z"
     sodipodi:cx="63"
     sodipodi:cy="-18"
     sodipodi:rx="27"
     sodipodi:ry="18"
     style="fill:#ffffff;stroke:#000000"
     transform="translate(295.84746,220.5)" />
  <text
     x="358.84747"
     y="205.89999"
     font-size="14.00"
     id="text49"
     style="font-size:14px;text-anchor:middle;font-family:'Times New Roman,serif'">5</text>
  <path
     d="m 331.56206,147.9292 c 4.2451,8.4901 9.439,18.8779 14.1517,28.3034"
     id="path54"
     style="fill:none;stroke:#000000"
     inkscape:connector-curvature="0" />
  <polygon
     points="46.763,-42.6477 53.024,-45.7782 53.024,-45.7782 54.3657,-35.2687 "
     id="polygon56"
     style="fill:#000000;stroke:#000000"
     transform="translate(295.84746,220.5)" />
  <path
     d="m 386.13286,147.9292 c -4.2451,8.4901 -9.439,18.8779 -14.1517,28.3034"
     id="path61"
     style="fill:none;stroke:#000000"
     inkscape:connector-curvature="0" />
  <polygon
     points="72.976,-45.7782 79.237,-42.6477 79.237,-42.6477 71.6343,-35.2687 "
     id="polygon63"
     style="fill:#000000;stroke:#000000"
     transform="translate(295.84746,220.5)" />
  <ellipse
     id="ellipse2887"
     ry="18"
     rx="27"
     cy="-234"
     cx="63"
     sodipodi:cx="63"
     sodipodi:cy="-234"
     sodipodi:rx="27"
     sodipodi:ry="18"
     style="fill:#ffffff;stroke:#000000"
     d="m 90,-234 c 0,9.94113 -12.088312,18 -27,18 -14.911688,0 -27,-8.05887 -27,-18 0,-9.94113 12.088312,-18 27,-18 14.911688,0 27,8.05887 27,18 z"
     transform="translate(4.5,256.5)" />
  <text
     id="text2889"
     font-size="14.00"
     y="25.899994"
     x="67.5"
     style="font-size:14px;text-anchor:middle;font-family:'Times New Roman,serif'">0</text>
  <ellipse
     id="ellipse2894"
     ry="18"
     rx="27"
     cy="-162"
     cx="27"
     sodipodi:cx="27"
     sodipodi:cy="-162"
     sodipodi:rx="27"
     sodipodi:ry="18"
     style="fill:#ffff00;stroke:#000000"
     d="m 54,-162 c 0,9.94113 -12.088312,18 -27,18 -14.911688,0 -27,-8.05887 -27,-18 0,-9.94113 12.088312,-18 27,-18 14.911688,0 27,8.05887 27,18 z"
     transform="translate(4.5,256.5)" />
  <text
     id="text2896"
     font-size="14.00"
     y="97.899994"
     x="31.5"
     style="font-size:14px;text-anchor:middle;font-family:'Times New Roman,serif'">1</text>
  <path
     id="path2901"
     d="m 58.7854,39.929 c -4.2451,8.49 -9.439,18.878 -14.1517,28.304"
     style="fill:none;stroke:#000000"
     inkscape:connector-curvature="0" />
  <polygon
     id="polygon2903"
     points="36.976,-189.778 43.237,-186.648 43.237,-186.648 35.6343,-179.269 "
     style="fill:#000000;stroke:#000000"
     transform="translate(4.5,256.5)" />
  <ellipse
     id="ellipse2908"
     ry="18"
     rx="27"
     cy="-162"
     cx="99"
     sodipodi:cx="99"
     sodipodi:cy="-162"
     sodipodi:rx="27"
     sodipodi:ry="18"
     style="fill:#0000ff;stroke:#000000"
     d="m 126,-162 c 0,9.94113 -12.08831,18 -27,18 -14.911688,0 -27,-8.05887 -27,-18 0,-9.94113 12.088312,-18 27,-18 14.91169,0 27,8.05887 27,18 z"
     transform="translate(4.5,256.5)" />
  <text
     id="text2910"
     font-size="14.00"
     y="97.899994"
     x="103.5"
     style="font-size:14px;text-anchor:middle;font-family:'Times New Roman,serif';fill:#ffffff">3</text>
  <path
     id="path2915"
     d="m 76.2146,39.929 c 4.2451,8.49 9.439,18.878 14.1517,28.304"
     style="fill:none;stroke:#000000"
     inkscape:connector-curvature="0" />
  <polygon
     id="polygon2917"
     points="82.763,-186.648 89.024,-189.778 89.024,-189.778 90.3657,-179.269 "
     style="fill:#000000;stroke:#000000"
     transform="translate(4.5,256.5)" />
  <ellipse
     id="ellipse2922"
     ry="18"
     rx="27"
     cy="-90"
     cx="27"
     sodipodi:cx="27"
     sodipodi:cy="-90"
     sodipodi:rx="27"
     sodipodi:ry="18"
     style="fill:#ffff00;stroke:#000000"
     d="m 54,-90 c 0,9.941125 -12.088312,18 -27,18 -14.911688,0 -27,-8.058875 -27,-18 0,-9.941125 12.088312,-18 27,-18 14.911688,0 27,8.058875 27,18 z"
     transform="translate(4.5,256.5)" />
  <text
     id="text2924"
     font-size="14.00"
     y="169.89999"
     x="31.5"
     style="font-size:14px;text-anchor:middle;font-family:'Times New Roman,serif'">2</text>
  <path
     id="path2929"
     d="m 31.5,112.669 c 0,7.7 0,16.857 0,25.414"
     style="fill:none;stroke:#000000"
     inkscape:connector-curvature="0" />
  <polygon
     id="polygon2931"
     points="23.5001,-118.413 30.5001,-118.413 30.5001,-118.413 27,-108.413 "
     style="fill:#000000;stroke:#000000"
     transform="translate(4.5,256.5)" />
  <ellipse
     id="ellipse2936"
     ry="18"
     rx="27"
     cy="-90"
     cx="99"
     sodipodi:cx="99"
     sodipodi:cy="-90"
     sodipodi:rx="27"
     sodipodi:ry="18"
     style="fill:#0000ff;stroke:#000000"
     d="m 126,-90 c 0,9.941125 -12.08831,18 -27,18 -14.911688,0 -27,-8.058875 -27,-18 0,-9.941125 12.088312,-18 27,-18 14.91169,0 27,8.058875 27,18 z"
     transform="translate(4.5,256.5)" />
  <text
     id="text2938"
     font-size="14.00"
     y="169.89999"
     x="103.5"
     style="font-size:14px;text-anchor:middle;font-family:'Times New Roman,serif';fill:#ffffff">4</text>
  <path
     id="path2943"
     d="m 103.5,112.669 c 0,7.7 0,16.857 0,25.414"
     style="fill:none;stroke:#000000"
     inkscape:connector-curvature="0" />
  <polygon
     id="polygon2945"
     points="95.5001,-118.413 102.5,-118.413 102.5,-118.413 99,-108.413 "
     style="fill:#000000;stroke:#000000"
     transform="translate(4.5,256.5)" />
  <ellipse
     id="ellipse2950"
     ry="18"
     rx="27"
     cy="-18"
     cx="63"
     sodipodi:cx="63"
     sodipodi:cy="-18"
     sodipodi:rx="27"
     sodipodi:ry="18"
     style="fill:#ffffff;stroke:#000000"
     d="M 90,-18 C 90,-8.0588745 77.911688,0 63,0 48.088312,0 36,-8.0588745 36,-18 c 0,-9.941125 12.088312,-18 27,-18 14.911688,0 27,8.058875 27,18 z"
     transform="translate(4.5,256.5)" />
  <text
     id="text2952"
     font-size="14.00"
     y="241.89999"
     x="67.5"
     style="font-size:14px;text-anchor:middle;font-family:'Times New Roman,serif'">5</text>
  <path
     id="path2957"
     d="m 40.2146,183.9292 c 4.2451,8.4901 9.439,18.8779 14.1517,28.3034"
     style="fill:none;stroke:#000000"
     inkscape:connector-curvature="0" />
  <polygon
     id="polygon2959"
     points="46.763,-42.6477 53.024,-45.7782 53.024,-45.7782 54.3657,-35.2687 "
     style="fill:#000000;stroke:#000000"
     transform="translate(4.5,256.5)" />
  <path
     id="path2964"
     d="m 94.7854,183.9292 c -4.2451,8.4901 -9.439,18.8779 -14.1517,28.3034"
     style="fill:none;stroke:#000000"
     inkscape:connector-curvature="0" />
  <polygon
     id="polygon2966"
     points="72.976,-45.7782 79.237,-42.6477 79.237,-42.6477 71.6343,-35.2687 "
     style="fill:#000000;stroke:#000000"
     transform="translate(4.5,256.5)" />
  <path
     style="fill:none;stroke:#000000;stroke-width:20;stroke-linecap:butt;stroke-linejoin:miter;stroke-miterlimit:1;stroke-opacity:1;stroke-dasharray:none;marker-end:url(#Arrow2Send)"
     d="m 159.34677,131.09608 91.61018,0"
     id="path3028" />
  <flowRoot
     xml:space="preserve"
     id="flowRoot4442"
     style="font-size:40px;font-style:normal;font-variant:normal;font-weight:normal;font-stretch:normal;fill:#000000;fill-opacity:1;stroke:none;font-family:Sans;-inkscape-font-specification:Sans"
     transform="translate(172.35593,30.62712)"><flowRegion
       id="flowRegion4444"><rect
         id="rect4446"
         width="137.91313"
         height="105.55085"
         x="-546.67371"
         y="-18.42161" /></flowRegion><flowPara
       id="flowPara4448" /></flowRoot></svg>
