<?xml version="1.0" encoding="UTF-8" standalone="no"?>
<!-- Generated by graphviz version 2.22.0 (20090304.0156)
 -->

<!-- Title: _anonymous_0 Pages: 1 -->

<svg
   xmlns:dc="http://purl.org/dc/elements/1.1/"
   xmlns:cc="http://creativecommons.org/ns#"
   xmlns:rdf="http://www.w3.org/1999/02/22-rdf-syntax-ns#"
   xmlns:svg="http://www.w3.org/2000/svg"
   xmlns="http://www.w3.org/2000/svg"
   xmlns:xlink="http://www.w3.org/1999/xlink"
   xmlns:sodipodi="http://sodipodi.sourceforge.net/DTD/sodipodi-0.dtd"
   xmlns:inkscape="http://www.inkscape.org/namespaces/inkscape"
   width="338.75"
   height="406.25"
   viewBox="0 0 271 325"
   id="svg2"
   version="1.1"
   inkscape:version="0.91 r13725"
   sodipodi:docname="algo_D4 (copie 1).svg">
  <metadata
     id="metadata209">
    <rdf:RDF>
      <cc:Work
         rdf:about="">
        <dc:format>image/svg+xml</dc:format>
        <dc:type
           rdf:resource="http://purl.org/dc/dcmitype/StillImage" />
        <dc:title></dc:title>
      </cc:Work>
    </rdf:RDF>
  </metadata>
  <defs
     id="defs207">
    <linearGradient
       inkscape:collect="always"
       id="linearGradient5693">
      <stop
         style="stop-color:#ffff00;stop-opacity:1;"
         offset="0"
         id="stop5695" />
      <stop
         style="stop-color:#ffff00;stop-opacity:0;"
         offset="1"
         id="stop5697" />
    </linearGradient>
    <marker
       inkscape:stockid="Arrow2Send"
       orient="auto"
       refY="0"
       refX="0"
       id="Arrow2Send"
       style="overflow:visible">
      <path
         inkscape:connector-curvature="0"
         id="path3838"
         style="font-size:12px;fill-rule:evenodd;stroke-width:0.625;stroke-linejoin:round"
         d="M 8.7185878,4.0337352 -2.2072895,0.01601326 8.7185884,-4.0017078 c -1.7454984,2.3720609 -1.7354408,5.6174519 -6e-7,8.035443 z"
         transform="matrix(-0.3,0,0,-0.3,0.69,0)" />
    </marker>
    <linearGradient
       inkscape:collect="always"
       xlink:href="#linearGradient5693"
       id="linearGradient5699"
       x1="179.5"
       y1="-162"
       x2="206.14981"
       y2="-162.49738"
       gradientUnits="userSpaceOnUse"
       gradientTransform="translate(0.5,324.5)" />
    <linearGradient
       inkscape:collect="always"
       xlink:href="#linearGradient5693"
       id="linearGradient5701"
       x1="107.5"
       y1="-162"
       x2="133.65244"
       y2="-161.50262"
       gradientUnits="userSpaceOnUse"
       gradientTransform="translate(0.5,324.5)" />
    <linearGradient
       inkscape:collect="always"
       xlink:href="#linearGradient5693"
       id="linearGradient5703"
       x1="35.5"
       y1="-162"
       x2="61.155067"
       y2="-162"
       gradientUnits="userSpaceOnUse"
       gradientTransform="translate(0.5,324.5)" />
  </defs>
  <sodipodi:namedview
     pagecolor="#ffffff"
     bordercolor="#666666"
     borderopacity="1"
     objecttolerance="10"
     gridtolerance="10"
     guidetolerance="10"
     inkscape:pageopacity="0"
     inkscape:pageshadow="2"
     inkscape:window-width="1920"
     inkscape:window-height="1018"
     id="namedview205"
     showgrid="false"
     fit-margin-top="0"
     fit-margin-left="0"
     fit-margin-right="0"
     fit-margin-bottom="0"
     inkscape:zoom="1.6084549"
     inkscape:cx="38.507923"
     inkscape:cy="178.85317"
     inkscape:window-x="0"
     inkscape:window-y="31"
     inkscape:window-maximized="1"
     inkscape:current-layer="svg2" />
  <ellipse
     cx="135.5"
     cy="18.5"
     rx="27"
     ry="18"
     id="ellipse12"
     style="fill:#ffff00;stroke:#000000" />
  <text
     x="135.5"
     y="21.899994"
     font-size="14.00"
     id="text14"
     style="font-size:14px;text-anchor:middle">0</text>
  <ellipse
     cx="99.5"
     cy="90.5"
     rx="27"
     ry="18"
     id="ellipse19"
     style="fill:#ffff00;stroke:#000000" />
  <text
     x="99.5"
     y="93.899994"
     font-size="14.00"
     id="text21"
     style="font-size:14px;text-anchor:middle">1</text>
  <path
     d="m 126.785,35.929 c -4.245,8.49 -9.439,18.878 -14.151,28.304"
     id="path26"
     inkscape:connector-curvature="0"
     style="fill:none;stroke:#000000" />
  <polygon
     points="115.237,-258.648 115.237,-258.648 107.634,-251.269 108.976,-261.778 "
     id="polygon28"
     style="fill:#000000;stroke:#000000"
     transform="translate(0.5,324.5)" />
  <ellipse
     cx="171.5"
     cy="90.5"
     rx="27"
     ry="18"
     id="ellipse33"
     style="fill:#ffff00;stroke:#000000" />
  <text
     x="171.5"
     y="93.899994"
     font-size="14.00"
     id="text35"
     style="font-size:14px;text-anchor:middle">2</text>
  <path
     d="m 144.215,35.929 c 4.245,8.49 9.439,18.878 14.151,28.304"
     id="path40"
     inkscape:connector-curvature="0"
     style="fill:none;stroke:#000000" />
  <polygon
     points="161.024,-261.778 161.024,-261.778 162.366,-251.269 154.763,-258.648 "
     id="polygon42"
     style="fill:#000000;stroke:#000000"
     transform="translate(0.5,324.5)" />
  <ellipse
     cx="135.5"
     cy="162.5"
     rx="27"
     ry="18"
     id="ellipse47"
     style="fill:url(#linearGradient5701);fill-opacity:1;stroke:#000000" />
  <text
     x="135.5"
     y="165.89999"
     font-size="14.00"
     id="text49"
     style="font-size:14px;text-anchor:middle">3</text>
  <path
     d="m 108.215,107.929 c 4.245,8.49 9.439,18.878 14.151,28.304"
     id="path54"
     inkscape:connector-curvature="0"
     style="fill:none;stroke:#000000" />
  <polygon
     points="125.024,-189.778 125.024,-189.778 126.366,-179.269 118.763,-186.648 "
     id="polygon56"
     style="fill:#000000;stroke:#000000"
     transform="translate(0.5,324.5)" />
  <ellipse
     cx="63.5"
     cy="162.5"
     rx="27"
     ry="18"
     id="ellipse61"
     style="fill:url(#linearGradient5703);fill-opacity:1;stroke:#000000" />
  <text
     x="63.5"
     y="165.89999"
     font-size="14.00"
     id="text63"
     style="font-size:14px;text-anchor:middle;fill:#000000">4</text>
  <path
     d="m 90.7854,107.929 c -4.2451,8.49 -9.439,18.878 -14.1517,28.304"
     id="path68"
     inkscape:connector-curvature="0"
     style="fill:none;stroke:#000000" />
  <polygon
     points="79.237,-186.648 79.237,-186.648 71.6343,-179.269 72.976,-189.778 "
     id="polygon70"
     style="fill:#000000;stroke:#000000"
     transform="translate(0.5,324.5)" />
  <path
     d="m 162.785,107.929 c -4.245,8.49 -9.439,18.878 -14.151,28.304"
     id="path75"
     inkscape:connector-curvature="0"
     style="fill:none;stroke:#000000" />
  <polygon
     points="151.237,-186.648 151.237,-186.648 143.634,-179.269 144.976,-189.778 "
     id="polygon77"
     style="fill:#000000;stroke:#000000"
     transform="translate(0.5,324.5)" />
  <ellipse
     cx="207.5"
     cy="162.5"
     rx="27"
     ry="18"
     id="ellipse82"
     style="fill:url(#linearGradient5699);fill-opacity:1;stroke:#000000" />
  <text
     x="207.5"
     y="165.89999"
     font-size="14.00"
     id="text84"
     style="font-size:14px;text-anchor:middle">8</text>
  <path
     d="m 180.215,107.929 c 4.245,8.49 9.439,18.878 14.151,28.304"
     id="path89"
     inkscape:connector-curvature="0"
     style="fill:none;stroke:#000000" />
  <polygon
     points="197.024,-189.778 197.024,-189.778 198.366,-179.269 190.763,-186.648 "
     id="polygon91"
     style="fill:#000000;stroke:#000000"
     transform="translate(0.5,324.5)" />
  <ellipse
     cx="99.5"
     cy="234.5"
     rx="27"
     ry="18"
     id="ellipse96"
     style="fill:none;fill-opacity:1;stroke:#000000" />
  <text
     x="99.5"
     y="237.89999"
     font-size="14.00"
     id="text98"
     style="font-size:14px;text-anchor:middle;fill:#000000">6</text>
  <path
     d="m 126.785,179.929 c -4.245,8.49 -9.439,18.878 -14.151,28.304"
     id="path103"
     inkscape:connector-curvature="0"
     style="fill:none;stroke:#000000" />
  <polygon
     points="115.237,-114.648 115.237,-114.648 107.634,-107.269 108.976,-117.778 "
     id="polygon105"
     style="fill:#000000;stroke:#000000"
     transform="translate(0.5,324.5)" />
  <ellipse
     cx="171.5"
     cy="234.5"
     rx="27"
     ry="18"
     id="ellipse110"
     style="fill:none;stroke:#000000" />
  <text
     x="171.5"
     y="237.89999"
     font-size="14.00"
     id="text112"
     style="font-size:14px;text-anchor:middle">9</text>
  <path
     d="m 144.215,179.929 c 4.245,8.49 9.439,18.878 14.151,28.304"
     id="path117"
     inkscape:connector-curvature="0"
     style="fill:none;stroke:#000000" />
  <polygon
     points="161.024,-117.778 161.024,-117.778 162.366,-107.269 154.763,-114.648 "
     id="polygon119"
     style="fill:#000000;stroke:#000000"
     transform="translate(0.5,324.5)" />
  <ellipse
     cx="27.5"
     cy="234.5"
     rx="27"
     ry="18"
     id="ellipse124"
     style="fill:none;fill-opacity:1;stroke:#000000" />
  <text
     x="27.5"
     y="237.89999"
     font-size="14.00"
     id="text126"
     style="font-size:14px;text-anchor:middle;fill:#000000">5</text>
  <path
     d="m 54.7854,179.929 c -4.2451,8.49 -9.439,18.878 -14.1517,28.304"
     id="path131"
     inkscape:connector-curvature="0"
     style="fill:none;stroke:#000000" />
  <polygon
     points="43.237,-114.648 43.237,-114.648 35.6343,-107.269 36.976,-117.778 "
     id="polygon133"
     style="fill:#000000;stroke:#000000"
     transform="translate(0.5,324.5)" />
  <path
     d="m 72.2146,179.929 c 4.2451,8.49 9.439,18.878 14.1517,28.304"
     id="path138"
     inkscape:connector-curvature="0"
     style="fill:none;stroke:#000000" />
  <polygon
     points="89.024,-117.778 89.024,-117.778 90.3657,-107.269 82.763,-114.648 "
     id="polygon140"
     style="fill:#000000;stroke:#000000"
     transform="translate(0.5,324.5)" />
  <ellipse
     cx="81.5"
     cy="306.5"
     rx="27"
     ry="18"
     id="ellipse145"
     style="fill:none;fill-opacity:1;stroke:#000000" />
  <text
     x="81.5"
     y="309.89999"
     font-size="14.00"
     id="text147"
     style="font-size:14px;text-anchor:middle;fill:#000000">7</text>
  <path
     d="m 39.7534,250.8379 c 6.9043,9.2057 15.6643,20.8857 23.3751,31.1668"
     id="path152"
     inkscape:connector-curvature="0"
     style="fill:none;stroke:#000000" />
  <polygon
     points="65.595,-44.3733 65.595,-44.3733 68.7951,-34.2733 59.995,-40.1733 "
     id="polygon154"
     style="fill:#000000;stroke:#000000"
     transform="translate(0.5,324.5)" />
  <path
     d="m 95.0506,252.2978 c -1.9904,7.9616 -4.3838,17.5351 -6.6017,26.4065"
     id="path159"
     inkscape:connector-curvature="0"
     style="fill:none;stroke:#000000" />
  <polygon
     points="91.2816,-44.6951 91.2816,-44.6951 85.4606,-35.8425 84.4906,-46.3929 "
     id="polygon161"
     style="fill:#000000;stroke:#000000"
     transform="translate(0.5,324.5)" />
  <path
     d="m 198.785,179.929 c -4.245,8.49 -9.439,18.878 -14.151,28.304"
     id="path166"
     inkscape:connector-curvature="0"
     style="fill:none;stroke:#000000" />
  <polygon
     points="187.237,-114.648 187.237,-114.648 179.634,-107.269 180.976,-117.778 "
     id="polygon168"
     style="fill:#000000;stroke:#000000"
     transform="translate(0.5,324.5)" />
  <ellipse
     cx="243.5"
     cy="234.5"
     rx="27"
     ry="18"
     id="ellipse173"
     style="fill:none;stroke:#000000" />
  <text
     x="243.5"
     y="237.89999"
     font-size="14.00"
     id="text175"
     style="font-size:14px;text-anchor:middle">10</text>
  <path
     d="m 216.215,179.929 c 4.245,8.49 9.439,18.878 14.151,28.304"
     id="path180"
     inkscape:connector-curvature="0"
     style="fill:none;stroke:#000000" />
  <polygon
     points="233.024,-117.778 233.024,-117.778 234.366,-107.269 226.763,-114.648 "
     id="polygon182"
     style="fill:#000000;stroke:#000000"
     transform="translate(0.5,324.5)" />
  <ellipse
     cx="189.5"
     cy="306.5"
     rx="27"
     ry="18"
     id="ellipse187"
     style="fill:none;stroke:#000000" />
  <text
     x="189.5"
     y="309.89999"
     font-size="14.00"
     id="text189"
     style="font-size:14px;text-anchor:middle">11</text>
  <path
     d="m 175.949,252.2978 c 1.991,7.9616 4.384,17.5351 6.602,26.4065"
     id="path194"
     inkscape:connector-curvature="0"
     style="fill:none;stroke:#000000" />
  <polygon
     points="185.509,-46.3929 185.509,-46.3929 184.539,-35.8425 178.718,-44.6951 "
     id="polygon196"
     style="fill:#000000;stroke:#000000"
     transform="translate(0.5,324.5)" />
  <path
     d="m 231.247,250.8379 c -6.905,9.2057 -15.665,20.8857 -23.376,31.1668"
     id="path201"
     inkscape:connector-curvature="0"
     style="fill:none;stroke:#000000" />
  <polygon
     points="210.005,-40.1733 210.005,-40.1733 201.205,-34.2733 204.405,-44.3733 "
     id="polygon203"
     style="fill:#000000;stroke:#000000"
     transform="translate(0.5,324.5)" />
</svg>
