<?xml version="1.0" encoding="UTF-8" standalone="no"?>
<!-- Generated by graphviz version 2.38.0 (20140413.2041)
 -->

<!-- Title: g Pages: 1 -->

<svg
   xmlns:dc="http://purl.org/dc/elements/1.1/"
   xmlns:cc="http://creativecommons.org/ns#"
   xmlns:rdf="http://www.w3.org/1999/02/22-rdf-syntax-ns#"
   xmlns:svg="http://www.w3.org/2000/svg"
   xmlns="http://www.w3.org/2000/svg"
   xmlns:sodipodi="http://sodipodi.sourceforge.net/DTD/sodipodi-0.dtd"
   xmlns:inkscape="http://www.inkscape.org/namespaces/inkscape"
   width="752.17212pt"
   height="613pt"
   viewBox="0 0 752.84975 613"
   id="svg2"
   version="1.1"
   inkscape:version="0.91 r13725"
   sodipodi:docname="algo_z2.svg">
  <metadata
     id="metadata272">
    <rdf:RDF>
      <cc:Work
         rdf:about="">
        <dc:format>image/svg+xml</dc:format>
        <dc:type
           rdf:resource="http://purl.org/dc/dcmitype/StillImage" />
        <dc:title></dc:title>
      </cc:Work>
    </rdf:RDF>
  </metadata>
  <defs
     id="defs270">
    <marker
       inkscape:stockid="Arrow1Send"
       orient="auto"
       refY="0"
       refX="0"
       id="Arrow1Send"
       style="overflow:visible"
       inkscape:isstock="true">
      <path
         id="path5638"
         d="M 0,0 5,-5 -12.5,0 5,5 0,0 Z"
         style="fill:#000000;fill-opacity:1;fill-rule:evenodd;stroke:#000000;stroke-width:1pt;stroke-opacity:1"
         transform="matrix(-0.2,0,0,-0.2,-1.2,0)"
         inkscape:connector-curvature="0" />
    </marker>
    <marker
       inkscape:stockid="Arrow2Mend"
       orient="auto"
       refY="0"
       refX="0"
       id="Arrow2Mend"
       style="overflow:visible"
       inkscape:isstock="true">
      <path
         id="path5650"
         style="fill:#000000;fill-opacity:1;fill-rule:evenodd;stroke:#000000;stroke-width:0.625;stroke-linejoin:round;stroke-opacity:1"
         d="M 8.7185878,4.0337352 -2.2072895,0.01601326 8.7185884,-4.0017078 c -1.7454984,2.3720609 -1.7354408,5.6174519 -6e-7,8.035443 z"
         transform="scale(-0.6,-0.6)"
         inkscape:connector-curvature="0" />
    </marker>
    <marker
       inkscape:stockid="Arrow2Lend"
       orient="auto"
       refY="0"
       refX="0"
       id="Arrow2Lend"
       style="overflow:visible"
       inkscape:isstock="true">
      <path
         id="path5644"
         style="fill:#000000;fill-opacity:1;fill-rule:evenodd;stroke:#000000;stroke-width:0.625;stroke-linejoin:round;stroke-opacity:1"
         d="M 8.7185878,4.0337352 -2.2072895,0.01601326 8.7185884,-4.0017078 c -1.7454984,2.3720609 -1.7354408,5.6174519 -6e-7,8.035443 z"
         transform="matrix(-1.1,0,0,-1.1,-1.1,0)"
         inkscape:connector-curvature="0" />
    </marker>
    <marker
       inkscape:stockid="Arrow1Lend"
       orient="auto"
       refY="0"
       refX="0"
       id="Arrow1Lend"
       style="overflow:visible"
       inkscape:isstock="true">
      <path
         id="path5626"
         d="M 0,0 5,-5 -12.5,0 5,5 0,0 Z"
         style="fill:#000000;fill-opacity:1;fill-rule:evenodd;stroke:#000000;stroke-width:1pt;stroke-opacity:1"
         transform="matrix(-0.8,0,0,-0.8,-10,0)"
         inkscape:connector-curvature="0" />
    </marker>
  </defs>
  <sodipodi:namedview
     pagecolor="#ffffff"
     bordercolor="#666666"
     borderopacity="1"
     objecttolerance="10"
     gridtolerance="10"
     guidetolerance="10"
     inkscape:pageopacity="0"
     inkscape:pageshadow="2"
     inkscape:window-width="2560"
     inkscape:window-height="1497"
     id="namedview268"
     showgrid="false"
     fit-margin-top="0"
     fit-margin-left="0"
     fit-margin-right="0"
     fit-margin-bottom="0"
     inkscape:zoom="1.1218635"
     inkscape:cx="358.57815"
     inkscape:cy="365.83675"
     inkscape:window-x="0"
     inkscape:window-y="39"
     inkscape:window-maximized="1"
     inkscape:current-layer="svg2" />
  <g
     id="g5541"
     transform="translate(533.95406,68.561712)">
    <ellipse
       style="fill:#ffff00;stroke:#000000"
       id="ellipse12"
       ry="18"
       rx="27"
       cy="22"
       cx="103" />
    <text
       style="font-size:14px;font-family:Times, serif;text-anchor:middle"
       id="text14"
       font-size="14.00"
       y="25.700012"
       x="103">1-2</text>
    <ellipse
       style="fill:#ff8080;stroke:#000000"
       id="ellipse19"
       ry="18"
       rx="27"
       cy="94"
       cx="67" />
    <text
       style="font-size:14px;font-family:Times, serif;text-anchor:middle"
       id="text21"
       font-size="14.00"
       y="97.700012"
       x="67">3-4</text>
    <path
       style="fill:none;stroke:#000000"
       inkscape:connector-curvature="0"
       id="path26"
       d="M 94.6504,39.235 C 90.2885,47.717 84.8531,58.286 79.9587,67.803" />
    <polygon
       transform="translate(4,472)"
       style="fill:#000000;stroke:#000000"
       id="polygon28"
       points="78.9904,-402.439 71.3043,-395.147 72.7654,-405.641 78.9904,-402.439 " />
    <ellipse
       style="fill:#0000ff;stroke:#000000"
       id="ellipse33"
       ry="18"
       rx="27"
       cy="94"
       cx="139" />
    <text
       style="font-size:14px;font-family:Times, serif;text-anchor:middle;fill:#ffffff"
       id="text35"
       font-size="14.00"
       y="97.700012"
       x="139">6-7</text>
    <path
       style="fill:none;stroke:#000000"
       inkscape:connector-curvature="0"
       id="path40"
       d="m 111.35,39.235 c 4.362,8.482 9.797,19.051 14.691,28.568" />
    <polygon
       transform="translate(4,472)"
       style="fill:#000000;stroke:#000000"
       id="polygon42"
       points="125.235,-405.641 126.696,-395.147 119.01,-402.439 125.235,-405.641 " />
    <ellipse
       style="fill:#00ff00;stroke:#000000"
       id="ellipse47"
       ry="18"
       rx="27"
       cy="166"
       cx="31" />
    <text
       style="font-size:14px;font-family:Times, serif;text-anchor:middle"
       id="text49"
       font-size="14.00"
       y="169.70001"
       x="31">5</text>
    <path
       style="fill:none;stroke:#000000"
       inkscape:connector-curvature="0"
       id="path54"
       d="m 58.6504,111.235 c -4.3619,8.482 -9.7973,19.051 -14.6917,28.568" />
    <polygon
       transform="translate(4,472)"
       style="fill:#000000;stroke:#000000"
       id="polygon56"
       points="42.9904,-330.439 35.3043,-323.147 36.7654,-333.641 42.9904,-330.439 " />
    <ellipse
       style="fill:#eeffaa;stroke:#000000"
       id="ellipse61"
       ry="18"
       rx="27"
       cy="166"
       cx="103" />
    <text
       style="font-size:14px;font-family:Times, serif;text-anchor:middle"
       id="text63"
       font-size="14.00"
       y="169.70001"
       x="103">8-9</text>
    <path
       style="fill:none;stroke:#000000"
       inkscape:connector-curvature="0"
       id="path68"
       d="m 75.3496,111.235 c 4.3619,8.482 9.7973,19.051 14.6917,28.568" />
    <polygon
       transform="translate(4,472)"
       style="fill:#000000;stroke:#000000"
       id="polygon70"
       points="89.2346,-333.641 90.6957,-323.147 83.0096,-330.439 89.2346,-333.641 " />
    <path
       style="fill:none;stroke:#000000"
       inkscape:connector-curvature="0"
       id="path75"
       d="m 130.65,111.235 c -4.362,8.482 -9.797,19.051 -14.691,28.568" />
    <polygon
       transform="translate(4,472)"
       style="fill:#000000;stroke:#000000"
       id="polygon77"
       points="114.99,-330.439 107.304,-323.147 108.765,-333.641 114.99,-330.439 " />
    <ellipse
       style="fill:#ffff00;stroke:#000000"
       id="ellipse82"
       ry="18"
       rx="31.3957"
       cy="166"
       cx="179" />
    <text
       style="font-size:14px;font-family:Times, serif;text-anchor:middle"
       id="text84"
       font-size="14.00"
       y="169.70001"
       x="179">11-12</text>
    <path
       style="fill:none;stroke:#000000"
       inkscape:connector-curvature="0"
       id="path89"
       d="m 148.277,111.235 c 4.778,8.361 10.714,18.749 16.091,28.159" />
    <polygon
       transform="translate(4,472)"
       style="fill:#000000;stroke:#000000"
       id="polygon91"
       points="163.573,-334.052 165.495,-323.633 157.495,-330.579 163.573,-334.052 " />
    <ellipse
       style="fill:#7137c8;fill-opacity:1;stroke:#000000"
       id="ellipse96"
       ry="18"
       rx="27"
       cy="238"
       cx="31" />
    <text
       style="font-size:14px;font-family:Times, serif;text-anchor:middle;fill:#ffffff"
       id="text98"
       font-size="14.00"
       y="241.7"
       x="31">10</text>
    <path
       style="fill:none;stroke:#000000"
       inkscape:connector-curvature="0"
       id="path103"
       d="m 31,184.303 c 0,7.714 0,16.985 0,25.585" />
    <polygon
       transform="translate(4,472)"
       style="fill:#000000;stroke:#000000"
       id="polygon105"
       points="30.5001,-262.104 27,-252.104 23.5001,-262.104 30.5001,-262.104 " />
    <path
       style="fill:none;stroke:#000000"
       inkscape:connector-curvature="0"
       id="path110"
       d="m 88.4297,181.166 c -10.1796,9.896 -23.9536,23.288 -35.4603,34.475" />
    <polygon
       transform="translate(4,472)"
       style="fill:#000000;stroke:#000000"
       id="polygon112"
       points="51.4055,-253.846 41.7957,-249.385 46.5259,-258.865 51.4055,-253.846 " />
    <ellipse
       style="fill:#ff8080;stroke:#000000"
       id="ellipse117"
       ry="18"
       rx="31.3957"
       cy="238"
       cx="107" />
    <text
       style="font-size:14px;font-family:Times, serif;text-anchor:middle"
       id="text119"
       font-size="14.00"
       y="241.7"
       x="107">13-14</text>
    <path
       style="fill:none;stroke:#000000"
       inkscape:connector-curvature="0"
       id="path124"
       d="m 103.9888,184.303 c 0.4412,7.714 0.9702,16.985 1.4622,25.585" />
    <polygon
       transform="translate(4,472)"
       style="fill:#000000;stroke:#000000"
       id="polygon126"
       points="104.946,-262.288 102.023,-252.104 97.9577,-261.888 104.946,-262.288 " />
    <path
       style="fill:none;stroke:#000000"
       inkscape:connector-curvature="0"
       id="path131"
       d="m 163.731,181.845 c -9.928,9.652 -23.046,22.406 -34.167,33.218" />
    <polygon
       transform="translate(4,472)"
       style="fill:#000000;stroke:#000000"
       id="polygon133"
       points="127.857,-254.285 118.247,-249.824 122.978,-259.304 127.857,-254.285 " />
    <ellipse
       style="fill:#0000ff;stroke:#000000"
       id="ellipse138"
       ry="18"
       rx="31.3957"
       cy="238"
       cx="187" />
    <text
       style="font-size:14px;font-family:Times, serif;text-anchor:middle;fill:#ffffff"
       id="text140"
       font-size="14.00"
       y="241.7"
       x="187">16-17</text>
    <path
       style="fill:none;stroke:#000000"
       inkscape:connector-curvature="0"
       id="path145"
       d="m 180.978,184.303 c 0.881,7.714 1.941,16.985 2.923,25.585" />
    <polygon
       transform="translate(4,472)"
       style="fill:#000000;stroke:#000000"
       id="polygon147"
       points="183.387,-262.437 181.045,-252.104 176.432,-261.642 183.387,-262.437 " />
    <ellipse
       style="fill:#00ff00;stroke:#000000"
       id="ellipse152"
       ry="18"
       rx="27"
       cy="310"
       cx="31" />
    <text
       style="font-size:14px;font-family:Times, serif;text-anchor:middle"
       id="text154"
       font-size="14.00"
       y="313.70001"
       x="31">15</text>
    <path
       style="fill:none;stroke:#000000"
       inkscape:connector-curvature="0"
       id="path159"
       d="m 31,256.303 c 0,7.714 0,16.985 0,25.585" />
    <polygon
       transform="translate(4,472)"
       style="fill:#000000;stroke:#000000"
       id="polygon161"
       points="30.5001,-190.104 27,-180.104 23.5001,-190.104 30.5001,-190.104 " />
    <path
       style="fill:none;stroke:#000000"
       inkscape:connector-curvature="0"
       id="path166"
       d="M 90.8824,253.845 C 80.088,263.787 65.72,277.021 53.7637,288.033" />
    <polygon
       transform="translate(4,472)"
       style="fill:#000000;stroke:#000000"
       id="polygon168"
       points="52.0435,-181.308 42.3169,-177.108 47.3012,-186.457 52.0435,-181.308 " />
    <ellipse
       style="fill:#f6ffd5;stroke:#000000"
       id="ellipse173"
       ry="18"
       rx="31.3957"
       cy="310"
       cx="107" />
    <text
       style="font-size:14px;font-family:Times, serif;text-anchor:middle"
       id="text175"
       font-size="14.00"
       y="313.70001"
       x="107">18-19</text>
    <path
       style="fill:none;stroke:#000000"
       inkscape:connector-curvature="0"
       id="path180"
       d="m 107,256.303 c 0,7.714 0,16.985 0,25.585" />
    <polygon
       transform="translate(4,472)"
       style="fill:#000000;stroke:#000000"
       id="polygon182"
       points="106.5,-190.104 103,-180.104 99.5001,-190.104 106.5,-190.104 " />
    <ellipse
       style="fill:#7137c8;fill-opacity:1;stroke:#000000"
       id="ellipse187"
       ry="18"
       rx="27"
       cy="382"
       cx="69" />
    <text
       style="font-size:14px;font-family:Times, serif;text-anchor:middle;fill:#ffffff"
       id="text189"
       font-size="14.00"
       y="385.70001"
       x="69">20</text>
    <path
       style="fill:none;stroke:#000000"
       inkscape:connector-curvature="0"
       id="path194"
       d="m 39.8135,327.235 c 4.6042,8.482 10.3415,19.051 15.5079,28.568" />
    <polygon
       transform="translate(4,472)"
       style="fill:#000000;stroke:#000000"
       id="polygon196"
       points="54.5393,-117.606 56.2343,-107.147 48.3874,-114.266 54.5393,-117.606 " />
    <path
       style="fill:none;stroke:#000000"
       inkscape:connector-curvature="0"
       id="path201"
       d="m 170.424,253.504 c -11.263,9.855 -26.351,23.057 -38.986,34.113" />
    <polygon
       transform="translate(4,472)"
       style="fill:#000000;stroke:#000000"
       id="polygon203"
       points="129.385,-181.437 119.555,-177.485 124.776,-186.705 129.385,-181.437 " />
    <ellipse
       style="fill:#ffff00;stroke:#000000"
       id="ellipse208"
       ry="18"
       rx="31.3957"
       cy="310"
       cx="187" />
    <text
       style="font-size:14px;font-family:Times, serif;text-anchor:middle"
       id="text210"
       font-size="14.00"
       y="313.70001"
       x="187">21-22</text>
    <path
       style="fill:none;stroke:#000000"
       inkscape:connector-curvature="0"
       id="path215"
       d="m 187,256.303 c 0,7.714 0,16.985 0,25.585" />
    <polygon
       transform="translate(4,472)"
       style="fill:#000000;stroke:#000000"
       id="polygon217"
       points="186.5,-190.104 183,-180.104 179.5,-190.104 186.5,-190.104 " />
    <path
       style="fill:none;stroke:#000000"
       inkscape:connector-curvature="0"
       id="path222"
       d="m 97.9945,327.589 c -4.5431,8.369 -10.152,18.701 -15.2223,28.041" />
    <polygon
       transform="translate(4,472)"
       style="fill:#000000;stroke:#000000"
       id="polygon224"
       points="81.7878,-114.589 73.9408,-107.47 75.6358,-117.928 81.7878,-114.589 " />
    <ellipse
       style="fill:#ff8080;stroke:#000000"
       id="ellipse229"
       ry="18"
       rx="31.3957"
       cy="382"
       cx="145" />
    <text
       style="font-size:14px;font-family:Times, serif;text-anchor:middle"
       id="text231"
       font-size="14.00"
       y="385.70001"
       x="145">23-24</text>
    <path
       style="fill:none;stroke:#000000"
       inkscape:connector-curvature="0"
       id="path236"
       d="m 116.005,327.589 c 4.544,8.369 10.153,18.701 15.223,28.041" />
    <polygon
       transform="translate(4,472)"
       style="fill:#000000;stroke:#000000"
       id="polygon238"
       points="130.364,-117.928 132.059,-107.47 124.212,-114.589 130.364,-117.928 " />
    <ellipse
       style="fill:#00ff00;stroke:#000000"
       id="ellipse243"
       ry="18"
       rx="27"
       cy="454"
       cx="107" />
    <text
       style="font-size:14px;font-family:Times, serif;text-anchor:middle"
       id="text245"
       font-size="14.00"
       y="457.70001"
       x="107">25</text>
    <path
       style="fill:none;stroke:#000000"
       inkscape:connector-curvature="0"
       id="path250"
       d="m 77.8135,399.2354 c 4.6042,8.4815 10.3415,19.0502 15.5079,28.5672" />
    <polygon
       transform="translate(4,472)"
       style="fill:#000000;stroke:#000000"
       id="polygon252"
       points="92.5393,-45.6057 94.2343,-35.1473 86.3874,-42.266 92.5393,-45.6057 " />
    <path
       style="fill:none;stroke:#000000"
       inkscape:connector-curvature="0"
       id="path257"
       d="m 177.259,327.235 c -5.142,8.57 -11.563,19.271 -17.319,28.865" />
    <polygon
       transform="translate(4,472)"
       style="fill:#000000;stroke:#000000"
       id="polygon259"
       points="158.835,-113.921 150.688,-107.147 152.832,-117.523 158.835,-113.921 " />
    <path
       style="fill:none;stroke:#000000"
       inkscape:connector-curvature="0"
       id="path264"
       d="m 135.995,399.589 c -4.544,8.3689 -10.153,18.7012 -15.223,28.0412" />
    <polygon
       transform="translate(4,472)"
       style="fill:#000000;stroke:#000000"
       id="polygon266"
       points="119.788,-42.5887 111.941,-35.4699 113.636,-45.9283 119.788,-42.5887 " />
  </g>
  <g
     id="g5408"
     transform="translate(401.91183,53.648918)">
    <ellipse
       style="fill:#ffff00;stroke:#000000;stroke-width:1.00090086"
       id="ellipse348"
       ry="18.016216"
       rx="27.024324"
       cy="252.91281"
       cx="-86.127594" />
    <g
       id="g5277">
      <ellipse
         cx="-230.25732"
         cy="-35.346653"
         rx="27.024324"
         ry="18.016216"
         id="ellipse12-7"
         style="fill:#ffff00;stroke:#000000;stroke-width:1.00090086" />
      <text
         x="-230.25732"
         y="-31.643309"
         font-size="14.00"
         id="text14-4"
         style="font-size:14.01261234px;font-family:Times, serif;text-anchor:middle">1</text>
      <ellipse
         cx="-266.28976"
         cy="36.718208"
         rx="27.024324"
         ry="18.016216"
         id="ellipse19-5"
         style="fill:#ffff00;stroke:#000000;stroke-width:1.00090086" />
      <text
         x="-266.28976"
         y="40.421555"
         font-size="14.00"
         id="text21-6"
         style="font-size:14.01261234px;font-family:Times, serif;text-anchor:middle">2</text>
      <path
         d="m -238.61485,-18.096128 c -4.36593,8.4896418 -9.80582,19.06816346 -14.70423,28.593737"
         id="path26-5"
         inkscape:connector-curvature="0"
         style="fill:none;stroke:#000000;stroke-width:1.00090086" />
      <polygon
         points="150.99,-546.439 143.304,-539.147 144.765,-549.641 150.99,-546.439 "
         id="polygon28-7"
         style="fill:#000000;stroke:#000000"
         transform="matrix(1.0009009,0,0,1.0009009,-401.41138,559.18848)" />
      <ellipse
         cx="-194.2249"
         cy="36.718208"
         rx="27.024324"
         ry="18.016216"
         id="ellipse33-6"
         style="fill:#0000ff;stroke:#000000;stroke-width:1.00090086" />
      <text
         x="-194.2249"
         y="40.421555"
         font-size="14.00"
         id="text35-0"
         style="font-size:14.01261234px;font-family:Times, serif;text-anchor:middle;fill:#ffffff">6</text>
      <path
         d="m -221.8998,-18.096128 c 4.36593,8.4896418 9.80582,19.06816346 14.70423,28.593737"
         id="path40-8"
         inkscape:connector-curvature="0"
         style="fill:none;stroke:#000000;stroke-width:1.00090086" />
      <polygon
         points="197.235,-549.641 198.696,-539.147 191.01,-546.439 197.235,-549.641 "
         id="polygon42-9"
         style="fill:#000000;stroke:#000000"
         transform="matrix(1.0009009,0,0,1.0009009,-401.41138,559.18848)" />
      <ellipse
         cx="-302.3222"
         cy="108.78307"
         rx="27.024324"
         ry="18.016216"
         id="ellipse47-1"
         style="fill:#ff8080;stroke:#000000;stroke-width:1.00090086" />
      <text
         x="-302.3222"
         y="112.48642"
         font-size="14.00"
         id="text49-2"
         style="font-size:14.01261234px;font-family:Times, serif;text-anchor:middle">3</text>
      <path
         d="m -274.64728,53.968737 c -4.36593,8.489642 -9.80583,19.068163 -14.70424,28.593737"
         id="path54-2"
         inkscape:connector-curvature="0"
         style="fill:none;stroke:#000000;stroke-width:1.00090086" />
      <polygon
         points="114.99,-474.439 107.304,-467.147 108.765,-477.641 114.99,-474.439 "
         id="polygon56-3"
         style="fill:#000000;stroke:#000000"
         transform="matrix(1.0009009,0,0,1.0009009,-401.41138,559.18848)" />
      <ellipse
         cx="-230.25732"
         cy="108.78307"
         rx="27.024324"
         ry="18.016216"
         id="ellipse61-4"
         style="fill:#0000ff;stroke:#000000;stroke-width:1.00090086" />
      <text
         x="-230.25732"
         y="112.48642"
         font-size="14.00"
         id="text63-5"
         style="font-size:14.01261234px;font-family:Times, serif;text-anchor:middle;fill:#ffffff">7</text>
      <path
         d="m -257.93224,53.968737 c 4.36593,8.489642 9.80583,19.068163 14.70424,28.593737"
         id="path68-1"
         inkscape:connector-curvature="0"
         style="fill:none;stroke:#000000;stroke-width:1.00090086" />
      <polygon
         points="161.235,-477.641 162.696,-467.147 155.01,-474.439 161.235,-477.641 "
         id="polygon70-6"
         style="fill:#000000;stroke:#000000"
         transform="matrix(1.0009009,0,0,1.0009009,-401.41138,559.18848)" />
      <path
         d="m -202.58242,53.968737 c -4.36593,8.489642 -9.80582,19.068163 -14.70423,28.593737"
         id="path75-3"
         inkscape:connector-curvature="0"
         style="fill:none;stroke:#000000;stroke-width:1.00090086" />
      <polygon
         points="186.99,-474.439 179.304,-467.147 180.765,-477.641 186.99,-474.439 "
         id="polygon77-7"
         style="fill:#000000;stroke:#000000"
         transform="matrix(1.0009009,0,0,1.0009009,-401.41138,559.18848)" />
      <ellipse
         cx="-158.19246"
         cy="108.78307"
         rx="27.024324"
         ry="18.016216"
         id="ellipse82-5"
         style="fill:#ffff00;stroke:#000000;stroke-width:1.00090086" />
      <text
         x="-158.19246"
         y="112.48642"
         font-size="14.00"
         id="text84-9"
         style="font-size:14.01261234px;font-family:Times, serif;text-anchor:middle">11</text>
      <path
         d="m -185.86737,53.968737 c 4.36593,8.489642 9.80582,19.068163 14.70423,28.593737"
         id="path89-9"
         inkscape:connector-curvature="0"
         style="fill:none;stroke:#000000;stroke-width:1.00090086" />
      <polygon
         points="233.235,-477.641 234.696,-467.147 227.01,-474.439 233.235,-477.641 "
         id="polygon91-7"
         style="fill:#000000;stroke:#000000"
         transform="matrix(1.0009009,0,0,1.0009009,-401.41138,559.18848)" />
      <ellipse
         cx="-338.35461"
         cy="180.84795"
         rx="27.024324"
         ry="18.016216"
         id="ellipse96-8"
         style="fill:#ff8080;stroke:#000000;stroke-width:1.00090086" />
      <text
         x="-338.35461"
         y="184.55128"
         font-size="14.00"
         id="text98-8"
         style="font-size:14.01261234px;font-family:Times, serif;text-anchor:middle">4</text>
      <path
         d="m -310.67931,126.0336 c -4.36583,8.48964 -9.80613,19.06817 -14.70494,28.59374"
         id="path103-0"
         inkscape:connector-curvature="0"
         style="fill:none;stroke:#000000;stroke-width:1.00090086" />
      <polygon
         points="78.9904,-402.439 71.3043,-395.147 72.7654,-405.641 78.9904,-402.439 "
         id="polygon105-3"
         style="fill:#000000;stroke:#000000"
         transform="matrix(1.0009009,0,0,1.0009009,-401.41138,559.18848)" />
      <ellipse
         cx="-266.28976"
         cy="180.84795"
         rx="27.024324"
         ry="18.016216"
         id="ellipse110"
         style="fill:#eeffaa;stroke:#000000;stroke-width:1.00090086" />
      <text
         x="-266.28976"
         y="184.55128"
         font-size="14.00"
         id="text112"
         style="font-size:14.01261234px;font-family:Times, serif;text-anchor:middle">8</text>
      <path
         d="m -293.96467,126.0336 c 4.36593,8.48964 9.80583,19.06817 14.70424,28.59374"
         id="path117"
         inkscape:connector-curvature="0"
         style="fill:none;stroke:#000000;stroke-width:1.00090086" />
      <polygon
         points="125.235,-405.641 126.696,-395.147 119.01,-402.439 125.235,-405.641 "
         id="polygon119"
         style="fill:#000000;stroke:#000000"
         transform="matrix(1.0009009,0,0,1.0009009,-401.41138,559.18848)" />
      <path
         d="m -238.61485,126.0336 c -4.36593,8.48964 -9.80582,19.06817 -14.70423,28.59374"
         id="path124-2"
         inkscape:connector-curvature="0"
         style="fill:none;stroke:#000000;stroke-width:1.00090086" />
      <polygon
         points="150.99,-402.439 143.304,-395.147 144.765,-405.641 150.99,-402.439 "
         id="polygon126-1"
         style="fill:#000000;stroke:#000000"
         transform="matrix(1.0009009,0,0,1.0009009,-401.41138,559.18848)" />
      <ellipse
         cx="-194.2249"
         cy="180.84795"
         rx="27.024324"
         ry="18.016216"
         id="ellipse131"
         style="fill:#ffff00;stroke:#000000;stroke-width:1.00090086" />
      <text
         x="-194.2249"
         y="184.55128"
         font-size="14.00"
         id="text133"
         style="font-size:14.01261234px;font-family:Times, serif;text-anchor:middle">12</text>
      <path
         d="m -221.8998,126.0336 c 4.36593,8.48964 9.80582,19.06817 14.70423,28.59374"
         id="path138"
         inkscape:connector-curvature="0"
         style="fill:none;stroke:#000000;stroke-width:1.00090086" />
      <polygon
         points="197.235,-405.641 198.696,-395.147 191.01,-402.439 197.235,-405.641 "
         id="polygon140"
         style="fill:#000000;stroke:#000000"
         transform="matrix(1.0009009,0,0,1.0009009,-401.41138,559.18848)" />
      <path
         d="m -166.54998,126.0336 c -4.36593,8.48964 -9.80583,19.06817 -14.70424,28.59374"
         id="path145-1"
         inkscape:connector-curvature="0"
         style="fill:none;stroke:#000000;stroke-width:1.00090086" />
      <polygon
         points="222.99,-402.439 215.304,-395.147 216.765,-405.641 222.99,-402.439 "
         id="polygon147-4"
         style="fill:#000000;stroke:#000000"
         transform="matrix(1.0009009,0,0,1.0009009,-401.41138,559.18848)" />
      <ellipse
         cx="-122.16003"
         cy="180.84795"
         rx="27.024324"
         ry="18.016216"
         id="ellipse152-8"
         style="fill:#0000ff;stroke:#000000;stroke-width:1.00090086" />
      <text
         x="-122.16003"
         y="184.55128"
         font-size="14.00"
         id="text154-3"
         style="font-size:14.01261234px;font-family:Times, serif;text-anchor:middle;fill:#ffffff">16</text>
      <path
         d="m -149.83494,126.0336 c 4.36593,8.48964 9.80583,19.06817 14.70424,28.59374"
         id="path159-4"
         inkscape:connector-curvature="0"
         style="fill:none;stroke:#000000;stroke-width:1.00090086" />
      <polygon
         points="269.235,-405.641 270.696,-395.147 263.01,-402.439 269.235,-405.641 "
         id="polygon161-1"
         style="fill:#000000;stroke:#000000"
         transform="matrix(1.0009009,0,0,1.0009009,-401.41138,559.18848)" />
      <ellipse
         cx="-374.38705"
         cy="252.91281"
         rx="27.024324"
         ry="18.016216"
         id="ellipse166"
         style="fill:#00ff00;stroke:#000000;stroke-width:1.00090086" />
      <text
         x="-374.38705"
         y="256.61615"
         font-size="14.00"
         id="text168"
         style="font-size:14.01261234px;font-family:Times, serif;text-anchor:middle">5</text>
      <path
         d="m -346.71175,198.09847 c -4.36583,8.48964 -9.80612,19.06816 -14.70493,28.59373"
         id="path173"
         inkscape:connector-curvature="0"
         style="fill:none;stroke:#000000;stroke-width:1.00090086" />
      <polygon
         points="42.9904,-330.439 35.3043,-323.147 36.7654,-333.641 42.9904,-330.439 "
         id="polygon175"
         style="fill:#000000;stroke:#000000"
         transform="matrix(1.0009009,0,0,1.0009009,-401.41138,559.18848)" />
      <ellipse
         cx="-302.3222"
         cy="252.91281"
         rx="27.024324"
         ry="18.016216"
         id="ellipse180"
         style="fill:#eeffaa;stroke:#000000;stroke-width:1.00090086" />
      <text
         x="-302.3222"
         y="256.61615"
         font-size="14.00"
         id="text182"
         style="font-size:14.01261234px;font-family:Times, serif;text-anchor:middle">9</text>
      <path
         d="m -329.9975,198.09847 c 4.36583,8.48964 9.80613,19.06816 14.70493,28.59373"
         id="path187"
         inkscape:connector-curvature="0"
         style="fill:none;stroke:#000000;stroke-width:1.00090086" />
      <polygon
         points="89.2346,-333.641 90.6957,-323.147 83.0096,-330.439 89.2346,-333.641 "
         id="polygon189"
         style="fill:#000000;stroke:#000000"
         transform="matrix(1.0009009,0,0,1.0009009,-401.41138,559.18848)" />
      <path
         d="m -274.64728,198.09847 c -4.36593,8.48964 -9.80583,19.06816 -14.70424,28.59373"
         id="path194-6"
         inkscape:connector-curvature="0"
         style="fill:none;stroke:#000000;stroke-width:1.00090086" />
      <polygon
         points="114.99,-330.439 107.304,-323.147 108.765,-333.641 114.99,-330.439 "
         id="polygon196-0"
         style="fill:#000000;stroke:#000000"
         transform="matrix(1.0009009,0,0,1.0009009,-401.41138,559.18848)" />
      <ellipse
         cx="-230.25732"
         cy="252.91281"
         rx="27.024324"
         ry="18.016216"
         id="ellipse201"
         style="fill:#ff8080;stroke:#000000;stroke-width:1.00090086" />
      <text
         x="-230.25732"
         y="256.61615"
         font-size="14.00"
         id="text203"
         style="font-size:14.01261234px;font-family:Times, serif;text-anchor:middle">13</text>
      <path
         d="m -257.93224,198.09847 c 4.36593,8.48964 9.80583,19.06816 14.70424,28.59373"
         id="path208"
         inkscape:connector-curvature="0"
         style="fill:none;stroke:#000000;stroke-width:1.00090086" />
      <polygon
         points="161.235,-333.641 162.696,-323.147 155.01,-330.439 161.235,-333.641 "
         id="polygon210"
         style="fill:#000000;stroke:#000000"
         transform="matrix(1.0009009,0,0,1.0009009,-401.41138,559.18848)" />
      <path
         d="m -202.58242,198.09847 c -4.36593,8.48964 -9.80582,19.06816 -14.70423,28.59373"
         id="path215-6"
         inkscape:connector-curvature="0"
         style="fill:none;stroke:#000000;stroke-width:1.00090086" />
      <polygon
         points="186.99,-330.439 179.304,-323.147 180.765,-333.641 186.99,-330.439 "
         id="polygon217-5"
         style="fill:#000000;stroke:#000000"
         transform="matrix(1.0009009,0,0,1.0009009,-401.41138,559.18848)" />
      <ellipse
         cx="-158.19246"
         cy="252.91281"
         rx="27.024324"
         ry="18.016216"
         id="ellipse222"
         style="fill:#0000ff;stroke:#000000;stroke-width:1.00090086" />
      <text
         x="-158.19246"
         y="256.61615"
         font-size="14.00"
         id="text224"
         style="font-size:14.01261234px;font-family:Times, serif;text-anchor:middle;fill:#ffffff">17</text>
      <path
         d="m -185.86737,198.09847 c 4.36593,8.48964 9.80582,19.06816 14.70423,28.59373"
         id="path229"
         inkscape:connector-curvature="0"
         style="fill:none;stroke:#000000;stroke-width:1.00090086" />
      <polygon
         points="233.235,-333.641 234.696,-323.147 227.01,-330.439 233.235,-333.641 "
         id="polygon231"
         style="fill:#000000;stroke:#000000"
         transform="matrix(1.0009009,0,0,1.0009009,-401.41138,559.18848)" />
      <ellipse
         cx="-338.35461"
         cy="324.97766"
         rx="27.024324"
         ry="18.016216"
         id="ellipse236"
         style="fill:#7137c8;stroke:#000000;stroke-width:1.00090086" />
      <text
         x="-338.35461"
         y="328.681"
         font-size="14.00"
         id="text238"
         style="font-size:14.01261234px;font-family:Times, serif;text-anchor:middle;fill:#ffffff">10</text>
      <path
         d="m -366.02993,270.16333 c 4.36583,8.48964 9.80612,19.06816 14.70493,28.59374"
         id="path243"
         inkscape:connector-curvature="0"
         style="fill:none;stroke:#000000;stroke-width:1.00090086" />
      <polygon
         points="53.2346,-261.641 54.6957,-251.147 47.0096,-258.439 53.2346,-261.641 "
         id="polygon245"
         style="fill:#000000;stroke:#000000"
         transform="matrix(1.0009009,0,0,1.0009009,-401.41138,559.18848)" />
      <path
         d="m -310.67931,270.16333 c -4.36583,8.48964 -9.80613,19.06816 -14.70494,28.59374"
         id="path250-6"
         inkscape:connector-curvature="0"
         style="fill:none;stroke:#000000;stroke-width:1.00090086" />
      <polygon
         points="78.9904,-258.439 71.3043,-251.147 72.7654,-261.641 78.9904,-258.439 "
         id="polygon252-9"
         style="fill:#000000;stroke:#000000"
         transform="matrix(1.0009009,0,0,1.0009009,-401.41138,559.18848)" />
      <ellipse
         cx="-266.28976"
         cy="324.97766"
         rx="27.024324"
         ry="18.016216"
         id="ellipse257"
         style="fill:#ff8080;stroke:#000000;stroke-width:1.00090086" />
      <text
         x="-266.28976"
         y="328.681"
         font-size="14.00"
         id="text259"
         style="font-size:14.01261234px;font-family:Times, serif;text-anchor:middle">14</text>
      <path
         d="m -293.96467,270.16333 c 4.36593,8.48964 9.80583,19.06816 14.70424,28.59374"
         id="path264-6"
         inkscape:connector-curvature="0"
         style="fill:none;stroke:#000000;stroke-width:1.00090086" />
      <polygon
         points="125.235,-261.641 126.696,-251.147 119.01,-258.439 125.235,-261.641 "
         id="polygon266-0"
         style="fill:#000000;stroke:#000000"
         transform="matrix(1.0009009,0,0,1.0009009,-401.41138,559.18848)" />
      <path
         d="m -238.61485,270.16333 c -4.36593,8.48964 -9.80582,19.06816 -14.70423,28.59374"
         id="path271"
         inkscape:connector-curvature="0"
         style="fill:none;stroke:#000000;stroke-width:1.00090086" />
      <polygon
         points="150.99,-258.439 143.304,-251.147 144.765,-261.641 150.99,-258.439 "
         id="polygon273"
         style="fill:#000000;stroke:#000000"
         transform="matrix(1.0009009,0,0,1.0009009,-401.41138,559.18848)" />
      <ellipse
         cx="-194.2249"
         cy="324.97766"
         rx="27.024324"
         ry="18.016216"
         id="ellipse278"
         style="fill:#f6ffd5;stroke:#000000;stroke-width:1.00090086" />
      <text
         x="-194.2249"
         y="328.681"
         font-size="14.00"
         id="text280"
         style="font-size:14.01261234px;font-family:Times, serif;text-anchor:middle">18</text>
      <path
         d="m -221.8998,270.16333 c 4.36593,8.48964 9.80582,19.06816 14.70423,28.59374"
         id="path285"
         inkscape:connector-curvature="0"
         style="fill:none;stroke:#000000;stroke-width:1.00090086" />
      <polygon
         points="197.235,-261.641 198.696,-251.147 191.01,-258.439 197.235,-261.641 "
         id="polygon287"
         style="fill:#000000;stroke:#000000"
         transform="matrix(1.0009009,0,0,1.0009009,-401.41138,559.18848)" />
      <ellipse
         cx="-302.3222"
         cy="397.04254"
         rx="27.024324"
         ry="18.016216"
         id="ellipse292"
         style="fill:#00ff00;stroke:#000000;stroke-width:1.00090086" />
      <text
         x="-302.3222"
         y="400.74585"
         font-size="14.00"
         id="text294"
         style="font-size:14.01261234px;font-family:Times, serif;text-anchor:middle">15</text>
      <path
         d="m -329.9975,342.2282 c 4.36583,8.48964 9.80613,19.06816 14.70493,28.59373"
         id="path299"
         inkscape:connector-curvature="0"
         style="fill:none;stroke:#000000;stroke-width:1.00090086" />
      <polygon
         points="89.2346,-189.641 90.6957,-179.147 83.0096,-186.439 89.2346,-189.641 "
         id="polygon301"
         style="fill:#000000;stroke:#000000"
         transform="matrix(1.0009009,0,0,1.0009009,-401.41138,559.18848)" />
      <path
         d="m -274.64728,342.2282 c -4.36593,8.48964 -9.80583,19.06816 -14.70424,28.59373"
         id="path306"
         inkscape:connector-curvature="0"
         style="fill:none;stroke:#000000;stroke-width:1.00090086" />
      <polygon
         points="114.99,-186.439 107.304,-179.147 108.765,-189.641 114.99,-186.439 "
         id="polygon308"
         style="fill:#000000;stroke:#000000"
         transform="matrix(1.0009009,0,0,1.0009009,-401.41138,559.18848)" />
      <ellipse
         cx="-230.25732"
         cy="397.04254"
         rx="27.024324"
         ry="18.016216"
         id="ellipse313"
         style="fill:#f6ffd5;stroke:#000000;stroke-width:1.00090086" />
      <text
         x="-230.25732"
         y="400.74585"
         font-size="14.00"
         id="text315"
         style="font-size:14.01261234px;font-family:Times, serif;text-anchor:middle">19</text>
      <path
         d="m -257.93224,342.2282 c 4.36593,8.48964 9.80583,19.06816 14.70424,28.59373"
         id="path320"
         inkscape:connector-curvature="0"
         style="fill:none;stroke:#000000;stroke-width:1.00090086" />
      <polygon
         points="161.235,-189.641 162.696,-179.147 155.01,-186.439 161.235,-189.641 "
         id="polygon322"
         style="fill:#000000;stroke:#000000"
         transform="matrix(1.0009009,0,0,1.0009009,-401.41138,559.18848)" />
      <ellipse
         cx="-266.28976"
         cy="469.10739"
         rx="27.024324"
         ry="18.016216"
         id="ellipse327"
         style="fill:#7137c8;fill-opacity:1;stroke:#000000;stroke-width:1.00090086" />
      <text
         x="-266.28976"
         y="472.81073"
         font-size="14.00"
         id="text329"
         style="font-size:14.01261234px;font-family:Times, serif;text-anchor:middle;fill:#ffffff">20</text>
      <path
         d="m -293.96467,414.29306 c 4.36593,8.48964 9.80583,19.06816 14.70424,28.59374"
         id="path334"
         inkscape:connector-curvature="0"
         style="fill:none;stroke:#000000;stroke-width:1.00090086" />
      <polygon
         points="125.235,-117.641 126.696,-107.147 119.01,-114.439 125.235,-117.641 "
         id="polygon336"
         style="fill:#000000;stroke:#000000"
         transform="matrix(1.0009009,0,0,1.0009009,-401.41138,559.18848)" />
      <path
         d="m -130.51755,198.09847 c -4.36593,8.48964 -9.80583,19.06816 -14.70424,28.59373"
         id="path341"
         inkscape:connector-curvature="0"
         style="fill:none;stroke:#000000;stroke-width:1.00090086" />
      <polygon
         points="258.99,-330.439 251.304,-323.147 252.765,-333.641 258.99,-330.439 "
         id="polygon343"
         style="fill:#000000;stroke:#000000"
         transform="matrix(1.0009009,0,0,1.0009009,-401.41138,559.18848)" />
      <text
         x="-86.127594"
         y="256.61615"
         font-size="14.00"
         id="text350"
         style="font-size:14.01261234px;font-family:Times, serif;text-anchor:middle">21</text>
      <path
         d="m -113.80251,198.09847 c 4.36593,8.48964 9.80583,19.06816 14.704239,28.59373"
         id="path355"
         inkscape:connector-curvature="0"
         style="fill:none;stroke:#000000;stroke-width:1.00090086" />
      <polygon
         points="305.235,-333.641 306.696,-323.147 299.01,-330.439 305.235,-333.641 "
         id="polygon357"
         style="fill:#000000;stroke:#000000"
         transform="matrix(1.0009009,0,0,1.0009009,-401.41138,559.18848)" />
      <path
         d="m -166.54998,270.16333 c -4.36593,8.48964 -9.80583,19.06816 -14.70424,28.59374"
         id="path362"
         inkscape:connector-curvature="0"
         style="fill:none;stroke:#000000;stroke-width:1.00090086" />
      <polygon
         points="222.99,-258.439 215.304,-251.147 216.765,-261.641 222.99,-258.439 "
         id="polygon364"
         style="fill:#000000;stroke:#000000"
         transform="matrix(1.0009009,0,0,1.0009009,-401.41138,559.18848)" />
      <ellipse
         cx="-122.16003"
         cy="324.97766"
         rx="27.024324"
         ry="18.016216"
         id="ellipse369"
         style="fill:#ffff00;stroke:#000000;stroke-width:1.00090086" />
      <text
         x="-122.16003"
         y="328.681"
         font-size="14.00"
         id="text371"
         style="font-size:14.01261234px;font-family:Times, serif;text-anchor:middle">22</text>
      <path
         d="m -149.83494,270.16333 c 4.36593,8.48964 9.80583,19.06816 14.70424,28.59374"
         id="path376"
         inkscape:connector-curvature="0"
         style="fill:none;stroke:#000000;stroke-width:1.00090086" />
      <polygon
         points="269.235,-261.641 270.696,-251.147 263.01,-258.439 269.235,-261.641 "
         id="polygon378"
         style="fill:#000000;stroke:#000000"
         transform="matrix(1.0009009,0,0,1.0009009,-401.41138,559.18848)" />
      <path
         d="m -202.58242,342.2282 c -4.36593,8.48964 -9.80582,19.06816 -14.70423,28.59373"
         id="path383"
         inkscape:connector-curvature="0"
         style="fill:none;stroke:#000000;stroke-width:1.00090086" />
      <polygon
         points="186.99,-186.439 179.304,-179.147 180.765,-189.641 186.99,-186.439 "
         id="polygon385"
         style="fill:#000000;stroke:#000000"
         transform="matrix(1.0009009,0,0,1.0009009,-401.41138,559.18848)" />
      <ellipse
         cx="-158.19246"
         cy="397.04254"
         rx="27.024324"
         ry="18.016216"
         id="ellipse390"
         style="fill:#ff8080;stroke:#000000;stroke-width:1.00090086" />
      <text
         x="-158.19246"
         y="400.74585"
         font-size="14.00"
         id="text392"
         style="font-size:14.01261234px;font-family:Times, serif;text-anchor:middle">23</text>
      <path
         d="m -185.86737,342.2282 c 4.36593,8.48964 9.80582,19.06816 14.70423,28.59373"
         id="path397"
         inkscape:connector-curvature="0"
         style="fill:none;stroke:#000000;stroke-width:1.00090086" />
      <polygon
         points="233.235,-189.641 234.696,-179.147 227.01,-186.439 233.235,-189.641 "
         id="polygon399"
         style="fill:#000000;stroke:#000000"
         transform="matrix(1.0009009,0,0,1.0009009,-401.41138,559.18848)" />
      <path
         d="m -238.61485,414.29306 c -4.36593,8.48964 -9.80582,19.06816 -14.70423,28.59374"
         id="path404"
         inkscape:connector-curvature="0"
         style="fill:none;stroke:#000000;stroke-width:1.00090086" />
      <polygon
         points="150.99,-114.439 143.304,-107.147 144.765,-117.641 150.99,-114.439 "
         id="polygon406"
         style="fill:#000000;stroke:#000000"
         transform="matrix(1.0009009,0,0,1.0009009,-401.41138,559.18848)" />
      <ellipse
         cx="-194.2249"
         cy="469.10739"
         rx="27.024324"
         ry="18.016216"
         id="ellipse411"
         style="fill:#ff8080;stroke:#000000;stroke-width:1.00090086" />
      <text
         x="-194.2249"
         y="472.81073"
         font-size="14.00"
         id="text413"
         style="font-size:14.01261234px;font-family:Times, serif;text-anchor:middle">24</text>
      <path
         d="m -221.8998,414.29306 c 4.36593,8.48964 9.80582,19.06816 14.70423,28.59374"
         id="path418"
         inkscape:connector-curvature="0"
         style="fill:none;stroke:#000000;stroke-width:1.00090086" />
      <polygon
         points="197.235,-117.641 198.696,-107.147 191.01,-114.439 197.235,-117.641 "
         id="polygon420"
         style="fill:#000000;stroke:#000000"
         transform="matrix(1.0009009,0,0,1.0009009,-401.41138,559.18848)" />
      <ellipse
         cx="-230.25732"
         cy="541.17224"
         rx="27.024324"
         ry="18.016216"
         id="ellipse425"
         style="fill:#00ff00;stroke:#000000;stroke-width:1.00090086" />
      <text
         x="-230.25732"
         y="544.87561"
         font-size="14.00"
         id="text427"
         style="font-size:14.01261234px;font-family:Times, serif;text-anchor:middle">25</text>
      <path
         d="m -257.93224,486.35833 c 4.36593,8.48914 9.80583,19.06736 14.70424,28.59293"
         id="path432"
         inkscape:connector-curvature="0"
         style="fill:none;stroke:#000000;stroke-width:1.00090086" />
      <polygon
         points="161.235,-45.6409 162.696,-35.1473 155.01,-42.4395 161.235,-45.6409 "
         id="polygon434"
         style="fill:#000000;stroke:#000000"
         transform="matrix(1.0009009,0,0,1.0009009,-401.41138,559.18848)" />
      <path
         d="m -94.485119,270.16333 c -4.36593,8.48964 -9.805831,19.06816 -14.704231,28.59374"
         id="path439"
         inkscape:connector-curvature="0"
         style="fill:none;stroke:#000000;stroke-width:1.00090086" />
      <polygon
         points="294.99,-258.439 287.304,-251.147 288.765,-261.641 294.99,-258.439 "
         id="polygon441"
         style="fill:#000000;stroke:#000000"
         transform="matrix(1.0009009,0,0,1.0009009,-401.41138,559.18848)" />
      <path
         d="m -130.51755,342.2282 c -4.36593,8.48964 -9.80583,19.06816 -14.70424,28.59373"
         id="path446"
         inkscape:connector-curvature="0"
         style="fill:none;stroke:#000000;stroke-width:1.00090086" />
      <polygon
         points="258.99,-186.439 251.304,-179.147 252.765,-189.641 258.99,-186.439 "
         id="polygon448"
         style="fill:#000000;stroke:#000000"
         transform="matrix(1.0009009,0,0,1.0009009,-401.41138,559.18848)" />
      <path
         d="m -166.54998,414.29306 c -4.36593,8.48964 -9.80583,19.06816 -14.70424,28.59374"
         id="path453"
         inkscape:connector-curvature="0"
         style="fill:none;stroke:#000000;stroke-width:1.00090086" />
      <polygon
         points="222.99,-114.439 215.304,-107.147 216.765,-117.641 222.99,-114.439 "
         id="polygon455"
         style="fill:#000000;stroke:#000000"
         transform="matrix(1.0009009,0,0,1.0009009,-401.41138,559.18848)" />
      <path
         d="m -202.58242,486.35833 c -4.36593,8.48914 -9.80582,19.06736 -14.70423,28.59293"
         id="path460"
         inkscape:connector-curvature="0"
         style="fill:none;stroke:#000000;stroke-width:1.00090086" />
      <polygon
         points="186.99,-42.4395 179.304,-35.1473 180.765,-45.6409 186.99,-42.4395 "
         id="polygon462"
         style="fill:#000000;stroke:#000000"
         transform="matrix(1.0009009,0,0,1.0009009,-401.41138,559.18848)" />
    </g>
  </g>
  <path
     style="fill:none;fill-rule:evenodd;stroke:#000000;stroke-width:13.77239609;stroke-linecap:butt;stroke-linejoin:miter;stroke-miterlimit:4;stroke-dasharray:none;stroke-opacity:1;marker-end:url(#Arrow1Send)"
     d="m 381.54613,306.56171 93.50015,0"
     id="path5617"
     inkscape:connector-curvature="0" />
</svg>
