<?xml version="1.0" encoding="UTF-8" standalone="no"?>
<!-- Created with Inkscape (http://www.inkscape.org/) -->
<svg
   xmlns:dc="http://purl.org/dc/elements/1.1/"
   xmlns:cc="http://creativecommons.org/ns#"
   xmlns:rdf="http://www.w3.org/1999/02/22-rdf-syntax-ns#"
   xmlns:svg="http://www.w3.org/2000/svg"
   xmlns="http://www.w3.org/2000/svg"
   xmlns:sodipodi="http://sodipodi.sourceforge.net/DTD/sodipodi-0.dtd"
   xmlns:inkscape="http://www.inkscape.org/namespaces/inkscape"
   id="svg2423"
   sodipodi:version="0.32"
   inkscape:version="0.46"
   width="171.25"
   height="188.75"
   xml:space="preserve"
   sodipodi:docname="bx1_logo.svg"
   inkscape:output_extension="org.inkscape.output.svg.inkscape"><metadata
     id="metadata2428"><rdf:RDF><cc:Work
         rdf:about=""><dc:format>image/svg+xml</dc:format><dc:type
           rdf:resource="http://purl.org/dc/dcmitype/StillImage" /></cc:Work></rdf:RDF></metadata><defs
     id="defs2426"><inkscape:perspective
       sodipodi:type="inkscape:persp3d"
       inkscape:vp_x="0 : 526.18109 : 1"
       inkscape:vp_y="0 : 1000 : 0"
       inkscape:vp_z="744.09448 : 526.18109 : 1"
       inkscape:persp3d-origin="372.04724 : 350.78739 : 1"
       id="perspective2430" /><clipPath
       clipPathUnits="userSpaceOnUse"
       id="clipPath2440"><path
         d="M 0,1503.57 L 0,0 L 1362.47,0 L 1362.47,1503.57"
         id="path2442" /></clipPath></defs><sodipodi:namedview
     inkscape:window-height="726"
     inkscape:window-width="645"
     inkscape:pageshadow="2"
     inkscape:pageopacity="0.0"
     guidetolerance="10.0"
     gridtolerance="10.0"
     objecttolerance="10.0"
     borderopacity="1.0"
     bordercolor="#666666"
     pagecolor="#ffffff"
     id="base"
     showgrid="false"
     inkscape:zoom="2.6172185"
     inkscape:cx="85.625"
     inkscape:cy="94.375"
     inkscape:window-x="369"
     inkscape:window-y="25"
     inkscape:current-layer="g2432" /><g
     id="g2432"
     inkscape:groupmode="layer"
     inkscape:label="bx1_logo"
     transform="matrix(1.25,0,0,-1.25,0,188.75)"><g
       id="g2434"
       transform="scale(0.1,0.1)"><g
         id="g2436"><g
           id="g2438"
           clip-path="url(#clipPath2440)"><path
             d="M 178.551,1498.57 L 589.801,1498.57 C 482.301,1136.07 316.895,878.312 178.551,684.566 L 178.551,1498.57"
             style="fill:#1475c5;fill-opacity:1;fill-rule:nonzero;stroke:none"
             id="path2444" /><path
             d="M 178.551,1498.57 L 589.801,1498.57 C 482.301,1136.07 316.895,878.312 178.551,684.566 L 178.551,1498.57 z"
             style="fill:none;stroke:#1475c5;stroke-opacity:1;stroke-width:2.5;stroke-linecap:butt;stroke-linejoin:miter;stroke-miterlimit:4;stroke-dasharray:none"
             id="path2446" /><path
             d="M 607.301,1498.57 L 642.301,1498.57 C 544.801,871.07 364.801,495.82 224.801,310.82 L 178.551,310.82 L 178.551,402.07 C 446.051,807.066 587.301,1348.57 607.301,1498.57"
             style="fill:#1475c5;fill-opacity:1;fill-rule:nonzero;stroke:none"
             id="path2448" /><path
             d="M 607.301,1498.57 L 642.301,1498.57 C 544.801,871.07 364.801,495.82 224.801,310.82 L 178.551,310.82 L 178.551,402.07 C 446.051,807.066 587.301,1348.57 607.301,1498.57 z"
             style="fill:none;stroke:#1475c5;stroke-opacity:1;stroke-width:2.5;stroke-linecap:butt;stroke-linejoin:miter;stroke-miterlimit:4;stroke-dasharray:none"
             id="path2450" /><path
             d="M 477.301,310.82 L 567.301,310.82 C 664.801,633.316 704.801,1423.57 697.301,1498.57 L 657.301,1498.57 C 644.801,1181.07 552.301,495.82 477.301,310.82"
             style="fill:#1475c5;fill-opacity:1;fill-rule:nonzero;stroke:none"
             id="path2452" /><path
             d="M 477.301,310.82 L 567.301,310.82 C 664.801,633.316 704.801,1423.57 697.301,1498.57 L 657.301,1498.57 C 644.801,1181.07 552.301,495.82 477.301,310.82 z"
             style="fill:none;stroke:#1475c5;stroke-opacity:1;stroke-width:2.5;stroke-linecap:butt;stroke-linejoin:miter;stroke-miterlimit:4;stroke-dasharray:none"
             id="path2454" /><path
             d="M 714.801,1498.57 L 754.801,1498.57 C 787.301,1096.07 824.801,632.066 932.301,324.57 L 837.301,324.57 C 734.801,732.066 719.801,1389.57 714.801,1498.57"
             style="fill:#008a5b;fill-opacity:1;fill-rule:nonzero;stroke:none"
             id="path2456" /><path
             d="M 714.801,1498.57 L 754.801,1498.57 C 787.301,1096.07 824.801,632.066 932.301,324.57 L 837.301,324.57 C 734.801,732.066 719.801,1389.57 714.801,1498.57 z"
             style="fill:none;stroke:#008a5b;stroke-opacity:1;stroke-width:10;stroke-linecap:butt;stroke-linejoin:miter;stroke-miterlimit:4;stroke-dasharray:none"
             id="path2458" /><path
             d="M 777.301,1498.57 L 812.301,1498.57 C 907.301,1053.57 1007.3,802.066 1232.3,414.57 C 1209.8,397.07 1182.3,379.57 1154.8,372.07 C 957.301,687.066 814.801,1188.57 777.301,1498.57"
             style="fill:#008a5b;fill-opacity:1;fill-rule:nonzero;stroke:none"
             id="path2460" /><path
             d="M 777.301,1498.57 L 812.301,1498.57 C 907.301,1053.57 1007.3,802.066 1232.3,414.57 C 1209.8,397.07 1182.3,379.57 1154.8,372.07 C 957.301,687.066 814.801,1188.57 777.301,1498.57 z"
             style="fill:none;stroke:#008a5b;stroke-opacity:1;stroke-width:10;stroke-linecap:butt;stroke-linejoin:miter;stroke-miterlimit:4;stroke-dasharray:none"
             id="path2462" /><path
             d="M 834.801,1497.07 C 877.301,1322.07 1039.8,902.066 1339.8,549.566 C 1379.8,714.566 1344.8,792.066 1304.8,847.066 C 1264.8,902.066 1189.8,939.566 1144.8,944.566 C 1239.8,1019.57 1294.8,1104.57 1289.8,1222.07 C 1284.8,1339.57 1204.8,1484.57 834.801,1497.07"
             style="fill:#008a5b;fill-opacity:1;fill-rule:nonzero;stroke:none"
             id="path2464" /><path
             d="M 834.801,1497.07 C 877.301,1322.07 1039.8,902.066 1339.8,549.566 C 1379.8,714.566 1344.8,792.066 1304.8,847.066 C 1264.8,902.066 1189.8,939.566 1144.8,944.566 C 1239.8,1019.57 1294.8,1104.57 1289.8,1222.07 C 1284.8,1339.57 1204.8,1484.57 834.801,1497.07 z"
             style="fill:none;stroke:#008a5b;stroke-opacity:1;stroke-width:10;stroke-linecap:butt;stroke-linejoin:miter;stroke-miterlimit:4;stroke-dasharray:none"
             id="path2466" /><path
             d="M 72.918,185.738 L 72.918,163.129 L 92.3516,163.129 C 103.301,163.129 111.602,165.172 111.602,174.352 C 111.602,185.051 101.227,185.738 87.0703,185.738 L 72.918,185.738 z M 72.918,228.41 L 72.918,208 L 91.4102,208 C 100.277,208 106.695,211.578 106.695,218.719 C 106.695,228.238 98.0195,228.41 88.5781,228.41 L 72.918,228.41 z M 28.3828,134.57 L 28.3828,256.969 L 93.3008,256.969 C 123.867,256.969 148.207,250.5 148.207,226.199 C 148.207,213.621 139.148,204.441 130.473,199.512 C 145.191,196.109 153.113,184.711 153.113,171.461 C 153.113,144.09 129.906,134.57 94.6172,134.57 L 28.3828,134.57"
             style="fill:#1475c5;fill-opacity:1;fill-rule:nonzero;stroke:none"
             id="path2468" /><path
             d="M 72.918,185.738 L 72.918,163.129 L 92.3516,163.129 C 103.301,163.129 111.602,165.172 111.602,174.352 C 111.602,185.051 101.227,185.738 87.0703,185.738 L 72.918,185.738 z M 72.918,228.41 L 72.918,208 L 91.4102,208 C 100.277,208 106.695,211.578 106.695,218.719 C 106.695,228.238 98.0195,228.41 88.5781,228.41 L 72.918,228.41 z M 28.3828,134.57 L 28.3828,256.969 L 93.3008,256.969 C 123.867,256.969 148.207,250.5 148.207,226.199 C 148.207,213.621 139.148,204.441 130.473,199.512 C 145.191,196.109 153.113,184.711 153.113,171.461 C 153.113,144.09 129.906,134.57 94.6172,134.57 L 28.3828,134.57 z"
             style="fill:none;stroke:#1475c5;stroke-opacity:1;stroke-width:2.5;stroke-linecap:butt;stroke-linejoin:miter;stroke-miterlimit:4;stroke-dasharray:none"
             id="path2470" /><path
             d="M 213.5,196.449 C 213.5,180.809 218.785,161.262 240.105,161.262 C 259.355,161.262 266.902,176.219 266.902,196.449 C 266.902,213.102 259.355,230.789 239.73,230.281 C 219.539,230.281 213.5,211.922 213.5,196.449 z M 311.438,196.449 C 311.438,154.789 280.297,131.328 240.105,131.328 C 197.461,131.328 168.969,155.129 168.969,196.789 C 168.969,235.211 197.836,260.199 240.105,260.199 C 288.605,260.199 311.438,228.75 311.438,196.449"
             style="fill:#1475c5;fill-opacity:1;fill-rule:nonzero;stroke:none"
             id="path2472" /><path
             d="M 213.5,196.449 C 213.5,180.809 218.785,161.262 240.105,161.262 C 259.355,161.262 266.902,176.219 266.902,196.449 C 266.902,213.102 259.355,230.789 239.73,230.281 C 219.539,230.281 213.5,211.922 213.5,196.449 z M 311.438,196.449 C 311.438,154.789 280.297,131.328 240.105,131.328 C 197.461,131.328 168.969,155.129 168.969,196.789 C 168.969,235.211 197.836,260.199 240.105,260.199 C 288.605,260.199 311.438,228.75 311.438,196.449 z"
             style="fill:none;stroke:#1475c5;stroke-opacity:1;stroke-width:2.5;stroke-linecap:butt;stroke-linejoin:miter;stroke-miterlimit:4;stroke-dasharray:none"
             id="path2474" /><path
             d="M 374.84,204.102 L 392.387,204.102 C 406.16,204.102 413.52,207.16 413.52,215.66 C 413.52,224.328 405.973,228.41 395.598,228.41 L 374.84,228.41 L 374.84,204.102 z M 374.84,177.238 L 374.84,134.57 L 330.305,134.57 L 330.305,256.969 L 394.465,256.969 C 439.75,256.969 454.656,245.922 454.656,222.109 C 454.656,208 447.676,196.109 431.824,192.199 C 446.168,187.441 454.844,184.379 454.844,159.719 C 454.844,143.75 454.281,138.309 459.566,138.309 L 459.566,134.57 L 414.465,134.57 C 413.328,137.289 412.203,145.109 412.203,155.988 C 412.203,171.969 409.18,177.238 388.422,177.238 L 374.84,177.238"
             style="fill:#1475c5;fill-opacity:1;fill-rule:nonzero;stroke:none"
             id="path2476" /><path
             d="M 374.84,204.102 L 392.387,204.102 C 406.16,204.102 413.52,207.16 413.52,215.66 C 413.52,224.328 405.973,228.41 395.598,228.41 L 374.84,228.41 L 374.84,204.102 z M 374.84,177.238 L 374.84,134.57 L 330.305,134.57 L 330.305,256.969 L 394.465,256.969 C 439.75,256.969 454.656,245.922 454.656,222.109 C 454.656,208 447.676,196.109 431.824,192.199 C 446.168,187.441 454.844,184.379 454.844,159.719 C 454.844,143.75 454.281,138.309 459.566,138.309 L 459.566,134.57 L 414.465,134.57 C 413.328,137.289 412.203,145.109 412.203,155.988 C 412.203,171.969 409.18,177.238 388.422,177.238 L 374.84,177.238 z"
             style="fill:none;stroke:#1475c5;stroke-opacity:1;stroke-width:2.5;stroke-linecap:butt;stroke-linejoin:miter;stroke-miterlimit:4;stroke-dasharray:none"
             id="path2478" /><path
             d="M 522.402,163.129 L 531.836,163.129 C 552.594,163.129 563.918,172.98 563.918,196.109 C 563.918,221.609 554.668,228.41 530.895,228.41 L 522.402,228.41 L 522.402,163.129 z M 477.867,134.57 L 477.867,256.969 L 537.496,256.969 C 581.273,256.969 608.445,238.609 608.445,198.32 C 608.445,152.25 579.957,134.57 536.363,134.57 L 477.867,134.57"
             style="fill:#1475c5;fill-opacity:1;fill-rule:nonzero;stroke:none"
             id="path2480" /><path
             d="M 522.402,163.129 L 531.836,163.129 C 552.594,163.129 563.918,172.98 563.918,196.109 C 563.918,221.609 554.668,228.41 530.895,228.41 L 522.402,228.41 L 522.402,163.129 z M 477.867,134.57 L 477.867,256.969 L 537.496,256.969 C 581.273,256.969 608.445,238.609 608.445,198.32 C 608.445,152.25 579.957,134.57 536.363,134.57 L 477.867,134.57 z"
             style="fill:none;stroke:#1475c5;stroke-opacity:1;stroke-width:2.5;stroke-linecap:butt;stroke-linejoin:miter;stroke-miterlimit:4;stroke-dasharray:none"
             id="path2482" /><path
             d="M 626.754,134.57 L 626.754,256.969 L 737.523,256.969 L 737.523,228.41 L 671.285,228.41 L 671.285,210.891 L 727.328,210.891 L 727.328,182.34 L 671.285,182.34 L 671.285,163.129 L 740.16,163.129 L 740.16,134.57 L 626.754,134.57"
             style="fill:#1475c5;fill-opacity:1;fill-rule:nonzero;stroke:none"
             id="path2484" /><path
             d="M 626.754,134.57 L 626.754,256.969 L 737.523,256.969 L 737.523,228.41 L 671.285,228.41 L 671.285,210.891 L 727.328,210.891 L 727.328,182.34 L 671.285,182.34 L 671.285,163.129 L 740.16,163.129 L 740.16,134.57 L 626.754,134.57 z"
             style="fill:none;stroke:#1475c5;stroke-opacity:1;stroke-width:2.5;stroke-linecap:butt;stroke-linejoin:miter;stroke-miterlimit:4;stroke-dasharray:none"
             id="path2486" /><path
             d="M 821.676,220.078 L 807.906,176.219 L 836.012,176.219 L 821.676,220.078 z M 750.727,134.57 L 799.41,256.969 L 844.691,256.969 L 893.383,134.57 L 849.039,134.57 L 843.754,150.719 L 799.41,150.719 L 794.32,134.57 L 750.727,134.57"
             style="fill:#1475c5;fill-opacity:1;fill-rule:nonzero;stroke:none"
             id="path2488" /><path
             d="M 821.676,220.078 L 807.906,176.219 L 836.012,176.219 L 821.676,220.078 z M 750.727,134.57 L 799.41,256.969 L 844.691,256.969 L 893.383,134.57 L 849.039,134.57 L 843.754,150.719 L 799.41,150.719 L 794.32,134.57 L 750.727,134.57 z"
             style="fill:none;stroke:#1475c5;stroke-opacity:1;stroke-width:2.5;stroke-linecap:butt;stroke-linejoin:miter;stroke-miterlimit:4;stroke-dasharray:none"
             id="path2490" /><path
             d="M 908.668,256.969 L 953.199,256.969 L 953.199,183.699 C 953.199,171.629 955.836,161.262 974.145,161.262 C 990.191,161.262 994.906,170.441 994.906,183.699 L 994.906,256.969 L 1039.43,256.969 L 1039.43,187.781 C 1039.43,148.5 1019.24,131.328 974.145,131.328 C 932.066,131.328 908.668,145.789 908.668,187.941 L 908.668,256.969"
             style="fill:#1475c5;fill-opacity:1;fill-rule:nonzero;stroke:none"
             id="path2492" /><path
             d="M 908.668,256.969 L 953.199,256.969 L 953.199,183.699 C 953.199,171.629 955.836,161.262 974.145,161.262 C 990.191,161.262 994.906,170.441 994.906,183.699 L 994.906,256.969 L 1039.43,256.969 L 1039.43,187.781 C 1039.43,148.5 1019.24,131.328 974.145,131.328 C 932.066,131.328 908.668,145.789 908.668,187.941 L 908.668,256.969 z"
             style="fill:none;stroke:#1475c5;stroke-opacity:1;stroke-width:2.5;stroke-linecap:butt;stroke-linejoin:miter;stroke-miterlimit:4;stroke-dasharray:none"
             id="path2494" /><path
             d="M 1104.16,134.57 L 1054.16,134.57 L 1102.27,198.141 L 1058.87,256.969 L 1108.87,256.969 L 1128.12,225.691 L 1147.55,256.969 L 1197.56,256.969 L 1151.7,198.141 L 1197.94,134.57 L 1147.93,134.57 L 1126.05,168.898 L 1104.16,134.57"
             style="fill:#1475c5;fill-opacity:1;fill-rule:nonzero;stroke:none"
             id="path2496" /><path
             d="M 1104.16,134.57 L 1054.16,134.57 L 1102.27,198.141 L 1058.87,256.969 L 1108.87,256.969 L 1128.12,225.691 L 1147.55,256.969 L 1197.56,256.969 L 1151.7,198.141 L 1197.94,134.57 L 1147.93,134.57 L 1126.05,168.898 L 1104.16,134.57 z"
             style="fill:none;stroke:#1475c5;stroke-opacity:1;stroke-width:2.5;stroke-linecap:butt;stroke-linejoin:miter;stroke-miterlimit:4;stroke-dasharray:none"
             id="path2498" /><path
             d="M 1347.01,134.57 L 1307.77,134.57 L 1307.77,204.441 L 1277.01,204.441 L 1277.01,228.578 C 1297.77,228.922 1312.87,235.379 1317.2,256.121 L 1347.01,256.121 L 1347.01,134.57"
             style="fill:#1475c5;fill-opacity:1;fill-rule:nonzero;stroke:none"
             id="path2500" /><path
             d="M 1347.01,134.57 L 1307.77,134.57 L 1307.77,204.441 L 1277.01,204.441 L 1277.01,228.578 C 1297.77,228.922 1312.87,235.379 1317.2,256.121 L 1347.01,256.121 L 1347.01,134.57 z"
             style="fill:none;stroke:#1475c5;stroke-opacity:1;stroke-width:2.5;stroke-linecap:butt;stroke-linejoin:miter;stroke-miterlimit:4;stroke-dasharray:none"
             id="path2502" /><path
             d="M 30.6133,48.2188 C 32.0391,34.0195 43.2031,28.8594 57.4805,28.8594 C 74.2227,28.8594 81.2344,36.5586 81.2344,45.25 C 81.2344,69.7812 24.2539,53.5 24.2539,84.6211 C 24.2539,95.6289 35.0234,105.859 55.9219,105.859 C 76.9531,105.859 87.4648,95.0703 87.3359,82.2109 L 78.8984,82.2109 C 78.8984,94.3008 67.8672,99.4688 55.9219,99.4688 C 38.0117,99.4688 31.5234,90.1289 33.082,81.9883 C 37.1055,61.5195 90.0625,76.2695 90.0625,45.5781 C 90.0625,31.0508 77.4688,22.4805 55.9219,22.4805 C 36.457,22.4805 22.0469,31.0508 22.0469,48.2188 L 30.6133,48.2188"
             style="fill:#1475c5;fill-opacity:1;fill-rule:nonzero;stroke:none"
             id="path2504" /><path
             d="M 30.6133,48.2188 C 32.0391,34.0195 43.2031,28.8594 57.4805,28.8594 C 74.2227,28.8594 81.2344,36.5586 81.2344,45.25 C 81.2344,69.7812 24.2539,53.5 24.2539,84.6211 C 24.2539,95.6289 35.0234,105.859 55.9219,105.859 C 76.9531,105.859 87.4648,95.0703 87.3359,82.2109 L 78.8984,82.2109 C 78.8984,94.3008 67.8672,99.4688 55.9219,99.4688 C 38.0117,99.4688 31.5234,90.1289 33.082,81.9883 C 37.1055,61.5195 90.0625,76.2695 90.0625,45.5781 C 90.0625,31.0508 77.4688,22.4805 55.9219,22.4805 C 36.457,22.4805 22.0469,31.0508 22.0469,48.2188 L 30.6133,48.2188 z"
             style="fill:none;stroke:#1475c5;stroke-opacity:1;stroke-width:2.5;stroke-linecap:butt;stroke-linejoin:miter;stroke-miterlimit:4;stroke-dasharray:none"
             id="path2506" /><path
             d="M 152.754,63.6094 C 150.027,72.0898 143.148,77.1406 132.766,77.1406 C 116.797,77.1406 110.18,64.8203 110.18,52.9414 C 110.18,40.9609 116.672,28.9609 132.766,28.9609 C 144.316,28.9609 151.586,34.7891 153.402,44.25 L 161.711,44.25 C 158.984,31.6094 149.641,23.0195 132.766,23.0195 C 111.348,23.0195 101.871,36.1094 101.871,52.9414 C 101.871,68.7812 112.645,83.0898 132.766,83.0898 C 148.215,83.0898 158.336,76.8086 160.676,63.6094 L 152.754,63.6094"
             style="fill:#1475c5;fill-opacity:1;fill-rule:nonzero;stroke:none"
             id="path2508" /><path
             d="M 152.754,63.6094 C 150.027,72.0898 143.148,77.1406 132.766,77.1406 C 116.797,77.1406 110.18,64.8203 110.18,52.9414 C 110.18,40.9609 116.672,28.9609 132.766,28.9609 C 144.316,28.9609 151.586,34.7891 153.402,44.25 L 161.711,44.25 C 158.984,31.6094 149.641,23.0195 132.766,23.0195 C 111.348,23.0195 101.871,36.1094 101.871,52.9414 C 101.871,68.7812 112.645,83.0898 132.766,83.0898 C 148.215,83.0898 158.336,76.8086 160.676,63.6094 L 152.754,63.6094 z"
             style="fill:none;stroke:#1475c5;stroke-opacity:1;stroke-width:2.5;stroke-linecap:butt;stroke-linejoin:miter;stroke-miterlimit:4;stroke-dasharray:none"
             id="path2510" /><path
             d="M 178.453,24.5703 L 178.453,81.5508 L 186.238,81.5508 L 186.238,24.5703 L 178.453,24.5703 z M 178.066,93.9688 L 178.066,103.77 L 186.633,103.77 L 186.633,93.9688 L 178.066,93.9688"
             style="fill:#1475c5;fill-opacity:1;fill-rule:nonzero;stroke:none"
             id="path2512" /><path
             d="M 178.453,24.5703 L 178.453,81.5508 L 186.238,81.5508 L 186.238,24.5703 L 178.453,24.5703 z M 178.066,93.9688 L 178.066,103.77 L 186.633,103.77 L 186.633,93.9688 L 178.066,93.9688 z"
             style="fill:none;stroke:#1475c5;stroke-opacity:1;stroke-width:2.5;stroke-linecap:butt;stroke-linejoin:miter;stroke-miterlimit:4;stroke-dasharray:none"
             id="path2514" /><path
             d="M 254.773,57.0195 C 254.773,68.1289 247.504,77.1406 233.484,77.1406 C 219.727,77.1406 212.461,67.8008 210.902,57.0195 L 254.773,57.0195 z M 210.902,51.5117 C 210.77,39.1914 218.559,28.9609 233.484,28.9609 C 243.613,28.9609 251.527,33.6992 253.867,42.0586 L 262.562,42.0586 C 258.668,31.2812 250.621,23.0195 233.484,23.0195 C 211.938,23.0195 202.594,36 202.594,52.8398 C 202.594,69.4492 214.277,83.0898 233.484,83.0898 C 251.918,83.0898 263.215,71.9805 263.082,51.5117 L 210.902,51.5117"
             style="fill:#1475c5;fill-opacity:1;fill-rule:nonzero;stroke:none"
             id="path2516" /><path
             d="M 254.773,57.0195 C 254.773,68.1289 247.504,77.1406 233.484,77.1406 C 219.727,77.1406 212.461,67.8008 210.902,57.0195 L 254.773,57.0195 z M 210.902,51.5117 C 210.77,39.1914 218.559,28.9609 233.484,28.9609 C 243.613,28.9609 251.527,33.6992 253.867,42.0586 L 262.562,42.0586 C 258.668,31.2812 250.621,23.0195 233.484,23.0195 C 211.938,23.0195 202.594,36 202.594,52.8398 C 202.594,69.4492 214.277,83.0898 233.484,83.0898 C 251.918,83.0898 263.215,71.9805 263.082,51.5117 L 210.902,51.5117 z"
             style="fill:none;stroke:#1475c5;stroke-opacity:1;stroke-width:2.5;stroke-linecap:butt;stroke-linejoin:miter;stroke-miterlimit:4;stroke-dasharray:none"
             id="path2518" /><path
             d="M 286.055,24.5703 L 278.266,24.5703 L 278.266,81.5508 L 286.055,81.5508 L 286.055,73.6289 C 292.285,79.2305 298.391,83.0898 307.734,83.0898 C 315.906,83.0898 323.438,80.8789 328.242,74.9492 C 331.484,70.8711 331.617,66.5898 331.617,61.8516 L 331.617,24.5703 L 323.828,24.5703 L 323.828,61.7383 C 323.828,71.9805 318.895,77.1406 306.438,77.1406 C 296.832,77.1406 290.211,71.8711 287.742,66.0391 C 286.188,62.4102 286.055,59.2109 286.055,55.25 L 286.055,24.5703"
             style="fill:#1475c5;fill-opacity:1;fill-rule:nonzero;stroke:none"
             id="path2520" /><path
             d="M 286.055,24.5703 L 278.266,24.5703 L 278.266,81.5508 L 286.055,81.5508 L 286.055,73.6289 C 292.285,79.2305 298.391,83.0898 307.734,83.0898 C 315.906,83.0898 323.438,80.8789 328.242,74.9492 C 331.484,70.8711 331.617,66.5898 331.617,61.8516 L 331.617,24.5703 L 323.828,24.5703 L 323.828,61.7383 C 323.828,71.9805 318.895,77.1406 306.438,77.1406 C 296.832,77.1406 290.211,71.8711 287.742,66.0391 C 286.188,62.4102 286.055,59.2109 286.055,55.25 L 286.055,24.5703 z"
             style="fill:none;stroke:#1475c5;stroke-opacity:1;stroke-width:2.5;stroke-linecap:butt;stroke-linejoin:miter;stroke-miterlimit:4;stroke-dasharray:none"
             id="path2522" /><path
             d="M 398.07,63.6094 C 395.348,72.0898 388.469,77.1406 378.086,77.1406 C 362.117,77.1406 355.496,64.8203 355.496,52.9414 C 355.496,40.9609 361.988,28.9609 378.086,28.9609 C 389.641,28.9609 396.902,34.7891 398.723,44.25 L 407.031,44.25 C 404.301,31.6094 394.957,23.0195 378.086,23.0195 C 356.664,23.0195 347.191,36.1094 347.191,52.9414 C 347.191,68.7812 357.965,83.0898 378.086,83.0898 C 393.531,83.0898 403.656,76.8086 405.992,63.6094 L 398.07,63.6094"
             style="fill:#1475c5;fill-opacity:1;fill-rule:nonzero;stroke:none"
             id="path2524" /><path
             d="M 398.07,63.6094 C 395.348,72.0898 388.469,77.1406 378.086,77.1406 C 362.117,77.1406 355.496,64.8203 355.496,52.9414 C 355.496,40.9609 361.988,28.9609 378.086,28.9609 C 389.641,28.9609 396.902,34.7891 398.723,44.25 L 407.031,44.25 C 404.301,31.6094 394.957,23.0195 378.086,23.0195 C 356.664,23.0195 347.191,36.1094 347.191,52.9414 C 347.191,68.7812 357.965,83.0898 378.086,83.0898 C 393.531,83.0898 403.656,76.8086 405.992,63.6094 L 398.07,63.6094 z"
             style="fill:none;stroke:#1475c5;stroke-opacity:1;stroke-width:2.5;stroke-linecap:butt;stroke-linejoin:miter;stroke-miterlimit:4;stroke-dasharray:none"
             id="path2526" /><path
             d="M 471.277,57.0195 C 471.277,68.1289 464.016,77.1406 449.996,77.1406 C 436.234,77.1406 428.965,67.8008 427.406,57.0195 L 471.277,57.0195 z M 427.406,51.5117 C 427.281,39.1914 435.066,28.9609 449.996,28.9609 C 460.117,28.9609 468.035,33.6992 470.371,42.0586 L 479.066,42.0586 C 475.176,31.2812 467.129,23.0195 449.996,23.0195 C 428.445,23.0195 419.102,36 419.102,52.8398 C 419.102,69.4492 430.781,83.0898 449.996,83.0898 C 468.422,83.0898 479.719,71.9805 479.59,51.5117 L 427.406,51.5117"
             style="fill:#1475c5;fill-opacity:1;fill-rule:nonzero;stroke:none"
             id="path2528" /><path
             d="M 471.277,57.0195 C 471.277,68.1289 464.016,77.1406 449.996,77.1406 C 436.234,77.1406 428.965,67.8008 427.406,57.0195 L 471.277,57.0195 z M 427.406,51.5117 C 427.281,39.1914 435.066,28.9609 449.996,28.9609 C 460.117,28.9609 468.035,33.6992 470.371,42.0586 L 479.066,42.0586 C 475.176,31.2812 467.129,23.0195 449.996,23.0195 C 428.445,23.0195 419.102,36 419.102,52.8398 C 419.102,69.4492 430.781,83.0898 449.996,83.0898 C 468.422,83.0898 479.719,71.9805 479.59,51.5117 L 427.406,51.5117 z"
             style="fill:none;stroke:#1475c5;stroke-opacity:1;stroke-width:2.5;stroke-linecap:butt;stroke-linejoin:miter;stroke-miterlimit:4;stroke-dasharray:none"
             id="path2530" /><path
             d="M 499.316,42.3906 C 501.781,32.5898 507.754,28.9609 519.438,28.9609 C 530.727,28.9609 536.051,34.0195 536.051,39.5312 C 536.051,56.0312 492.961,44.3711 492.961,66.8008 C 492.961,76.2695 501.656,83.0898 516.582,83.0898 C 531.117,83.0898 540.598,78.0195 542.539,65.1484 L 534.625,65.1484 C 533.191,73.9609 526.188,77.1406 516.449,77.1406 C 506.586,77.1406 501.266,73.1797 501.266,67.3516 C 501.266,51.8516 544.359,61.5195 544.359,39.6289 C 544.359,28.75 532.809,23.0195 516.973,23.0195 C 501.133,23.0195 492.051,31.6094 491.402,42.3906 L 499.316,42.3906"
             style="fill:#1475c5;fill-opacity:1;fill-rule:nonzero;stroke:none"
             id="path2532" /><path
             d="M 499.316,42.3906 C 501.781,32.5898 507.754,28.9609 519.438,28.9609 C 530.727,28.9609 536.051,34.0195 536.051,39.5312 C 536.051,56.0312 492.961,44.3711 492.961,66.8008 C 492.961,76.2695 501.656,83.0898 516.582,83.0898 C 531.117,83.0898 540.598,78.0195 542.539,65.1484 L 534.625,65.1484 C 533.191,73.9609 526.188,77.1406 516.449,77.1406 C 506.586,77.1406 501.266,73.1797 501.266,67.3516 C 501.266,51.8516 544.359,61.5195 544.359,39.6289 C 544.359,28.75 532.809,23.0195 516.973,23.0195 C 501.133,23.0195 492.051,31.6094 491.402,42.3906 L 499.316,42.3906 z"
             style="fill:none;stroke:#1475c5;stroke-opacity:1;stroke-width:2.5;stroke-linecap:butt;stroke-linejoin:miter;stroke-miterlimit:4;stroke-dasharray:none"
             id="path2534" /><path
             d="M 588.492,103.77 L 656.504,103.77 L 656.504,97.3789 L 626.91,97.3789 L 626.91,24.5703 L 618.086,24.5703 L 618.086,97.3789 L 588.492,97.3789 L 588.492,103.77"
             style="fill:#1475c5;fill-opacity:1;fill-rule:nonzero;stroke:none"
             id="path2536" /><path
             d="M 588.492,103.77 L 656.504,103.77 L 656.504,97.3789 L 626.91,97.3789 L 626.91,24.5703 L 618.086,24.5703 L 618.086,97.3789 L 588.492,97.3789 L 588.492,103.77 z"
             style="fill:none;stroke:#1475c5;stroke-opacity:1;stroke-width:2.5;stroke-linecap:butt;stroke-linejoin:miter;stroke-miterlimit:4;stroke-dasharray:none"
             id="path2538" /><path
             d="M 702.223,57.0195 C 702.223,68.1289 694.945,77.1406 680.93,77.1406 C 667.168,77.1406 659.902,67.8008 658.344,57.0195 L 702.223,57.0195 z M 658.344,51.5117 C 658.215,39.1914 666,28.9609 680.93,28.9609 C 691.055,28.9609 698.969,33.6992 701.305,42.0586 L 710.004,42.0586 C 706.109,31.2812 698.062,23.0195 680.93,23.0195 C 659.379,23.0195 650.035,36 650.035,52.8398 C 650.035,69.4492 661.719,83.0898 680.93,83.0898 C 699.359,83.0898 710.648,71.9805 710.523,51.5117 L 658.344,51.5117"
             style="fill:#1475c5;fill-opacity:1;fill-rule:nonzero;stroke:none"
             id="path2540" /><path
             d="M 702.223,57.0195 C 702.223,68.1289 694.945,77.1406 680.93,77.1406 C 667.168,77.1406 659.902,67.8008 658.344,57.0195 L 702.223,57.0195 z M 658.344,51.5117 C 658.215,39.1914 666,28.9609 680.93,28.9609 C 691.055,28.9609 698.969,33.6992 701.305,42.0586 L 710.004,42.0586 C 706.109,31.2812 698.062,23.0195 680.93,23.0195 C 659.379,23.0195 650.035,36 650.035,52.8398 C 650.035,69.4492 661.719,83.0898 680.93,83.0898 C 699.359,83.0898 710.648,71.9805 710.523,51.5117 L 658.344,51.5117 z"
             style="fill:none;stroke:#1475c5;stroke-opacity:1;stroke-width:2.5;stroke-linecap:butt;stroke-linejoin:miter;stroke-miterlimit:4;stroke-dasharray:none"
             id="path2542" /><path
             d="M 773.344,63.6094 C 770.621,72.0898 763.734,77.1406 753.355,77.1406 C 737.398,77.1406 730.777,64.8203 730.777,52.9414 C 730.777,40.9609 737.262,28.9609 753.355,28.9609 C 764.906,28.9609 772.184,34.7891 773.988,44.25 L 782.301,44.25 C 779.574,31.6094 770.23,23.0195 753.355,23.0195 C 731.938,23.0195 722.465,36.1094 722.465,52.9414 C 722.465,68.7812 733.238,83.0898 753.355,83.0898 C 768.805,83.0898 778.922,76.8086 781.266,63.6094 L 773.344,63.6094"
             style="fill:#1475c5;fill-opacity:1;fill-rule:nonzero;stroke:none"
             id="path2544" /><path
             d="M 773.344,63.6094 C 770.621,72.0898 763.734,77.1406 753.355,77.1406 C 737.398,77.1406 730.777,64.8203 730.777,52.9414 C 730.777,40.9609 737.262,28.9609 753.355,28.9609 C 764.906,28.9609 772.184,34.7891 773.988,44.25 L 782.301,44.25 C 779.574,31.6094 770.23,23.0195 753.355,23.0195 C 731.938,23.0195 722.465,36.1094 722.465,52.9414 C 722.465,68.7812 733.238,83.0898 753.355,83.0898 C 768.805,83.0898 778.922,76.8086 781.266,63.6094 L 773.344,63.6094 z"
             style="fill:none;stroke:#1475c5;stroke-opacity:1;stroke-width:2.5;stroke-linecap:butt;stroke-linejoin:miter;stroke-miterlimit:4;stroke-dasharray:none"
             id="path2546" /><path
             d="M 797.875,24.5703 L 797.875,103.77 L 805.66,103.77 L 805.66,73.6289 C 811.898,79.2305 817.992,83.0898 827.34,83.0898 C 835.523,83.0898 843.043,80.8789 847.855,74.9492 C 851.098,70.8711 851.227,66.5898 851.227,61.8516 L 851.227,24.5703 L 843.441,24.5703 L 843.441,61.7383 C 843.441,71.9805 838.512,77.1406 826.039,77.1406 C 816.441,77.1406 809.82,71.8711 807.359,66.0391 C 805.797,62.4102 805.66,59.2109 805.66,55.25 L 805.66,24.5703 L 797.875,24.5703"
             style="fill:#1475c5;fill-opacity:1;fill-rule:nonzero;stroke:none"
             id="path2548" /><path
             d="M 797.875,24.5703 L 797.875,103.77 L 805.66,103.77 L 805.66,73.6289 C 811.898,79.2305 817.992,83.0898 827.34,83.0898 C 835.523,83.0898 843.043,80.8789 847.855,74.9492 C 851.098,70.8711 851.227,66.5898 851.227,61.8516 L 851.227,24.5703 L 843.441,24.5703 L 843.441,61.7383 C 843.441,71.9805 838.512,77.1406 826.039,77.1406 C 816.441,77.1406 809.82,71.8711 807.359,66.0391 C 805.797,62.4102 805.66,59.2109 805.66,55.25 L 805.66,24.5703 L 797.875,24.5703 z"
             style="fill:none;stroke:#1475c5;stroke-opacity:1;stroke-width:2.5;stroke-linecap:butt;stroke-linejoin:miter;stroke-miterlimit:4;stroke-dasharray:none"
             id="path2550" /><path
             d="M 877.836,24.5703 L 870.055,24.5703 L 870.055,81.5508 L 877.836,81.5508 L 877.836,73.6289 C 884.066,79.2305 890.16,83.0898 899.508,83.0898 C 907.691,83.0898 915.219,80.8789 920.023,74.9492 C 923.266,70.8711 923.395,66.5898 923.395,61.8516 L 923.395,24.5703 L 915.609,24.5703 L 915.609,61.7383 C 915.609,71.9805 910.68,77.1406 898.207,77.1406 C 888.609,77.1406 881.988,71.8711 879.527,66.0391 C 877.965,62.4102 877.836,59.2109 877.836,55.25 L 877.836,24.5703"
             style="fill:#1475c5;fill-opacity:1;fill-rule:nonzero;stroke:none"
             id="path2552" /><path
             d="M 877.836,24.5703 L 870.055,24.5703 L 870.055,81.5508 L 877.836,81.5508 L 877.836,73.6289 C 884.066,79.2305 890.16,83.0898 899.508,83.0898 C 907.691,83.0898 915.219,80.8789 920.023,74.9492 C 923.266,70.8711 923.395,66.5898 923.395,61.8516 L 923.395,24.5703 L 915.609,24.5703 L 915.609,61.7383 C 915.609,71.9805 910.68,77.1406 898.207,77.1406 C 888.609,77.1406 881.988,71.8711 879.527,66.0391 C 877.965,62.4102 877.836,59.2109 877.836,55.25 L 877.836,24.5703 z"
             style="fill:none;stroke:#1475c5;stroke-opacity:1;stroke-width:2.5;stroke-linecap:butt;stroke-linejoin:miter;stroke-miterlimit:4;stroke-dasharray:none"
             id="path2554" /><path
             d="M 968.949,77.1406 C 952.594,77.1406 946.109,65.3789 946.109,53.0508 C 946.109,38.8711 954.027,28.9609 968.949,28.9609 C 985.309,28.9609 991.793,40.8516 991.793,53.0508 C 991.676,66.4688 985.445,77.1406 968.949,77.1406 z M 937.809,53.0508 C 937.809,69.6602 948.188,83.0898 968.949,83.0898 C 989.984,83.0898 1000.11,69.7812 1000.11,53.0508 C 1000.11,35.0195 987.777,23.0195 968.949,23.0195 C 951.82,23.25 937.809,33.1406 937.809,53.0508"
             style="fill:#1475c5;fill-opacity:1;fill-rule:nonzero;stroke:none"
             id="path2556" /><path
             d="M 968.949,77.1406 C 952.594,77.1406 946.109,65.3789 946.109,53.0508 C 946.109,38.8711 954.027,28.9609 968.949,28.9609 C 985.309,28.9609 991.793,40.8516 991.793,53.0508 C 991.676,66.4688 985.445,77.1406 968.949,77.1406 z M 937.809,53.0508 C 937.809,69.6602 948.188,83.0898 968.949,83.0898 C 989.984,83.0898 1000.11,69.7812 1000.11,53.0508 C 1000.11,35.0195 987.777,23.0195 968.949,23.0195 C 951.82,23.25 937.809,33.1406 937.809,53.0508 z"
             style="fill:none;stroke:#1475c5;stroke-opacity:1;stroke-width:2.5;stroke-linecap:butt;stroke-linejoin:miter;stroke-miterlimit:4;stroke-dasharray:none"
             id="path2558" /><path
             d="M 1015.55,24.5703 L 1023.3273,24.5703 L 1023.3273,103.7695 L 1015.55,103.7695 L 1015.55,24.5703 z"
             style="fill:#1475c5;fill-opacity:1;fill-rule:nonzero;stroke:none"
             id="path2560" /><path
             d="M 1015.55,24.5703 L 1023.3273,24.5703 L 1023.3273,103.7695 L 1015.55,103.7695 L 1015.55,24.5703 z"
             style="fill:none;stroke:#1475c5;stroke-opacity:1;stroke-width:2.5;stroke-linecap:butt;stroke-linejoin:miter;stroke-miterlimit:4;stroke-dasharray:none"
             id="path2562" /><path
             d="M 1069.94,77.1406 C 1053.58,77.1406 1047.08,65.3789 1047.08,53.0508 C 1047.08,38.8711 1055.01,28.9609 1069.94,28.9609 C 1086.29,28.9609 1092.78,40.8516 1092.78,53.0508 C 1092.65,66.4688 1086.42,77.1406 1069.94,77.1406 z M 1038.78,53.0508 C 1038.78,69.6602 1049.17,83.0898 1069.94,83.0898 C 1090.96,83.0898 1101.09,69.7812 1101.09,53.0508 C 1101.09,35.0195 1088.76,23.0195 1069.94,23.0195 C 1052.81,23.25 1038.78,33.1406 1038.78,53.0508"
             style="fill:#1475c5;fill-opacity:1;fill-rule:nonzero;stroke:none"
             id="path2564" /><path
             d="M 1069.94,77.1406 C 1053.58,77.1406 1047.08,65.3789 1047.08,53.0508 C 1047.08,38.8711 1055.01,28.9609 1069.94,28.9609 C 1086.29,28.9609 1092.78,40.8516 1092.78,53.0508 C 1092.65,66.4688 1086.42,77.1406 1069.94,77.1406 z M 1038.78,53.0508 C 1038.78,69.6602 1049.17,83.0898 1069.94,83.0898 C 1090.96,83.0898 1101.09,69.7812 1101.09,53.0508 C 1101.09,35.0195 1088.76,23.0195 1069.94,23.0195 C 1052.81,23.25 1038.78,33.1406 1038.78,53.0508 z"
             style="fill:none;stroke:#1475c5;stroke-opacity:1;stroke-width:2.5;stroke-linecap:butt;stroke-linejoin:miter;stroke-miterlimit:4;stroke-dasharray:none"
             id="path2566" /><path
             d="M 1144.58,77.1406 C 1131.46,77.1406 1121.73,69.1211 1121.6,54.8203 C 1120.94,40.5117 1128.48,28.9609 1144.58,28.9609 C 1158.73,28.9609 1167.28,39.9688 1167.28,52.8398 C 1167.28,66.5898 1159.23,77.1406 1144.58,77.1406 z M 1167.28,81.5508 L 1175.07,81.5508 L 1175.07,30.0586 C 1175.07,14.7812 1169.11,1.25 1143.53,1.25 C 1123.8,1.25 1115.62,10.8203 1115.11,17.6289 L 1123.41,17.6289 C 1125.75,9.05859 1134.32,7.17969 1143.53,7.17969 C 1164.82,7.17969 1167.67,20.6016 1167.28,33.6992 C 1162.36,26.7617 1152.75,23.0195 1143.28,23.0195 C 1122.77,23.0195 1113.29,37.2109 1113.29,53.1719 C 1113.29,70 1121.99,83.0898 1143.66,83.0898 C 1152.23,83.0898 1162.49,79.0117 1167.03,71.5391 L 1167.28,71.5391 L 1167.28,81.5508"
             style="fill:#1475c5;fill-opacity:1;fill-rule:nonzero;stroke:none"
             id="path2568" /><path
             d="M 1144.58,77.1406 C 1131.46,77.1406 1121.73,69.1211 1121.6,54.8203 C 1120.94,40.5117 1128.48,28.9609 1144.58,28.9609 C 1158.73,28.9609 1167.28,39.9688 1167.28,52.8398 C 1167.28,66.5898 1159.23,77.1406 1144.58,77.1406 z M 1167.28,81.5508 L 1175.07,81.5508 L 1175.07,30.0586 C 1175.07,14.7812 1169.11,1.25 1143.53,1.25 C 1123.8,1.25 1115.62,10.8203 1115.11,17.6289 L 1123.41,17.6289 C 1125.75,9.05859 1134.32,7.17969 1143.53,7.17969 C 1164.82,7.17969 1167.67,20.6016 1167.28,33.6992 C 1162.36,26.7617 1152.75,23.0195 1143.28,23.0195 C 1122.77,23.0195 1113.29,37.2109 1113.29,53.1719 C 1113.29,70 1121.99,83.0898 1143.66,83.0898 C 1152.23,83.0898 1162.49,79.0117 1167.03,71.5391 L 1167.28,71.5391 L 1167.28,81.5508 z"
             style="fill:none;stroke:#1475c5;stroke-opacity:1;stroke-width:2.5;stroke-linecap:butt;stroke-linejoin:miter;stroke-miterlimit:4;stroke-dasharray:none"
             id="path2570" /><path
             d="M 1203.63,24.5703 L 1203.63,81.5508 L 1195.83,81.5508 L 1195.83,24.5703 L 1203.63,24.5703 z M 1204.02,93.9688 L 1204.02,103.77 L 1195.45,103.77 L 1195.45,93.9688 L 1204.02,93.9688"
             style="fill:#1475c5;fill-opacity:1;fill-rule:nonzero;stroke:none"
             id="path2572" /><path
             d="M 1203.63,24.5703 L 1203.63,81.5508 L 1195.83,81.5508 L 1195.83,24.5703 L 1203.63,24.5703 z M 1204.02,93.9688 L 1204.02,103.77 L 1195.45,103.77 L 1195.45,93.9688 L 1204.02,93.9688 z"
             style="fill:none;stroke:#1475c5;stroke-opacity:1;stroke-width:2.5;stroke-linecap:butt;stroke-linejoin:miter;stroke-miterlimit:4;stroke-dasharray:none"
             id="path2574" /><path
             d="M 1272.16,57.0195 C 1272.16,68.1289 1264.9,77.1406 1250.87,77.1406 C 1237.11,77.1406 1229.85,67.8008 1228.29,57.0195 L 1272.16,57.0195 z M 1228.29,51.5117 C 1228.16,39.1914 1235.94,28.9609 1250.87,28.9609 C 1261,28.9609 1268.91,33.6992 1271.25,42.0586 L 1279.95,42.0586 C 1276.05,31.2812 1268,23.0195 1250.87,23.0195 C 1229.32,23.0195 1219.99,36 1219.99,52.8398 C 1219.99,69.4492 1231.67,83.0898 1250.87,83.0898 C 1269.31,83.0898 1280.6,71.9805 1280.46,51.5117 L 1228.29,51.5117"
             style="fill:#1475c5;fill-opacity:1;fill-rule:nonzero;stroke:none"
             id="path2576" /><path
             d="M 1272.16,57.0195 C 1272.16,68.1289 1264.9,77.1406 1250.87,77.1406 C 1237.11,77.1406 1229.85,67.8008 1228.29,57.0195 L 1272.16,57.0195 z M 1228.29,51.5117 C 1228.16,39.1914 1235.94,28.9609 1250.87,28.9609 C 1261,28.9609 1268.91,33.6992 1271.25,42.0586 L 1279.95,42.0586 C 1276.05,31.2812 1268,23.0195 1250.87,23.0195 C 1229.32,23.0195 1219.99,36 1219.99,52.8398 C 1219.99,69.4492 1231.67,83.0898 1250.87,83.0898 C 1269.31,83.0898 1280.6,71.9805 1280.46,51.5117 L 1228.29,51.5117 z"
             style="fill:none;stroke:#1475c5;stroke-opacity:1;stroke-width:2.5;stroke-linecap:butt;stroke-linejoin:miter;stroke-miterlimit:4;stroke-dasharray:none"
             id="path2578" /><path
             d="M 1300.2,42.3906 C 1302.66,32.5898 1308.64,28.9609 1320.32,28.9609 C 1331.62,28.9609 1336.93,34.0195 1336.93,39.5312 C 1336.93,56.0312 1293.83,44.3711 1293.83,66.8008 C 1293.83,76.2695 1302.53,83.0898 1317.46,83.0898 C 1332,83.0898 1341.48,78.0195 1343.42,65.1484 L 1335.5,65.1484 C 1334.08,73.9609 1327.07,77.1406 1317.33,77.1406 C 1307.47,77.1406 1302.14,73.1797 1302.14,67.3516 C 1302.14,51.8516 1345.24,61.5195 1345.24,39.6289 C 1345.24,28.75 1333.69,23.0195 1317.85,23.0195 C 1302.02,23.0195 1292.93,31.6094 1292.28,42.3906 L 1300.2,42.3906"
             style="fill:#1475c5;fill-opacity:1;fill-rule:nonzero;stroke:none"
             id="path2580" /><path
             d="M 1300.2,42.3906 C 1302.66,32.5898 1308.64,28.9609 1320.32,28.9609 C 1331.62,28.9609 1336.93,34.0195 1336.93,39.5312 C 1336.93,56.0312 1293.83,44.3711 1293.83,66.8008 C 1293.83,76.2695 1302.53,83.0898 1317.46,83.0898 C 1332,83.0898 1341.48,78.0195 1343.42,65.1484 L 1335.5,65.1484 C 1334.08,73.9609 1327.07,77.1406 1317.33,77.1406 C 1307.47,77.1406 1302.14,73.1797 1302.14,67.3516 C 1302.14,51.8516 1345.24,61.5195 1345.24,39.6289 C 1345.24,28.75 1333.69,23.0195 1317.85,23.0195 C 1302.02,23.0195 1292.93,31.6094 1292.28,42.3906 L 1300.2,42.3906 z"
             style="fill:none;stroke:#1475c5;stroke-opacity:1;stroke-width:2.5;stroke-linecap:butt;stroke-linejoin:miter;stroke-miterlimit:4;stroke-dasharray:none"
             id="path2582" /><path
             d="M 28.3984,310.641 L 28.3984,321.91 L 79.8789,321.91 C 101.238,321.91 110.121,332.512 110.121,356.852 C 110.121,382.52 100.277,391.789 79.8789,391.789 L 28.3984,391.789 L 28.3984,403.051 L 82.2812,403.051 C 104.723,403.051 117.078,387.648 117.078,356.852 C 117.078,325.711 104.359,310.641 82.2812,310.641 L 28.3984,310.641"
             style="fill:#008a5b;fill-opacity:1;fill-rule:nonzero;stroke:none"
             id="path2584" /><path
             d="M 28.3984,310.641 L 28.3984,321.91 L 79.8789,321.91 C 101.238,321.91 110.121,332.512 110.121,356.852 C 110.121,382.52 100.277,391.789 79.8789,391.789 L 28.3984,391.789 L 28.3984,403.051 L 82.2812,403.051 C 104.723,403.051 117.078,387.648 117.078,356.852 C 117.078,325.711 104.359,310.641 82.2812,310.641 L 28.3984,310.641 z"
             style="fill:none;stroke:#008a5b;stroke-opacity:1;stroke-width:10;stroke-linecap:butt;stroke-linejoin:miter;stroke-miterlimit:4;stroke-dasharray:none"
             id="path2586" /><path
             d="M 39.4375,466.141 L 39.4375,465.809 L 114.801,465.809 L 114.801,454.551 L 28.3984,454.551 L 28.3984,467.301 L 103.883,536.188 L 103.883,536.52 L 28.3984,536.52 L 28.3984,547.789 L 114.801,547.789 L 114.801,534.703 L 39.4375,466.141"
             style="fill:#008a5b;fill-opacity:1;fill-rule:nonzero;stroke:none"
             id="path2588" /><path
             d="M 39.4375,466.141 L 39.4375,465.809 L 114.801,465.809 L 114.801,454.551 L 28.3984,454.551 L 28.3984,467.301 L 103.883,536.188 L 103.883,536.52 L 28.3984,536.52 L 28.3984,547.789 L 114.801,547.789 L 114.801,534.703 L 39.4375,466.141 z"
             style="fill:none;stroke:#008a5b;stroke-opacity:1;stroke-width:10;stroke-linecap:butt;stroke-linejoin:miter;stroke-miterlimit:4;stroke-dasharray:none"
             id="path2590" /><path
             d="M 28.3984,603.258 L 114.8007,603.258 L 114.8007,614.5158 L 28.3984,614.5158 L 28.3984,603.258 z"
             style="fill:#008a5b;fill-opacity:1;fill-rule:nonzero;stroke:none"
             id="path2592" /><path
             d="M 28.3984,603.258 L 114.8007,603.258 L 114.8007,614.5158 L 28.3984,614.5158 L 28.3984,603.258 z"
             style="fill:none;stroke:#008a5b;stroke-opacity:1;stroke-width:10;stroke-linecap:butt;stroke-linejoin:miter;stroke-miterlimit:4;stroke-dasharray:none"
             id="path2594" /><path
             d="M 28.3984,659.723 L 28.3984,671.48 L 105.199,707.418 L 28.3984,743.188 L 28.3984,754.945 L 114.801,713.539 L 114.801,701.129 L 28.3984,659.723"
             style="fill:#008a5b;fill-opacity:1;fill-rule:nonzero;stroke:none"
             id="path2596" /><path
             d="M 28.3984,659.723 L 28.3984,671.48 L 105.199,707.418 L 28.3984,743.188 L 28.3984,754.945 L 114.801,713.539 L 114.801,701.129 L 28.3984,659.723 z"
             style="fill:none;stroke:#008a5b;stroke-opacity:1;stroke-width:10;stroke-linecap:butt;stroke-linejoin:miter;stroke-miterlimit:4;stroke-dasharray:none"
             id="path2598" /><path
             d="M 114.801,804.457 L 28.3984,804.457 L 28.3984,883.781 L 35.3594,883.781 L 35.3594,815.719 L 66.5586,815.719 L 66.5586,877.16 L 73.5195,877.16 L 73.5195,815.719 L 107.844,815.719 L 107.844,885.434 L 114.801,885.434 L 114.801,804.457"
             style="fill:#008a5b;fill-opacity:1;fill-rule:nonzero;stroke:none"
             id="path2600" /><path
             d="M 114.801,804.457 L 28.3984,804.457 L 28.3984,883.781 L 35.3594,883.781 L 35.3594,815.719 L 66.5586,815.719 L 66.5586,877.16 L 73.5195,877.16 L 73.5195,815.719 L 107.844,815.719 L 107.844,885.434 L 114.801,885.434 L 114.801,804.457 z"
             style="fill:none;stroke:#008a5b;stroke-opacity:1;stroke-width:10;stroke-linecap:butt;stroke-linejoin:miter;stroke-miterlimit:4;stroke-dasharray:none"
             id="path2602" /><path
             d="M 68.5977,986.617 C 68.5977,1003.34 63.5586,1016.26 51.4414,1016.26 C 38.4805,1016.26 35.3594,1002.35 35.3594,987.281 L 35.3594,951.508 L 68.5977,951.508 L 68.5977,986.617 z M 75.5625,951.508 L 114.801,951.508 L 114.801,940.25 L 28.3984,940.25 L 28.3984,986.949 C 28.3984,1013.11 35.1172,1027.52 51.0781,1027.52 C 61.9961,1027.52 67.7578,1021.89 72.1992,1008.14 C 75.6797,1022.22 86.4805,1023.05 95.6016,1023.38 C 108.684,1023.88 112.281,1025.37 113.961,1028.35 L 114.801,1028.35 L 114.801,1015.93 C 108.922,1011.29 92.7188,1012.45 86.1172,1010.63 C 76.7578,1007.98 75.5625,998.207 75.5625,986.949 L 75.5625,951.508"
             style="fill:#008a5b;fill-opacity:1;fill-rule:nonzero;stroke:none"
             id="path2604" /><path
             d="M 68.5977,986.617 C 68.5977,1003.34 63.5586,1016.26 51.4414,1016.26 C 38.4805,1016.26 35.3594,1002.35 35.3594,987.281 L 35.3594,951.508 L 68.5977,951.508 L 68.5977,986.617 z M 75.5625,951.508 L 114.801,951.508 L 114.801,940.25 L 28.3984,940.25 L 28.3984,986.949 C 28.3984,1013.11 35.1172,1027.52 51.0781,1027.52 C 61.9961,1027.52 67.7578,1021.89 72.1992,1008.14 C 75.6797,1022.22 86.4805,1023.05 95.6016,1023.38 C 108.684,1023.88 112.281,1025.37 113.961,1028.35 L 114.801,1028.35 L 114.801,1015.93 C 108.922,1011.29 92.7188,1012.45 86.1172,1010.63 C 76.7578,1007.98 75.5625,998.207 75.5625,986.949 L 75.5625,951.508 z"
             style="fill:none;stroke:#008a5b;stroke-opacity:1;stroke-width:10;stroke-linecap:butt;stroke-linejoin:miter;stroke-miterlimit:4;stroke-dasharray:none"
             id="path2606" /><path
             d="M 89,1090.28 C 104.477,1092.11 110.121,1106.34 110.121,1124.56 C 110.121,1145.93 101.719,1154.86 92.2422,1154.86 C 65.4766,1154.86 83.2383,1082.17 49.2773,1082.17 C 37.2812,1082.17 26.1172,1095.91 26.1172,1122.57 C 26.1172,1149.4 37.8828,1162.81 51.918,1162.65 L 51.918,1151.89 C 38.7188,1151.89 33.082,1137.81 33.082,1122.57 C 33.082,1099.72 43.2812,1091.44 52.1562,1093.43 C 74.4766,1098.56 58.3984,1166.13 91.8789,1166.13 C 107.719,1166.13 117.078,1150.06 117.078,1122.57 C 117.078,1097.73 107.719,1079.35 89,1079.35 L 89,1090.28"
             style="fill:#008a5b;fill-opacity:1;fill-rule:nonzero;stroke:none"
             id="path2608" /><path
             d="M 89,1090.28 C 104.477,1092.11 110.121,1106.34 110.121,1124.56 C 110.121,1145.93 101.719,1154.86 92.2422,1154.86 C 65.4766,1154.86 83.2383,1082.17 49.2773,1082.17 C 37.2812,1082.17 26.1172,1095.91 26.1172,1122.57 C 26.1172,1149.4 37.8828,1162.81 51.918,1162.65 L 51.918,1151.89 C 38.7188,1151.89 33.082,1137.81 33.082,1122.57 C 33.082,1099.72 43.2812,1091.44 52.1562,1093.43 C 74.4766,1098.56 58.3984,1166.13 91.8789,1166.13 C 107.719,1166.13 117.078,1150.06 117.078,1122.57 C 117.078,1097.73 107.719,1079.35 89,1079.35 L 89,1090.28 z"
             style="fill:none;stroke:#008a5b;stroke-opacity:1;stroke-width:10;stroke-linecap:butt;stroke-linejoin:miter;stroke-miterlimit:4;stroke-dasharray:none"
             id="path2610" /><path
             d="M 28.3984,1215.64 L 114.8007,1215.64 L 114.8007,1226.8978 L 28.3984,1226.8978 L 28.3984,1215.64 z"
             style="fill:#008a5b;fill-opacity:1;fill-rule:nonzero;stroke:none"
             id="path2612" /><path
             d="M 28.3984,1215.64 L 114.8007,1215.64 L 114.8007,1226.8978 L 28.3984,1226.8978 L 28.3984,1215.64 z"
             style="fill:none;stroke:#008a5b;stroke-opacity:1;stroke-width:10;stroke-linecap:butt;stroke-linejoin:miter;stroke-miterlimit:4;stroke-dasharray:none"
             id="path2614" /><path
             d="M 28.3984,1276.78 L 28.3984,1363.55 L 35.3594,1363.55 L 35.3594,1325.8 L 114.801,1325.8 L 114.801,1314.54 L 35.3594,1314.54 L 35.3594,1276.78 L 28.3984,1276.78"
             style="fill:#008a5b;fill-opacity:1;fill-rule:nonzero;stroke:none"
             id="path2616" /><path
             d="M 28.3984,1276.78 L 28.3984,1363.55 L 35.3594,1363.55 L 35.3594,1325.8 L 114.801,1325.8 L 114.801,1314.54 L 35.3594,1314.54 L 35.3594,1276.78 L 28.3984,1276.78 z"
             style="fill:none;stroke:#008a5b;stroke-opacity:1;stroke-width:10;stroke-linecap:butt;stroke-linejoin:miter;stroke-miterlimit:4;stroke-dasharray:none"
             id="path2618" /><path
             d="M 114.801,1411.12 L 28.3984,1411.12 L 28.3984,1490.45 L 35.3594,1490.45 L 35.3594,1422.38 L 66.5586,1422.38 L 66.5586,1483.82 L 73.5195,1483.82 L 73.5195,1422.38 L 107.844,1422.38 L 107.844,1492.1 L 114.801,1492.1 L 114.801,1411.12 z M 21.6797,1438.77 L 5,1457.16 L 5,1469.91 L 21.6797,1447.22 L 21.6797,1438.77"
             style="fill:#008a5b;fill-opacity:1;fill-rule:nonzero;stroke:none"
             id="path2620" /><path
             d="M 114.801,1411.12 L 28.3984,1411.12 L 28.3984,1490.45 L 35.3594,1490.45 L 35.3594,1422.38 L 66.5586,1422.38 L 66.5586,1483.82 L 73.5195,1483.82 L 73.5195,1422.38 L 107.844,1422.38 L 107.844,1492.1 L 114.801,1492.1 L 114.801,1411.12 z M 21.6797,1438.77 L 5,1457.16 L 5,1469.91 L 21.6797,1447.22 L 21.6797,1438.77 z"
             style="fill:none;stroke:#008a5b;stroke-opacity:1;stroke-width:10;stroke-linecap:butt;stroke-linejoin:miter;stroke-miterlimit:4;stroke-dasharray:none"
             id="path2622" /></g></g></g></g></svg>