<?xml version="1.0" encoding="UTF-8" standalone="no"?>
<!-- Created with Inkscape (http://www.inkscape.org/) -->
<svg
   xmlns:dc="http://purl.org/dc/elements/1.1/"
   xmlns:cc="http://creativecommons.org/ns#"
   xmlns:rdf="http://www.w3.org/1999/02/22-rdf-syntax-ns#"
   xmlns:svg="http://www.w3.org/2000/svg"
   xmlns="http://www.w3.org/2000/svg"
   xmlns:sodipodi="http://sodipodi.sourceforge.net/DTD/sodipodi-0.dtd"
   xmlns:inkscape="http://www.inkscape.org/namespaces/inkscape"
   width="100.35625"
   height="83.792175"
   id="svg14212"
   sodipodi:version="0.32"
   inkscape:version="0.46"
   version="1.0"
   sodipodi:docname="PRES Université de Bordeaux.svg"
   inkscape:output_extension="org.inkscape.output.svg.inkscape">
  <defs
     id="defs14214">
    <inkscape:perspective
       sodipodi:type="inkscape:persp3d"
       inkscape:vp_x="0 : 526.18109 : 1"
       inkscape:vp_y="0 : 1000 : 0"
       inkscape:vp_z="744.09448 : 526.18109 : 1"
       inkscape:persp3d-origin="372.04724 : 350.78739 : 1"
       id="perspective14220" />
  </defs>
  <sodipodi:namedview
     id="base"
     pagecolor="#ffffff"
     bordercolor="#666666"
     borderopacity="1.0"
     inkscape:pageopacity="0.0"
     inkscape:pageshadow="2"
     inkscape:zoom="0.35"
     inkscape:cx="375"
     inkscape:cy="520"
     inkscape:document-units="px"
     inkscape:current-layer="layer1"
     showgrid="false"
     inkscape:window-width="645"
     inkscape:window-height="726"
     inkscape:window-x="0"
     inkscape:window-y="25" />
  <metadata
     id="metadata14217">
    <rdf:RDF>
      <cc:Work
         rdf:about="">
        <dc:format>image/svg+xml</dc:format>
        <dc:type
           rdf:resource="http://purl.org/dc/dcmitype/StillImage" />
      </cc:Work>
    </rdf:RDF>
  </metadata>
  <g
     inkscape:label="Calque 1"
     inkscape:groupmode="layer"
     id="layer1"
     transform="translate(178.74955,100.96247)">
    <g
       id="g12326"
       transform="matrix(1.25,0,0,-1.25,-122.7458,-55.486062)">
      <path
         d="M 0,0 C -0.969,6.175 -2.88,31.08 8.631,31.034 L 8.122,36.377 C 3.329,35.712 -1.44,30.146 -4.92,21.434 C -8.409,30.146 -13.171,35.712 -17.961,36.377 L -18.47,31.034 C -6.96,31.08 -8.87,6.175 -9.84,0 L -9.84,-0.019 C -6.561,-0.005 -3.28,-0.036 0,-0.019"
         style="fill:#b9d210;fill-opacity:1;fill-rule:nonzero;stroke:none"
         id="path12328" />
    </g>
    <g
       id="g12330"
       transform="matrix(1.25,0,0,-1.25,-136.3595,-62.140052)">
      <path
         d="M 0,0 C -11.52,-0.046 -9.909,24.905 -8.94,31.054 C -12.23,31.039 -15.521,31.068 -18.801,31.054 C -16.809,10.644 -8.861,-4.229 -0.818,-5.342"
         style="fill:#231f20;fill-opacity:1;fill-rule:nonzero;stroke:none"
         id="path12332" />
    </g>
    <g
       id="g12334"
       transform="matrix(1.25,0,0,-1.25,-121.4345,-62.140052)">
      <path
         d="M 0,0 C 11.522,-0.046 9.912,24.905 8.94,31.054 C 12.221,31.039 15.511,31.068 18.792,31.054 C 16.812,10.644 8.851,-4.229 0.821,-5.342"
         style="fill:#231f20;fill-opacity:1;fill-rule:nonzero;stroke:none"
         id="path12336" />
    </g>
    <g
       id="g12338"
       transform="matrix(1.25,0,0,-1.25,-178.1733,-42.307042)">
      <path
         d="M 0,0 C 0,2.887 0.01,3.23 -0.461,3.269 L -0.461,3.41 C -0.19,3.406 0.161,3.398 0.571,3.398 C 0.96,3.398 1.301,3.406 1.56,3.41 L 1.56,3.269 C 1.07,3.23 1.061,2.887 1.061,0 L 1.061,-1.699 C 1.061,-2.69 1.241,-3.281 1.63,-3.756 C 2.011,-4.243 2.681,-4.505 3.382,-4.505 C 4.07,-4.505 4.68,-4.272 5.09,-3.785 C 5.491,-3.314 5.681,-2.635 5.681,-1.656 L 5.681,0 C 5.681,2.885 5.681,3.235 5.182,3.276 L 5.182,3.41 C 5.46,3.406 5.801,3.398 6.17,3.398 C 6.562,3.398 6.89,3.406 7.13,3.41 L 7.13,3.276 C 6.691,3.235 6.691,2.885 6.691,0 L 6.691,-1.658 C 6.691,-2.959 6.41,-3.794 5.88,-4.406 C 5.371,-5.026 4.471,-5.484 3.37,-5.484 C 2.201,-5.484 1.27,-5.071 0.701,-4.296 C 0.211,-3.684 0,-2.918 0,-1.759"
         style="fill:#231f20;fill-opacity:1;fill-rule:nonzero;stroke:none"
         id="path12340" />
    </g>
    <g
       id="g12342"
       transform="matrix(1.25,0,0,-1.25,-158.772,-35.476052)">
      <path
         d="M 0,0 L -0.159,0 C -2.299,2.494 -3.571,3.979 -4.359,4.898 C -4.879,5.498 -5.239,5.923 -5.801,6.643 L -5.82,6.643 C -5.82,6.211 -5.82,5.777 -5.82,3.677 C -5.82,0.634 -5.82,0.281 -5.34,0.24 L -5.34,0.098 C -5.64,0.106 -5.971,0.11 -6.341,0.11 C -6.73,0.11 -6.979,0.106 -7.241,0.098 L -7.241,0.238 C -6.761,0.276 -6.761,0.634 -6.761,3.72 L -6.761,8.957 L -6.6,8.957 C -4.411,6.379 -3.12,4.86 -2.331,3.938 C -1.839,3.367 -1.479,2.952 -0.96,2.275 L -0.931,2.275 C -0.939,2.726 -0.939,3.146 -0.939,5.484 C -0.939,8.34 -0.939,8.698 -1.44,8.736 L -1.44,8.875 C -1.171,8.87 -0.831,8.863 -0.49,8.863 C -0.111,8.863 0.18,8.87 0.429,8.875 L 0.429,8.736 C 0,8.695 0,8.34 0,5.453"
         style="fill:#231f20;fill-opacity:1;fill-rule:nonzero;stroke:none"
         id="path12344" />
    </g>
    <g
       id="g12346"
       transform="matrix(1.25,0,0,-1.25,-154.6596,-40.117052)">
      <path
         d="M 0,0 C 0,-3.089 0,-3.413 0.511,-3.47 L 0.511,-3.614 C 0.231,-3.607 -0.129,-3.602 -0.521,-3.602 C -0.96,-3.602 -1.281,-3.607 -1.541,-3.614 L -1.541,-3.466 C -1.049,-3.413 -1.049,-3.091 -1.049,-0.007 L -1.049,1.752 C -1.049,4.639 -1.049,4.966 -1.521,5.009 L -1.521,5.162 C -1.281,5.158 -0.941,5.15 -0.54,5.15 C -0.161,5.15 0.211,5.158 0.461,5.162 L 0.461,5.014 C 0,4.966 0,4.642 0,1.754"
         style="fill:#231f20;fill-opacity:1;fill-rule:nonzero;stroke:none"
         id="path12348" />
    </g>
    <g
       id="g12350"
       transform="matrix(1.25,0,0,-1.25,-148.1858,-35.452052)">
      <path
         d="M 0,0 L -0.158,0 L -2.419,5.484 C -3.619,8.381 -3.78,8.712 -4.149,8.75 L -4.149,8.894 C -3.979,8.89 -3.609,8.882 -3.168,8.882 C -2.738,8.882 -2.328,8.89 -2.068,8.894 L -2.068,8.75 C -2.628,8.717 -2.479,8.374 -1.428,5.786 C -0.708,4.006 -0.388,3.168 -0.048,2.194 L -0.028,2.194 C 0.3,3.161 0.612,3.979 1.342,5.784 C 2.381,8.371 2.523,8.71 2.002,8.75 L 2.002,8.894 C 2.271,8.89 2.703,8.882 3.072,8.882 C 3.452,8.882 3.783,8.89 3.951,8.894 L 3.951,8.75 C 3.603,8.712 3.452,8.371 2.252,5.484"
         style="fill:#231f20;fill-opacity:1;fill-rule:nonzero;stroke:none"
         id="path12352" />
    </g>
    <g
       id="g12354"
       transform="matrix(1.25,0,0,-1.25,-141.9095,-42.307042)">
      <path
         d="M 0,0 C 0,2.882 0,3.23 -0.42,3.269 L -0.42,3.41 C -0.009,3.406 0.771,3.398 1.68,3.398 C 2.59,3.398 3.54,3.406 4.131,3.41 C 4.111,2.945 4.09,2.462 4.09,1.982 L 3.951,1.982 C 3.891,2.441 3.571,2.527 2.801,2.527 L 1.042,2.527 L 1.042,-0.442 L 2.59,-0.442 C 3.382,-0.442 3.631,-0.432 3.711,-0.154 L 3.831,-0.154 C 3.821,-0.403 3.811,-0.631 3.811,-0.859 C 3.811,-1.128 3.821,-1.373 3.831,-1.646 L 3.711,-1.646 C 3.631,-1.332 3.401,-1.313 2.611,-1.313 L 1.042,-1.313 L 1.042,-4.188 C 1.042,-4.421 1.051,-4.445 1.27,-4.457 C 2.11,-4.459 2.671,-4.459 3.221,-4.457 C 3.751,-4.454 4.051,-4.414 4.14,-3.96 L 4.27,-3.96 C 4.26,-4.368 4.241,-4.884 4.241,-5.366 C 3.562,-5.359 2.65,-5.354 1.81,-5.354 C 0.831,-5.354 -0.029,-5.359 -0.449,-5.366 L -0.449,-5.222 C 0,-5.184 0,-4.843 0,-1.754"
         style="fill:#231f20;fill-opacity:1;fill-rule:nonzero;stroke:none"
         id="path12356" />
    </g>
    <g
       id="g12358"
       transform="matrix(1.25,0,0,-1.25,-130.0833,-43.480042)">
      <path
         d="M 0,0 C 0,0.989 -0.66,1.613 -1.79,1.613 C -2.011,1.613 -2.261,1.598 -2.381,1.584 L -2.381,-1.783 C -2.261,-1.793 -2.131,-1.798 -1.951,-1.798 C -1.541,-1.798 -1.15,-1.704 -0.85,-1.531 C -0.41,-1.291 0,-0.802 0,-0.012 L 0,0 z M -3.401,-0.938 C -3.401,1.949 -3.401,2.292 -3.859,2.316 L -3.859,2.448 C -3.571,2.453 -3.319,2.458 -2.971,2.465 C -2.671,2.472 -2.21,2.491 -1.92,2.491 C -1.351,2.491 -0.811,2.429 -0.37,2.263 C 0.29,2.023 1.08,1.346 1.08,0.06 C 1.08,-1.018 0.499,-1.685 0.029,-2.016 C -0.211,-2.194 -0.511,-2.342 -0.761,-2.419 L -0.761,-2.438 C -0.511,-2.786 -0.259,-3.13 1.38,-5.347 C 1.68,-5.748 2.04,-6.125 2.33,-6.161 L 2.33,-6.298 C 2.09,-6.298 1.85,-6.293 1.57,-6.293 C 1.37,-6.293 1.25,-6.298 1.061,-6.298 C 0.919,-6.298 0.77,-6.247 0.67,-6.151 C -0.041,-5.143 -0.799,-4.046 -1.819,-2.616 C -2.021,-2.616 -2.261,-2.611 -2.381,-2.611 L -2.381,-3.086 C -2.381,-5.782 -2.381,-6.122 -1.939,-6.161 L -1.939,-6.305 C -2.201,-6.298 -2.51,-6.293 -2.88,-6.293 C -3.271,-6.293 -3.571,-6.298 -3.859,-6.305 L -3.859,-6.161 C -3.391,-6.122 -3.401,-5.782 -3.401,-2.693"
         style="fill:#231f20;fill-opacity:1;fill-rule:nonzero;stroke:none"
         id="path12360" />
    </g>
    <g
       id="g12362"
       transform="matrix(1.25,0,0,-1.25,-121.4945,-38.383052)">
      <path
         d="M 0,0 C 0,-1.229 -0.941,-2.335 -2.712,-2.335 C -3.281,-2.335 -3.931,-2.194 -4.291,-2.042 C -4.262,-1.555 -4.241,-1.128 -4.231,-0.557 L -4.092,-0.557 C -4.032,-0.871 -3.881,-1.082 -3.681,-1.217 C -3.441,-1.358 -3.091,-1.428 -2.7,-1.428 C -1.812,-1.428 -1.101,-0.902 -1.101,-0.05 C -1.101,0.468 -1.31,0.881 -1.821,1.306 C -2.181,1.603 -2.52,1.848 -2.921,2.17 C -3.71,2.801 -4.13,3.418 -4.13,4.322 C -4.13,5.558 -3.161,6.605 -1.56,6.605 C -1.092,6.605 -0.621,6.533 -0.3,6.427 C -0.331,5.942 -0.341,5.506 -0.36,4.99 L -0.492,4.99 C -0.54,5.275 -0.672,5.438 -0.852,5.549 C -1.02,5.645 -1.281,5.702 -1.541,5.702 C -2.4,5.702 -3.05,5.201 -3.05,4.394 C -3.05,3.934 -2.861,3.566 -2.51,3.233 C -2.201,2.938 -1.831,2.671 -1.332,2.285 C -0.561,1.685 0,1.061 0,0.012"
         style="fill:#231f20;fill-opacity:1;fill-rule:nonzero;stroke:none"
         id="path12364" />
    </g>
    <g
       id="g12366"
       transform="matrix(1.25,0,0,-1.25,-118.0958,-40.117052)">
      <path
         d="M 0,0 C 0,-3.089 0,-3.413 0.502,-3.47 L 0.502,-3.614 C 0.231,-3.607 -0.129,-3.602 -0.52,-3.602 C -0.96,-3.602 -1.291,-3.607 -1.54,-3.614 L -1.54,-3.466 C -1.051,-3.413 -1.051,-3.091 -1.051,-0.007 L -1.051,1.752 C -1.051,4.639 -1.051,4.966 -1.519,5.009 L -1.519,5.162 C -1.279,5.158 -0.94,5.15 -0.54,5.15 C -0.16,5.15 0.209,5.158 0.461,5.162 L 0.461,5.014 C 0,4.966 0,4.642 0,1.754"
         style="fill:#231f20;fill-opacity:1;fill-rule:nonzero;stroke:none"
         id="path12368" />
    </g>
    <g
       id="g12370"
       transform="matrix(1.25,0,0,-1.25,-113.0346,-45.478052)">
      <path
         d="M 0,0 L -1.699,0 C -2.318,0 -2.52,-0.108 -2.618,-0.583 L -2.76,-0.583 C -2.76,-0.091 -2.769,0.41 -2.769,0.869 C -1.86,0.864 -0.78,0.862 0.041,0.862 L 1.001,0.862 C 1.92,0.862 3,0.864 3.811,0.869 C 3.811,0.408 3.811,-0.094 3.811,-0.583 L 3.66,-0.583 C 3.571,-0.103 3.341,0 2.753,0 L 1.051,0 L 1.051,-4.291 C 1.051,-7.39 1.051,-7.73 1.56,-7.762 L 1.56,-7.903 C 1.282,-7.898 0.922,-7.891 0.54,-7.891 C 0.132,-7.891 -0.247,-7.898 -0.487,-7.903 L -0.487,-7.757 C 0,-7.711 0,-7.387 0,-4.291"
         style="fill:#231f20;fill-opacity:1;fill-rule:nonzero;stroke:none"
         id="path12372" />
    </g>
    <g
       id="g12374"
       transform="matrix(1.25,0,0,-1.25,-105.0183,-47.470052)">
      <path
         d="M 0,0 L 1.548,1.337 L 1.92,0.746 L 0.199,-0.269 L 0,0 z M -1.32,-4.13 C -1.32,-1.25 -1.32,-0.9 -1.731,-0.864 L -1.731,-0.72 C -1.32,-0.725 -0.54,-0.732 0.369,-0.732 C 1.279,-0.732 2.23,-0.725 2.82,-0.72 C 2.798,-1.186 2.779,-1.668 2.769,-2.148 L 2.64,-2.148 C 2.58,-1.69 2.258,-1.603 1.478,-1.603 L -0.271,-1.603 L -0.271,-4.572 L 1.269,-4.572 C 2.069,-4.572 2.318,-4.562 2.388,-4.284 L 2.52,-4.284 C 2.508,-4.534 2.498,-4.764 2.498,-4.99 C 2.498,-5.258 2.508,-5.503 2.52,-5.779 L 2.388,-5.779 C 2.318,-5.462 2.088,-5.443 1.298,-5.443 L -0.271,-5.443 L -0.271,-8.318 C -0.271,-8.554 -0.262,-8.575 -0.041,-8.59 C 0.799,-8.59 1.358,-8.592 1.908,-8.59 C 2.438,-8.585 2.738,-8.544 2.83,-8.09 L 2.959,-8.09 C 2.94,-8.498 2.918,-9.017 2.918,-9.497 C 2.249,-9.492 1.339,-9.485 0.49,-9.485 C -0.48,-9.485 -1.342,-9.492 -1.762,-9.497 L -1.762,-9.355 C -1.32,-9.314 -1.32,-8.974 -1.32,-5.885"
         style="fill:#231f20;fill-opacity:1;fill-rule:nonzero;stroke:none"
         id="path12376" />
    </g>
    <g
       id="g12378"
       transform="matrix(1.25,0,0,-1.25,-87.969504,-41.275052)">
      <path
         d="M 0,0 C 0,1.152 -0.499,2.148 -1.31,2.726 C -1.86,3.118 -2.7,3.341 -3.59,3.341 C -3.95,3.341 -4.229,3.326 -4.541,3.302 L -4.541,-3.434 C -4.541,-3.559 -4.51,-3.593 -4.409,-3.607 C -4.2,-3.638 -3.89,-3.648 -3.619,-3.648 C -2.659,-3.648 -1.8,-3.382 -1.19,-2.854 C -0.449,-2.222 0,-1.26 0,-0.01 L 0,0 z M 1.111,0.043 C 1.111,-1.538 0.521,-2.762 -0.521,-3.59 C -1.339,-4.258 -2.4,-4.56 -3.78,-4.56 C -4.109,-4.56 -4.62,-4.541 -5.021,-4.536 C -5.39,-4.529 -5.741,-4.529 -6.079,-4.524 L -6.079,-4.375 C -5.589,-4.334 -5.589,-4.006 -5.589,-0.929 L -5.589,0.826 C -5.589,3.713 -5.589,4.022 -6.06,4.056 L -6.06,4.205 C -5.77,4.21 -5.321,4.231 -4.939,4.238 C -4.519,4.246 -4.159,4.262 -3.629,4.262 C -2.369,4.262 -1.469,4.032 -0.689,3.566 C 0.439,2.88 1.111,1.55 1.111,0.055"
         style="fill:#231f20;fill-opacity:1;fill-rule:nonzero;stroke:none"
         id="path12380" />
    </g>
    <g
       id="g12382"
       transform="matrix(1.25,0,0,-1.25,-84.555804,-42.307042)">
      <path
         d="M 0,0 C 0,2.882 0,3.23 -0.41,3.269 L -0.41,3.41 C 0,3.406 0.78,3.398 1.69,3.398 C 2.6,3.398 3.55,3.406 4.14,3.41 C 4.109,2.945 4.1,2.462 4.1,1.982 L 3.96,1.982 C 3.9,2.441 3.579,2.527 2.808,2.527 L 1.049,2.527 L 1.049,-0.442 L 2.59,-0.442 C 3.389,-0.442 3.639,-0.432 3.708,-0.154 L 3.84,-0.154 C 3.828,-0.403 3.819,-0.631 3.819,-0.859 C 3.819,-1.128 3.828,-1.373 3.84,-1.646 L 3.708,-1.646 C 3.639,-1.332 3.408,-1.313 2.619,-1.313 L 1.049,-1.313 L 1.049,-4.188 C 1.049,-4.421 1.059,-4.445 1.279,-4.457 C 2.12,-4.459 2.679,-4.459 3.228,-4.457 C 3.759,-4.454 4.059,-4.414 4.15,-3.96 L 4.279,-3.96 C 4.27,-4.368 4.239,-4.884 4.239,-5.366 C 3.569,-5.359 2.659,-5.354 1.81,-5.354 C 0.84,-5.354 -0.021,-5.359 -0.441,-5.366 L -0.441,-5.222 C 0,-5.184 0,-4.843 0,-1.754"
         style="fill:#231f20;fill-opacity:1;fill-rule:nonzero;stroke:none"
         id="path12384" />
    </g>
    <g
       id="g12386"
       transform="matrix(1.25,0,0,-1.25,-171.7858,-21.556052)">
      <path
         d="M 0,0 C 0,1.078 -0.749,1.699 -1.488,1.93 C -1.848,2.038 -2.319,2.105 -2.77,2.105 C -2.919,2.105 -3.2,2.1 -3.351,2.086 L -3.351,-1.814 C -3.351,-2.045 -3.339,-2.074 -3.24,-2.112 C -3.039,-2.158 -2.789,-2.162 -2.58,-2.162 C -2.12,-2.162 -1.589,-2.057 -1.248,-1.903 C -0.67,-1.658 0,-1.07 0,-0.012 L 0,0 z M -0.48,5.256 C -0.48,6.533 -1.39,7.171 -2.6,7.171 C -2.919,7.171 -3.2,7.15 -3.351,7.135 L -3.351,3.228 C -3.24,3.216 -3.08,3.211 -2.94,3.211 C -2.631,3.211 -2.249,3.242 -1.908,3.346 C -1.22,3.547 -0.48,4.145 -0.48,5.239 L -0.48,5.256 z M 1.44,-0.07 C 1.44,-1.231 0.871,-2.138 0.012,-2.683 C -0.689,-3.137 -1.58,-3.35 -2.88,-3.35 C -3.32,-3.35 -3.771,-3.319 -4.191,-3.312 C -4.45,-3.307 -4.87,-3.302 -5.319,-3.302 L -5.319,-3.113 C -4.69,-3.091 -4.69,-2.638 -4.69,1.457 L -4.69,3.787 C -4.69,7.625 -4.69,8.047 -5.249,8.105 L -5.249,8.282 C -4.949,8.285 -4.479,8.299 -4.15,8.302 C -3.771,8.311 -3.2,8.333 -2.7,8.333 C -2.06,8.333 -1.419,8.244 -0.97,8.093 C -0.13,7.826 0.94,7.042 0.94,5.364 C 0.94,3.991 -0.01,2.983 -1.1,2.753 L -1.1,2.726 C 0.29,2.542 1.44,1.488 1.44,-0.055"
         style="fill:#231f20;fill-opacity:1;fill-rule:nonzero;stroke:none"
         id="path12388" />
    </g>
    <g
       id="g12390"
       transform="matrix(1.25,0,0,-1.25,-155.1458,-24.724052)">
      <path
         d="M 0,0 C 0,2.652 -1.941,4.668 -4.48,4.668 C -7.02,4.668 -8.952,2.642 -8.952,-0.065 C -8.952,-2.772 -7,-4.807 -4.48,-4.807 C -1.932,-4.807 0,-2.81 0,-0.014 L 0,0 z M 1.5,0.058 C 1.5,-3.35 -1.02,-6.043 -4.56,-6.043 C -7.86,-6.043 -10.471,-3.449 -10.471,-0.118 C -10.471,3.379 -7.831,5.918 -4.341,5.918 C -1,5.918 1.5,3.43 1.5,0.072"
         style="fill:#231f20;fill-opacity:1;fill-rule:nonzero;stroke:none"
         id="path12392" />
    </g>
    <g
       id="g12394"
       transform="matrix(1.25,0,0,-1.25,-144.9208,-27.850052)">
      <path
         d="M 0,0 C 0,1.313 -0.881,2.141 -2.391,2.141 C -2.672,2.141 -3.01,2.124 -3.171,2.102 L -3.171,-2.369 C -3.01,-2.386 -2.83,-2.39 -2.59,-2.39 C -2.05,-2.39 -1.529,-2.266 -1.14,-2.038 C -0.55,-1.716 0,-1.066 0,-0.014 L 0,0 z M -4.52,-1.248 C -4.52,2.59 -4.52,3.043 -5.132,3.077 L -5.132,3.252 C -4.75,3.254 -4.421,3.266 -3.951,3.271 C -3.55,3.283 -2.94,3.31 -2.552,3.31 C -1.8,3.31 -1.08,3.226 -0.49,3.005 C 0.391,2.686 1.43,1.786 1.43,0.077 C 1.43,-1.351 0.66,-2.242 0.04,-2.678 C -0.281,-2.916 -0.68,-3.113 -1.02,-3.216 L -1.02,-3.242 C -0.68,-3.703 -0.351,-4.159 1.831,-7.104 C 2.229,-7.644 2.709,-8.138 3.091,-8.189 L 3.091,-8.371 C 2.779,-8.371 2.46,-8.364 2.09,-8.364 C 1.819,-8.364 1.66,-8.371 1.42,-8.371 C 1.219,-8.371 1.02,-8.304 0.88,-8.172 C -0.06,-6.833 -1.061,-5.378 -2.42,-3.478 C -2.681,-3.478 -3,-3.473 -3.171,-3.473 L -3.171,-4.104 C -3.171,-7.682 -3.161,-8.136 -2.58,-8.189 L -2.58,-8.378 C -2.921,-8.371 -3.341,-8.364 -3.821,-8.364 C -4.352,-8.364 -4.75,-8.371 -5.132,-8.378 L -5.132,-8.189 C -4.51,-8.136 -4.52,-7.682 -4.52,-3.578"
         style="fill:#231f20;fill-opacity:1;fill-rule:nonzero;stroke:none"
         id="path12396" />
    </g>
    <g
       id="g12398"
       transform="matrix(1.25,0,0,-1.25,-130.1583,-24.922062)">
      <path
         d="M 0,0 C 0,1.531 -0.67,2.854 -1.73,3.622 C -2.46,4.14 -3.59,4.438 -4.771,4.438 C -5.251,4.438 -5.621,4.416 -6.031,4.382 L -6.031,-4.565 C -6.031,-4.73 -5.99,-4.776 -5.861,-4.795 C -5.57,-4.834 -5.16,-4.85 -4.81,-4.85 C -3.53,-4.85 -2.39,-4.495 -1.579,-3.797 C -0.6,-2.952 0,-1.675 0,-0.014 L 0,0 z M 1.469,0.055 C 1.469,-2.047 0.689,-3.672 -0.679,-4.774 C -1.771,-5.657 -3.19,-6.06 -5.021,-6.06 C -5.46,-6.06 -6.139,-6.036 -6.67,-6.026 C -7.159,-6.022 -7.62,-6.017 -8.081,-6.012 L -8.081,-5.815 C -7.421,-5.758 -7.421,-5.326 -7.421,-1.236 L -7.421,1.094 C -7.421,4.932 -7.421,5.34 -8.05,5.388 L -8.05,5.582 C -7.661,5.592 -7.07,5.621 -6.559,5.628 C -6,5.638 -5.53,5.659 -4.831,5.659 C -3.151,5.659 -1.939,5.354 -0.919,4.738 C 0.59,3.823 1.469,2.059 1.469,0.07"
         style="fill:#231f20;fill-opacity:1;fill-rule:nonzero;stroke:none"
         id="path12400" />
    </g>
    <g
       id="g12402"
       transform="matrix(1.25,0,0,-1.25,-125.6196,-26.290052)">
      <path
         d="M 0,0 C 0,3.83 0,4.291 -0.552,4.342 L -0.552,4.534 C 0,4.529 1.039,4.517 2.249,4.517 C 3.449,4.517 4.709,4.526 5.499,4.534 C 5.47,3.914 5.439,3.271 5.439,2.635 L 5.259,2.635 C 5.179,3.242 4.75,3.358 3.73,3.358 L 1.39,3.358 L 1.39,-0.583 L 3.449,-0.583 C 4.51,-0.583 4.829,-0.574 4.93,-0.204 L 5.1,-0.204 C 5.088,-0.535 5.079,-0.838 5.079,-1.142 C 5.079,-1.498 5.088,-1.822 5.1,-2.186 L 4.939,-2.186 C 4.839,-1.769 4.519,-1.745 3.48,-1.745 L 1.39,-1.745 L 1.39,-5.563 C 1.39,-5.873 1.409,-5.906 1.699,-5.923 C 2.808,-5.923 3.559,-5.926 4.289,-5.923 C 4.999,-5.916 5.388,-5.866 5.508,-5.261 L 5.688,-5.261 C 5.669,-5.798 5.64,-6.49 5.64,-7.13 C 4.74,-7.121 3.528,-7.114 2.41,-7.114 C 1.119,-7.114 -0.031,-7.121 -0.59,-7.13 L -0.59,-6.938 C 0,-6.888 0,-6.434 0,-2.33"
         style="fill:#231f20;fill-opacity:1;fill-rule:nonzero;stroke:none"
         id="path12404" />
    </g>
    <g
       id="g12406"
       transform="matrix(1.25,0,0,-1.25,-108.957,-22.951042)">
      <path
         d="M 0,0 L -0.022,0.053 C -1.342,3.622 -1.5,4.046 -1.62,4.464 L -1.642,4.464 C -1.762,4.051 -1.942,3.617 -3.329,0.053 L -3.341,0 L 0,0 z M -3.771,-1.128 C -4.829,-3.766 -5.009,-4.219 -4.371,-4.265 L -4.371,-4.459 C -4.75,-4.45 -5.201,-4.442 -5.681,-4.442 C -6.231,-4.442 -6.631,-4.45 -6.9,-4.459 L -6.9,-4.265 C -6.442,-4.224 -6.221,-3.773 -4.529,0.355 L -1.671,7.387 L -1.44,7.387 L 1.339,0.343 C 2.971,-3.763 3.16,-4.214 3.609,-4.265 L 3.609,-4.459 C 3.369,-4.45 2.981,-4.442 2.419,-4.442 C 1.9,-4.442 1.389,-4.45 0.998,-4.459 L 0.998,-4.265 C 1.629,-4.219 1.44,-3.768 0.42,-1.128"
         style="fill:#231f20;fill-opacity:1;fill-rule:nonzero;stroke:none"
         id="path12408" />
    </g>
    <g
       id="g12410"
       transform="matrix(1.25,0,0,-1.25,-102.9458,-26.290052)">
      <path
         d="M 0,0 C 0,3.838 0,4.291 -0.619,4.342 L -0.619,4.534 C -0.259,4.526 0.202,4.517 0.751,4.517 C 1.27,4.517 1.731,4.526 2.062,4.534 L 2.062,4.342 C 1.412,4.291 1.412,3.838 1.412,0 L 1.412,-2.258 C 1.412,-3.574 1.652,-4.361 2.16,-4.99 C 2.662,-5.635 3.55,-5.983 4.481,-5.983 C 5.4,-5.983 6.211,-5.676 6.761,-5.03 C 7.292,-4.402 7.541,-3.499 7.541,-2.198 L 7.541,0 C 7.541,3.835 7.551,4.301 6.881,4.354 L 6.881,4.534 C 7.251,4.526 7.702,4.517 8.192,4.517 C 8.712,4.517 9.142,4.526 9.461,4.534 L 9.461,4.354 C 8.892,4.301 8.88,3.835 8.88,0 L 8.88,-2.203 C 8.88,-3.934 8.511,-5.042 7.8,-5.856 C 7.131,-6.679 5.931,-7.286 4.471,-7.286 C 2.921,-7.286 1.68,-6.734 0.932,-5.707 C 0.272,-4.896 0,-3.881 0,-2.338"
         style="fill:#231f20;fill-opacity:1;fill-rule:nonzero;stroke:none"
         id="path12412" />
    </g>
    <g
       id="g12414"
       transform="matrix(1.25,0,0,-1.25,-85.218304,-24.751042)">
      <path
         d="M 0,0 L -1.191,2.009 C -3.05,5.045 -3.3,5.506 -3.811,5.573 L -3.811,5.765 C -3.591,5.758 -3.11,5.748 -2.52,5.748 C -1.99,5.748 -1.49,5.758 -1.051,5.765 L -1.051,5.573 C -1.721,5.51 -1.39,5.03 -0.091,2.803 C 0.199,2.314 0.518,1.774 0.799,1.265 L 0.818,1.265 C 1.109,1.79 1.43,2.314 1.709,2.798 C 3.01,5.038 3.309,5.508 2.719,5.573 L 2.719,5.765 C 3.209,5.758 3.65,5.748 4.159,5.748 C 4.718,5.748 5.059,5.758 5.27,5.765 L 5.27,5.573 C 4.769,5.498 4.538,5.059 2.69,2.021 L 1.56,0.108 L 2.63,-1.709 C 4.75,-5.263 4.961,-5.647 5.46,-5.707 L 5.46,-5.899 C 5.21,-5.89 4.759,-5.882 4.118,-5.882 C 3.518,-5.882 3.06,-5.89 2.65,-5.899 L 2.65,-5.707 C 3.329,-5.662 3.06,-5.184 1.67,-2.731 C 1.349,-2.182 1.02,-1.625 0.739,-1.128 L 0.72,-1.128 C 0.449,-1.632 0.139,-2.172 -0.17,-2.693 C -1.591,-5.15 -1.86,-5.65 -1.25,-5.705 L -1.25,-5.899 C -1.62,-5.89 -2.131,-5.882 -2.671,-5.882 C -3.23,-5.882 -3.67,-5.89 -3.941,-5.899 L -3.941,-5.707 C -3.42,-5.645 -3.142,-5.17 -1.03,-1.733"
         style="fill:#231f20;fill-opacity:1;fill-rule:nonzero;stroke:none"
         id="path12416" />
    </g>
  </g>
</svg>
