<?xml version="1.0" encoding="UTF-8" standalone="no"?>
<!-- Created with Inkscape (http://www.inkscape.org/) -->

<svg
   xmlns:dc="http://purl.org/dc/elements/1.1/"
   xmlns:cc="http://creativecommons.org/ns#"
   xmlns:rdf="http://www.w3.org/1999/02/22-rdf-syntax-ns#"
   xmlns:svg="http://www.w3.org/2000/svg"
   xmlns="http://www.w3.org/2000/svg"
   xmlns:xlink="http://www.w3.org/1999/xlink"
   xmlns:sodipodi="http://sodipodi.sourceforge.net/DTD/sodipodi-0.dtd"
   xmlns:inkscape="http://www.inkscape.org/namespaces/inkscape"
   width="1208.1187"
   height="410.02679"
   id="svg2"
   version="1.1"
   inkscape:version="0.48.5 r10040"
   sodipodi:docname="comm.svg">
  <defs
     id="defs4">
    <linearGradient
       id="linearGradient5303">
      <stop
         style="stop-color:#ffc5c5;stop-opacity:1;"
         offset="0"
         id="stop5305" />
      <stop
         id="stop5311"
         offset="0.29437652"
         style="stop-color:#ff1313;stop-opacity:1;" />
      <stop
         style="stop-color:#8b0000;stop-opacity:1;"
         offset="1"
         id="stop5307" />
    </linearGradient>
    <marker
       inkscape:stockid="Arrow2Send"
       orient="auto"
       refY="0"
       refX="0"
       id="Arrow2Send"
       style="overflow:visible">
      <path
         id="path4302"
         style="fill-rule:evenodd;stroke-width:0.625;stroke-linejoin:round"
         d="M 8.7185878,4.0337352 -2.2072895,0.01601326 8.7185884,-4.0017078 c -1.7454984,2.3720609 -1.7354408,5.6174519 -6e-7,8.035443 z"
         transform="matrix(-0.3,0,0,-0.3,0.69,0)"
         inkscape:connector-curvature="0" />
    </marker>
    <marker
       inkscape:stockid="Arrow1Lend"
       orient="auto"
       refY="0"
       refX="0"
       id="Arrow1Lend"
       style="overflow:visible">
      <path
         id="path4272"
         d="M 0,0 5,-5 -12.5,0 5,5 0,0 z"
         style="fill-rule:evenodd;stroke:#000000;stroke-width:1pt"
         transform="matrix(-0.8,0,0,-0.8,-10,0)"
         inkscape:connector-curvature="0" />
    </marker>
    <linearGradient
       inkscape:collect="always"
       xlink:href="#linearGradient5303"
       id="linearGradient5309"
       x1="1429.6237"
       y1="-55.559895"
       x2="1428.3821"
       y2="248.01154"
       gradientUnits="userSpaceOnUse" />
  </defs>
  <sodipodi:namedview
     id="base"
     pagecolor="#ffffff"
     bordercolor="#666666"
     borderopacity="1.0"
     inkscape:pageopacity="0.0"
     inkscape:pageshadow="2"
     inkscape:zoom="0.98994949"
     inkscape:cx="739.94659"
     inkscape:cy="119.21974"
     inkscape:document-units="px"
     inkscape:current-layer="layer1"
     showgrid="false"
     inkscape:window-width="2560"
     inkscape:window-height="1497"
     inkscape:window-x="0"
     inkscape:window-y="39"
     inkscape:window-maximized="1"
     fit-margin-top="0"
     fit-margin-left="0"
     fit-margin-right="0"
     fit-margin-bottom="0" />
  <metadata
     id="metadata7">
    <rdf:RDF>
      <cc:Work
         rdf:about="">
        <dc:format>image/svg+xml</dc:format>
        <dc:type
           rdf:resource="http://purl.org/dc/dcmitype/StillImage" />
        <dc:title />
      </cc:Work>
    </rdf:RDF>
  </metadata>
  <g
     inkscape:label="Calque 1"
     inkscape:groupmode="layer"
     id="layer1"
     transform="translate(-821.88525,108.53227)">
    <path
       style="fill:none;stroke:url(#linearGradient5309);stroke-width:20.10000038;stroke-linecap:butt;stroke-linejoin:miter;stroke-miterlimit:4;stroke-opacity:1;stroke-dasharray:none;marker-end:url(#Arrow2Send)"
       d="m 1428.6155,-53.24428 0,304.28571"
       id="path5227"
       inkscape:connector-curvature="0" />
    <text
       xml:space="preserve"
       style="font-size:32px;font-style:normal;font-weight:normal;text-align:start;line-height:125%;letter-spacing:0px;word-spacing:0px;text-anchor:start;fill:#000000;fill-opacity:1;stroke:none;font-family:Sans"
       x="1390.3879"
       y="301.04141"
       id="text5413"
       sodipodi:linespacing="125%"><tspan
         sodipodi:role="line"
         id="tspan5415"
         x="1390.3879"
         y="301.04141">Time</tspan></text>
    <g
       id="g3118">
      <g
         transform="translate(78.675503,14.153869)"
         id="g3468">
        <path
           style="fill:#0000ff;fill-opacity:1;stroke:#000000"
           d="m 743.70975,-0.14100268 0,-28.04586032 5.53571,2.05075 c 32.11213,11.89623 97.7905,36.70062 98.18518,37.08106 0.96738,0.93246 -72.63908,13.71293 -88.54895,15.37497 l -15.17194,1.58495 0,-28.04586968 z"
           id="path3082-6"
           inkscape:connector-curvature="0" />
        <path
           style="fill:#0000ff;fill-opacity:1;stroke:#000000"
           d="m 813.07541,-15.914883 -38.13435,-26.23649 15.2772,-0.22816 c 8.40246,-0.12549 26.8637,-0.009 41.02497,0.25886 l 25.74777,0.48702 7.36542,24.247 c 4.05097,13.3358603 7.2502,24.3454503 7.10937,24.4657503 -0.41044,0.35066 -17.32694,3.2708897 -18.86166,3.2560297 -0.76691,-0.007 -18.55483,-11.8199297 -39.52872,-26.25001 l 0,0 z"
           id="path3084-6"
           inkscape:connector-curvature="0" />
        <path
           style="fill:#0000ff;fill-opacity:1;stroke:#000000"
           d="m 793.90013,-10.975263 c -26.80601,-10.07543 -48.73051,-18.47968 -48.72112,-18.67611 0.009,-0.19643 5.96237,-3.18699 13.22883,-6.64569 l 13.21175,-6.28855 34.79508,23.91837 c 37.45441,25.7464103 38.0108,26.1389803 36.93794,26.0621303 -0.39286,-0.0282 -22.64647,-8.29470998 -49.45248,-18.3701503 z"
           id="path3086-5"
           inkscape:connector-curvature="0" />
        <path
           style="fill:#0000ff;fill-opacity:1;stroke:#000000"
           d="m 809.78118,-43.972263 c -17.67857,-0.25797 -32.30357,-0.52888 -32.5,-0.60203 -1.34904,-0.50236 21.42917,-8.31147 30.3335,-10.39931 9.29881,-2.18033 15.36322,-3.06713 25.04654,-3.66256 l 7.88004,-0.48454 1.86531,2.77038 c 2.39695,3.55997 7.08969,8.36774 10.76915,11.03313 l 2.89123,2.09439 -7.07146,-0.14021 c -3.8893,-0.0771 -21.53574,-0.35128 -39.21431,-0.60925 z"
           id="path3088-9"
           inkscape:connector-curvature="0" />
        <path
           style="fill:#0000ff;fill-opacity:1;stroke:#000000"
           d="m 866.263,-16.238623 c -3.8643,-12.68058 -7.19048,-23.65007 -7.39151,-24.37663 -0.34298,-1.23962 -0.23638,-1.25426 1.72976,-0.23753 4.09718,2.11874 13.66538,4.72561 27.98304,7.62402 7.98456,1.61637 15.35386,3.25687 16.37622,3.64557 l 1.85882,0.70673 -3.92396,4.07683 c -2.15817,2.24226 -8.69289,9.21969 -14.5216,15.5054003 -5.8287,6.28572 -11.60724,12.48217 -12.8412,13.7699 l -2.24356,2.34132 -7.02601,-23.0556103 0,0 z"
           id="path3090-5"
           inkscape:connector-curvature="0" />
        <path
           style="fill:#0000ff;fill-opacity:1;stroke:#000000"
           d="m 810.49546,31.027417 c -16.89285,-2.68317 -31.34795,-4.9782 -32.12243,-5.10007 -0.77448,-0.12187 19.61758,-3.99023 45.31568,-8.59637 25.69811,-4.60615 46.83753,-8.2610897 46.97651,-8.1221097 0.13898,0.13898 -5.30664,6.2315797 -12.10138,13.5390997 -11.61555,12.49215 -12.50354,13.28258 -14.85409,13.22218 -1.375,-0.0353 -16.32143,-2.25955 -33.21429,-4.94273 z"
           id="path3092-9"
           inkscape:connector-curvature="0" />
        <path
           style="fill:#0000ff;fill-opacity:1;stroke:#000000"
           d="m 850.27639,34.052487 c 0.51335,-0.71288 13.46908,-14.73538 28.7905,-31.1611097 l 27.85715,-29.8649703 0.18864,23.0796103 c 0.10375,12.69379 -0.057,23.2885197 -0.35714,23.5438497 -0.56251,0.47845 -55.8063,15.75801 -56.83629,15.72002 -0.31692,-0.0117 -0.15621,-0.60452 0.35714,-1.3174 l 0,0 z"
           id="path3094-6"
           inkscape:connector-curvature="0" />
        <path
           style="fill:#0000ff;fill-opacity:1;stroke:#000000"
           d="m 953.70975,31.619357 c -24.16071,-6.32062 -44.16472,-11.84402 -44.45335,-12.27423 -0.64496,-0.96136 -0.72126,-37.11636 -0.091,-43.14588 l 0.4556,-4.35894 2.25987,0.94423 c 6.99528,2.92282 21.35855,13.0787 43.97179,31.0912803 8.44643,6.7280097 19.53571,15.0864397 24.64286,18.5742997 10.0343,6.8528 12.22219,8.8607 16.71322,15.33836 3.26436,4.70832 3.49276,5.43855 1.67963,5.3701 -0.6875,-0.0259 -21.01785,-5.21861 -45.17857,-11.53922 z"
           id="path3096-2"
           inkscape:connector-curvature="0" />
        <path
           style="fill:#0000ff;fill-opacity:1;stroke:#000000"
           d="m 767.28118,94.199747 c 0,-1.94065 6.45713,-66.97269 6.67122,-67.1882 0.0671,-0.0675 15.95174,2.33317 35.29922,5.33489 32.89306,5.1033 35.09592,5.5346 33.92483,6.64223 -1.83796,1.73836 -75.04152,57.07425 -75.50323,57.07425 -0.21562,0 -0.39204,-0.83843 -0.39204,-1.86317 z"
           id="path3122-6"
           inkscape:connector-curvature="0" />
      </g>
      <g
         transform="translate(72.701823,79.151301)"
         id="g3430">
        <path
           style="fill:#ffff00;fill-opacity:1;stroke:#000000"
           d="m 935.27208,177.43693 c 0.20998,-0.55928 2.70003,-8.40973 5.53345,-17.44544 2.83342,-9.03571 6.71887,-21.41071 8.63434,-27.5 1.91547,-6.08929 5.59157,-17.79785 8.16911,-26.01903 2.57755,-8.221183 4.77919,-15.040343 4.89254,-15.153693 0.11334,-0.11334 8.41062,14.687873 18.4384,32.891593 l 18.23232,33.09768 -31.1241,10.19224 c -17.11826,5.60574 -31.58169,10.36353 -32.14097,10.57287 -0.66311,0.24823 -0.88405,0.0269 -0.63509,-0.63622 l 0,0 z"
           id="path3102-1"
           inkscape:connector-curvature="0" />
        <path
           style="fill:#ffff00;fill-opacity:1;stroke:#000000"
           d="m 916.20975,198.85245 c -9.93908,-0.80982 -24.70234,-2.75183 -25.86472,-3.40234 -0.5829,-0.3262 20.71988,-7.65887 53.51963,-18.42209 29.96837,-9.8341 54.60134,-17.79125 54.73994,-17.68256 0.13859,0.1087 -0.46406,2.38781 -1.33925,5.06469 -4.61701,14.12186 -14.52943,26.84935 -25.30635,32.49321 -1.94563,1.01893 -5.05156,1.66289 -10,2.07335 -8.86322,0.73516 -36.10967,0.66116 -45.74925,-0.12426 z"
           id="path3104-4"
           inkscape:connector-curvature="0" />
        <path
           style="fill:#ffff00;fill-opacity:1;stroke:#000000"
           d="m 871.79589,171.58991 c -7.1419,-12.65484 -12.87474,-23.11934 -12.73963,-23.25445 0.1351,-0.13511 15.62134,6.41469 34.41385,14.5551 18.79252,8.14041 35.09189,15.19347 36.22082,15.67346 1.92884,0.82009 0.65139,1.3309 -21.18609,8.47152 -12.78128,4.17934 -23.34781,7.59079 -23.48117,7.58099 -0.13337,-0.01 -6.08587,-10.37177 -13.22778,-23.02662 z"
           id="path3106-2"
           inkscape:connector-curvature="0" />
        <path
           style="fill:#ffff00;fill-opacity:1;stroke:#000000"
           d="m 873.35261,192.41427 c -3.14286,-0.74744 -9.89286,-2.45093 -15,-3.78554 -5.10714,-1.3346 -13.14286,-3.29598 -17.85714,-4.35861 -18.89108,-4.25816 -37.75296,-11.6959 -50.16617,-19.78183 -5.81451,-3.78756 -15.29128,-11.42031 -14.79525,-11.91634 0.58648,-0.58648 80.60164,-5.08137 81.08094,-4.55477 0.73749,0.81027 25.66619,44.98098 25.66619,45.47745 0,0.70443 -2.89866,0.35369 -8.92857,-1.08036 l 0,0 z"
           id="path3108-9"
           inkscape:connector-curvature="0" />
        <path
           style="fill:#ffff00;fill-opacity:1;stroke:#000000"
           d="m 772.98941,149.84839 c -0.003,-0.70701 -1.12799,-12.05333 -2.49925,-25.21404 -1.37125,-13.16072 -2.49353,-23.96744 -2.49394,-24.01493 -4.2e-4,-0.0475 19.78968,10.06998 43.97799,22.48327 24.18832,12.4133 43.71511,22.64697 43.39286,22.74149 -0.32224,0.0945 -17.13946,1.14221 -37.37161,2.32819 -20.23214,1.18598 -38.63392,2.33749 -40.89285,2.55891 -3.62629,0.35544 -4.10785,0.25208 -4.1132,-0.88289 z"
           id="path3110-1"
           inkscape:connector-curvature="0" />
        <path
           style="fill:#ffff00;fill-opacity:1;stroke:#000000"
           d="M 813.57337,122.24978 C 771.99913,100.9036 770.33073,99.970617 772.85908,99.482177 c 1.45001,-0.28012 21.27924,-1.32809 44.06496,-2.32882 22.78571,-1.00073 44.2046,-2.01551 47.59754,-2.25506 l 6.16897,-0.43554 -6.36566,23.121513 c -3.5011,12.71683 -6.59857,23.97702 -6.88325,25.02265 l -0.5176,1.90115 -43.35067,-22.25829 z"
           id="path3126-2"
           inkscape:connector-curvature="0" />
        <path
           style="fill:#ffff00;fill-opacity:1;stroke:#000000"
           d="m 895.67333,162.27006 c -19.93789,-8.67744 -35.98358,-16.04429 -35.65709,-16.37077 0.92777,-0.92778 54.60436,-29.12197 55.44493,-29.12304 0.66697,-8.5e-4 32.5646,12.06053 33.11401,12.52133 0.12241,0.10267 -3.17223,10.98175 -7.32143,24.17574 -4.1492,13.19399 -7.544,24.15633 -7.544,24.36076 0,0.89377 -3.70813,-0.62355 -38.03642,-15.56402 z"
           id="path3130-5"
           inkscape:connector-curvature="0" />
      </g>
      <path
         inkscape:connector-curvature="0"
         id="path3080-4"
         d="m 851.59127,144.23128 c 0.98215,-0.54161 31.51103,-17.38379 67.84197,-37.42705 36.33094,-20.043269 66.15674,-36.341819 66.27954,-36.218999 0.1228,0.12282 -7.4213,15.86625 -16.7646,34.985389 -12.8796,26.3552 -17.3349,34.84125 -18.4225,35.08946 -1.8271,0.417 -90.02954,4.62279 -96.1457,4.58455 -4.2813,-0.0268 -4.46,-0.0917 -2.78871,-1.01335 z"
         style="fill:#aa0000;fill-opacity:1;stroke:#000000" />
      <path
         inkscape:connector-curvature="0"
         id="path3098-8"
         d="M 1016.6907,102.70056 C 1002.799,85.214501 991.61478,70.725891 991.83708,70.503641 c 0.4041,-0.40418 88.14742,22.21042 88.83232,22.89528 0.2698,0.26984 -38.2985,41.304769 -38.6551,41.127239 -0.036,-0.018 -11.4318,-14.33955 -25.3236,-31.8256 z"
         style="fill:#aa0000;fill-opacity:1;stroke:#000000" />
      <path
         inkscape:connector-curvature="0"
         id="path3100-4"
         d="m 1061.2922,169.45778 -18.4848,-33.58207 5.3277,-5.47981 c 2.9302,-3.0139 11.714,-12.16762 19.5195,-20.34162 11.1882,-11.716329 14.3232,-14.627109 14.8124,-13.752919 0.3413,0.60988 1.1114,3.60126 1.7112,6.647519 1.6142,8.19735 1.3399,23.49152 -0.7575,42.23016 -1.5003,13.40448 -1.7215,17.94776 -1.3741,28.2143 0.3107,9.17743 0.1281,14.36414 -0.7303,20.74444 -0.6295,4.67907 -1.2334,8.5962 -1.3419,8.70472 -0.1085,0.10853 -8.5155,-14.9146 -18.6822,-33.38472 l 0,0 z"
         style="fill:#aa0000;fill-opacity:1;stroke:#000000" />
      <path
         inkscape:connector-curvature="0"
         id="path3124-0"
         d="m 858.73413,137.95 c 0,-0.16468 15.43856,-11.99062 34.3079,-26.27986 l 34.30795,-25.980429 25.1563,-6.99675 c 13.8361,-3.84822 25.5407,-6.91514 26.0103,-6.81539 0.6887,0.14626 -116.63695,65.305629 -119.08004,66.133749 -0.38632,0.13096 -0.70241,0.10336 -0.70241,-0.0613 z"
         style="fill:#aa0000;fill-opacity:1;stroke:#000000" />
      <path
         inkscape:connector-curvature="0"
         id="path3128-5"
         d="m 938.73418,192.08728 c 0,-0.42108 12.5895,-46.85339 13.2173,-48.74774 0.3131,-0.94486 5.7742,1.49851 28.7477,12.86229 l 13.7507,6.80175 -23.3936,12.30688 c -12.8665,6.76878 -25.4025,13.41426 -27.8579,14.76773 -2.4553,1.35347 -4.4643,2.25756 -4.4643,2.00909 z"
         style="fill:#aa0000;fill-opacity:1;stroke:#000000" />
      <path
         inkscape:connector-curvature="0"
         id="path3132-0"
         d="m 1012.4149,169.17279 c -8.3863,-3.26852 -15.40332,-6.09826 -15.59332,-6.2883 -0.3775,-0.37751 -7.4528,-87.055409 -7.1323,-87.375939 0.1083,-0.1083 8.7951,22.16923 19.30392,49.505609 10.5089,27.33639 19.0086,49.79227 18.8883,49.90197 -0.1203,0.10968 -7.0803,-2.47482 -15.4666,-5.74334 l 0,0 z"
         style="fill:#aa0000;fill-opacity:1;stroke:#000000" />
      <path
         inkscape:connector-curvature="0"
         id="path3134-8"
         d="m 1028.8381,172.33659 c -0.3577,-0.93841 -9.0475,-23.53434 -19.3106,-50.21319 -10.26322,-26.678829 -18.55392,-48.613409 -18.42382,-48.743509 0.1933,-0.19329 46.60672,57.792299 49.59172,61.956319 0.745,1.03925 -0.053,4.24534 -4.8998,19.69632 -3.1843,10.15025 -5.9061,18.57993 -6.0484,18.73263 -0.1424,0.1527 -0.5514,-0.49016 -0.9091,-1.42857 l 0,0 z"
         style="fill:#aa0000;fill-opacity:1;stroke:#000000" />
      <path
         inkscape:connector-curvature="0"
         id="path3136-5"
         d="m 973.73418,151.21809 c -10.8036,-5.30352 -19.7727,-9.77091 -19.9314,-9.92756 -0.425,-0.41949 2.8946,-7.41831 19.1158,-40.30301 l 14.6221,-29.642859 3.4168,41.785709 c 3.5721,43.68435 3.8326,47.89756 2.9552,47.79381 -0.2946,-0.0349 -9.375,-4.40258 -20.1785,-9.70609 z"
         style="fill:#ffaaaa;fill-opacity:1;stroke:#000000" />
      <g
         transform="translate(305.42432,4.2857143)"
         id="g5632">
        <g
           id="g5620"
           transform="translate(252.85709,-62.857142)">
          <path
             style="fill:#ffaaaa;fill-opacity:1;stroke:#000000"
             d="m 779.07367,104.78952 c -10.8036,-5.303521 -19.7727,-9.770911 -19.9314,-9.927561 -0.425,-0.41949 2.8946,-7.41831 19.1158,-40.30301 l 14.6221,-29.64286 3.4168,41.78571 c 3.5721,43.684351 3.8326,47.897561 2.9552,47.793811 -0.2946,-0.0349 -9.375,-4.40258 -20.1785,-9.70609 z"
             id="path5215"
             inkscape:connector-curvature="0" />
          <text
             sodipodi:linespacing="125%"
             id="text5217"
             y="89.599113"
             x="639.35803"
             style="font-size:24px;font-style:normal;font-weight:normal;text-align:start;line-height:125%;letter-spacing:0px;word-spacing:0px;text-anchor:start;fill:#000000;fill-opacity:1;stroke:none;font-family:Sans"
             xml:space="preserve"><tspan
               y="89.599113"
               x="639.35803"
               id="tspan5219"
               sodipodi:role="line">Process :</tspan></text>
        </g>
        <text
           xml:space="preserve"
           style="font-size:24px;font-style:normal;font-weight:normal;text-align:start;line-height:125%;letter-spacing:0px;word-spacing:0px;text-anchor:start;fill:#000000;fill-opacity:1;stroke:none;font-family:Sans"
           x="813.57208"
           y="121.23074"
           id="text5221"
           sodipodi:linespacing="125%"><tspan
             sodipodi:role="line"
             id="tspan5223"
             x="813.57208"
             y="121.23074">Wait for all blue and</tspan><tspan
             sodipodi:role="line"
             x="813.57208"
             y="151.23074"
             id="tspan5225">all yellow to finish</tspan></text>
        <text
           sodipodi:linespacing="125%"
           id="text5486"
           y="240.31339"
           x="809.77521"
           style="font-size:24px;font-style:normal;font-weight:normal;text-align:start;line-height:125%;letter-spacing:0px;word-spacing:0px;text-anchor:start;fill:#000000;fill-opacity:1;stroke:none;font-family:Sans"
           xml:space="preserve"><tspan
             y="240.31339"
             x="809.77521"
             id="tspan5488"
             sodipodi:role="line">Process all other red</tspan></text>
      </g>
    </g>
    <g
       id="g3077">
      <g
         transform="translate(177.51768,-15.714285)"
         id="g5504">
        <g
           transform="translate(845.44359,31.296725)"
           id="g5422">
          <path
             style="fill:#0000ff;fill-opacity:1;stroke:#000000"
             d="m 743.70975,-0.14100268 0,-28.04586032 5.53571,2.05075 c 32.11213,11.89623 97.7905,36.70062 98.18518,37.08106 0.96738,0.93246 -72.63908,13.71293 -88.54895,15.37497 l -15.17194,1.58495 0,-28.04586968 z"
             id="path5424"
             inkscape:connector-curvature="0" />
          <path
             style="fill:#0000ff;fill-opacity:1;stroke:#000000"
             d="m 813.07541,-15.914883 -38.13435,-26.23649 15.2772,-0.22816 c 8.40246,-0.12549 26.8637,-0.009 41.02497,0.25886 l 25.74777,0.48702 7.36542,24.247 c 4.05097,13.3358603 7.2502,24.3454503 7.10937,24.4657503 -0.41044,0.35066 -17.32694,3.2708897 -18.86166,3.2560297 -0.76691,-0.007 -18.55483,-11.8199297 -39.52872,-26.25001 l 0,0 z"
             id="path5426"
             inkscape:connector-curvature="0" />
          <path
             style="fill:#0000ff;fill-opacity:1;stroke:#000000"
             d="m 793.90013,-10.975263 c -26.80601,-10.07543 -48.73051,-18.47968 -48.72112,-18.67611 0.009,-0.19643 5.96237,-3.18699 13.22883,-6.64569 l 13.21175,-6.28855 34.79508,23.91837 c 37.45441,25.7464103 38.0108,26.1389803 36.93794,26.0621303 -0.39286,-0.0282 -22.64647,-8.29470998 -49.45248,-18.3701503 z"
             id="path5428"
             inkscape:connector-curvature="0" />
          <path
             style="fill:#0000ff;fill-opacity:1;stroke:#000000"
             d="m 809.78118,-43.972263 c -17.67857,-0.25797 -32.30357,-0.52888 -32.5,-0.60203 -1.34904,-0.50236 21.42917,-8.31147 30.3335,-10.39931 9.29881,-2.18033 15.36322,-3.06713 25.04654,-3.66256 l 7.88004,-0.48454 1.86531,2.77038 c 2.39695,3.55997 7.08969,8.36774 10.76915,11.03313 l 2.89123,2.09439 -7.07146,-0.14021 c -3.8893,-0.0771 -21.53574,-0.35128 -39.21431,-0.60925 z"
             id="path5430"
             inkscape:connector-curvature="0" />
          <path
             style="fill:#0000ff;fill-opacity:1;stroke:#000000"
             d="m 866.263,-16.238623 c -3.8643,-12.68058 -7.19048,-23.65007 -7.39151,-24.37663 -0.34298,-1.23962 -0.23638,-1.25426 1.72976,-0.23753 4.09718,2.11874 13.66538,4.72561 27.98304,7.62402 7.98456,1.61637 15.35386,3.25687 16.37622,3.64557 l 1.85882,0.70673 -3.92396,4.07683 c -2.15817,2.24226 -8.69289,9.21969 -14.5216,15.5054003 -5.8287,6.28572 -11.60724,12.48217 -12.8412,13.7699 l -2.24356,2.34132 -7.02601,-23.0556103 0,0 z"
             id="path5432"
             inkscape:connector-curvature="0" />
          <path
             style="fill:#0000ff;fill-opacity:1;stroke:#000000"
             d="m 810.49546,31.027417 c -16.89285,-2.68317 -31.34795,-4.9782 -32.12243,-5.10007 -0.77448,-0.12187 19.61758,-3.99023 45.31568,-8.59637 25.69811,-4.60615 46.83753,-8.2610897 46.97651,-8.1221097 0.13898,0.13898 -5.30664,6.2315797 -12.10138,13.5390997 -11.61555,12.49215 -12.50354,13.28258 -14.85409,13.22218 -1.375,-0.0353 -16.32143,-2.25955 -33.21429,-4.94273 z"
             id="path5434"
             inkscape:connector-curvature="0" />
          <path
             style="fill:#0000ff;fill-opacity:1;stroke:#000000"
             d="m 850.27639,34.052487 c 0.51335,-0.71288 13.46908,-14.73538 28.7905,-31.1611097 l 27.85715,-29.8649703 0.18864,23.0796103 c 0.10375,12.69379 -0.057,23.2885197 -0.35714,23.5438497 -0.56251,0.47845 -55.8063,15.75801 -56.83629,15.72002 -0.31692,-0.0117 -0.15621,-0.60452 0.35714,-1.3174 l 0,0 z"
             id="path5436"
             inkscape:connector-curvature="0" />
          <path
             style="fill:#0000ff;fill-opacity:1;stroke:#000000"
             d="m 953.70975,31.619357 c -24.16071,-6.32062 -44.16472,-11.84402 -44.45335,-12.27423 -0.64496,-0.96136 -0.72126,-37.11636 -0.091,-43.14588 l 0.4556,-4.35894 2.25987,0.94423 c 6.99528,2.92282 21.35855,13.0787 43.97179,31.0912803 8.44643,6.7280097 19.53571,15.0864397 24.64286,18.5742997 10.0343,6.8528 12.22219,8.8607 16.71322,15.33836 3.26436,4.70832 3.49276,5.43855 1.67963,5.3701 -0.6875,-0.0259 -21.01785,-5.21861 -45.17857,-11.53922 z"
             id="path5438"
             inkscape:connector-curvature="0" />
          <path
             style="fill:#0000ff;fill-opacity:1;stroke:#000000"
             d="m 767.28118,94.199747 c 0,-1.94065 6.45713,-66.97269 6.67122,-67.1882 0.0671,-0.0675 15.95174,2.33317 35.29922,5.33489 32.89306,5.1033 35.09592,5.5346 33.92483,6.64223 -1.83796,1.73836 -75.04152,57.07425 -75.50323,57.07425 -0.21562,0 -0.39204,-0.83843 -0.39204,-1.86317 z"
             id="path5440"
             inkscape:connector-curvature="0" />
        </g>
        <g
           transform="translate(839.46991,96.294157)"
           id="g5442">
          <path
             style="fill:#ffff00;fill-opacity:1;stroke:#000000"
             d="m 935.27208,177.43693 c 0.20998,-0.55928 2.70003,-8.40973 5.53345,-17.44544 2.83342,-9.03571 6.71887,-21.41071 8.63434,-27.5 1.91547,-6.08929 5.59157,-17.79785 8.16911,-26.01903 2.57755,-8.221183 4.77919,-15.040343 4.89254,-15.153693 0.11334,-0.11334 8.41062,14.687873 18.4384,32.891593 l 18.23232,33.09768 -31.1241,10.19224 c -17.11826,5.60574 -31.58169,10.36353 -32.14097,10.57287 -0.66311,0.24823 -0.88405,0.0269 -0.63509,-0.63622 l 0,0 z"
             id="path5444"
             inkscape:connector-curvature="0" />
          <path
             style="fill:#ffff00;fill-opacity:1;stroke:#000000"
             d="m 916.20975,198.85245 c -9.93908,-0.80982 -24.70234,-2.75183 -25.86472,-3.40234 -0.5829,-0.3262 20.71988,-7.65887 53.51963,-18.42209 29.96837,-9.8341 54.60134,-17.79125 54.73994,-17.68256 0.13859,0.1087 -0.46406,2.38781 -1.33925,5.06469 -4.61701,14.12186 -14.52943,26.84935 -25.30635,32.49321 -1.94563,1.01893 -5.05156,1.66289 -10,2.07335 -8.86322,0.73516 -36.10967,0.66116 -45.74925,-0.12426 z"
             id="path5446"
             inkscape:connector-curvature="0" />
          <path
             style="fill:#ffff00;fill-opacity:1;stroke:#000000"
             d="m 871.79589,171.58991 c -7.1419,-12.65484 -12.87474,-23.11934 -12.73963,-23.25445 0.1351,-0.13511 15.62134,6.41469 34.41385,14.5551 18.79252,8.14041 35.09189,15.19347 36.22082,15.67346 1.92884,0.82009 0.65139,1.3309 -21.18609,8.47152 -12.78128,4.17934 -23.34781,7.59079 -23.48117,7.58099 -0.13337,-0.01 -6.08587,-10.37177 -13.22778,-23.02662 z"
             id="path5448"
             inkscape:connector-curvature="0" />
          <path
             style="fill:#ffff00;fill-opacity:1;stroke:#000000"
             d="m 873.35261,192.41427 c -3.14286,-0.74744 -9.89286,-2.45093 -15,-3.78554 -5.10714,-1.3346 -13.14286,-3.29598 -17.85714,-4.35861 -18.89108,-4.25816 -37.75296,-11.6959 -50.16617,-19.78183 -5.81451,-3.78756 -15.29128,-11.42031 -14.79525,-11.91634 0.58648,-0.58648 80.60164,-5.08137 81.08094,-4.55477 0.73749,0.81027 25.66619,44.98098 25.66619,45.47745 0,0.70443 -2.89866,0.35369 -8.92857,-1.08036 l 0,0 z"
             id="path5450"
             inkscape:connector-curvature="0" />
          <path
             style="fill:#ffff00;fill-opacity:1;stroke:#000000"
             d="m 772.98941,149.84839 c -0.003,-0.70701 -1.12799,-12.05333 -2.49925,-25.21404 -1.37125,-13.16072 -2.49353,-23.96744 -2.49394,-24.01493 -4.2e-4,-0.0475 19.78968,10.06998 43.97799,22.48327 24.18832,12.4133 43.71511,22.64697 43.39286,22.74149 -0.32224,0.0945 -17.13946,1.14221 -37.37161,2.32819 -20.23214,1.18598 -38.63392,2.33749 -40.89285,2.55891 -3.62629,0.35544 -4.10785,0.25208 -4.1132,-0.88289 z"
             id="path5452"
             inkscape:connector-curvature="0" />
          <path
             style="fill:#ffff00;fill-opacity:1;stroke:#000000"
             d="M 813.57337,122.24978 C 771.99913,100.9036 770.33073,99.970617 772.85908,99.482177 c 1.45001,-0.28012 21.27924,-1.32809 44.06496,-2.32882 22.78571,-1.00073 44.2046,-2.01551 47.59754,-2.25506 l 6.16897,-0.43554 -6.36566,23.121513 c -3.5011,12.71683 -6.59857,23.97702 -6.88325,25.02265 l -0.5176,1.90115 -43.35067,-22.25829 z"
             id="path5454"
             inkscape:connector-curvature="0" />
          <path
             style="fill:#ffff00;fill-opacity:1;stroke:#000000"
             d="m 895.67333,162.27006 c -19.93789,-8.67744 -35.98358,-16.04429 -35.65709,-16.37077 0.92777,-0.92778 54.60436,-29.12197 55.44493,-29.12304 0.66697,-8.5e-4 32.5646,12.06053 33.11401,12.52133 0.12241,0.10267 -3.17223,10.98175 -7.32143,24.17574 -4.1492,13.19399 -7.544,24.15633 -7.544,24.36076 0,0.89377 -3.70813,-0.62355 -38.03642,-15.56402 z"
             id="path5456"
             inkscape:connector-curvature="0" />
        </g>
        <path
           inkscape:connector-curvature="0"
           id="path5458"
           d="m 1618.3594,161.37414 c 0.9821,-0.54161 31.511,-17.38379 67.8419,-37.42705 36.331,-20.04327 66.1568,-36.341823 66.2796,-36.219003 0.1228,0.12282 -7.4213,15.866253 -16.7646,34.985393 -12.8796,26.3552 -17.3349,34.84125 -18.4225,35.08946 -1.8271,0.417 -90.0296,4.62279 -96.1457,4.58455 -4.2813,-0.0268 -4.46,-0.0917 -2.7887,-1.01335 z"
           style="fill:#aa0000;fill-opacity:1;stroke:#000000" />
        <path
           inkscape:connector-curvature="0"
           id="path5460"
           d="m 1783.4588,119.84342 c -13.8917,-17.48606 -25.0759,-31.974673 -24.8536,-32.196923 0.4041,-0.40418 88.1474,22.210423 88.8323,22.895283 0.2698,0.26984 -38.2985,41.30477 -38.6551,41.12724 -0.036,-0.018 -11.4318,-14.33955 -25.3236,-31.8256 z"
           style="fill:#550000;fill-opacity:1;stroke:#000000" />
        <path
           inkscape:connector-curvature="0"
           id="path5462"
           d="m 1828.0603,186.60064 -18.4848,-33.58207 5.3277,-5.47981 c 2.9302,-3.0139 11.714,-12.16762 19.5195,-20.34162 11.1882,-11.71633 14.3232,-14.62711 14.8124,-13.75292 0.3413,0.60988 1.1114,3.60126 1.7112,6.64752 1.6142,8.19735 1.3399,23.49152 -0.7575,42.23016 -1.5003,13.40448 -1.7215,17.94776 -1.3741,28.2143 0.3107,9.17743 0.1281,14.36414 -0.7303,20.74444 -0.6295,4.67907 -1.2334,8.5962 -1.3419,8.70472 -0.1085,0.10853 -8.5155,-14.9146 -18.6822,-33.38472 l 0,0 z"
           style="fill:#de8787;fill-opacity:1;stroke:#000000" />
        <path
           inkscape:connector-curvature="0"
           id="path5464"
           d="m 1625.5022,155.09286 c 0,-0.16468 15.4386,-11.99062 34.3079,-26.27986 l 34.308,-25.98043 25.1563,-6.996753 c 13.8361,-3.84822 25.5407,-6.91514 26.0103,-6.81539 0.6887,0.14626 -116.637,65.305633 -119.0801,66.133753 -0.3863,0.13096 -0.7024,0.10336 -0.7024,-0.0613 z"
           style="fill:#ff5555;fill-opacity:1;stroke:#000000" />
        <path
           inkscape:connector-curvature="0"
           id="path5466"
           d="m 1705.5023,209.23014 c 0,-0.42108 12.5895,-46.85339 13.2173,-48.74774 0.3131,-0.94486 5.7742,1.49851 28.7477,12.86229 l 13.7507,6.80175 -23.3936,12.30688 c -12.8665,6.76878 -25.4025,13.41426 -27.8579,14.76773 -2.4553,1.35347 -4.4643,2.25756 -4.4643,2.00909 z"
           style="fill:#800000;fill-opacity:1;stroke:#000000" />
        <path
           inkscape:connector-curvature="0"
           id="path5468"
           d="m 1779.183,186.31565 c -8.3863,-3.26852 -15.4033,-6.09826 -15.5933,-6.2883 -0.3775,-0.37751 -7.4528,-87.055413 -7.1323,-87.375943 0.1083,-0.1083 8.7951,22.169233 19.3039,49.505613 10.5089,27.33639 19.0086,49.79227 18.8883,49.90197 -0.1203,0.10968 -7.0803,-2.47482 -15.4666,-5.74334 l 0,0 z"
           style="fill:#ff5555;fill-opacity:1;stroke:#000000" />
        <path
           inkscape:connector-curvature="0"
           id="path5470"
           d="m 1795.6062,189.47945 c -0.3577,-0.93841 -9.0475,-23.53434 -19.3106,-50.21319 -10.2632,-26.67883 -18.5539,-48.613413 -18.4238,-48.743513 0.1933,-0.19329 46.6067,57.792303 49.5917,61.956323 0.745,1.03925 -0.053,4.24534 -4.8998,19.69632 -3.1843,10.15025 -5.9061,18.57993 -6.0484,18.73263 -0.1424,0.1527 -0.5514,-0.49016 -0.9091,-1.42857 l 0,0 z"
           style="fill:#d40000;fill-opacity:1;stroke:#000000" />
        <path
           inkscape:connector-curvature="0"
           id="path5472"
           d="m 1740.5023,168.36095 c -10.8036,-5.30352 -19.7727,-9.77091 -19.9314,-9.92756 -0.425,-0.41949 2.8946,-7.41831 19.1158,-40.30301 l 14.6221,-29.642863 3.4168,41.785713 c 3.5721,43.68435 3.8326,47.89756 2.9552,47.79381 -0.2946,-0.0349 -9.375,-4.40258 -20.1785,-9.70609 z"
           style="fill:#ffaaaa;fill-opacity:1;stroke:#000000" />
      </g>
      <g
         transform="translate(-331.45062,-1.4285714)"
         id="g5643">
        <g
           id="g5625"
           transform="translate(-8.5625e-5,8.9906546e-6)">
          <path
             inkscape:connector-curvature="0"
             id="path5474"
             d="m 1967.6451,41.932379 c -10.8036,-5.30352 -19.7727,-9.77091 -19.9314,-9.92756 -0.425,-0.41949 2.8946,-7.41831 19.1158,-40.3030135 l 14.6221,-29.6428595 3.4168,41.7857095 c 3.5721,43.6843535 3.8326,47.8975635 2.9552,47.7938135 -0.2946,-0.0349 -9.375,-4.40258 -20.1785,-9.70609 z"
             style="fill:#ffaaaa;fill-opacity:1;stroke:#000000" />
          <text
             xml:space="preserve"
             style="font-size:24px;font-style:normal;font-weight:normal;text-align:start;line-height:125%;letter-spacing:0px;word-spacing:0px;text-anchor:start;fill:#000000;fill-opacity:1;stroke:none;font-family:Sans"
             x="1827.9294"
             y="26.741976"
             id="text5476"
             sodipodi:linespacing="125%"><tspan
               sodipodi:role="line"
               id="tspan5478"
               x="1827.9294"
               y="26.741976">Process :</tspan></text>
        </g>
        <text
           sodipodi:linespacing="125%"
           id="text5480"
           y="121.23074"
           x="1829.4879"
           style="font-size:24px;font-style:normal;font-weight:normal;text-align:start;line-height:125%;letter-spacing:0px;word-spacing:0px;text-anchor:start;fill:#000000;fill-opacity:1;stroke:none;font-family:Sans"
           xml:space="preserve"><tspan
             y="121.23074"
             x="1829.4879"
             id="tspan5482"
             sodipodi:role="line">Wait for a blue or </tspan><tspan
             id="tspan5484"
             y="151.23074"
             x="1829.4879"
             sodipodi:role="line">a yellow to finish</tspan></text>
        <text
           xml:space="preserve"
           style="font-size:24px;font-style:normal;font-weight:normal;text-align:start;line-height:125%;letter-spacing:0px;word-spacing:0px;text-anchor:start;fill:#000000;fill-opacity:1;stroke:none;font-family:Sans"
           x="1828.2457"
           y="225.31339"
           id="text5494"
           sodipodi:linespacing="125%"><tspan
             sodipodi:role="line"
             x="1828.2457"
             y="225.31339"
             id="tspan5498">Process another red</tspan><tspan
             sodipodi:role="line"
             x="1828.2457"
             y="255.31339"
             id="tspan5502" /><tspan
             sodipodi:role="line"
             x="1828.2457"
             y="285.31339"
             id="tspan5630">Repeat until end</tspan></text>
      </g>
    </g>
    <text
       xml:space="preserve"
       style="font-size:32px;font-style:normal;font-weight:normal;line-height:125%;letter-spacing:0px;word-spacing:0px;fill:#000000;fill-opacity:1;stroke:none;font-family:Sans"
       x="994.85101"
       y="-84.219772"
       id="text3069"
       sodipodi:linespacing="125%"><tspan
         sodipodi:role="line"
         id="tspan3071"
         x="994.85101"
         y="-84.219772">Old mapper</tspan></text>
    <text
       sodipodi:linespacing="125%"
       id="text3073"
       y="-84.219772"
       x="1664.5675"
       style="font-size:32px;font-style:normal;font-weight:normal;line-height:125%;letter-spacing:0px;word-spacing:0px;fill:#000000;fill-opacity:1;stroke:none;font-family:Sans"
       xml:space="preserve"><tspan
         y="-84.219772"
         x="1664.5675"
         id="tspan3075"
         sodipodi:role="line">Gigamapper</tspan></text>
  </g>
</svg>
