<?xml version="1.0" encoding="UTF-8" standalone="no"?>
<!-- Created with Inkscape (http://www.inkscape.org/) -->

<svg
   xmlns:dc="http://purl.org/dc/elements/1.1/"
   xmlns:cc="http://creativecommons.org/ns#"
   xmlns:rdf="http://www.w3.org/1999/02/22-rdf-syntax-ns#"
   xmlns:svg="http://www.w3.org/2000/svg"
   xmlns="http://www.w3.org/2000/svg"
   xmlns:sodipodi="http://sodipodi.sourceforge.net/DTD/sodipodi-0.dtd"
   xmlns:inkscape="http://www.inkscape.org/namespaces/inkscape"
   width="80.896881mm"
   height="29.973007mm"
   viewBox="0 0 286.64249 106.20357"
   id="svg4486"
   version="1.1"
   inkscape:version="0.91 r13725"
   sodipodi:docname="starpu.svg">
  <defs
     id="defs4488" />
  <sodipodi:namedview
     id="base"
     pagecolor="#ffffff"
     bordercolor="#666666"
     borderopacity="1.0"
     inkscape:pageopacity="0.0"
     inkscape:pageshadow="2"
     inkscape:zoom="1.979899"
     inkscape:cx="168.39745"
     inkscape:cy="75.95733"
     inkscape:document-units="px"
     inkscape:current-layer="layer1"
     showgrid="false"
     fit-margin-top="0"
     fit-margin-left="0"
     fit-margin-right="0"
     fit-margin-bottom="0"
     inkscape:window-width="1280"
     inkscape:window-height="931"
     inkscape:window-x="0"
     inkscape:window-y="31"
     inkscape:window-maximized="1" />
  <metadata
     id="metadata4491">
    <rdf:RDF>
      <cc:Work
         rdf:about="">
        <dc:format>image/svg+xml</dc:format>
        <dc:type
           rdf:resource="http://purl.org/dc/dcmitype/StillImage" />
        <dc:title></dc:title>
      </cc:Work>
    </rdf:RDF>
  </metadata>
  <g
     inkscape:label="Calque 1"
     inkscape:groupmode="layer"
     id="layer1"
     transform="translate(-133.82161,-319.26046)">
    <path
       inkscape:connector-curvature="0"
       id="path34"
       style="fill:none;stroke:#000000;stroke-width:0.90538502;stroke-linecap:butt;stroke-linejoin:miter;stroke-miterlimit:4;stroke-dasharray:none;stroke-opacity:1"
       d="m 356.61181,389.4363 63.3996,0 0,-52.2012 -63.3996,0 0,52.2012 z" />
    <path
       inkscape:connector-curvature="0"
       id="path36"
       style="fill:#aaffcc;fill-opacity:1;fill-rule:nonzero;stroke:none"
       d="m 265.83031,395.7408 85.0143,0 0,-27.24555 -85.0143,0 0,27.24555 z" />
    <path
       inkscape:connector-curvature="0"
       id="path38"
       style="fill:none;stroke:#000000;stroke-width:0.90538502;stroke-linecap:butt;stroke-linejoin:miter;stroke-miterlimit:4;stroke-dasharray:none;stroke-opacity:1"
       d="m 265.83031,395.7408 85.0143,0 0,-27.24555 -85.0143,0 0,27.24555 z" />
    <path
       inkscape:connector-curvature="0"
       id="path40"
       style="fill:#aaffcc;fill-opacity:1;fill-rule:nonzero;stroke:none"
       d="m 265.88881,360.6948 85.52985,0 0,-40.98165 -85.52985,0 0,40.98165 z" />
    <path
       inkscape:connector-curvature="0"
       id="path42"
       style="fill:none;stroke:#000000;stroke-width:0.90538502;stroke-linecap:butt;stroke-linejoin:miter;stroke-miterlimit:4;stroke-dasharray:none;stroke-opacity:1"
       d="m 265.88881,360.6948 85.52985,0 0,-40.98165 -85.52985,0 0,40.98165 z" />
    <path
       inkscape:connector-curvature="0"
       id="path44"
       style="fill:none;stroke:#000000;stroke-width:1.58442008;stroke-linecap:butt;stroke-linejoin:miter;stroke-miterlimit:4;stroke-dasharray:none;stroke-opacity:1"
       d="m 197.95381,390.1473 c 20.8665,0.429 36.9405,0.189 45.708,-6.696 5.856,-4.599 41.886,-25.5975 41.886,-25.5975" />
    <path
       inkscape:connector-curvature="0"
       id="path46"
       style="fill:#000000;fill-opacity:1;fill-rule:evenodd;stroke:none"
       d="m 276.45631,358.7133 10.8975,-1.929 -7.05,8.5305 c 0.297,-2.784 -1.2645,-5.445 -3.8475,-6.6015 z" />
    <path
       inkscape:connector-curvature="0"
       id="path48"
       style="fill:#aaffcc;fill-opacity:1;fill-rule:nonzero;stroke:none"
       d="m 232.14181,354.7683 21.756,0 c 0.171,0 0.3075,0.1395 0.3075,0.309 l 0,68.2095 c 0,0.171 -0.1365,0.3075 -0.3075,0.3075 l -21.756,0 c -0.171,0 -0.309,-0.1365 -0.309,-0.3075 l 0,-68.2095 c 0,-0.1695 0.138,-0.309 0.309,-0.309 z" />
    <path
       inkscape:connector-curvature="0"
       id="path50"
       style="fill:none;stroke:#000000;stroke-width:0.90538502;stroke-linecap:butt;stroke-linejoin:miter;stroke-miterlimit:4;stroke-dasharray:none;stroke-opacity:1"
       d="m 232.14181,354.7683 21.756,0 c 0.171,0 0.3075,0.1395 0.3075,0.309 l 0,68.2095 c 0,0.171 -0.1365,0.3075 -0.3075,0.3075 l -21.756,0 c -0.171,0 -0.309,-0.1365 -0.309,-0.3075 l 0,-68.2095 c 0,-0.1695 0.138,-0.309 0.309,-0.309 z" />
    <path
       inkscape:connector-curvature="0"
       id="path52"
       style="fill:none;stroke:#000000;stroke-width:1.58442008;stroke-linecap:butt;stroke-linejoin:miter;stroke-miterlimit:4;stroke-dasharray:none;stroke-opacity:1"
       d="m 307.94431,387.0438 c 0,42.5325 -10.2555,37.77 50.3775,37.1805 34.11,-0.333 27.4875,7.8285 28.4025,-49.584" />
    <path
       inkscape:connector-curvature="0"
       id="path54"
       style="fill:#000000;fill-opacity:1;fill-rule:evenodd;stroke:none"
       d="m 386.62381,380.9778 3.1185,3.219 -2.9925,-11.139 -3.345,11.0385 3.219,-3.1185 z" />
    <path
       inkscape:connector-curvature="0"
       id="path56"
       style="fill:none;stroke:#000000;stroke-width:0.79221302;stroke-linecap:butt;stroke-linejoin:miter;stroke-miterlimit:4;stroke-dasharray:none;stroke-opacity:1"
       d="m 386.62381,380.9778 3.1185,3.219 -2.9925,-11.139 -3.345,11.0385 3.219,-3.1185 z" />
    <text
       style="font-variant:normal;font-size:9.95646286px;font-family:'DejaVu Sans';-inkscape-font-specification:DejaVuSans-Identity-H;writing-mode:lr-tb;fill:#000000;fill-opacity:1;fill-rule:nonzero;stroke:none"
       id="text60"
       x="373.28656"
       y="346.15906">
      <tspan
         x="373.28656 380.9938 386.99756"
         y="346.15906"
         sodipodi:role="line"
         id="tspan62">GPU</tspan>
    </text>
    <path
       inkscape:connector-curvature="0"
       id="path64"
       style="fill:#e6e6e6;fill-opacity:1;fill-rule:nonzero;stroke:none"
       d="m 134.27431,409.9248 41.0115,0 0,-41.4855 -41.0115,0 0,41.4855 z" />
    <path
       inkscape:connector-curvature="0"
       id="path66"
       style="fill:#aaffcc;stroke:#000000;stroke-width:0.90538502;stroke-linecap:butt;stroke-linejoin:miter;stroke-miterlimit:4;stroke-dasharray:none;stroke-opacity:1"
       d="m 134.27431,409.9248 41.0115,0 0,-41.4855 -41.0115,0 0,41.4855 z" />
    <text
       transform="matrix(0,-1,1,0,0,0)"
       style="font-variant:normal;font-size:9.95646286px;font-family:'DejaVu Sans';-inkscape-font-specification:DejaVuSans-Identity-H;writing-mode:lr-tb;fill:#000000;fill-opacity:1;fill-rule:nonzero;stroke:none"
       id="text70"
       x="-414.44531"
       y="246.73157">
      <tspan
         x="-414.44531 -408.13055 -402.65247 -396.33807 -390.21719 -383.90247 -377.5881 -374.83835 -368.71747"
         y="246.73157"
         sodipodi:role="line"
         id="tspan72">Scheduler</tspan>
    </text>
    <text
       style="font-variant:normal;font-size:9.95646286px;font-family:'DejaVu Sans';-inkscape-font-specification:DejaVuSans-Identity-H;writing-mode:lr-tb;fill:#000000;fill-opacity:1;fill-rule:nonzero;stroke:none"
       id="text74"
       x="265.97406"
       y="327.85779">
      <tspan
         x="265.97406 273.6813 279.69479 286.97366 290.14136 297.79779 301.89862 304.65823 310.54456 316.66544"
         y="327.85779"
         sodipodi:role="line"
         id="tspan76">GPU Driver</tspan>
      <tspan
         x="143.97243 150.78185 157.09659 163.41133"
         y="391.77591"
         sodipodi:role="line"
         id="tspan78">App.</tspan>
    </text>
    <path
       inkscape:connector-curvature="0"
       id="path80"
       style="fill:none;stroke:#000000;stroke-width:1.58442008;stroke-linecap:butt;stroke-linejoin:miter;stroke-miterlimit:4;stroke-dasharray:none;stroke-opacity:1"
       d="m 266.22931,348.2628 c -45.8595,0.5685 -45.729,-0.081 -101.292,-0.249 -7.2,0.24 -7.611,9.162 -7.659,11.1585 -0.0975,3.975 -0.8745,15.3075 -0.8745,15.3075" />
    <path
       inkscape:connector-curvature="0"
       id="path82"
       style="fill:#000000;fill-opacity:1;fill-rule:evenodd;stroke:none"
       d="m 160.79581,366.4728 -4.521,10.101 -3.099,-10.6245 c 2.136,1.8105 5.2155,2.0115 7.62,0.5235 z" />
    <path
       inkscape:connector-curvature="0"
       id="path90"
       style="fill:#ffb380;stroke:#000000;stroke-width:1.17652202;stroke-linecap:butt;stroke-linejoin:miter;stroke-miterlimit:4;stroke-dasharray:none;stroke-opacity:1"
       d="m 414.29281,363.5853 c 0,4.398 -3.564,7.9635 -7.962,7.9635 -4.3965,0 -7.962,-3.5655 -7.962,-7.9635 0,-4.3965 3.5655,-7.962 7.962,-7.962 4.398,0 7.962,3.5655 7.962,7.962 z" />
    <path
       inkscape:connector-curvature="0"
       id="path92"
       style="fill:#ffffff;fill-opacity:1;fill-rule:nonzero;stroke:none"
       d="m 270.79681,421.9518 51.7863,0 0,-23.68305 -51.7863,0 0,23.68305 z" />
    <path
       inkscape:connector-curvature="0"
       id="path94"
       style="fill:none;stroke:#000000;stroke-width:0.90538502;stroke-linecap:butt;stroke-linejoin:miter;stroke-miterlimit:4;stroke-dasharray:none;stroke-opacity:1"
       d="m 270.79681,421.9518 51.7863,0 0,-23.68305 -51.7863,0 0,23.68305 z" />
    <path
       inkscape:connector-curvature="0"
       id="path96"
       style="fill:#ffffff;fill-opacity:1;fill-rule:nonzero;stroke:none"
       d="m 316.80481,410.1108 c 0,4.398 -3.564,7.962 -7.962,7.962 -4.398,0 -7.9635,-3.564 -7.9635,-7.962 0,-4.398 3.5655,-7.962 7.9635,-7.962 4.398,0 7.962,3.564 7.962,7.962 z" />
    <path
       inkscape:connector-curvature="0"
       id="path98"
       style="fill:#ff8080;stroke:#000000;stroke-width:1.17652202;stroke-linecap:butt;stroke-linejoin:miter;stroke-miterlimit:4;stroke-dasharray:none;stroke-opacity:1"
       d="m 316.80481,410.1108 c 0,4.398 -3.564,7.962 -7.962,7.962 -4.398,0 -7.9635,-3.564 -7.9635,-7.962 0,-4.398 3.5655,-7.962 7.9635,-7.962 4.398,0 7.962,3.564 7.962,7.962 z" />
    <text
       style="font-variant:normal;font-size:13.27525043px;font-family:'DejaVu Sans';-inkscape-font-specification:DejaVuSans-Identity-H;writing-mode:lr-tb;fill:#000000;fill-opacity:1;fill-rule:nonzero;stroke:none"
       id="text102"
       x="304.3053"
       y="414.94904">
      <tspan
         x="304.3053"
         y="414.94904"
         id="tspan104">A</tspan>
    </text>
    <text
       style="font-variant:normal;font-size:9.95646286px;font-family:'DejaVu Sans';-inkscape-font-specification:DejaVuSans-Identity-H;writing-mode:lr-tb;fill:#000000;fill-opacity:1;fill-rule:nonzero;stroke:none"
       id="text106"
       x="275.58405"
       y="413.7403">
      <tspan
         x="275.58405 282.08737 288.89676"
         y="413.7403"
         sodipodi:role="line"
         id="tspan108">RAM</tspan>
      <tspan
         x="266.6749 274.34137 280.6561"
         y="383.64304"
         sodipodi:role="line"
         id="tspan110">DSM</tspan>
    </text>
    <path
       inkscape:connector-curvature="0"
       id="path112"
       style="fill:#ffffff;fill-opacity:1;fill-rule:nonzero;stroke:none"
       d="m 393.75931,363.5853 c 0,4.398 -3.5655,7.9635 -7.962,7.9635 -4.398,0 -7.9635,-3.5655 -7.9635,-7.9635 0,-4.3965 3.5655,-7.962 7.9635,-7.962 4.3965,0 7.962,3.5655 7.962,7.962 z" />
    <path
       inkscape:connector-curvature="0"
       id="path114"
       style="fill:#ff8080;stroke:#000000;stroke-width:1.17652202;stroke-linecap:butt;stroke-linejoin:miter;stroke-miterlimit:4;stroke-dasharray:1.176522, 1.17652200000000007;stroke-dashoffset:0;stroke-opacity:1"
       d="m 393.75931,363.5853 c 0,4.398 -3.5655,7.9635 -7.962,7.9635 -4.398,0 -7.9635,-3.5655 -7.9635,-7.9635 0,-4.3965 3.5655,-7.962 7.9635,-7.962 4.3965,0 7.962,3.5655 7.962,7.962 z" />
    <text
       style="font-variant:normal;font-size:13.27525043px;font-family:'DejaVu Sans';-inkscape-font-specification:DejaVuSans-Identity-H;writing-mode:lr-tb;fill:#000000;fill-opacity:1;fill-rule:nonzero;stroke:none"
       id="text118"
       x="381.25906"
       y="368.42529">
      <tspan
         x="381.25906"
         y="368.42529"
         id="tspan120">A</tspan>
    </text>
    <path
       inkscape:connector-curvature="0"
       id="path122"
       style="fill:none;stroke:#000000;stroke-width:1.58442008;stroke-linecap:butt;stroke-linejoin:miter;stroke-miterlimit:4;stroke-dasharray:none;stroke-opacity:1"
       d="m 350.63281,331.5678 c 19.35,0 19.3245,-0.327 19.3245,29.145" />
    <path
       inkscape:connector-curvature="0"
       id="path124"
       style="fill:#000000;fill-opacity:1;fill-rule:evenodd;stroke:none"
       d="m 369.95731,354.3753 -3.1695,-3.1695 3.1695,11.0925 3.1695,-11.0925 -3.1695,3.1695 z" />
    <path
       inkscape:connector-curvature="0"
       id="path126"
       style="fill:none;stroke:#000000;stroke-width:0.79221302;stroke-linecap:butt;stroke-linejoin:miter;stroke-miterlimit:4;stroke-dasharray:none;stroke-opacity:1"
       d="m 369.95731,354.3753 -3.1695,-3.1695 3.1695,11.0925 3.1695,-11.0925 -3.1695,3.1695 z" />
    <path
       inkscape:connector-curvature="0"
       id="path128"
       style="fill:#ffffff;fill-opacity:1;fill-rule:nonzero;stroke:none"
       d="m 323.30431,382.0143 8.742,-8.742 8.7405,8.7405 -8.7405,8.742 -8.742,-8.7405 z" />
    <path
       inkscape:connector-curvature="0"
       id="path130"
       style="fill:#ffb380;stroke:#000000;stroke-width:0.58798051;stroke-linecap:butt;stroke-linejoin:miter;stroke-miterlimit:4;stroke-dasharray:none;stroke-opacity:1"
       d="m 323.30431,382.0143 8.742,-8.742 8.7405,8.7405 -8.7405,8.742 -8.742,-8.7405 z" />
    <text
       style="font-variant:normal;font-size:9.95646286px;font-family:'DejaVu Sans';-inkscape-font-specification:DejaVuSans-Identity-H;writing-mode:lr-tb;fill:#000000;fill-opacity:1;fill-rule:nonzero;stroke:none"
       id="text134"
       x="328.49405"
       y="385.64279">
      <tspan
         x="328.49405"
         y="385.64279"
         id="tspan136">B</tspan>
    </text>
    <path
       inkscape:connector-curvature="0"
       id="path138"
       style="fill:#ffffff;fill-opacity:1;fill-rule:nonzero;stroke:none"
       d="m 299.17081,382.1178 8.742,-8.742 8.7405,8.7435 -8.7405,8.7405 -8.742,-8.742 z" />
    <path
       inkscape:connector-curvature="0"
       id="path140"
       style="fill:#ff8080;stroke:#000000;stroke-width:0.58798051;stroke-linecap:butt;stroke-linejoin:miter;stroke-miterlimit:4;stroke-dasharray:none;stroke-opacity:1"
       d="m 299.17081,382.1178 8.742,-8.742 8.7405,8.7435 -8.7405,8.7405 -8.742,-8.742 z" />
    <text
       style="font-variant:normal;font-size:9.95646286px;font-family:'DejaVu Sans';-inkscape-font-specification:DejaVuSans-Identity-H;writing-mode:lr-tb;fill:#000000;fill-opacity:1;fill-rule:nonzero;stroke:none"
       id="text144"
       x="304.36157"
       y="385.7478">
      <tspan
         x="304.36157"
         y="385.7478"
         id="tspan146">A</tspan>
    </text>
    <path
       inkscape:connector-curvature="0"
       id="path148"
       style="fill:none;stroke:#000000;stroke-width:1.58442008;stroke-linecap:butt;stroke-linejoin:miter;stroke-miterlimit:4;stroke-dasharray:none;stroke-opacity:1"
       d="m 307.86331,354.0018 0,17.0475" />
    <path
       inkscape:connector-curvature="0"
       id="path150"
       style="fill:#000000;fill-opacity:1;fill-rule:evenodd;stroke:none"
       d="m 311.69881,362.7603 -3.819,10.386 -3.8205,-10.386 c 2.256,1.659 5.3415,1.65 7.6395,0 z" />
    <text
       style="font-variant:normal;font-size:13.27525043px;font-family:'DejaVu Sans';-inkscape-font-specification:DejaVuSans-Identity-H;writing-mode:lr-tb;fill:#000000;fill-opacity:1;fill-rule:nonzero;stroke:none"
       id="text154"
       x="358.1778"
       y="368.29904">
      <tspan
         x="358.1778"
         y="368.29904"
         id="tspan156">f</tspan>
    </text>
    <path
       inkscape:connector-curvature="0"
       id="path158"
       style="fill:#000000;fill-opacity:1;fill-rule:nonzero;stroke:none"
       d="m 189.90781,399.2748 c 0,3.414 -2.7675,6.18 -6.18,6.18 -3.414,0 -6.183,-2.766 -6.183,-6.18 0,-3.414 2.769,-6.1815 6.183,-6.1815 3.4125,0 6.18,2.7675 6.18,6.1815 z" />
    <path
       inkscape:connector-curvature="0"
       id="path160"
       style="fill:none;stroke:#000000;stroke-width:0.58798051;stroke-linecap:butt;stroke-linejoin:miter;stroke-miterlimit:4;stroke-dasharray:none;stroke-opacity:1"
       d="m 189.90781,399.2748 c 0,3.414 -2.7675,6.18 -6.18,6.18 -3.414,0 -6.183,-2.766 -6.183,-6.18 0,-3.414 2.769,-6.1815 6.183,-6.1815 3.4125,0 6.18,2.7675 6.18,6.1815 z" />
    <text
       style="font-variant:normal;font-size:9.95646286px;font-family:'DejaVu Sans';-inkscape-font-specification:DejaVuSansBold-Identity-H;writing-mode:lr-tb;fill:#ffffff;fill-opacity:1;fill-rule:nonzero;stroke:none"
       id="text164"
       x="180.04407"
       y="402.9028">
      <tspan
         x="180.04407"
         y="402.9028"
         id="tspan166">1</tspan>
    </text>
    <path
       inkscape:connector-curvature="0"
       id="path168"
       style="fill:#000000;fill-opacity:1;fill-rule:nonzero;stroke:none"
       d="m 229.41781,399.2748 c 0,3.414 -2.766,6.18 -6.18,6.18 -3.414,0 -6.1815,-2.766 -6.1815,-6.18 0,-3.414 2.7675,-6.1815 6.1815,-6.1815 3.414,0 6.18,2.7675 6.18,6.1815 z" />
    <path
       inkscape:connector-curvature="0"
       id="path170"
       style="fill:none;stroke:#000000;stroke-width:0.58798051;stroke-linecap:butt;stroke-linejoin:miter;stroke-miterlimit:4;stroke-dasharray:none;stroke-opacity:1"
       d="m 229.41781,399.2748 c 0,3.414 -2.766,6.18 -6.18,6.18 -3.414,0 -6.1815,-2.766 -6.1815,-6.18 0,-3.414 2.7675,-6.1815 6.1815,-6.1815 3.414,0 6.18,2.7675 6.18,6.1815 z" />
    <text
       style="font-variant:normal;font-size:9.95646286px;font-family:'DejaVu Sans';-inkscape-font-specification:DejaVuSansBold-Identity-H;writing-mode:lr-tb;fill:#ffffff;fill-opacity:1;fill-rule:nonzero;stroke:none"
       id="text174"
       x="219.81155"
       y="402.96906">
      <tspan
         x="219.81155"
         y="402.96906"
         id="tspan176">2</tspan>
    </text>
    <path
       inkscape:connector-curvature="0"
       id="path178"
       style="fill:#000000;fill-opacity:1;fill-rule:nonzero;stroke:none"
       d="m 269.09281,359.9103 c 0,3.414 -2.7675,6.1815 -6.1815,6.1815 -3.414,0 -6.1815,-2.7675 -6.1815,-6.1815 0,-3.414 2.7675,-6.1815 6.1815,-6.1815 3.414,0 6.1815,2.7675 6.1815,6.1815 z" />
    <path
       inkscape:connector-curvature="0"
       id="path180"
       style="fill:none;stroke:#000000;stroke-width:0.58798051;stroke-linecap:butt;stroke-linejoin:miter;stroke-miterlimit:4;stroke-dasharray:none;stroke-opacity:1"
       d="m 269.09281,359.9103 c 0,3.414 -2.7675,6.1815 -6.1815,6.1815 -3.414,0 -6.1815,-2.7675 -6.1815,-6.1815 0,-3.414 2.7675,-6.1815 6.1815,-6.1815 3.414,0 6.1815,2.7675 6.1815,6.1815 z" />
    <text
       style="font-variant:normal;font-size:9.95646286px;font-family:'DejaVu Sans';-inkscape-font-specification:DejaVuSansBold-Identity-H;writing-mode:lr-tb;fill:#ffffff;fill-opacity:1;fill-rule:nonzero;stroke:none"
       id="text184"
       x="259.51031"
       y="363.53406">
      <tspan
         x="259.51031"
         y="363.53406"
         id="tspan186">3</tspan>
    </text>
    <path
       inkscape:connector-curvature="0"
       id="path188"
       style="fill:#000000;fill-opacity:1;fill-rule:nonzero;stroke:none"
       d="m 377.46031,326.8578 c 0,3.4125 -2.7675,6.18 -6.1815,6.18 -3.414,0 -6.1815,-2.7675 -6.1815,-6.18 0,-3.414 2.7675,-6.1815 6.1815,-6.1815 3.414,0 6.1815,2.7675 6.1815,6.1815 z" />
    <path
       inkscape:connector-curvature="0"
       id="path190"
       style="fill:none;stroke:#000000;stroke-width:0.58798051;stroke-linecap:butt;stroke-linejoin:miter;stroke-miterlimit:4;stroke-dasharray:none;stroke-opacity:1"
       d="m 377.46031,326.8578 c 0,3.4125 -2.7675,6.18 -6.1815,6.18 -3.414,0 -6.1815,-2.7675 -6.1815,-6.18 0,-3.414 2.7675,-6.1815 6.1815,-6.1815 3.414,0 6.1815,2.7675 6.1815,6.1815 z" />
    <text
       style="font-variant:normal;font-size:9.95646286px;font-family:'DejaVu Sans';-inkscape-font-specification:DejaVuSansBold-Identity-H;writing-mode:lr-tb;fill:#ffffff;fill-opacity:1;fill-rule:nonzero;stroke:none"
       id="text194"
       x="367.81906"
       y="330.48654">
      <tspan
         x="367.81906"
         y="330.48654"
         id="tspan196">5</tspan>
    </text>
    <path
       inkscape:connector-curvature="0"
       id="path198"
       style="fill:#000000;fill-opacity:1;fill-rule:nonzero;stroke:none"
       d="m 233.42581,339.5973 c 0,3.414 -2.7675,6.18 -6.1815,6.18 -3.414,0 -6.18,-2.766 -6.18,-6.18 0,-3.414 2.766,-6.1815 6.18,-6.1815 3.414,0 6.1815,2.7675 6.1815,6.1815 z" />
    <path
       inkscape:connector-curvature="0"
       id="path200"
       style="fill:none;stroke:#000000;stroke-width:0.58798051;stroke-linecap:butt;stroke-linejoin:miter;stroke-miterlimit:4;stroke-dasharray:none;stroke-opacity:1"
       d="m 233.42581,339.5973 c 0,3.414 -2.7675,6.18 -6.1815,6.18 -3.414,0 -6.18,-2.766 -6.18,-6.18 0,-3.414 2.766,-6.1815 6.18,-6.1815 3.414,0 6.1815,2.7675 6.1815,6.1815 z" />
    <text
       style="font-variant:normal;font-size:9.95646286px;font-family:'DejaVu Sans';-inkscape-font-specification:DejaVuSansBold-Identity-H;writing-mode:lr-tb;fill:#ffffff;fill-opacity:1;fill-rule:nonzero;stroke:none"
       id="text204"
       x="223.78531"
       y="343.22656">
      <tspan
         x="223.78531"
         y="343.22656"
         id="tspan206">6</tspan>
    </text>
    <path
       inkscape:connector-curvature="0"
       id="path208"
       style="fill:none;stroke:#000000;stroke-width:1.58442008;stroke-linecap:butt;stroke-linejoin:miter;stroke-miterlimit:4;stroke-dasharray:none;stroke-opacity:1"
       d="m 312.64981,344.4528 c 0,-12.5385 -0.255,-12.435 15.0195,-12.435" />
    <path
       inkscape:connector-curvature="0"
       id="path210"
       style="fill:#000000;fill-opacity:1;fill-rule:evenodd;stroke:none"
       d="m 321.33181,332.0178 -3.1695,3.1695 11.0925,-3.1695 -11.0925,-3.168 3.1695,3.168 z" />
    <path
       inkscape:connector-curvature="0"
       id="path212"
       style="fill:none;stroke:#000000;stroke-width:0.79221302;stroke-linecap:butt;stroke-linejoin:miter;stroke-miterlimit:4;stroke-dasharray:none;stroke-opacity:1"
       d="m 321.33181,332.0178 -3.1695,3.1695 11.0925,-3.1695 -11.0925,-3.168 3.1695,3.168 z" />
    <path
       inkscape:connector-curvature="0"
       id="path214"
       style="fill:none;stroke:#000000;stroke-width:1.58442008;stroke-linecap:butt;stroke-linejoin:miter;stroke-miterlimit:4;stroke-dasharray:none;stroke-opacity:1"
       d="m 332.05381,352.7058 0,18.3375" />
    <path
       inkscape:connector-curvature="0"
       id="path216"
       style="fill:#000000;fill-opacity:1;fill-rule:evenodd;stroke:none"
       d="m 335.88931,362.7543 -3.8205,10.3875 -3.819,-10.3875 c 2.2545,1.659 5.34,1.65 7.6395,0 z" />
    <path
       inkscape:connector-curvature="0"
       id="path218"
       style="fill:#ffffff;fill-opacity:1;fill-rule:nonzero;stroke:none"
       d="m 290.97331,354.4713 46.38405,0 0,-12.43243 -46.38405,0 0,12.43243 z" />
    <path
       inkscape:connector-curvature="0"
       id="path220"
       style="fill:none;stroke:#000000;stroke-width:0.52491897;stroke-linecap:butt;stroke-linejoin:miter;stroke-miterlimit:4;stroke-dasharray:none;stroke-opacity:1"
       d="m 290.97331,354.4713 46.38405,0 0,-12.43243 -46.38405,0 0,12.43243 z" />
    <text
       style="font-variant:normal;font-size:10.22079945px;font-family:'DejaVu Sans';-inkscape-font-specification:DejaVuSans-Identity-H;writing-mode:lr-tb;fill:#000000;fill-opacity:1;fill-rule:nonzero;stroke:none"
       id="text224"
       x="312.14655"
       y="351.8428">
      <tspan
         x="312.14655"
         y="351.8428"
         id="tspan226">t</tspan>
    </text>
    <text
       style="font-variant:normal;font-size:13.27525043px;font-family:'DejaVu Sans';-inkscape-font-specification:DejaVuSans-Identity-H;writing-mode:lr-tb;fill:#000000;fill-opacity:1;fill-rule:nonzero;stroke:none"
       id="text228"
       x="330.4437"
       y="337.01804">
      <tspan
         x="330.4437"
         y="337.01804"
         id="tspan230">f</tspan>
    </text>
    <text
       style="font-variant:normal;font-size:6.63763762px;font-family:'DejaVu Sans';-inkscape-font-specification:DejaVuSansOblique-Identity-H;writing-mode:lr-tb;fill:#000000;fill-opacity:1;fill-rule:nonzero;stroke:none"
       id="text232"
       x="335.86594"
       y="324.84637">
      <tspan
         x="335.86594 339.51129 343.72113"
         y="324.84637"
         sodipodi:role="line"
         id="tspan234">cpu</tspan>
    </text>
    <text
       style="font-variant:normal;font-size:6.63763762px;font-family:'DejaVu Sans';-inkscape-font-specification:DejaVuSansBoldOblique-Identity-H;writing-mode:lr-tb;fill:#000000;fill-opacity:1;fill-rule:nonzero;stroke:none"
       id="text236"
       x="335.86594"
       y="333.14325">
      <tspan
         x="335.86594 340.61966 345.37338"
         y="333.14325"
         sodipodi:role="line"
         id="tspan238">gpu</tspan>
    </text>
    <text
       style="font-variant:normal;font-size:6.63763762px;font-family:'DejaVu Sans';-inkscape-font-specification:DejaVuSansOblique-Identity-H;writing-mode:lr-tb;fill:#000000;fill-opacity:1;fill-rule:nonzero;stroke:none"
       id="text240"
       x="335.86594"
       y="341.44012">
      <tspan
         x="335.86594 339.31754 343.52737"
         y="341.44012"
         sodipodi:role="line"
         id="tspan242">spu</tspan>
    </text>
    <text
       style="font-variant:normal;font-size:6.63763762px;font-family:'DejaVu Sans';-inkscape-font-specification:DejaVuSansOblique-Identity-H;writing-mode:lr-tb;fill:#000000;fill-opacity:1;fill-rule:nonzero;stroke:none"
       id="text244"
       x="363.3653"
       y="368.51031">
      <tspan
         x="363.3653 367.57516 371.785"
         y="368.51031"
         sodipodi:role="line"
         id="tspan246">gpu</tspan>
    </text>
    <path
       inkscape:connector-curvature="0"
       id="path248"
       style="fill:#e6e6e6;fill-opacity:1;fill-rule:nonzero;stroke:none"
       d="m 192.38731,354.7683 21.7545,0 c 0.1725,0 0.309,0.1395 0.309,0.309 l 0,68.2095 c 0,0.171 -0.1365,0.3075 -0.309,0.3075 l -21.7545,0 c -0.171,0 -0.309,-0.1365 -0.309,-0.3075 l 0,-68.2095 c 0,-0.1695 0.138,-0.309 0.309,-0.309 z" />
    <path
       inkscape:connector-curvature="0"
       id="path250"
       style="fill:#aaffcc;stroke:#000000;stroke-width:0.90538502;stroke-linecap:butt;stroke-linejoin:miter;stroke-miterlimit:4;stroke-dasharray:none;stroke-opacity:1"
       d="m 192.38731,354.7683 21.7545,0 c 0.1725,0 0.309,0.1395 0.309,0.309 l 0,68.2095 c 0,0.171 -0.1365,0.3075 -0.309,0.3075 l -21.7545,0 c -0.171,0 -0.309,-0.1365 -0.309,-0.3075 l 0,-68.2095 c 0,-0.1695 0.138,-0.309 0.309,-0.309 z" />
    <text
       transform="matrix(0,-1,1,0,0,0)"
       style="font-variant:normal;font-size:9.95646286px;font-family:'DejaVu Sans';-inkscape-font-specification:DejaVuSans-Identity-H;writing-mode:lr-tb;fill:#000000;fill-opacity:1;fill-rule:nonzero;stroke:none"
       id="text254"
       x="-421.70529"
       y="206.01157">
      <tspan
         x="-421.70529 -414.03882 -407.91794 -401.60321 -395.48233 -389.17783 -382.8631 -376.74222 -371.26413 -368.50449 -362.38361"
         y="206.01157"
         sodipodi:role="line"
         id="tspan256">Dependecies</tspan>
    </text>
    <path
       inkscape:connector-curvature="0"
       id="path258"
       style="fill:none;stroke:#000000;stroke-width:1.58442008;stroke-linecap:butt;stroke-linejoin:miter;stroke-miterlimit:4;stroke-dasharray:none;stroke-opacity:1"
       d="m 299.76931,348.6573 c -45.861,0.5685 -25.614,-0.291 -81.1785,-0.4575 -7.2,0.24 -6.7725,1.2015 -6.8205,3.1965 -0.096,3.975 -0.666,14.5515 -0.666,14.5515" />
    <path
       inkscape:connector-curvature="0"
       id="path260"
       style="fill:#000000;fill-opacity:1;fill-rule:evenodd;stroke:none"
       d="m 215.37931,357.8778 -4.371,10.167 -3.2565,-10.578 c 2.163,1.779 5.244,1.935 7.6275,0.411 z" />
    <path
       inkscape:connector-curvature="0"
       id="path262"
       style="fill:none;stroke:#000000;stroke-width:1.58442008;stroke-linecap:butt;stroke-linejoin:miter;stroke-miterlimit:4;stroke-dasharray:none;stroke-opacity:1"
       d="m 174.38731,389.1978 17.046,0" />
    <path
       inkscape:connector-curvature="0"
       id="path264"
       style="fill:#000000;fill-opacity:1;fill-rule:evenodd;stroke:none"
       d="m 183.14581,385.3638 10.386,3.819 -10.386,3.819 c 1.659,-2.2545 1.65,-5.34 0,-7.638 z" />
    <path
       inkscape:connector-curvature="0"
       id="path266"
       style="fill:#000000;fill-opacity:1;fill-rule:nonzero;stroke:none"
       d="m 325.89031,363.6933 c 0,3.4155 -2.7675,6.183 -6.1815,6.183 -3.414,0 -6.1815,-2.7675 -6.1815,-6.183 0,-3.4125 2.7675,-6.18 6.1815,-6.18 3.414,0 6.1815,2.7675 6.1815,6.18 z" />
    <path
       inkscape:connector-curvature="0"
       id="path268"
       style="fill:none;stroke:#000000;stroke-width:0.58798051;stroke-linecap:butt;stroke-linejoin:miter;stroke-miterlimit:4;stroke-dasharray:none;stroke-opacity:1"
       d="m 325.89031,363.6933 c 0,3.4155 -2.7675,6.183 -6.1815,6.183 -3.414,0 -6.1815,-2.7675 -6.1815,-6.183 0,-3.4125 2.7675,-6.18 6.1815,-6.18 3.414,0 6.1815,2.7675 6.1815,6.18 z" />
    <text
       style="font-variant:normal;font-size:9.95646286px;font-family:'DejaVu Sans';-inkscape-font-specification:DejaVuSansBold-Identity-H;writing-mode:lr-tb;fill:#ffffff;fill-opacity:1;fill-rule:nonzero;stroke:none"
       id="text272"
       x="316.25031"
       y="367.32404">
      <tspan
         x="316.25031"
         y="367.32404"
         id="tspan274">4</tspan>
    </text>
    <text
       style="font-variant:normal;font-size:13.27525043px;font-family:'DejaVu Sans';-inkscape-font-specification:DejaVuSans-Identity-H;writing-mode:lr-tb;fill:#000000;fill-opacity:1;fill-rule:nonzero;stroke:none"
       id="text86"
       x="401.59531"
       y="368.42529">
      <tspan
         x="401.59531"
         y="368.42529"
         id="tspan88">B</tspan>
    </text>
  </g>
</svg>
